<svg xmlns="http://www.w3.org/2000/svg" width="335" height="158" viewBox="0 0 335 158">
  <g id="activity" transform="translate(-625 -719)">
    <rect id="矩形_6" data-name="矩形 6" width="335" height="158" transform="translate(625 719)" fill="#fd9e25"/>
    <g id="目標" transform="translate(462.667 195.493)">
      <g id="组_34" data-name="组 34" transform="translate(0 3)">
        <text id="_47" data-name="47" transform="translate(354.333 608.507)" fill="#fff" font-size="65" font-family="Arial-BoldMT, Arial" font-weight="700"><tspan x="0" y="0">47</tspan></text>
        <text id="活動" transform="translate(365.333 644.507)" fill="#fff" font-size="20" font-family="MicrosoftJhengHeiRegular, Microsoft JhengHei"><tspan x="0" y="0">活動</tspan></text>
      </g>
      <g id="椭圆_5" data-name="椭圆 5" transform="translate(233.333 551.507)" fill="none" stroke="#fff" stroke-width="1">
        <circle cx="51" cy="51" r="51" stroke="none"/>
        <circle cx="51" cy="51" r="50.5" fill="none"/>
      </g>
      <g id="active" transform="translate(257.333 575.507)">
        <path id="路径_211" data-name="路径 211" d="M249.293,0a14.625,14.625,0,1,0,14.625,14.625A14.642,14.642,0,0,0,249.293,0Zm2.25,19.688a1.688,1.688,0,0,1-3.375,0V12.375h-1.125a1.687,1.687,0,1,1,0-3.375h2.813a1.688,1.688,0,0,1,1.688,1.687Zm0,0" transform="translate(-209.918)" fill="#fff"/>
        <path id="路径_212" data-name="路径 212" d="M146,350.332a9,9,0,1,1-9-9A9,9,0,0,1,146,350.332Zm0,0" transform="translate(-114.5 -305.332)" fill="#fff"/>
        <path id="路径_213" data-name="路径 213" d="M40.095,71.882c-.241.009-.477.036-.72.036A19.087,19.087,0,0,1,23.159,42.7c-.221-.009-.437-.034-.66-.034A15.767,15.767,0,0,0,6.75,58.418v6.273A15.087,15.087,0,0,1,1.377,76.24a3.937,3.937,0,0,0,2.56,6.928H41.062A3.938,3.938,0,0,0,43.6,76.22a15.093,15.093,0,0,1-3.506-4.338Zm0,0" transform="translate(0 -38.168)" fill="#fff"/>
      </g>
    </g>
  </g>
</svg>
