<svg xmlns="http://www.w3.org/2000/svg" xmlns:xlink="http://www.w3.org/1999/xlink" width="582.814" height="369.027" viewBox="0 0 582.814 369.027">
  <defs>
    <linearGradient id="linear-gradient" x1="0.581" y1="0.043" x2="0.398" y2="0.844" gradientUnits="objectBoundingBox">
      <stop offset="0" stop-color="#2b6bbf"/>
      <stop offset="1" stop-color="#0c98d9"/>
    </linearGradient>
  </defs>
  <g id="banner_btn" transform="translate(-58.415 -58.926)">
    <g id="组_27" data-name="组 27" transform="translate(65.816 118.026)">
      <path id="路径_195" data-name="路径 195" d="M67.862,184.175l430.5-69.024s64.6,260.548,61.282,258.921-418.682,21.489-418.682,21.489Z" transform="translate(-25.436 -115.151)" fill="#2085d9" opacity="0.56"/>
      <path id="路径_197" data-name="路径 197" d="M85.773,163.412l436.488-35.958L488.419,394.865,108.912,371.634Z" transform="translate(-19.65 -108.847)" fill="url(#linear-gradient)"/>
    </g>
    <g id="组_28" data-name="组 28" transform="translate(215.816 195.915)">
      <path id="邁向下一世代" d="M39.768-6.209a2.9,2.9,0,0,1-1.01,2.6,3.679,3.679,0,0,1-1.418.623,15.628,15.628,0,0,1-2.729.172,1.309,1.309,0,0,1-.687-.107,1.3,1.3,0,0,1-.236-.559,5.179,5.179,0,0,0-.709-1.611q1.5.129,2.814.129a1.359,1.359,0,0,0,1.182-.43,2.011,2.011,0,0,0,.279-1.2v-6.553H27.586V-9.2q2.105-.365,4.168-.838L30.787-11.3a.43.43,0,0,1-.129-.236q0-.129.43-.344l.666-.3a1.183,1.183,0,0,1,.322-.086.519.519,0,0,1,.344.215,23.629,23.629,0,0,1,2.9,4.662,1.023,1.023,0,0,1,.064.279q0,.172-.322.3l-.838.344a2.179,2.179,0,0,1-.516.15q-.129,0-.236-.279-.3-.816-.752-1.8-4.318.988-10.506,2.02a3.956,3.956,0,0,0-1.633.451,1.165,1.165,0,0,1-.666.3q-.344,0-.516-.58a16.9,16.9,0,0,1-.666-1.977q2.3-.107,4.318-.344l2.277-.3v-4.318h-8.4V-6.9l.086,3.523q0,.387-.3.387H14.8q-.344,0-.344-.387L14.545-6.9v-4.361l-.086-3.523a.3.3,0,0,1,.344-.344l6.08.086H25.33v-2.6H22.344l-5.629.086q-.365,0-.365-.344l.086-3.395v-3.395L16.35-28.08q0-.344.365-.344l5.629.086h8.83l5.65-.086a.3.3,0,0,1,.344.344l-.086,3.395v3.395l.086,3.395a.3.3,0,0,1-.344.344l-5.65-.086H27.586v2.6h5.758l6.08-.086a.3.3,0,0,1,.344.344l-.086,3.609v1.01ZM34.783-19.357V-22.3h-7.2v2.943Zm0-4.533v-2.729h-7.2v2.729ZM25.33-19.357V-22.3h-6.6v2.943Zm0-4.533v-2.729h-6.6v2.729ZM42.754-1.311A3.92,3.92,0,0,0,41.916.623q-.129.709-.279.816a1.759,1.759,0,0,1-.773.129q-8.572.537-15.576.537-8.25,0-11.537-1.547a8.929,8.929,0,0,1-4.168-4A29.851,29.851,0,0,1,5.479.43a3.608,3.608,0,0,0-.967.988q-.215.43-.516.43a.658.658,0,0,1-.537-.387Q2.793.344,2.234-.795A23.671,23.671,0,0,0,4.963-2.471,16.994,16.994,0,0,0,8.078-5.414v-7.3H5.693l-2.578.086q-.365,0-.365-.387v-1.848a.323.323,0,0,1,.365-.365l2.621.086H7.691l2.686-.086a.3.3,0,0,1,.344.344l-.086,3.352v5.908A8.428,8.428,0,0,0,14.781-1.59Q17.338-.451,24.234-.451,33.387-.451,42.754-1.311ZM41.314-31.775q0,.344-.365.344l-6.209-.086H32.678l.086,1.719q0,.344-.387.344h-1.8a.3.3,0,0,1-.344-.344q0-.021.021-.516.043-.516.064-1.2H23.182l.086,1.676q0,.344-.387.344h-1.8q-.322,0-.322-.344,0-.537.043-1.676H19.164l-6.187.086q-.365,0-.365-.344v-1.482a.323.323,0,0,1,.365-.365l6.188.086H20.8a18.023,18.023,0,0,0-.215-3.309q1.225.064,2.557.236.473.064.473.387a1.263,1.263,0,0,1-.215.58,6.139,6.139,0,0,0-.215,1.934v.172h7.133a15.635,15.635,0,0,0-.279-3.266q1.289.064,2.6.236.494.064.494.344a1.215,1.215,0,0,1-.236.623,6.332,6.332,0,0,0-.215,1.977v.086H34.74l6.209-.086a.323.323,0,0,1,.365.365ZM10.377-21.7q.215.193.215.322a.892.892,0,0,1-.258.43l-.881.967q-.43.473-.559.473-.086,0-.236-.15A27.6,27.6,0,0,0,3.072-24.02q-.215-.129-.215-.215,0-.129.3-.451l.795-.967q.258-.3.408-.3a.748.748,0,0,1,.3.129A32.733,32.733,0,0,1,10.377-21.7ZM11-30.852a.471.471,0,0,1,.172.3q0,.107-.279.408l-.881,1.01q-.387.43-.516.43-.086,0-.215-.15a24.109,24.109,0,0,0-5.113-4.318q-.215-.129-.215-.236,0-.129.3-.473l.795-.881q.3-.322.451-.322a.692.692,0,0,1,.3.107A25.771,25.771,0,0,1,11-30.852Zm72.1,2.814-.086,6.961V-8.7l.043,7.025a3.665,3.665,0,0,1-1.053,2.9q-.967.795-5.586.795-.688,0-.795-.129a1.775,1.775,0,0,1-.258-.709,7.045,7.045,0,0,0-.881-1.934q2.32.172,3.609.172a2.761,2.761,0,0,0,1.7-.387,1.49,1.49,0,0,0,.451-1.225V-25.867H51.777v21.42l.086,6.467q0,.365-.344.365H49.307q-.344,0-.344-.365l.086-6.682V-21.205l-.086-6.832a.3.3,0,0,1,.344-.344l6.209.086h4.576a54.711,54.711,0,0,0,2.771-5.457,11.6,11.6,0,0,0,.752-2.514,21.6,21.6,0,0,1,2.814.709q.43.193.43.494a.714.714,0,0,1-.344.559,2.437,2.437,0,0,0-.666.881q-1.289,2.793-2.771,5.328H76.549l6.166-.086Q83.1-28.381,83.1-28.037ZM73.477-5.285q0,.344-.365.344H71.264q-.387,0-.387-.344V-7.176H60.715v2.191q0,.365-.344.365H58.523a.323.323,0,0,1-.365-.365l.086-7.111V-15.4l-.086-4.447A.3.3,0,0,1,58.5-20.2l4.641.086h5.35l4.641-.086a.3.3,0,0,1,.344.344l-.086,3.889v3.674Zm-2.6-4.232v-8.25H60.715v8.25Zm58.072-20.926a.3.3,0,0,1-.344.344l-5.758-.086H110.43v6.6A70.07,70.07,0,0,1,124.2-16.414q.236.15.236.279a.994.994,0,0,1-.236.473l-.924,1.268q-.344.494-.494.494a.619.619,0,0,1-.3-.129,71,71,0,0,0-12.053-6.832V-4.705l.086,7.025q0,.365-.344.365H107.83q-.344,0-.344-.365l.086-7.025v-25.48H97.066l-5.779.086a.3.3,0,0,1-.344-.344V-32.57a.3.3,0,0,1,.344-.344l5.779.086h25.781l5.758-.086a.3.3,0,0,1,.344.344ZM172.82-15.92a.3.3,0,0,1-.344.344l-5.822-.086H141.281l-5.822.086a.3.3,0,0,1-.344-.344v-2.3a.3.3,0,0,1,.344-.344l5.822.086h25.373l5.822-.086a.3.3,0,0,1,.344.344Zm45.01-6.295a.266.266,0,0,1-.3.3L211.943-22h-1.59v6.123l.086,7.348a.3.3,0,0,1-.344.344h-2a.3.3,0,0,1-.344-.344v-2.062h-8.959v2.063a.3.3,0,0,1-.344.344H196.41q-.3,0-.3-.344l.086-7.262V-22H187.73V-2.428h21.162l6.209-.086q.365,0,.365.344V-.129q0,.344-.365.344L208.893.129H187.73v2.3q0,.344-.387.344h-2.127a.3.3,0,0,1-.344-.344l.086-6.166V-22h-.838l-5.586.086a.266.266,0,0,1-.3-.3v-2.041q0-.344.3-.344l5.586.086h.838V-28.6a50.221,50.221,0,0,0-.3-5.951,25.426,25.426,0,0,1,2.965.258q.494.086.494.408a1.364,1.364,0,0,1-.086.387,3.55,3.55,0,0,0-.129.451,34.226,34.226,0,0,0-.172,4.34v4.189H196.2v-4.92a37.3,37.3,0,0,0-.3-5.285,28.226,28.226,0,0,1,2.857.258q.516.064.516.365a3.824,3.824,0,0,1-.258.967,17.329,17.329,0,0,0-.215,3.738v4.877h8.959V-29.3a38.477,38.477,0,0,0-.3-5.414,28.226,28.226,0,0,1,2.857.258q.537.064.537.365a3.33,3.33,0,0,1-.279.967,18.341,18.341,0,0,0-.215,3.867v4.748h1.59l5.586-.086q.3,0,.3.344Zm-10.076,9.2V-22h-8.959v8.98Zm54.484,7.648q-.924,7.928-4.232,7.928-2.578,0-5.35-3.072a25.442,25.442,0,0,1-4.189-6.66,47.928,47.928,0,0,1-3.738-13.02l-4.318.537q-3.717.43-6.016.816a.924.924,0,0,1-.172.021q-.236,0-.279-.365l-.258-2.062v-.172q0-.236.365-.236,1.439,0,6.1-.559l4.211-.537q-.451-3.566-.645-7.3a43.235,43.235,0,0,0-.494-5.414,19.984,19.984,0,0,1,3.008.193q.58.064.58.43,0,.043-.236.838a4.883,4.883,0,0,0-.15,1.5q0,.752.043,2.32.236,4.168.623,7.133l7.262-.924q2.814-.344,4.748-.666.516-.064,1.031-.172.3-.043.344-.043a.706.706,0,0,1,.172-.021q.172,0,.215.322l.193,2.063a.925.925,0,0,1,.021.172q0,.193-.344.236l-6.187.709-7.133.881a43.36,43.36,0,0,0,3.48,12.053,21.481,21.481,0,0,0,3.932,6.1q1.719,1.783,2.922,1.783,1.547,0,2.105-7.219A6.634,6.634,0,0,0,261.615-6.6q.688.344.688.688A3.883,3.883,0,0,1,262.238-5.371ZM235.855-34.633a.831.831,0,0,1-.365.623,5.329,5.329,0,0,0-.881,1.676,53.935,53.935,0,0,1-3.33,7.262V-3.953l.086,6.811q0,.365-.408.365h-2.105q-.344,0-.344-.365l.086-6.811V-14.91q0-1.891.086-5.951a54.873,54.873,0,0,1-4.9,5.994q-.387.387-.559.387-.258,0-.451-.43a5.888,5.888,0,0,0-1.182-1.8,45.821,45.821,0,0,0,10.484-16.414,15.346,15.346,0,0,0,.688-2.986,17.809,17.809,0,0,1,2.643,1.01Q235.855-34.934,235.855-34.633Zm21.721,5.779a.494.494,0,0,1,.15.258q0,.15-.365.451l-1.117.816q-.387.344-.516.344t-.258-.193a25.313,25.313,0,0,0-4.748-5.07q-.193-.172-.193-.279,0-.129.408-.473l1.01-.752a.95.95,0,0,1,.43-.215.433.433,0,0,1,.258.129A32.538,32.538,0,0,1,257.576-28.854Z" transform="translate(0 47)" fill="#f7f7f6"/>
      <rect id="矩形_21" data-name="矩形 21" width="250" height="73" rx="36.5" transform="translate(11.426 97.424)" fill="#fff"/>
      <path id="請點擊" d="M16.293-28.2H3v-3.485H7.958A21.862,21.862,0,0,0,6.4-34.707l3.968-1.155a34.847,34.847,0,0,1,1.974,4.178h3.947Zm24.125,8.629H16.86v-3.212h9.847v-2.037H18.582v-2.96h8.125v-1.89H17.595v-3.107h9.112v-2.667h3.737v2.667h9.112v3.107H30.444v1.89h8.083v2.96H30.444v2.037h9.973ZM15.1-21.836H3.947v-3.569H15.1Zm0,6.362H3.947v-3.611H15.1ZM38.444-1.386q0,3.653-4.409,3.653-.924,0-2.352-.084L30.4-1.323h3.4q.861,0,.861-.9V-4.388H22.655a13.849,13.849,0,0,1-3.128,6.971L16.419.336q2.9-3.317,2.9-9.406v-8.524H38.444ZM34.665-12.472v-2.016H23.054v2.016Zm0,5.123V-9.511H23.012a16.62,16.62,0,0,1-.084,2.163ZM15.1,1.281H11.443V-.651h-3.7V2.184h-3.8V-12.724H15.1Zm-3.653-5.5V-9.2h-3.7V-4.22ZM83.417-25.237H74.956v7.223h7.139V2.226H78.336V-.168H69.959V2.226h-3.7v-20.24H71.2v-17.28h3.758v6.446h8.461ZM78.336-3.821V-14.445H69.959V-3.821ZM64.794-7.748H45.918v-3.338h7.874v-2.75H46.947v-3.275h6.845v-2.415h-6.8V-34.539h16.86v15.012H57.193v2.415h6.7v3.275h-6.7v2.75h7.6ZM61.057-22.571v-8.776H57.193v8.776Zm-.5-7.181a34.423,34.423,0,0,1-1.218,6.278l-1.68-.567a35.842,35.842,0,0,0,1.134-6.236Zm-6.761,7.181v-8.776H49.845v8.776Zm-.861-1.554-1.722.609a48.221,48.221,0,0,0-.777-6.152l1.68-.609A46.75,46.75,0,0,1,52.931-24.125ZM65.151-.483,62.085.252A36.375,36.375,0,0,0,60.28-6.32l2.981-.651A32.932,32.932,0,0,1,65.151-.483ZM50.6-6.152A27.292,27.292,0,0,1,48.585,2.5L45.5,1.071a37.1,37.1,0,0,0,1.848-7.958Zm9.994,6.8-3.191.5A28.237,28.237,0,0,0,55.682-6.11l3.149-.42A37.4,37.4,0,0,1,60.595.651Zm-5.207.861-3.275.42A32.9,32.9,0,0,0,51.335-5.9L54.4-6.236A39.4,39.4,0,0,1,55.388,1.512Zm53.435-20.6h-8.251v2.058h3.191v-1.2h3.443v3.38H90.43v-3.38h3.4v1.2h3.3v-2.058H88.876v-2.331h8.251v-1.365h-6.7v-7.874h6.7v-1.26H88.876v-2.31h8.251v-1.386h3.443v1.386h8.209v2.31h-8.209v1.26h6.677v7.874h-6.677v1.365h8.251Zm-5.06-8.608v-1.113h-3.191v1.113Zm-6.635,0v-1.113h-3.3v1.113Zm6.635,2.918V-25.93h-3.191v1.155Zm-6.635,0V-25.93h-3.3v1.155Zm29.164-2.52h-4.85q-2.541,0-2.541-2.625V-32h-4.094q-.21,4.3-4.85,5.648l-1.932-2.583a5.658,5.658,0,0,0,2.52-1.522,3.8,3.8,0,0,0,.609-2.32v-2.016h11.275v4.178q0,.693.588.693h3.275Zm.336,9.574-1.113,3.149a26.621,26.621,0,0,1-8.125-2.457,28.128,28.128,0,0,1-7.706,2.373l-1.491-2.981A29.573,29.573,0,0,0,114.03-19a17.087,17.087,0,0,1-3.527-3.926H109.1v-2.75h15.642v2.75a25.974,25.974,0,0,1-3.989,3.968A34.113,34.113,0,0,0,126.627-17.721Zm-6.236-5.207h-6.131a9.527,9.527,0,0,0,3,2.373A11.564,11.564,0,0,0,120.392-22.928Zm5.942,20.219H109.6l.042,1.2q0,2.247-1.26,2.95t-6.047.745l-1.2-3.212,3.947-.042q.861,0,.861-.945l-.042-.693H88.876V-5.417H105.9V-6.929H90.892v-2.5H105.9v-1.449q-10.015.252-12.724.21l-1.155-2.792q17.91.231,28.6-1.386l1.848,2.583q-6.32.9-12.871,1.26v1.575h14.76v2.5H109.6v1.512h16.734Z" transform="translate(71.426 151.424)" fill="#2b6bbf"/>
      <text id="AND" transform="translate(107.267 83.418)" fill="#a2c9e8" font-size="24" font-family="Montserrat-Bold, Montserrat" font-weight="700" letter-spacing="0.2em"><tspan x="0" y="0">AND</tspan></text>
    </g>
    <g id="组_29" data-name="组 29" transform="translate(58.415 64.338)">
      <circle id="椭圆_6" data-name="椭圆 6" cx="51.462" cy="51.462" r="51.462" transform="translate(453.582 100.172) rotate(-76.717)" fill="none" stroke="#fff" stroke-miterlimit="10" stroke-width="9"/>
      <circle id="椭圆_7" data-name="椭圆 7" cx="15.687" cy="15.687" r="15.687" transform="translate(16.736 353.427) rotate(-80.783)" fill="none" stroke="#28bde2" stroke-miterlimit="10" stroke-width="9"/>
      <circle id="椭圆_8" data-name="椭圆 8" cx="8.646" cy="8.646" r="8.646" transform="translate(0 299.543) rotate(-76.717)" fill="#2c92e8"/>
      <path id="路径_198" data-name="路径 198" d="M409.618,102.663a3.5,3.5,0,1,1-3.5-3.5,3.5,3.5,0,0,1,3.5,3.5Z" transform="translate(121.432 -62.368)" fill="#2c92e8"/>
      <circle id="椭圆_9" data-name="椭圆 9" cx="12.139" cy="12.139" r="12.139" transform="translate(364.525 33.103)" fill="#cac35b"/>
      <path id="路径_199" data-name="路径 199" d="M418.6,380.5a4.68,4.68,0,1,1-4.68-4.681,4.68,4.68,0,0,1,4.68,4.681Z" transform="translate(121.807 -46.716)" fill="#2c92e8"/>
    </g>
    <g id="组_30" data-name="组 30" transform="translate(491.57 372.529)">
      <path id="路径_200" data-name="路径 200" d="M401.982,385.978l2.273-8.953L333.612,364.4,316.59,430.951,338.708,419.3l17.69,30.363,41.156-21.676,2.273-8.953-19.963-21.41Z" transform="translate(-396.918 -396.588)" fill="#fff"/>
      <path id="路径_201" data-name="路径 201" d="M398.813,377.345,334.6,356.026l-15.987,65.745,20.774-11.507L356,440.258l38.655-21.412L378.04,388.852Z" transform="translate(-392.476 -397.026)" fill="#e5263d"/>
    </g>
    <g id="组_31" data-name="组 31" transform="translate(77.462 91.679)">
      <path id="路径_202" data-name="路径 202" d="M163.864,195.859,90.935,111.9l19.057-21.689Z" transform="translate(-75.248 -90.215)" fill="#fcc30d"/>
      <path id="路径_203" data-name="路径 203" d="M169.766,171.764c-.7-2.8-22.388-76.1-22.388-76.1l22.388,3.693Z" transform="translate(-72.055 -89.907)" fill="#fcc30d"/>
      <path id="路径_204" data-name="路径 204" d="M138.119,186.116,79.35,151.134l-3.261,17.491Z" transform="translate(-76.088 -86.768)" fill="#fcc30d"/>
    </g>
  </g>
</svg>
