<svg xmlns="http://www.w3.org/2000/svg" width="66.148" height="130.566" viewBox="0 0 66.148 130.566">
  <g id="book_download" transform="translate(0.572 0.573)">
    <path id="路径_6299" data-name="路径 6299" d="M97.716,215.436h0a32.608,32.608,0,0,1,44.431-11.892h0a32.6,32.6,0,0,1,11.892,44.432h0a32.61,32.61,0,0,1-44.431,11.891h0a32.617,32.617,0,0,1-11.892-44.431Z" transform="translate(-93.379 -199.204)" fill="none" stroke="#c51b2f" stroke-width="1" fill-rule="evenodd"/>
    <path id="路径_6300" data-name="路径 6300" d="M154.143,248.436h-3.676V254.2a1.479,1.479,0,0,1-1.5,1.393H130.6a1.455,1.455,0,0,1-1.477-1.393v-5.761h-3.7V254.2a5.021,5.021,0,0,0,5.178,4.864h18.362a5,5,0,0,0,5.179-4.864v-5.761Zm-1.039-9.2L140.041,251.58a.332.332,0,0,1-.525,0L126.5,239.237a.306.306,0,0,1,0-.489l2.851-2.754,8.237,7.814V227.292a.673.673,0,0,1,.678-.668h3.066a.673.673,0,0,1,.7.668v16.516l8.193-7.814,2.885,2.754a.375.375,0,0,1,0,.489Z" transform="translate(-107.281 -210.349)" fill="#c51b2f" fill-rule="evenodd"/>
    <g id="book_download-2" data-name="book_download" transform="translate(0 64.995)">
      <path id="路径_6299-2" data-name="路径 6299" d="M97.716,215.436h0a32.608,32.608,0,0,1,44.431-11.892h0a32.6,32.6,0,0,1,11.892,44.432h0a32.61,32.61,0,0,1-44.431,11.891h0a32.617,32.617,0,0,1-11.892-44.431Z" transform="translate(-93.379 -199.204)" fill="#c51b2f" fill-rule="evenodd"/>
      <path id="路径_6300-2" data-name="路径 6300" d="M154.143,248.436h-3.676V254.2a1.479,1.479,0,0,1-1.5,1.393H130.6a1.455,1.455,0,0,1-1.477-1.393v-5.761h-3.7V254.2a5.021,5.021,0,0,0,5.178,4.864h18.362a5,5,0,0,0,5.179-4.864v-5.761Zm-1.039-9.2L140.041,251.58a.332.332,0,0,1-.525,0L126.5,239.237a.306.306,0,0,1,0-.489l2.851-2.754,8.237,7.814V227.292a.673.673,0,0,1,.678-.668h3.066a.673.673,0,0,1,.7.668v16.516l8.193-7.814,2.885,2.754a.375.375,0,0,1,0,.489Z" transform="translate(-107.281 -210.349)" fill="#fff" fill-rule="evenodd"/>
    </g>
  </g>
</svg>
