<svg xmlns="http://www.w3.org/2000/svg" width="515.503" height="512.226" viewBox="0 0 515.503 512.226">
  <g id="circle" transform="translate(-413.001 -165.486)">
    <path id="路径_54" data-name="路径 54" d="M128.809,475.294c18.257-29.458,35.216-56.869,52.247-84.236,1.7-2.728,3.955-5.944,7.418-5.323a82.5,82.5,0,0,1,29.206,10.93c2.957,1.84,1.908,5.752,1.319,8.938q-6.824,36.919-13.612,73.842c-.44,2.383-1.05,4.733-1.532,7.107-3.58,17.679-3.592,17.737-21.912,12.336C164.108,493.632,146.821,487.1,128.809,475.294Z" transform="translate(417.589 168.782)" fill="#dd1568"/>
    <g id="组_6041" data-name="组 6041" transform="translate(469.012 141.185) rotate(9)">
      <path id="路径_60" data-name="路径 60" d="M264.409,52.611c0-13.741-.188-27.484.065-41.22.178-9.626,2.757-12.3,11.258-11.139,18.385,2.5,36.9,4.569,54.53,10.873,6.172,2.207,7.937,5.191,5.748,10.973q-16.3,43.041-33,85.924c-2.769,7.1-4.564,7.581-13.318,5.895-25.284-4.871-25.29-4.871-25.334-29.785q-.028-15.761,0-31.521Z" transform="translate(-4.948)" fill="#e5263d"/>
      <g id="组_4" data-name="组 4" transform="translate(263.813 43.729)">
        <path id="路径_65" data-name="路径 65" d="M312.043,46.315a1.75,1.75,0,1,1,1.752,1.751,1.75,1.75,0,0,1-1.752-1.751" transform="translate(-269.654 -44.563)" fill="#fff"/>
        <path id="路径_66" data-name="路径 66" d="M315.792,48.82a2.332,2.332,0,0,1,2.119,2.325V56a.679.679,0,0,1-1.357,0V51.829c0-.156-.045-.368-.331-.368-.2,0-.238.209-.246.342V64.3a.975.975,0,1,1-1.951,0V57.1a.265.265,0,0,0-.277-.286h0a.269.269,0,0,0-.282.286v7.2a.974.974,0,1,1-1.949,0V51.8c-.007-.133-.049-.342-.245-.342-.288,0-.332.212-.332.368V56a.678.678,0,1,1-1.356,0V51.144a2.333,2.333,0,0,1,2.122-2.325.966.966,0,0,1,.128-.011h3.826a1.047,1.047,0,0,1,.133.011" transform="translate(-269.608 -44.642)" fill="#fff"/>
        <path id="路径_67" data-name="路径 67" d="M301.372,47.253a1.657,1.657,0,1,0-1.655,1.657,1.657,1.657,0,0,0,1.655-1.657" transform="translate(-269.392 -44.582)" fill="#fff"/>
        <path id="路径_68" data-name="路径 68" d="M296.317,51.086l-1.378,4.486s-.246.822.451,1.027.9-.6.9-.6l1.112-3.744s.06-.288.277-.226.134.37.134.37l-1.933,7.016h1.8v5.024a.863.863,0,0,0,1.726,0v-5.02h.491v5.024a.864.864,0,1,0,1.728,0V59.419h1.8L301.494,52.4s-.082-.308.135-.37.278.226.278.226L303.016,56s.212.8.9.6.452-1.027.452-1.027L303,51.086s-.493-1.3-1.583-1.3H297.9c-1.089,0-1.583,1.3-1.583,1.3" transform="translate(-269.333 -44.661)" fill="#fff"/>
        <path id="路径_69" data-name="路径 69" d="M291.255,47.253A1.657,1.657,0,1,0,289.6,48.91a1.657,1.657,0,0,0,1.656-1.657" transform="translate(-269.203 -44.582)" fill="#fff"/>
        <path id="路径_70" data-name="路径 70" d="M286.2,51.086l-1.377,4.486s-.247.822.451,1.027.9-.6.9-.6l1.112-3.744s.06-.288.277-.226.134.37.134.37l-1.933,7.016h1.8v5.024a.864.864,0,0,0,1.727,0v-5.02h.491v5.024a.864.864,0,0,0,1.727,0V59.419h1.8L291.377,52.4s-.082-.308.133-.37.278.226.278.226L292.9,56s.212.8.9.6.452-1.027.452-1.027l-1.378-4.486s-.492-1.3-1.583-1.3h-3.512c-1.089,0-1.584,1.3-1.584,1.3" transform="translate(-269.144 -44.661)" fill="#fff"/>
        <path id="路径_71" data-name="路径 71" d="M307.082,56.686a1.379,1.379,0,1,0-.976-.4,1.38,1.38,0,0,0,.976.4" transform="translate(-269.535 -44.738)" fill="#fff"/>
        <path id="路径_72" data-name="路径 72" d="M303.736,61.036a.479.479,0,0,0,.2.653.461.461,0,0,0,.592-.192l.75-2.392s.131-.16.131.006V64.74h0a.708.708,0,1,0,1.416,0V62.518s-.041-.315.212-.315.214.315.214.315V64.74a.71.71,0,0,0,1.419,0V59.109c0-.166.087-.047.087-.047l.588,1.638a3.9,3.9,0,0,0,.334.763.523.523,0,0,0,.684-.283.516.516,0,0,0-.056-.5h0c-.017-.053-.878-2.167-.98-2.463-.311-.909-.877-.9-1.423-.916s-.871,0-.871,0-.348-.014-1.069.007-.946.392-1.739,2.432c-.113.294-.5,1.245-.5,1.3Z" transform="translate(-269.497 -44.801)" fill="#fff"/>
        <path id="路径_73" data-name="路径 73" d="M276.165,46.315a1.75,1.75,0,1,0-1.751,1.751,1.75,1.75,0,0,0,1.751-1.751" transform="translate(-268.917 -44.563)" fill="#fff"/>
        <path id="路径_74" data-name="路径 74" d="M272.323,48.82a2.333,2.333,0,0,0-2.119,2.325V56a.679.679,0,1,0,1.358,0V51.829c0-.156.045-.368.331-.368.2,0,.238.209.247.342V64.3a.975.975,0,1,0,1.949,0V57.1a.266.266,0,0,1,.278-.286h0a.267.267,0,0,1,.281.286v7.2a.975.975,0,0,0,1.95,0V51.8c.006-.133.05-.342.246-.342.287,0,.33.212.33.368V56a.679.679,0,0,0,1.357,0V51.144a2.332,2.332,0,0,0-2.121-2.325,1,1,0,0,0-.129-.011h-3.826a1.085,1.085,0,0,0-.134.011" transform="translate(-268.871 -44.642)" fill="#fff"/>
        <path id="路径_75" data-name="路径 75" d="M269.218,65.457a.426.426,0,0,1-.07-.006.373.373,0,0,1-.3-.435l1.554-8.24a.373.373,0,0,1,.732.138l-1.554,8.239a.374.374,0,0,1-.366.3" transform="translate(-268.845 -44.786)" fill="#fff"/>
        <path id="路径_76" data-name="路径 76" d="M279.52,56a.5.5,0,0,0-.928.266.914.914,0,0,0,.049.221L280.031,59a.89.89,0,0,1,.085.332v5.4h0a.679.679,0,1,0,1.358,0V62.6s-.038-.3.2-.3.2.3.2.3v2.132a.681.681,0,0,0,1.362,0v-5.4A.9.9,0,0,1,283.33,59l1.285-2.324a2.26,2.26,0,0,0,.157-.414.5.5,0,0,0-.926-.264h-.006c-.04.035-.684,1.181-.9,1.394a.56.56,0,0,1-.426.2h-1.671a.56.56,0,0,1-.427-.2c-.215-.213-.857-1.359-.9-1.394Z" transform="translate(-269.028 -44.773)" fill="#fff"/>
        <path id="路径_77" data-name="路径 77" d="M281.716,56.686a1.379,1.379,0,1,0-.976-.4,1.38,1.38,0,0,0,.976.4" transform="translate(-269.06 -44.738)" fill="#fff"/>
        <path id="路径_78" data-name="路径 78" d="M281.7,58.712l1.559,1.137L284,62.578h-4.6l.743-2.728Z" transform="translate(-269.043 -44.828)" fill="#fff"/>
      </g>
    </g>
    <g id="组_6050" data-name="组 6050" transform="translate(61.541 -112.802) rotate(9)">
      <g id="组_6042" data-name="组 6042" transform="translate(433.825 187)">
        <path id="路径_59" data-name="路径 59" d="M346.107,140.547c-8.125-5.067-15.558-9.769-23.06-14.358-5.017-3.069-5.611-7.578-4.131-12.61,1.139-3.874,2.678-7.633,4.118-11.414,8.935-23.459,17.754-46.964,26.914-70.334,3.364-8.581,7.431-10.43,14.944-6.921,17.683,8.259,34.437,18.063,48.8,31.5,3.561,3.331,3.7,7.4.728,10.775C392.513,92.021,370.956,117.2,346.107,140.547Z" transform="translate(-5.956 -0.435)" fill="#dda63b"/>
        <g id="组_5" data-name="组 5" transform="translate(334.944 69.109)">
          <path id="路径_79" data-name="路径 79" d="M354.3,101.864v1a.161.161,0,0,0,0,.023.217.217,0,0,0,0,.024.469.469,0,0,0,.46.448h11.76a.471.471,0,0,0,.462-.469h0v-1.129A18.238,18.238,0,0,0,379.6,87.735l.006-.038a.322.322,0,0,0,.007-.066.472.472,0,0,0-.473-.473H341.808a.473.473,0,0,0-.475.473l.025.213a18.292,18.292,0,0,0,12.942,14.02" transform="translate(-341.333 -70.74)" fill="#fff"/>
          <path id="路径_80" data-name="路径 80" d="M367.424,70.913c-.154.219-3.76,5.411.081,9.61,1.761,1.926,1.608,3.627,1.106,4.775h2.463a6.057,6.057,0,0,0-1.706-6.007c-2.83-3.093.036-7.274.078-7.34a.923.923,0,0,0-.4-1.379,1.31,1.31,0,0,0-1.622.341" transform="translate(-341.79 -70.427)" fill="#fff"/>
          <path id="路径_81" data-name="路径 81" d="M361.042,85.3h2.465c.5-1.7.292-3.821-1.709-6.006-2.83-3.1.033-7.274.08-7.343a.922.922,0,0,0-.4-1.377,1.309,1.309,0,0,0-1.62.341c-.154.218-3.763,5.411.081,9.609,1.762,1.928,1.608,3.629,1.106,4.776" transform="translate(-341.648 -70.427)" fill="#fff"/>
          <path id="路径_82" data-name="路径 82" d="M352.287,70.913c-.156.219-3.762,5.411.08,9.61,1.762,1.927,1.609,3.628,1.108,4.775h2.464c.5-1.695.292-3.821-1.71-6.007-2.83-3.093.036-7.274.082-7.341a.924.924,0,0,0-.4-1.378,1.3,1.3,0,0,0-1.619.341" transform="translate(-341.507 -70.427)" fill="#fff"/>
        </g>
      </g>
    </g>
    <g id="组_6049" data-name="组 6049" transform="translate(72.783 -100.668) rotate(9)">
      <path id="路径_64" data-name="路径 64" d="M432.429,73.23c18.167,16.14,30.189,33.379,41.113,51.439,4.037,6.675,3.1,9.867-4.082,13.514q-40.1,20.352-80.437,40.235c-7.064,3.485-8.581,2.833-14.039-4.3-4.913-6.421-9.6-13.02-15.24-20.713C382.459,126.313,406.909,100.744,432.429,73.23Z" transform="translate(413.267 174.63)" fill="#4d9f39"/>
      <g id="组_6" data-name="组 6" transform="translate(795.183 286.587)">
        <path id="路径_83" data-name="路径 83" d="M433.893,126.3a1.061,1.061,0,0,0,1.912-.922l-5.83-12.086a1.062,1.062,0,0,0-1.972.155l-11.08,36.8-3.04-17.706a1.061,1.061,0,0,0-1.979-.324l-4.9,9.092L404.822,126.1a1.061,1.061,0,0,0-2.02-.282l-5.08,11.411H383.4a1.061,1.061,0,1,0,0,2.122h15.011a1.062,1.062,0,0,0,.969-.63l3.862-8.675,2.111,14.755a1.062,1.062,0,0,0,1.985.353l4.972-9.22,3.282,19.118a1.06,1.06,0,0,0,.98.88h.066a1.061,1.061,0,0,0,1.016-.756l11.593-38.506Z" transform="translate(-382.339 -112.696)" fill="#fff"/>
        <path id="路径_84" data-name="路径 84" d="M445.036,135.918c0-2.594-1.664-4.7-4.185-4.7-1.26,0-2.782,1.38-3.607,2.229-.825-.851-2.245-2.232-3.506-2.232a4.41,4.41,0,0,0-4.288,4.7,4.75,4.75,0,0,0,1.337,3.323l6.463,6.475,6.454-6.468h0A4.756,4.756,0,0,0,445.036,135.918Z" transform="translate(-383.221 -113.043)" fill="#fff"/>
      </g>
    </g>
    <g id="组_6047" data-name="组 6047" transform="translate(56.539 -76.085) rotate(7)">
      <path id="路径_56" data-name="路径 56" d="M399.842,231.654c-14.365-41.177-16.021-30.508,16.362-47.8,20.043-10.7,40.656-20.348,61.1-30.278,5.909-2.868,10.116-1.752,12.2,3.229,7.528,18.028,13.435,36.556,16.069,56.006.765,5.642-1.087,10-7.076,10.514C465.476,226.149,432.625,231.567,399.842,231.654Z" transform="translate(412.7 173.155)" fill="#c51b2f"/>
      <g id="组_7" data-name="组 7" transform="translate(831.955 359.031)">
        <path id="路径_85" data-name="路径 85" d="M422.833,189.325a1.27,1.27,0,0,1,1.133.161c3.923,2.267,7.837,4.551,11.781,6.783a2,2,0,0,1,1.152,1.978c-.033,6.575-.017,13.15-.018,19.725a1.612,1.612,0,0,1-.293,1.129,7.335,7.335,0,0,1-.838-.154c-3.9-1.168-7.81-2.333-11.708-3.525-1.168-.356-1.192-.39-1.2-1.566-.02-3.249-.008-6.5-.009-9.749V189.325Z" transform="translate(-419.869 -186.573)" fill="#fff"/>
        <path id="路径_86" data-name="路径 86" d="M452.884,189.284V212.9c0,.3.006.6,0,.907-.033,1.215-.026,1.244-1.141,1.593-2.306.72-4.622,1.41-6.935,2.106q-2.386.718-4.778,1.415a1.6,1.6,0,0,1-1.1.123,3.714,3.714,0,0,1-.176-1.773q-.012-9.186,0-18.372c0-.378.007-.756.008-1.134a1.168,1.168,0,0,1,.617-1.122c.265-.144.521-.3.783-.456q5.594-3.228,11.193-6.452a1.992,1.992,0,0,1,1.529-.451Z" transform="translate(-420.166 -186.573)" fill="#fff"/>
        <path id="路径_87" data-name="路径 87" d="M421.111,189.249a4.652,4.652,0,0,1,.2,2.241q.021,11.125.009,22.252c0,.6.018,1.211,0,1.816a1.017,1.017,0,0,0,.871,1.121c3.059.849,6.11,1.726,9.165,2.588,1.455.411,2.917.8,4.369,1.216a6.2,6.2,0,0,0,3.786-.043c4.306-1.426,8.615-2.841,12.946-4.186,1.771-.55,1.5-.833,1.5-2.045q.012-11.353,0-22.7v-2.28a1.482,1.482,0,0,1,1.547,1.261,6.21,6.21,0,0,1,.038,1.132q0,11.693,0,23.387c0,1.835-.016,1.847-1.675,2.373-4.612,1.461-9.238,2.881-13.835,4.384a7.541,7.541,0,0,1-4.459.165q-7.216-1.98-14.424-3.991c-.145-.04-.293-.076-.437-.121-.549-.173-.935-.465-.9-1.119.022-.378,0-.757,0-1.135V191.724c0-.378,0-.757.014-1.134A1.334,1.334,0,0,1,421.111,189.249Z" transform="translate(-419.812 -186.572)" fill="#fefafa"/>
        <path id="路径_88" data-name="路径 88" d="M462.7,219.842a16.668,16.668,0,0,1-1.743-6.368q-.014-10.208,0-20.416a9.2,9.2,0,0,1,.054-1.128.627.627,0,0,1,.569-.594,6.8,6.8,0,0,1,.679-.041c1.987-.048,2-.047,2,1.962.008,6.352-.061,12.7.034,19.055a22.988,22.988,0,0,1-1.593,7.53Z" transform="translate(-420.582 -186.611)" fill="#fffefe"/>
        <path id="路径_89" data-name="路径 89" d="M462.31,190.007c-.073,0-.375-.006-.674-.037a.691.691,0,0,1-.673-.746,7.891,7.891,0,0,1,.106-1.569,1.494,1.494,0,0,1,1.5-1.133,1.641,1.641,0,0,1,1.584,1.049,2.306,2.306,0,0,1,.122.662c.037,1.51.079,1.78-1.507,1.774C462.689,190.006,462.613,190.007,462.31,190.007Z" transform="translate(-420.582 -186.522)" fill="#fbf0f1"/>
      </g>
    </g>
    <g id="组_6048" data-name="组 6048" transform="translate(49.519 -67.093) rotate(6.024)">
      <path id="路径_61" data-name="路径 61" d="M509.6,266.512c-1.315,9.959-2.979,24.442-5.227,38.834-1.2,7.688-4.8,10.008-11.643,8.074-28.045-7.929-56.081-15.9-84.03-24.156-10.386-3.067-10.9-4.373-10.495-15.68.858-24.083.863-24.022,24.2-25.942,24.22-1.994,48.414-4.347,72.65-6.093,12.436-.9,14.183,1.093,14.535,13.1C509.66,257.076,509.6,259.51,509.6,266.512Z" transform="translate(412.549 171.483)" fill="#ff3c23"/>
      <path id="路径_90" data-name="路径 90" d="M457.178,250.561c-2.107-.023-4.214-.016-6.322-.008-2.614.01-2.416-.265-2.336,2.71,0,.074-.008.175.034.219a1.585,1.585,0,0,0,.477.409,3.814,3.814,0,0,0,.666.08c.689.139,1.706-.437,2,.4.193.559-.749,1.02-1.194,1.512s-.952.963-1.428,1.444c-.694.7-.972.841-1.921.215a11.73,11.73,0,0,0-6.832-1.967,12.654,12.654,0,0,0-10.6,19.469,12.232,12.232,0,0,0,7.7,5.49c1.258.314,1.255.341,1.278,1.675.007.451.012.9-.013,1.354-.038.7-.231.864-.992.913-.15.01-.3.009-.452.007-2.873-.026-2.5-.171-2.493,2.819a.771.771,0,0,0,.816.865c.752.021,1.5.019,2.257.028.523.007.856.232.866.8.01.6,0,1.2.02,1.807.033.911.169,1.046,1.035,1.092.226.012.451.01.677.009,1.978-.009,2.009.136,1.977-1.965-.026-1.659.033-1.782,1.758-1.75.3,0,.6.007.9,0,1.233-.04,1.283-.08,1.306-1.287.012-.6-.006-1.2-.044-1.8a.582.582,0,0,0-.594-.554c-.826-.043-1.653-.039-2.48-.073a.774.774,0,0,1-.824-.859c.015-.891-.284-1.86.189-2.652.408-.684,1.377-.462,2.03-.821.261-.143.562-.21.837-.332a12.633,12.633,0,0,0,7.342-13.861,15.284,15.284,0,0,0-1.684-4.4.769.769,0,0,1,.041-1.022c1.087-1.123,2.167-2.254,3.743-3.676,0,1.082-.011,1.6,0,2.12.038,1.479.077,1.513,1.525,1.528.3,0,.6.01.9-.008.833-.05,1.059-.244,1.067-1.11q.034-3.837,0-7.676C458.412,250.743,458.219,250.572,457.178,250.561Zm-10.95,20.674c-.046.794-.276,1.039-1.123,1.044q-4.723.024-9.448,0c-.845-.006-1.015-.221-1.049-1.089-.012-.3-.01-.6,0-.9.038-.857.183-1.02,1.091-1.033,1.574-.022,3.149-.006,4.724,0s3.15-.016,4.724.006c.835.012,1.033.236,1.077,1.08a8.109,8.109,0,0,1,0,.891Zm-.032-4.591a.734.734,0,0,1-.712.726c-.448.03-.9.028-1.349.028-2.778,0-5.556.012-8.333-.008-1.035-.008-1.166-.165-1.194-1.164-.008-.3-.009-.6.007-.9.039-.726.236-.965.933-.975,1.652-.024,3.3-.008,4.955-.007,1.577,0,3.154-.017,4.73.008.7.011.948.273.985.943a8.613,8.613,0,0,1-.018,1.348Z" transform="translate(411.996 171.311)" fill="#fff"/>
    </g>
    <g id="组_6051" data-name="组 6051" transform="translate(31.892 -43.186) rotate(4.012)">
      <path id="路径_63" data-name="路径 63" d="M463.4,397.1c-1.967-.733-3.714-.978-4.949-1.9q-37.832-28.373-75.5-56.973c-1.762-1.342-4.043-4.272-3.638-5.828,2.636-10.146,6.984-19.661,13.77-27.733,1.068-1.27,4.7-1.25,6.807-.651,28.752,8.165,57.5,16.371,86.123,24.955,9.211,2.762,10.687,5.961,7.539,14.2a263.136,263.136,0,0,1-25.029,49.73C467.331,394.729,465,395.82,463.4,397.1Z" transform="translate(412.902 170.318)" fill="#28bde2"/>
      <path id="路径_91" data-name="路径 91" d="M433.054,318.387c-.228-.015-.457-.01-.686-.01H406.5c-1.712,0-1.829.169-1.549,1.859q1.811,10.936,3.624,21.875c.275,1.653.554,3.307.861,4.954.159.855.34.993,1.233,1.035.685.032,1.376-.024,2.059.024.965.068,2.122-.407,2.848.341.631.65.279,1.75.4,2.644.213,1.5.179,1.51-1.43,1.716-.2.025-.289.1-.235.593,1.432,1.426,3.014,3.055,4.659,4.624a.674.674,0,0,0,1.015-.015q1.963-1.922,3.9-3.872a2,2,0,0,0,.834-1.255c-1.969-.292-1.966-.291-1.757-2.031.073-.605.109-1.216.186-1.82.091-.719.266-.9,1.037-.913,1.448-.033,2.9,0,4.348-.038.753-.018.915-.169,1.048-.937q.468-2.7.884-5.415,1.278-8.246,2.541-16.493c.3-1.959.6-3.916.885-5.878C434,318.6,433.849,318.439,433.054,318.387Zm-8.874,20.259a4.143,4.143,0,0,1-4.011,4.177c-.3.027-.609,0-.915,0a4.364,4.364,0,0,1-4.38-5.713,7.439,7.439,0,0,1,.666-1.693c1.086-1.75,2.223-3.468,3.363-5.182.345-.517.762-.534,1.085-.046,1.18,1.78,2.349,3.567,3.489,5.372a5.248,5.248,0,0,1,.7,3.084Zm8.4-18.1c-.089.678-.173,1.359-.3,2.03a4.351,4.351,0,0,1-.445,1.515c-.324.5-.994.192-1.491.336a15.493,15.493,0,0,0-1.947.639,12.338,12.338,0,0,1-10.4-.117c-.556-.245-1.139-.425-1.709-.638a5.9,5.9,0,0,0-4.234,0,21.676,21.676,0,0,1-3.284.932c-1.343.26-1.65.031-1.916-1.234-.249-1.189-.438-2.391-.624-3.592a.534.534,0,0,1,.485-.645c.6-.059,1.215-.071,1.822-.071q5.6-.009,11.19,0h10.5c.532,0,1.066-.012,1.6.017.638.021.832.245.756.824Z" transform="translate(412.423 170.041)" fill="#fff"/>
    </g>
    <g id="组_6052" data-name="组 6052" transform="translate(43.347 -62.169) rotate(4.992)">
      <path id="路径_53" data-name="路径 53" d="M366.363,348.307c4.506,2.783,8.782,5.008,12.6,7.85q29.128,21.7,58.043,43.692c17.931,13.66,17.888,13.768,1.613,30.719-3.913,4.075-7.832,8.186-12.093,11.878-35.034,30.353-26.212,25.961-47.015-5.7-11.96-18.2-22.79-37.144-34.391-55.589-3.471-5.519-4.33-9.952,1.251-14.657C353.093,360.825,359.412,354.671,366.363,348.307Z" transform="translate(413.593 169.481)" fill="#fcc30d"/>
      <g id="组_8" data-name="组 8" transform="translate(775.103 540.736)">
        <path id="路径_92" data-name="路径 92" d="M398.868,387.506a1.03,1.03,0,0,1-.909-.587.9.9,0,0,1,.009-.965,1.71,1.71,0,0,1,.518-.545c1.468-.863,2.949-1.7,4.429-2.547a1.937,1.937,0,0,1,.474-.187,1,1,0,0,1,1.1.448.941.941,0,0,1-.018,1.183,1.307,1.307,0,0,1-.356.358c-1.546.9-3.093,1.8-4.65,2.676A2.1,2.1,0,0,1,398.868,387.506Z" transform="translate(-362.549 -371.898)" fill="#fffbee"/>
        <path id="路径_93" data-name="路径 93" d="M377.6,408.756a2.213,2.213,0,0,1-.153.651c-.865,1.551-1.731,3.1-2.648,4.625a.989.989,0,0,1-1.31.441,1.05,1.05,0,0,1-.506-1.494c.889-1.634,1.826-3.242,2.783-4.837a.951.951,0,0,1,1.112-.408A1.028,1.028,0,0,1,377.6,408.756Z" transform="translate(-362.081 -372.366)" fill="#fffbf1"/>
        <path id="路径_94" data-name="路径 94" d="M371.6,402.652a.959.959,0,0,1-.412.881c-1.671.989-3.345,1.978-5.059,2.89a.947.947,0,0,1-1.281-.509.934.934,0,0,1,.367-1.319c1.592-.962,3.2-1.893,4.852-2.756a1.063,1.063,0,0,1,1.533.813Z" transform="translate(-361.929 -372.255)" fill="#fffcf1"/>
        <path id="路径_95" data-name="路径 95" d="M396.629,413.559a1.091,1.091,0,0,1-.528.818.844.844,0,0,1-.952.007,1.726,1.726,0,0,1-.555-.5q-1.356-2.293-2.667-4.612a1.04,1.04,0,0,1-.108-.488,1.052,1.052,0,0,1,.643-1,.766.766,0,0,1,.941.109,23.524,23.524,0,0,1,3.212,5.424.713.713,0,0,1,.014.242Z" transform="translate(-362.437 -372.366)" fill="#fffcf3"/>
        <path id="路径_96" data-name="路径 96" d="M371.542,386.193a1.145,1.145,0,0,1-.851,1.315,1.515,1.515,0,0,1-.733-.114c-1.486-.82-2.959-1.664-4.428-2.516a2.107,2.107,0,0,1-.562-.508.877.877,0,0,1-.081-1.16.971.971,0,0,1,1.082-.473,7.69,7.69,0,0,1,1.376.649q1.772,1,3.521,2.046A1.349,1.349,0,0,1,371.542,386.193Z" transform="translate(-361.929 -371.899)" fill="#fffbef"/>
        <path id="路径_97" data-name="路径 97" d="M392.78,381.361c-.614.018-1.2-.663-.953-1.207a27.082,27.082,0,0,1,3.062-5.289.956.956,0,0,1,1.627.73,1.81,1.81,0,0,1-.156.738c-.825,1.491-1.674,2.967-2.521,4.446a1.158,1.158,0,0,1-1.059.582Z" transform="translate(-362.436 -371.747)" fill="#fffcf2"/>
        <path id="路径_98" data-name="路径 98" d="M377.553,380.267a.971.971,0,0,1-.459.978.914.914,0,0,1-.972.018,2.369,2.369,0,0,1-.706-.7c-.789-1.315-1.548-2.648-2.3-3.982a2.245,2.245,0,0,1-.252-.717,1.011,1.011,0,0,1,.449-1.1.989.989,0,0,1,1.183.109,1.429,1.429,0,0,1,.348.369c.86,1.471,1.716,2.943,2.553,4.426a2.017,2.017,0,0,1,.156.6Z" transform="translate(-362.081 -371.747)" fill="#fffcf3"/>
        <path id="路径_99" data-name="路径 99" d="M403.7,395.57c-.931,0-1.865.027-2.8-.012a.874.874,0,0,1-.837-.814.993.993,0,0,1,.777-1.142c.926-.082,1.86-.1,2.791-.109s1.869-.014,2.8.038a1.1,1.1,0,0,1,1.089,1.158.962.962,0,0,1-1.025.913c-.932.027-1.867.008-2.8.008Z" transform="translate(-362.591 -372.101)" fill="#fffcf3"/>
        <path id="路径_100" data-name="路径 100" d="M365.681,393.553c.936,0,1.874-.035,2.807.015a1.044,1.044,0,0,1,.9,1.067.99.99,0,0,1-1.008.954c-1.872.028-3.747.027-5.619-.014a.9.9,0,0,1-.882-1.028,1.035,1.035,0,0,1,.99-.988c.932-.063,1.871-.018,2.809-.018Z" transform="translate(-361.876 -372.101)" fill="#fffbf1"/>
        <path id="路径_101" data-name="路径 101" d="M385.88,413.847c0,.683.025,1.367-.011,2.048a2.515,2.515,0,0,1-.242.974.963.963,0,0,1-1.069.518.9.9,0,0,1-.716-.644.8.8,0,0,1-.074-.244c-.008-1.876-.034-3.753,0-5.627a.99.99,0,0,1,.964-1,1.046,1.046,0,0,1,1.061.913c.051,1.021.016,2.044.016,3.067Z" transform="translate(-362.286 -372.407)" fill="#fffbef"/>
        <path id="路径_102" data-name="路径 102" d="M403.424,406.468a27.591,27.591,0,0,1-5.29-3.149.926.926,0,0,1-.056-1.186.915.915,0,0,1,.887-.385,1.3,1.3,0,0,1,.5.1c1.62.923,3.246,1.838,4.837,2.81a.894.894,0,0,1,.3,1.138C404.421,406.226,404.072,406.433,403.424,406.468Z" transform="translate(-362.55 -372.255)" fill="#fffcf4"/>
        <path id="路径_103" data-name="路径 103" d="M383.775,375.376c0-.932-.034-1.867.014-2.8a.992.992,0,0,1,.815-.87,1.165,1.165,0,0,1,1.168.8,1.985,1.985,0,0,1,.089.5c0,1.7.02,3.4-.029,5.094a1.085,1.085,0,0,1-1.157,1.1.944.944,0,0,1-.921-1.015c-.049-.931-.014-1.866-.014-2.8Z" transform="translate(-362.285 -371.693)" fill="#fffcf1"/>
        <path id="路径_104" data-name="路径 104" d="M384.557,381.512a12.981,12.981,0,1,0,12.949,12.9A12.981,12.981,0,0,0,384.557,381.512Zm-.92,5.141a.81.81,0,0,1,.833-.779.954.954,0,0,1,.938.7.7.7,0,0,1,.083.237c.009,1.347.017,2.7.008,4.041a1.057,1.057,0,0,1-.155.477.928.928,0,0,1-1.028.546.779.779,0,0,1-.66-.68c-.061-.839-.086-1.681-.126-2.521h.1c-.006-.674-.044-1.352.006-2.021Zm7.42,9.23a6.7,6.7,0,1,1-9.4-7.547c.464-.213.823.011.864.53a1.958,1.958,0,0,1-.711,2.049,3.632,3.632,0,0,0-.882.918,4.4,4.4,0,1,0,6.722-.49c-.583-.648-1.177-1.188-1.083-2.178.08-.828.411-1.062,1.14-.648a6.633,6.633,0,0,1,3.345,7.366Z" transform="translate(-362.057 -371.877)" fill="#fff"/>
      </g>
    </g>
    <g id="组_6053" data-name="组 6053" transform="translate(-9.559 1.74)">
      <path id="路径_57" data-name="路径 57" d="M324.037,382.817c2.034,1.608,3.68,2.349,4.476,3.621q25.167,40.228,50.109,80.6c3.518,5.714,2.686,8.575-3.018,11.765a227.874,227.874,0,0,1-56.4,22.245c-3.82.951-6.076-.972-7.643-4.062a17.224,17.224,0,0,1-1.639-4.545c-5.349-28.692-10.812-57.364-15.849-86.111-1.718-9.8-.625-11.126,8.11-14.794C309.565,388.432,317.059,385.588,324.037,382.817Z" transform="translate(414.509 168.835)" fill="#a31b43"/>
      <g id="组_9" data-name="组 9" transform="translate(722.886 579.013)">
        <path id="路径_105" data-name="路径 105" d="M337.025,430.5v10.113c0,.368.008.736,0,1.1-.034,1.134-.123,1.235-1.293,1.245q-2.573.025-5.148,0c-.778-.009-.924-.183-.967-1-.013-.244,0-.49,0-.735,0-4.964.023-9.93-.02-14.894a3.117,3.117,0,0,1,1.093-2.567c1.641-1.474,3.2-3.032,4.8-4.553.266-.253.54-.5.826-.729a.4.4,0,0,1,.674.251c.027.489.035.979.035,1.469Q337.028,425.356,337.025,430.5Z" transform="translate(-309.054 -410.844)" fill="#fffeff"/>
        <path id="路径_106" data-name="路径 106" d="M323.862,430.71c.834-.834,1.643-1.654,2.465-2.459a6.012,6.012,0,0,1,.835-.7c.189-.128.366.041.412.21a2.763,2.763,0,0,1,.071.723v13.2a6.536,6.536,0,0,1-.063.911.564.564,0,0,1-.475.486,1.685,1.685,0,0,1-.361.045c-1.895,0-3.79.012-5.685,0-.554,0-.767-.232-.811-.768-.023-.3-.019-.61-.02-.916V429.161c0-.364.03-.73.065-1.093a.335.335,0,0,1,.555-.174c.361.327.7.68,1.057,1.013a12.252,12.252,0,0,0,1.955,1.8Z" transform="translate(-308.879 -411.015)" fill="#fffefe"/>
        <path id="路径_107" data-name="路径 107" d="M318.067,434.643v6.785a9.547,9.547,0,0,1-.032,1.1.585.585,0,0,1-.6.568c-2.016.011-4.032.018-6.049.008a.658.658,0,0,1-.7-.693c-.025-.671-.021-1.344-.021-2.016,0-2.139.012-4.278-.007-6.418a2.058,2.058,0,0,1,.675-1.625c2-1.883,3.994-3.782,5.99-5.675a1.491,1.491,0,0,1,.144-.111.341.341,0,0,1,.554.2c.027.425.043.852.044,1.279Q318.071,431.341,318.067,434.643Z" transform="translate(-308.7 -410.996)" fill="#fff"/>
        <path id="路径_108" data-name="路径 108" d="M323.566,424.3c.431-.4.756-.672,1.057-.972q4.491-4.483,8.976-8.975c.26-.26.515-.525.758-.8a.473.473,0,0,0,0-.659,8.524,8.524,0,0,1-.557-.721.3.3,0,0,1,.144-.448q2.232-.533,4.476-1.014a.347.347,0,0,1,.442.418,33,33,0,0,1-1.106,4.742c-.517.007-.712-.347-.976-.583a.526.526,0,0,0-.8-.035c-.357.337-.7.685-1.05,1.031l-9.886,9.885c-.3.3-.6.614-.916.906-.467.434-.649.451-1.08.03-1.054-1.028-2.078-2.084-3.131-3.113-1.867-1.821-1.324-1.843-3.162-.033-1.749,1.721-3.472,3.466-5.207,5.2-.3.3-.6.614-.915.9-.513.472-.67.458-1.223-.065-.133-.127-.265-.255-.39-.391-.468-.508-.483-.687.049-1.222q4.345-4.37,8.713-8.718c.446-.445.622-.442,1.073,0,1.181,1.161,2.342,2.34,3.518,3.506C322.711,423.52,323.075,423.841,323.566,424.3Z" transform="translate(-308.663 -410.7)" fill="#fffefe"/>
      </g>
    </g>
    <g id="组_6054" data-name="组 6054" transform="translate(-5)">
      <path id="路径_58" data-name="路径 58" d="M258.709,509.192c-45.744-.957-41.969,2.252-34.6-36.127,3.958-20.616,7.43-41.326,11.443-61.931,1.7-8.748,4.2-10.89,13.05-10.915,32.493-.092,25.362-6.377,31.637,24.75q6.939,34.421,12.682,69.079c1.742,10.483-.686,13.151-11.056,14.04C273.013,508.847,264.106,508.952,258.709,509.192Z" transform="translate(415.889 168.52)" fill="#fd6a26"/>
      <path id="路径_109" data-name="路径 109" d="M274.875,452.064c-.062-1.41-.016-2.824-.015-4.236,0-1.115.012-2.23,0-3.345-.035-2.841.371-2.346-2.143-3.812-1.989-1.16-3.956-2.365-6-3.431a2.2,2.2,0,0,1-1.293-2.3c.056-2.75,0-5.5.028-8.251a1.665,1.665,0,0,0-.9-1.637c-2.711-1.545-5.424-3.085-8.11-4.675a1.993,1.993,0,0,0-2.273.022c-2.554,1.519-5.119,3.022-7.726,4.449a2.105,2.105,0,0,0-1.157,2.168c.04,2.675-.034,5.353.037,8.027a2.074,2.074,0,0,1-1.251,2.1c-2.4,1.333-4.754,2.759-7.15,4.109a1.823,1.823,0,0,0-1.065,1.766q.04,4.682,0,9.365a1.835,1.835,0,0,0,1.036,1.794q4.073,2.3,8.1,4.686a1.658,1.658,0,0,0,1.864-.04c2.31-1.348,4.657-2.636,6.928-4.046a2.461,2.461,0,0,1,3.02-.043c2.248,1.442,4.625,2.685,6.926,4.046a1.826,1.826,0,0,0,2.062.011c2.623-1.548,5.25-3.092,7.915-4.567a2.067,2.067,0,0,0,1.167-2.16Zm-29.574.779h-.023c0,1.263.012,2.527-.007,3.789a.5.5,0,0,1-.795.415c-2.259-1.287-4.506-2.594-6.759-3.892a1.194,1.194,0,0,1-.668-1.075q0-3.9.022-7.8a.5.5,0,0,1,.8-.415c2.259,1.286,4.508,2.59,6.762,3.884a1.344,1.344,0,0,1,.673,1.306c-.014,1.261-.006,2.525-.006,3.788Zm1.236-25.1c0-.374.386-.445.659-.29,2.175,1.233,4.4,2.391,6.773,4-2.4,1.37-4.513,2.583-6.634,3.777a.51.51,0,0,1-.806-.4c-.016-2.363-.021-4.73.008-7.091Zm5.693,26.493q-2.386,1.407-4.8,2.765c-.522.293-.93.1-.934-.439-.016-2.289-.009-4.58.008-6.869a.488.488,0,0,1,.784-.4q3.07,1.766,6.121,3.568c.1.061.132.248.207.4-.3.525-.9.683-1.385.971Zm2.454-2.934a.4.4,0,0,1-.629.343q-3.1-1.74-6.161-3.542a.407.407,0,0,1-.024-.726q3.063-1.8,6.164-3.536a.411.411,0,0,1,.64.35c.026,1.185.01,2.37.01,3.555h.009c0,1.181.015,2.367-.008,3.554Zm0-10.54a27.145,27.145,0,0,1-7.281-4.017,79.371,79.371,0,0,1,7.25-4.069c.135,2.838.093,5.443.031,8.082Zm5.747-11.575a25.379,25.379,0,0,1,3.466-1.916,38.035,38.035,0,0,1,.07,8.069,1.8,1.8,0,0,1-.623-.089c-2.111-1.2-4.212-2.419-6.436-3.7,1-1.244,2.379-1.651,3.523-2.368Zm-3.7,11.512c-.3.168-.6.1-.664-.269a58.792,58.792,0,0,1,.152-7.482,32.032,32.032,0,0,1,6.876,3.851c-.157.468-.6.6-.968.815q-2.691,1.544-5.392,3.081Zm7.549,6c-2.412-1.419-4.9-2.713-7.217-4.242.088-.242.1-.426.184-.477,2.227-1.322,4.465-2.624,6.692-3.944a1.452,1.452,0,0,1,1.648-.014c2.286,1.36,4.6,2.681,7.269,4.23-.43.284-.609.414-.8.525-2.178,1.262-4.36,2.516-6.535,3.782a1.133,1.133,0,0,1-1.237.141Zm8.674,6.464c-2.329,1.3-4.651,2.623-6.979,3.93-.047.026-.137-.023-.531-.1v-8.026a1.306,1.306,0,0,1,.691-1.279c2.2-1.242,4.373-2.522,6.568-3.768.5-.284.83-.06.834.557.015,2.526.01,5.051.011,7.576a1.145,1.145,0,0,1-.591,1.107Z" transform="translate(415.586 168.139)" fill="#fff"/>
    </g>
    <g id="组_10" data-name="组 10" transform="translate(586.41 577.967)">
      <path id="路径_110" data-name="路径 110" d="M189.409,422.7c1.98,0,3.961-.012,5.942.006.892.008,1.055.179,1.108.977.01.146.013.293.01.44-.049,3.532.465,3.058-2.975,3.083-3.008.024-6.016.007-9.024,0-.512,0-1.027,0-1.538-.045a.688.688,0,0,1-.663-.722c-.013-.22-.025-.439-.022-.659.046-3.526-.461-3.051,2.981-3.086,1.394-.014,2.788,0,4.182,0Z" transform="translate(-169.821 -409.878)" fill="#fffefe"/>
      <path id="路径_111" data-name="路径 111" d="M189.5,436.27c-2.056,0-4.111.017-6.165-.008-.862-.011-1.055-.21-1.078-1.02-.026-.88-.011-1.761,0-2.642a.762.762,0,0,1,.8-.847c.366-.017.733-.016,1.1-.016h10.35c.44,0,.881.009,1.319.044a.6.6,0,0,1,.577.552,7.548,7.548,0,0,1,.068,1.094c-.037,3.2.389,2.818-2.785,2.846-1.394.012-2.789,0-4.183,0Z" transform="translate(-169.821 -410.047)" fill="#fffdfe"/>
      <path id="路径_112" data-name="路径 112" d="M209.439,429.6q-3.015,3-6.066,6.029a.488.488,0,0,1-.584.13c-.266-.118-.216-.362-.216-.564q-.01-5.848,0-11.7c0-.226.073-.451.318-.5a.575.575,0,0,1,.4.139,72.126,72.126,0,0,1,6.148,6.466Z" transform="translate(-170.201 -409.884)" fill="#fefbfc"/>
      <path id="路径_113" data-name="路径 113" d="M189.628,449.411a2.185,2.185,0,0,1-1.219-.8q-2.577-2.57-5.14-5.155A.9.9,0,0,1,183,442.9c0-.258.267-.308.485-.308q5.955,0,11.911.025a.449.449,0,0,1,.326.207.718.718,0,0,1,.007.4c-.009.063-.075.123-.125.174Z" transform="translate(-169.835 -410.25)" fill="#fefbfd"/>
      <path id="路径_114" data-name="路径 114" d="M176.121,422.771a95.879,95.879,0,0,1-.068,12.963c-.255.14-.421-.051-.562-.191q-2.744-2.715-5.47-5.452c-.564-.57-.578-.781-.073-1.3q2.632-2.673,5.3-5.313C175.446,423.285,175.683,423.125,176.121,422.771Z" transform="translate(-169.584 -409.88)" fill="#fffdfe"/>
      <path id="路径_115" data-name="路径 115" d="M189.319,416.322h-5.491c-.278,0-.611.082-.792-.2-.225-.345.126-.538.306-.722,1.23-1.255,2.478-2.493,3.72-3.735q.855-.855,1.715-1.7c.352-.348.735-.487,1.136-.085q2.872,2.873,5.731,5.759a.53.53,0,0,1,.107.384c-.033.3-.3.284-.5.285-1.61.014-3.222.013-4.832.017Z" transform="translate(-169.834 -409.634)" fill="#fffefe"/>
    </g>
    <g id="组_6056" data-name="组 6056" transform="translate(3.989 1.671)">
      <path id="路径_55" data-name="路径 55" d="M141.016,352.338c7.44-1.092,28.554,20.105,27.107,25.7a16.365,16.365,0,0,1-1.8,4.47C150.6,407.94,134.935,433.4,119,458.7c-4.033,6.4-7.88,6.939-14.027,2.425-15.01-11.025-29.314-22.89-41.341-37.231-5.007-5.971-4.853-9.71.924-14.358,8.182-6.582,16.675-12.776,25.032-19.142,14.784-11.263,29.538-22.568,44.378-33.758a69.883,69.883,0,0,1,7.05-4.3Z" transform="translate(418.877 169.406)" fill="#fd9e25"/>
      <g id="组_11" data-name="组 11" transform="translate(518.302 547.396)">
        <path id="路径_116" data-name="路径 116" d="M105.468,404.46c1.418,0,2.837-.016,4.254.006.785.013.98.176.986.856q.029,3.287,0,6.575c0,.633-.2.8-.79.854-.064.006-.129.01-.193.01-2.847-.019-2.536.329-2.559-2.388a3.378,3.378,0,0,0,0-.387c-.089-.746.36-1.747-.331-2.18a4.24,4.24,0,0,0-2.651-.113c-.39.042-.469.4-.474.726-.016,1.1,0,2.191-.025,3.287-.019.876-.162,1.01-.993,1.055-.129.007-.258,0-.387,0-2.241-.011-2.127.165-2.124-2.062,0-1.8,0-3.61.02-5.414.008-.611.205-.8.823-.813,1.483-.023,2.965-.008,4.447-.008Z" transform="translate(-100.176 -378.966)" fill="#fffffe"/>
        <path id="路径_117" data-name="路径 117" d="M105.354,396.44c.184.076.339.09.4.174q2.326,2.969,4.628,5.954c.314.408.145.728-.385.73q-4.451.019-8.9,0c-.23,0-.566.067-.62-.285a.772.772,0,0,1,.155-.517c.886-1.189,1.771-2.379,2.691-3.543a17.1,17.1,0,0,1,2.031-2.513Z" transform="translate(-100.182 -378.816)" fill="#fffefe"/>
        <path id="路径_118" data-name="路径 118" d="M141.03,401.412c-1.484,0-2.967.016-4.45-.007-.6-.009-.766-.22-.8-.838-.011-.193-.015-.388-.007-.58.029-.745.184-.928.9-.953.773-.027,1.548-.013,2.322-.013,2.064,0,4.128-.011,6.192.01.8.008.99.234,1.025,1.057.008.192,0,.387-.01.58a.678.678,0,0,1-.719.734c-1.483.017-2.966.007-4.449.007Z" transform="translate(-100.842 -378.864)" fill="#fffdfb"/>
        <path id="路径_119" data-name="路径 119" d="M122.586,380.64c0-.388.011-.776-.008-1.163-.039-.826-.177-.978-1.074-.984q-3.976-.025-7.95,0c-.994.006-1.127.154-1.167,1.1-.019.451-.007.9-.007,1.357v29.468c0,1.865-.03,1.86,1.771,1.856h6.2c2.415-.005,2.229.177,2.23-2.165Q122.59,395.377,122.586,380.64Zm-7.308,2.442c1.1,0,1.2.125,1.185,1.611a2.471,2.471,0,0,1-.06.57c-.045.168-.171.408-.3.443a3.1,3.1,0,0,1-1.7-.016c-.133-.042-.256-.286-.286-.456a5.24,5.24,0,0,1-.048-.955c.006-1.079.131-1.2,1.21-1.2Zm-1.227,6.762c.032-.847.184-1,1.017-1.026.192-.006.387,0,.578.01.61.038.776.2.816.818.013.191,0,.386,0,.578h0c0,.192.012.387,0,.578a.716.716,0,0,1-.712.743c-1.538.155-1.761-.067-1.7-1.7Zm2.4,18.173a.627.627,0,0,1-.607.622,10.577,10.577,0,0,1-1.156,0,.617.617,0,0,1-.613-.613,8.772,8.772,0,0,1-.023-.964c.019-1,.131-1.114,1.108-1.131,1.213-.02,1.337.122,1.3,1.5a4.562,4.562,0,0,1-.009.587Zm.013-6.442h0v.58c-.015.445-.212.732-.687.75-1.77.069-1.743-.015-1.72-1.659.012-.892.155-1.031.986-1.059.193-.006.387,0,.58.006.62.035.8.2.842.8.011.2,0,.389,0,.582Zm0-5.17c-.034.569-.237.741-.86.776-1.389.08-1.57-.088-1.55-1.557a3.8,3.8,0,0,1,.024-.464.655.655,0,0,1,.587-.649,5.637,5.637,0,0,1,.955-.051c.6.019.815.22.848.794a9.572,9.572,0,0,1-.009,1.151Zm3.258-13.326c.191,0,.386-.015.576,0a.64.64,0,0,1,.64.59,5.122,5.122,0,0,1,.038.574c.034,1.482-.136,1.646-1.638,1.57-.747-.037-.913-.191-.955-.9-.012-.192-.011-.385-.009-.577.006-1.176.118-1.281,1.343-1.257Zm-1.337,6.54c.037-.591.221-.761.834-.8.127-.01.254,0,.8,0-.161-.007.1-.009.347.022a.537.537,0,0,1,.34.147,2.5,2.5,0,0,1,.2,2.012c-.062.458-.467.549-.868.569a5.46,5.46,0,0,1-.572,0c-.836-.031-1.038-.212-1.081-.992a8.373,8.373,0,0,1-.005-.957Zm.671,7.552a.687.687,0,0,1-.671-.766c0-.254,0-.508,0-1.211.016-.547.228-.756,1.243-.759a3.6,3.6,0,0,1,.756.062.645.645,0,0,1,.527.485,1.949,1.949,0,0,1,.06.374c.05,1.782,0,1.944-1.92,1.815Zm1.92,4.637c0,.063-.006.255-.025.446a.639.639,0,0,1-.588.644,8.778,8.778,0,0,1-1.344,0,.621.621,0,0,1-.613-.612c-.023-.255-.031-.511-.03-.767,0-1.242.1-1.347,1.281-1.35,1.22,0,1.337.131,1.314,1.639Zm-.1,6.4a.683.683,0,0,1-.219.3,2.738,2.738,0,0,1-2.026-.012.582.582,0,0,1-.19-.316c-.048-.314-.06-.633-.085-.941.023-.266.032-.521.068-.773a.593.593,0,0,1,.5-.5,1.332,1.332,0,0,1,.187-.031c1.677-.177,2.316.642,1.761,2.271Z" transform="translate(-100.405 -378.48)" fill="#fff"/>
        <path id="路径_120" data-name="路径 120" d="M134.4,386.064c-.006-.361.182-.855-.252-1.045-.474-.209-.639.3-.86.58-1.255,1.564-2.494,3.141-3.736,4.715q-2.345,2.972-4.685,5.946a2.964,2.964,0,0,0-.8,1.914c.027,4.4.006,8.8.021,13.2,0,1.02.178,1.172,1.311,1.18,2.523.021,5.047.009,7.57,0a4.978,4.978,0,0,0,.772-.055.674.674,0,0,0,.632-.625c.036-.515.034-1.033.034-1.551V390.14C134.409,388.781,134.421,387.422,134.4,386.064Zm-8.825,11.764a2.442,2.442,0,0,1,.284-.5q1.073-1.366,2.168-2.714c.113-.139.3-.325.486-.16a.74.74,0,0,1,.2.486c.026.513.01,1.029.01,1.544h0c0,.45.018.9,0,1.351-.03.64-.206.85-.771.87-.642.022-1.286.013-1.929-.017a.578.578,0,0,1-.448-.86Zm1.007,2c.193-.007.387,0,.811,0,.09,0,.411.014.731.041a.6.6,0,0,1,.581.637,5.828,5.828,0,0,1-.007.963.629.629,0,0,1-.623.611c-.513.028-1.028.049-1.542.033-.933-.029-1.087-.21-1.079-1.174S125.581,399.863,126.582,399.828Zm.5,8.95c-.322,0-.645.011-.967,0a.619.619,0,0,1-.631-.6,4.519,4.519,0,0,1-.019-.773c.03-.693.208-.86.959-.891.387-.016.774-.016,1.162-.005.986.028,1.131.174,1.139,1.107.008,1.1-.12,1.192-1.645,1.162Zm1.638-4.232c-.034.61-.21.8-.8.843-.257.018-.516,0-.775,0v.01c-.193,0-.388.007-.581,0-.969-.037-1.1-.178-1.1-1.142s.156-1.126,1.1-1.166c.258-.011.517-.007.775,0,1.284.018,1.448.191,1.378,1.455Zm1.108-10.562c.038-.684.237-.906.914-.957.38-.03.763-.013,1.145-.022,1.4-.031,1.425.459,1.345,1.672a.615.615,0,0,1-.613.6c-.379.031-.761.007-1.143.007v.028h-.382c-1.178-.029-1.333-.193-1.269-1.328Zm3.419,3.654c-.01.891-.135,1.037-.962,1.081-.255.014-.512,0-.768,0h0c-.191,0-.385.006-.576,0-.969-.037-1.1-.173-1.1-1.129-.006-.99.127-1.144,1.051-1.181.384-.016.769-.013,1.153,0,1.069.034,1.211.181,1.2,1.229ZM131.976,408.8h-.785c-.109-.005-.429-.006-.747-.036a.615.615,0,0,1-.59-.629,7.782,7.782,0,0,1,0-.958.6.6,0,0,1,.577-.636c.637-.033,1.277-.05,1.914-.03.714.022.869.2.9.939.046,1.15-.114,1.321-1.272,1.35Zm-2.137-4.827c.037-.594.236-.838.8-.867a15.709,15.709,0,0,1,1.913.01.73.73,0,0,1,.691.773c.012.19.019.383.014.573-.02.717-.184.889-.906.933-.255.015-.511,0-.766,0v-.028c-.382,0-.766.022-1.146-.007a.6.6,0,0,1-.589-.623,6.037,6.037,0,0,1-.014-.764Zm3.417-2.878c-.034.77-.234.974-1.057,1.021-.381.022-.764.009-1.146,0s-.84.033-1.05-.316a2.038,2.038,0,0,1-.063-1.662c.038-.129.294-.247.465-.273a6.362,6.362,0,0,1,.821-.054c.51,0,.7-.006.892,0,1.009.046,1.182.241,1.135,1.284Zm-1.712-9.054c-.128,0-.255,0-.383-.008a.774.774,0,0,1-.676-.275c-.18-.271.011-.489.163-.674q.97-1.182,1.973-2.337c.145-.167.569.01.59.238.038.443.057.889.064,1-.018,1.96-.134,2.076-1.735,2.056Z" transform="translate(-100.623 -378.601)" fill="#fffefd"/>
        <path id="路径_121" data-name="路径 121" d="M146.225,403.291c-.036-.8-.24-1.015-1.077-1.021q-4.161-.029-8.322,0c-.92.006-1.055.17-1.07,1.191-.02,1.354,0,2.709,0,4.064h0c0,1.484-.017,2.967.007,4.451.011.7.22.916.945.919q4.257.028,8.516,0c.8-.006.995-.229,1-1.088.022-2.193.011-4.387.011-6.58C146.238,404.582,146.255,403.935,146.225,403.291Zm-9.19.826a.637.637,0,0,1,.636-.6,14.75,14.75,0,0,1,1.73-.049c.914.035,1.089.248,1.089,1.186,0,.893-.127,1.043-.952,1.091-.256.015-.514,0-1.207,0,.051,0-.335,0-.717-.036a.6.6,0,0,1-.59-.629,7.158,7.158,0,0,1,.011-.963Zm2.259,5.041q-.582.02-1.164,0c-.991-.033-1.136-.178-1.148-1.115-.014-1.055.134-1.207,1.218-1.245.193-.006.388,0,.582,0s.388-.007.581,0c.99.039,1.139.185,1.152,1.119.014,1.056-.131,1.207-1.221,1.241Zm5.755-.987c-.031.672-.262.913-.923.954-.255.016-.511,0-.767,0v.01h-.385c-1.349.025-1.427-.167-1.347-1.637a.593.593,0,0,1,.581-.636q1.055-.037,2.111-.018c.468.008.659.332.712.75a3.215,3.215,0,0,1,.019.577Zm.008-3.351c-.027.7-.205.875-.93.924-.128.009-.255.006-.384.007h-.667c-.1,0-.484-.01-.865-.042a.6.6,0,0,1-.587-.626,6.373,6.373,0,0,1,0-.958.617.617,0,0,1,.6-.626c.51-.033,1.023-.055,1.532-.042,1.131.027,1.344.263,1.3,1.363Z" transform="translate(-100.842 -378.925)" fill="#fffefc"/>
      </g>
    </g>
    <g id="组_6057" data-name="组 6057" transform="translate(0 4.131)">
      <path id="路径_51" data-name="路径 51" d="M116.722,303.082l14.518,31.872c-6.07,10.054-16.5,15.133-25.327,21.994-17.284,13.436-34.763,26.624-52.3,39.733-5.021,3.753-8.6,3.1-12.24-2.249-12.386-18.169-22.167-37.606-28.259-58.67C28.1,326.487,59.134,316.687,116.722,303.082Z" transform="translate(422.197 176.081)" fill="#bf8c2f"/>
      <path id="路径_122" data-name="路径 122" d="M72.172,347.283a61.246,61.246,0,0,1,6.637-1.921c.585-.153.969.141.889.66q-.5,3.266-1.073,6.522a.442.442,0,0,1-.689.324,5.612,5.612,0,0,1-.89-.71.9.9,0,0,0-1.231-.055,11.944,11.944,0,0,1-17.3-4.716,13.018,13.018,0,0,1-.9-3.287,14.4,14.4,0,0,1,.726-7.421c1.728-4.673,5.367-6.864,10.149-7.24a12.169,12.169,0,0,1,9.714,3.727,24.2,24.2,0,0,1,3.989,5.265c.764,1.316,1.468,2.667,2.186,4.008a18.458,18.458,0,0,0,3.439,4.811,11.333,11.333,0,0,0,7.084,3.33,7.063,7.063,0,0,0,7.625-5.21,11.936,11.936,0,0,0,.232-5.872,7.678,7.678,0,0,0-7.267-6.444,8.92,8.92,0,0,0-6.9,2.439c-.9.806-1.658,1.779-2.482,2.674-.423.46-.793.472-1.1-.028-1.675-2.769-1.776-2.413.337-4.585a12.434,12.434,0,0,1,10.242-4.121c6.482.535,10.031,4.77,10.8,9.7a16.6,16.6,0,0,1-.594,7.881,10.63,10.63,0,0,1-9.858,7.212,14.5,14.5,0,0,1-10.005-3.793,21.1,21.1,0,0,1-4.8-6.336c-.746-1.413-1.5-2.82-2.3-4.2a18.072,18.072,0,0,0-3.043-3.985c-2.672-2.579-5.784-3.576-9.424-2.4a6.867,6.867,0,0,0-4.6,4.414,11.206,11.206,0,0,0-.388,6.516,8.131,8.131,0,0,0,11.621,5.066.5.5,0,0,0,.2-.758C72.914,348.3,72.338,348.086,72.172,347.283Z" transform="translate(421.368 175.589)" fill="#fff"/>
    </g>
    <g id="组_6058" data-name="组 6058" transform="matrix(0.999, -0.035, 0.035, 0.999, -17.887, 23.137)">
      <path id="路径_52" data-name="路径 52" d="M1.324,239.144c34.406,2.968,66.561,5.751,98.719,8.51,5.762.495,8.079,3.68,8.861,9.333,4.023,29.1,4.142,29.117-24.361,37.274q-34.93,10-69.909,19.821c-4.484,1.254-7.734-.363-9.033-5.206C-.317,286.8-1.189,264.474,1.324,239.144Z" transform="translate(423.505 182.712)" fill="#407f45"/>
      <g id="组_12" data-name="组 12" transform="translate(462.507 441.269)">
        <path id="路径_123" data-name="路径 123" d="M59.486,266.485a1.79,1.79,0,0,0,.412-.11c.06-.033.119-.068.178-.1l-.259.024C59.707,266.36,59.6,266.426,59.486,266.485Z" transform="translate(-40.115 -259.064)" fill="#fff"/>
        <path id="路径_124" data-name="路径 124" d="M87.606,270.433c-.153-.2-.314-.4-.48-.594-7.526-8.711-17.038-12.218-28.362-10.48a28.828,28.828,0,0,0-17.84,10.235,5.485,5.485,0,0,0-1.179,1.7,5.385,5.385,0,0,0,1.074,1.582,30.082,30.082,0,0,0,35.846,8.09,29.492,29.492,0,0,0,10.958-8.722C88.3,271.382,88.278,271.322,87.606,270.433Zm-31.284-5.917.48.491a.892.892,0,0,1-.822.337.653.653,0,0,1,.342-.828Zm-.36,1.135c.2.094.552.168.568.285.043.321-.237.487-.532.576a.633.633,0,0,1-.505-.478ZM54.77,266.86q.044.381.086.764c-.509-.2-.4-.472-.087-.764Zm4.5,12.14a.679.679,0,0,1-.892-.464,2.688,2.688,0,0,1-.107-.557,4.361,4.361,0,0,0-1.41-2.578,1.04,1.04,0,0,0-1.347-.245c-.706.3-.868.152-1.127-.52a12.124,12.124,0,0,1-.586-3.167,3.074,3.074,0,0,1,.639-1.946,2.469,2.469,0,0,1,.45-.291,2.318,2.318,0,0,1,.375-.083c.02-.153.116-.271.358-.326a1.5,1.5,0,0,0,.566-.208.463.463,0,0,1-.2-.574l.175-.728a1.765,1.765,0,0,1,1.831-.89.938.938,0,0,1-.622-.554c-.156-.437.414-.552.565-.874l1.718-.1a.993.993,0,0,1,1.041.1,1.1,1.1,0,0,1,.2.41c.347-.328.848-.21,1.237-.414.089-.081.27-.2.255-.235-.259-.615-.523-1.23-.835-1.819-.068-.13-.317-.186-.495-.232-.54-.135-1.121.1-1.78-.222a7.965,7.965,0,0,1,4.558-1.246,10.053,10.053,0,0,1,9.87,7.446c.082.318.153.614-.144.859a.9.9,0,0,1-.659.177c-.465-.023-.727.137-.588.657-.139.788-.967.718-1.407,1.13-.548.44.115,1.067-.237,1.538-.106.275-.23.519-.6.338a2,2,0,0,1-.943-1.133c-.154-.344-.293-.7-.445-1.042-.136-.31-.352-.543-.714-.483a.516.516,0,0,0-.416.554c.019.742-.544,1.09-.988,1.519a.372.372,0,0,1-.507.034.336.336,0,0,1-.023-.488c.182-.263.137-.439-.16-.565-.521-.222-1.037-.453-1.556-.682l-.7.352-1.051.7c-.189-.022-.318-.175-.494-.226l-.457-.434c-.525-.189-.417.156-.375.444a.314.314,0,0,0,.179.264.352.352,0,0,0,.293.277c.783.688.783.688.4,1.641-.236.774-.2,1.648-.82,2.284a4.725,4.725,0,0,0-.807,1.5,1.758,1.758,0,0,1-1.228,1.1Zm12.3-6.342c.017.491-.423.29-.682.358l-.008-.779c.326-.013.678.015.693.416ZM68.9,280.232a9.817,9.817,0,0,1-5.362,1.259c-.3-.034-1.057-.1-1.806-.215-.3-.047-.637-.171-.671-.547a.915.915,0,0,1,.472-.774,2.409,2.409,0,0,1,1.4-.515,5.207,5.207,0,0,1,1.877.2c.421.136.851.252,1.262.415a1.4,1.4,0,0,0,1.588-.191,3.318,3.318,0,0,1,.813-.476c.574-.266,1.16-.2,1.165.118C69.643,279.994,69.192,280.063,68.9,280.232Zm4.313-4.73a10.5,10.5,0,0,1-1.25,2.111c-.445.64-.977.97-1.56.8-.268-.053-.33-.069-.393-.077-.462-.057-1.037.211-1.267-.487a2.02,2.02,0,0,1,.25-2.136,2.4,2.4,0,0,1,1.3-.728,8.854,8.854,0,0,0,2.325-.77c.329-.186.8.18.76.564a2.7,2.7,0,0,1-.17.721Zm.764-2.653c-.016.088-.145.22-.224.221a.474.474,0,0,1-.315-.168,1.741,1.741,0,0,1-.33-1.436,5.914,5.914,0,0,1,.27-.9c.047-.152.151-.222.3-.161.1.041.245.113.265.2.086.365.133.738.182,1.027-.06.463-.089.843-.153,1.216Z" transform="translate(-39.746 -258.927)" fill="#fff"/>
      </g>
    </g>
    <g id="组_6059" data-name="组 6059" transform="translate(-4.182 -1.694)">
      <path id="路径_48" data-name="路径 48" d="M3.464,219.214c2.328-28.643,7.419-46.068,20.129-69.248,1.6,0,3.451-.547,4.73.081,27.692,13.584,55.284,27.372,82.989,40.929,5.977,2.925,8.337,6.793,6.8,13.551-6.2,27.288-7.186,28-35.587,24.979-20.981-2.23-42-4.047-62.975-6.361C14.063,222.54,8.144,222.754,3.464,219.214Z" transform="translate(405.886 200.734) rotate(-3)" fill="#0c98d9"/>
      <g id="组_13" data-name="组 13" transform="translate(462.482 376.742) rotate(-3)">
        <path id="路径_125" data-name="路径 125" d="M87.914,180.618c.364,1.755.3,1.939-.921,2.665a5.586,5.586,0,0,1-5.954-.076c-.684-.386-1.287-1.074-2-1.2-.775-.139-1.3.775-2,1.142a7.018,7.018,0,0,1-6.648-.022c-.774-.368-1.508-1.141-2.263-1.144s-1.491.759-2.259,1.134a6.888,6.888,0,0,1-7.551-.561c-.345-.25-.634-.6-1.1-.639A28.218,28.218,0,0,1,54.65,183.5a5.526,5.526,0,0,1-5.57-.314,1.832,1.832,0,0,1-.911-2.01c.054-.431.315-.661.709-.552.416.116.82.272,1.235.393a7.009,7.009,0,0,0,6.175-1.034c.238-.162.452-.358.691-.521a.859.859,0,0,1,1-.03,14.579,14.579,0,0,0,1.5.86c2.672,1.215,5.294,1.37,7.754-.516a1.179,1.179,0,0,1,1.7-.065c2.589,2.019,5.4,1.923,8.105.39a2.661,2.661,0,0,1,3.421.13,6.207,6.207,0,0,0,5.375.879C86.529,180.937,87.156,180.468,87.914,180.618Z" transform="translate(-48.144 -179.282)" fill="#fdfeff"/>
        <path id="路径_126" data-name="路径 126" d="M57.319,188.083c-.827.549-1.511,1.094-2.272,1.492a5.634,5.634,0,0,1-5.774-.019c-1.174-.687-1.262-1-.834-2.685a3.575,3.575,0,0,1,1.644.415,6.992,6.992,0,0,0,6-.908,5.1,5.1,0,0,0,.7-.507.979.979,0,0,1,1.353-.083,10.959,10.959,0,0,0,3.338,1.487,6.59,6.59,0,0,0,5.369-.934c.419-.269.821-.563,1.291-.886.32.215.621.4.9.609,2.394,1.785,4.921,1.754,7.563.614.788-.34,1.431-1.226,2.278-1.083.719.122,1.322.83,2.021,1.191a6.45,6.45,0,0,0,5.023.543c.551-.169,1.1-.352,1.652-.5a.421.421,0,0,1,.516.271,1.83,1.83,0,0,1-.76,2.245,5.56,5.56,0,0,1-5.358.566,3.731,3.731,0,0,1-1.334-.69c-1.109-1.132-2.024-1-3.281-.068a6.239,6.239,0,0,1-6.192.567,10.45,10.45,0,0,1-1.178-.541c-.631-.335-1.251-.97-1.872-.966s-1.231.656-1.864.987c-2.8,1.466-5.521,1.464-8.1-.526C57.914,188.5,57.678,188.342,57.319,188.083Z" transform="translate(-48.145 -179.397)" fill="#fefeff"/>
        <path id="路径_127" data-name="路径 127" d="M87.945,203.6a26.236,26.236,0,0,0-6.6-5.86,15.339,15.339,0,0,0-14.08-1.461,36.068,36.068,0,0,0-7.968,4.3,4.169,4.169,0,0,1-1.739,1.038,16.248,16.248,0,0,0-3.806-4.312,8.817,8.817,0,0,0-5.584-1.97c1.5,2.927,2.82,5.709,2.865,8.9.046,3.286-1.356,6.117-2.728,8.991a3.9,3.9,0,0,0,3.045-.406c2.787-1.117,4.657-3.294,6.24-5.716a8.068,8.068,0,0,1,2.083,1.32,29.893,29.893,0,0,0,9.69,4.657,14.359,14.359,0,0,0,7.061,0c4.909-1.252,8.534-4.358,11.681-8.143C88.519,204.446,88.283,204.01,87.945,203.6Zm-10.4,1.674a2.4,2.4,0,0,1-2.379-2.527,2.506,2.506,0,0,1,2.393-2.333,2.441,2.441,0,0,1,2.458,2.463,2.3,2.3,0,0,1-2.47,2.394Z" transform="translate(-48.144 -179.579)" fill="#fff"/>
      </g>
    </g>
    <g id="组_6046" data-name="组 6046" transform="translate(-31.9 38.388) rotate(-4.012)">
      <path id="路径_49" data-name="路径 49" d="M31.45,132.055c12.282-24.107,26.752-43,45.376-58.911,2.665,1.423,5.252,2.079,6.767,3.723,19.681,21.343,39.38,42.673,58.7,64.343,8.619,9.668,8.646,10.9.7,20.5-17.589,21.262-8.8,21.465-35.934,8.295C82.479,158.074,58.2,145.515,31.45,132.055Z" transform="translate(415.412 193.631)" fill="#60ba47"/>
      <g id="组_6043" data-name="组 6043" transform="translate(-4 19)">
        <path id="路径_128" data-name="路径 128" d="M99.915,125c.6.322,1.193.586,1.727.944a5.993,5.993,0,0,1-.313,10.187,5.639,5.639,0,0,1-2.914.758c-2.688-.012-5.375-.063-8.061-.029a4.225,4.225,0,0,1-3.846-5.994c.1-.193.187-.393.3-.581a.744.744,0,0,0-.154-.974,5.48,5.48,0,0,1-.581-.649A3.927,3.927,0,0,1,88.1,122.5a5.576,5.576,0,0,1,.852-.173.729.729,0,0,0,.59-.555,11.265,11.265,0,0,1,.426-1.231,5.217,5.217,0,0,1,6.351-2.916,5.145,5.145,0,0,1,3.818,5.419C100.093,123.679,99.993,124.316,99.915,125Z" transform="translate(418.405 173.802)" fill="#fff"/>
        <path id="路径_129" data-name="路径 129" d="M102.461,149.636H86.314c-.509,0-1.019,0-1.527-.015s-.831-.236-.842-.782a9.157,9.157,0,0,1,.012-1.089.711.711,0,0,1,.706-.689c.434-.031.87-.034,1.306-.034h33.6c1.081.039,1.277.229,1.3,1.259.03,1.143-.146,1.341-1.394,1.343Q110.97,149.647,102.461,149.636Z" transform="translate(418.429 173.248)" fill="#fff"/>
        <path id="路径_130" data-name="路径 130" d="M102.444,152.742H86.521c-.581,0-1.164.006-1.745-.018-.489-.02-.833-.234-.833-.786a8.374,8.374,0,0,1,.023-1.088.739.739,0,0,1,.727-.677c.506-.035,1.016-.04,1.524-.04h32.5c.364,0,.728-.009,1.091.01.785.041,1.029.271,1.061,1.055.052,1.287-.06,1.554-1.411,1.551C113.787,152.733,108.115,152.742,102.444,152.742Z" transform="translate(418.429 173.19)" fill="#fff"/>
        <path id="路径_131" data-name="路径 131" d="M111.068,131.358a2.916,2.916,0,0,1,1.573.337,2.756,2.756,0,0,0,3.018.031,3.67,3.67,0,0,1,3.911.329,1.835,1.835,0,0,1,.463.442.778.778,0,0,1,.07.4c.007.16-.1.245-.28.243a2.473,2.473,0,0,1-.427-.019,5.252,5.252,0,0,0-4.487,1.08.994.994,0,0,1-1.374.077,5.578,5.578,0,0,0-4.9-1.119c-.187.041-.472.034-.478-.243a.806.806,0,0,1,.236-.55A3.784,3.784,0,0,1,111.068,131.358Z" transform="translate(417.976 173.543)" fill="#fff"/>
        <path id="路径_132" data-name="路径 132" d="M109.419,124.608a1.2,1.2,0,0,1-.308-.059c-1.393-.851-2.829-1.439-4.5-.813a.406.406,0,0,1-.349-.179.453.453,0,0,1,.052-.391,2.762,2.762,0,0,1,2.22-1.154,2.46,2.46,0,0,1,1.275.131,2.752,2.752,0,0,0,2.849-.2,3.035,3.035,0,0,1,3.267.377.849.849,0,0,1,.294.308.761.761,0,0,1,.025.4c-.006.054-.111.148-.151.138a5.309,5.309,0,0,0-4.674,1.442Z" transform="translate(418.049 173.724)" fill="#fff"/>
        <path id="路径_133" data-name="路径 133" d="M96.7,141.641c0,.723.014,1.447,0,2.171a.748.748,0,0,1-.841.773c-.29.007-.579,0-.868,0-.5-.008-.846-.23-.851-.758-.012-1.445,0-2.893.016-4.338,0-.44.324-.623.711-.656a7,7,0,0,1,1.083,0,.755.755,0,0,1,.758.857v1.954Z" transform="translate(418.239 173.402)" fill="#fff"/>
        <path id="路径_134" data-name="路径 134" d="M113.115,117.43a2.349,2.349,0,0,1,1.709.406,3.164,3.164,0,0,0,2.4.667,2.432,2.432,0,0,1,2.276,1.4.458.458,0,0,1-.069.392c-.069.093-.274.2-.344.161a3.526,3.526,0,0,0-3.114-.28.957.957,0,0,1-1.14-.385,3.347,3.347,0,0,0-2.38-1.347c-.243-.02-.454-.162-.464-.359-.017-.323.242-.49.548-.551C112.75,117.486,112.963,117.455,113.115,117.43Z" transform="translate(417.904 173.802)" fill="#fff"/>
      </g>
    </g>
    <g id="组_6045" data-name="组 6045" transform="translate(-42.141 72.023) rotate(-7)">
      <path id="路径_62" data-name="路径 62" d="M92.743,58.708c15.649-15.441,34.484-26.117,54.349-35.164,5.63-2.563,9.22-1.161,11.513,4.628q16.957,42.793,33.488,85.753c2.034,5.256.259,9.221-4.763,12.035-7.042,3.947-13.9,8.215-20.842,12.345C152.6,128.684,107.243,79.836,92.743,58.708Z" transform="translate(407.264 191.524)" fill="#02699e"/>
      <g id="组_15" data-name="组 15" transform="translate(537.159 252.708)">
        <path id="路径_135" data-name="路径 135" d="M161.286,88.6l7.932.006a3.581,3.581,0,0,1,.442,1.143c.031,2.22.009,4.44-.031,6.66,0,.2-.26.4-.4.593V90.33c0-.564-.25-1.014-.834-1.018-2.373-.016-4.76-.387-7.112.235Z" transform="translate(-131.178 -62.425)" fill="#fff"/>
        <path id="路径_136" data-name="路径 136" d="M169.222,98.09l-7.944.008.019-.961a32.611,32.611,0,0,0,7.915.02Z" transform="translate(-131.178 -62.584)" fill="#fff"/>
        <path id="路径_137" data-name="路径 137" d="M164.786,67.9c1.832-.933,1.9-1.3.557-3.074a2.906,2.906,0,0,0-.4-.26c-.786-.348-1.02-.24-1.251.43A2.421,2.421,0,0,0,164.786,67.9Z" transform="translate(-131.22 -61.971)" fill="#fff"/>
        <path id="路径_138" data-name="路径 138" d="M166.364,68.891l-.009-.012-.039.041Z" transform="translate(-131.272 -62.056)" fill="#fff"/>
        <g id="组_14" data-name="组 14" transform="translate(34.567)">
          <path id="路径_139" data-name="路径 139" d="M169.3,68.521c-1.066-.635-2.016-.212-2.94.357a2.98,2.98,0,0,0,1.236,1.151,1.846,1.846,0,0,0,1.663-.039c.3-.148.568-.311.579-.707a.866.866,0,0,0-.538-.762Z" transform="translate(-165.84 -62.043)" fill="#fff"/>
          <path id="路径_140" data-name="路径 140" d="M171.214,65.813a2.479,2.479,0,0,0-1.861.088.613.613,0,0,1-.167-.142,2.306,2.306,0,0,0,2.036-2.391.48.48,0,0,0-.439-.495,2.25,2.25,0,0,0-2.473,2.1l-.116.063c-.124.068-.237.155-.354.235.038-.54.1-1.079.1-1.618a2.041,2.041,0,0,0-.71-1.483.694.694,0,0,0-1.172.178,3.6,3.6,0,0,0-.187,1.9c.355.871.767,1.64,1.891,1.124l-1.4,1.937a.689.689,0,0,0,.733-.011,2.531,2.531,0,0,0,.525-.392c.365-.46.743-.365,1.149-.09a1.806,1.806,0,0,0,2.541.4.849.849,0,0,0,.509-.748C171.8,66.107,171.521,65.931,171.214,65.813Z" transform="translate(-165.83 -61.925)" fill="#fff"/>
        </g>
        <path id="路径_141" data-name="路径 141" d="M166.355,68.879l-.039.021v.021Z" transform="translate(-131.272 -62.056)" fill="#fff"/>
        <path id="路径_142" data-name="路径 142" d="M166.363,67.409l.732-.011c-.206.242-.393.514-.764.51Z" transform="translate(-131.272 -62.028)" fill="#fff"/>
        <path id="路径_143" data-name="路径 143" d="M168.648,97.512a16.385,16.385,0,0,0-1.844-.368,11.486,11.486,0,0,0,1.833-.565h.018c.469-2.2.112-4.418.212-6.626a1.791,1.791,0,0,0-.968-1.615c-.031-.021-.074-.036-.11-.055.285-.029.569-.062.854-.1.469-.36.934-.746.7-1.424s-.827-.726-1.419-.728q-3.21-.007-6.419,0a3.921,3.921,0,0,0-.734.076.943.943,0,0,0-.683,1.327,2.853,2.853,0,0,0,.622.743c.56.078,1.121.134,1.68.179a4.758,4.758,0,0,0-1.687.768c-.011.328-.013.656-.033.984-.085,1.372-.094,1.353-1.345,1.532a33.925,33.925,0,0,1-6.868.3c-3.159-.191-2.727.157-2.738-3.143,0-.687.342-1,1.023-1.12A13.788,13.788,0,0,0,156,85.707a7.789,7.789,0,0,0,3.753-6.548c.033-.819-.021-1.644.039-2.46.147-2,.822-3.685,2.881-4.463.482.059.929.074,1.162.678.209.546.067,1.286.863,1.723v-2.8c.257-.083.415-.326.262-.5-.529-.613-.351-1.292-.287-1.968l.971-.517c.015-.334.028-.668.043-1a1.273,1.273,0,0,0-1.026,1.463c-.193-.143-.343-.113-.443.125,0,.342-.052.691-.512.56-.217-.062-.387-.292-.579-.446-1.42-1.127-2.069-1.212-3.559-.363a12.261,12.261,0,0,0-1.609,1.143c-.707.569-1.35,1.217-2.073,1.763a6.006,6.006,0,0,1-7.15.349,14.882,14.882,0,0,1-2.649-2.218,14.525,14.525,0,0,0-4.46-3.063,9.827,9.827,0,0,0-5.739-.743c1.725,2.024,2.244,4.331,2.71,6.661a14.612,14.612,0,0,0,.431,1.676c.864,2.642,2.353,4.71,5.171,5.531.218.064.284.166.18.329-1.008.653-2.047,1.314-3.073,2a6.492,6.492,0,0,1-3.483,1.12c-.341.009-.795-.208-1.108.382,2.459,1.677,4.885,3.314,7.95,3.675,1.161.136,1.292.334,1.293,1.4,0,2.751.3,2.526-2.509,2.5-1.236-.014-2.474-.051-3.711-.05-2.059,0-4.117.026-6.177.04a2.464,2.464,0,0,0-.375.507,5.059,5.059,0,0,0-.14-.567c-.16-.18-.286-.426-.485-.527-1-.511-1.84-.12-1.935.935a7.441,7.441,0,0,0,.085,1.924.981.981,0,0,0,1.068.795,1.437,1.437,0,0,0,1.243-.626,3.436,3.436,0,0,0,.164-.57,2.324,2.324,0,0,0,.39.507,8.885,8.885,0,0,0,.976.086c4.665-.087,9.33-.193,14-.275a63.88,63.88,0,0,1,9.8.076c2.747.373,2.181.144,2.365,2.624a10.7,10.7,0,0,0,1.824.586,15.528,15.528,0,0,0-1.843.375,1.178,1.178,0,0,0-.629,1.446c.242.678.858.674,1.44.675h6.41a3.532,3.532,0,0,0,.732-.079.951.951,0,0,0,.649-1.343C169.186,97.939,168.873,97.744,168.648,97.512Zm-20.156-6.135a.8.8,0,0,1-.541.389.655.655,0,0,1-.8-.378,5.555,5.555,0,0,1-.063-2.858.692.692,0,0,1,.733-.5.656.656,0,0,1,.73.492,13.42,13.42,0,0,1,.17,1.5,9.617,9.617,0,0,1-.229,1.355Z" transform="translate(-130.604 -62.007)" fill="#fff"/>
      </g>
    </g>
    <g id="组_6044" data-name="组 6044" transform="translate(-54.154 142.259) rotate(-12.007)">
      <path id="路径_50" data-name="路径 50" d="M210.664,114.916c-12.418-32.3-24.269-63.06-36.051-93.848-1.752-4.578.185-8.107,4.469-9.62C198.982,4.42,219.658,1.305,240.642.16c3.511-.191,5.748,2.345,6.346,5.907a29.287,29.287,0,0,1,.439,4.808c.031,29.046.163,58.092-.033,87.137-.072,10.537-.8,11.059-10.433,12.711C229.059,112.079,221.127,113.257,210.664,114.916Z" transform="translate(406.744 177.829)" fill="#1b4a6c"/>
      <path id="路径_144" data-name="路径 144" d="M233.939,61.212c.775,4.185-.252,7.629-3.494,10.163-3.555,2.778-7.4,2.734-11.313.625-.623.276-1.2.544-1.791.791a9.713,9.713,0,0,1-13.44-9.22c.033-.787.088-1.573.135-2.411-.415-.472-.853-.941-1.259-1.436a9.732,9.732,0,0,1,5.009-15.655c.622-.168,1.252-.307,2.014-.492.23-.417.486-.92.774-1.4a9.736,9.736,0,0,1,16.9,0c.258.429.492.872.776,1.38.648.166,1.337.333,2.02.517a9.736,9.736,0,0,1,5.022,15.656C234.881,60.22,234.427,60.678,233.939,61.212Zm-8.274-17.538a7.236,7.236,0,0,0-7.43-4.177,6.633,6.633,0,0,0-5.757,4.313c3.528,1.522,3.528,1.522,6.535,4.854,3.287-3.535,2.115-2.709,6.652-4.99ZM214.682,62.541a29.937,29.937,0,0,1-4.125.637,33.419,33.419,0,0,1-4.289-.448,4.417,4.417,0,0,0-.186.8,7.5,7.5,0,0,0,9.975,7.4,6.026,6.026,0,0,0,1.087-.657,10.594,10.594,0,0,1-2.462-7.732ZM226.25,53.83a30.668,30.668,0,0,1,3.876,2.018,27.561,27.561,0,0,1,3.027,2.866c2.294-2.552,2.817-5.334,1.6-8.2a6.712,6.712,0,0,0-5.817-4.3C228.308,50.729,228.308,50.729,226.25,53.83Zm-21.34,4.927a29.6,29.6,0,0,1,3.17-2.945,31.621,31.621,0,0,1,3.908-1.98c-2.08-2.183-2.765-4.85-2.869-7.848a7.343,7.343,0,0,0-6.052,5.26,7.1,7.1,0,0,0,1.843,7.513Zm26.978,3.725a11.233,11.233,0,0,1-8.371-.159,11.861,11.861,0,0,1-2.5,7.909,6.7,6.7,0,0,0,7.525-.153,7.4,7.4,0,0,0,3.347-7.6Zm-10.7-5.533a6.116,6.116,0,0,0,2.65,3.017,6.542,6.542,0,0,0,3.658,1.061,5.183,5.183,0,0,0,3.534-.874,6.667,6.667,0,0,0-4.089-3.572,7.048,7.048,0,0,0-5.748.368Zm-14.08,3.257c3.066,2.016,8.835.151,9.572-3.212a7.055,7.055,0,0,0-9.568,3.212Zm10.561-5.851a6.247,6.247,0,0,0-1.085-5.05,7.232,7.232,0,0,0-4.826-3.223,6.926,6.926,0,0,0,5.915,8.272Zm2.653-.084c.23.059.378.148.5.12a7.413,7.413,0,0,0,5.75-7.308,3.993,3.993,0,0,0-.285-.986,7.2,7.2,0,0,0-4.91,3.365,6.219,6.219,0,0,0-1.051,4.808ZM219.038,68.8a5.618,5.618,0,0,0,2.135-4.39,6.72,6.72,0,0,0-2.1-5.76c-2.75,1.791-3.013,7.961-.031,10.149Z" transform="translate(406.247 177.134)" fill="#fff"/>
    </g>
    <g id="组_6055" data-name="组 6055" transform="translate(100.199 -110.63) rotate(10)">
      <g id="组_6061" data-name="组 6061">
        <path id="路径_50-2" data-name="路径 50" d="M210.664,114.916c-12.418-32.3-24.269-63.06-36.051-93.848-1.752-4.578.185-8.107,4.469-9.62C198.982,4.42,219.658,1.305,240.642.16c3.511-.191,5.748,2.345,6.346,5.907a29.287,29.287,0,0,1,.439,4.808c.031,29.046.163,58.092-.033,87.137-.072,10.537-.8,11.059-10.433,12.711C229.059,112.079,221.127,113.257,210.664,114.916Z" transform="translate(406.744 177.829)" fill="#992a8b"/>
        <g id="组_6060" data-name="组 6060" transform="matrix(0.985, -0.174, 0.174, 0.985, 195.549, -122.832)">
          <path id="路径_6283" data-name="路径 6283" d="M340.514,408.661l42.559,39.249-.791.86-42.559-39.248Z" transform="translate(-0.182 -3.798)" fill="#fff"/>
          <path id="路径_6284" data-name="路径 6284" d="M382.928,409.363l-42.559,39.248-.866-.941,42.559-39.248Z" transform="translate(0 -3.6)" fill="#fff"/>
          <path id="路径_6285" data-name="路径 6285" d="M400.266,424.144a5.637,5.637,0,0,0,.433,1.72l-.344-.015c-.415.055-.263,0-.3.5l-.073.258c.227.6-.327,6.6-.479,7.976-.633,4.438-.783,6.2-2.257,10.138-.217.579-.423,1.09-.629,1.627-.215.563-.474,1.062-.7,1.589l24.836.015c-.122-.36-.343-.751-.513-1.122a38.03,38.03,0,0,1-2.564-8.944c-.214-1.146-.245-1.839-.414-2.873-.2-1.231-.476-4.742-.517-6.035l-.144-3.133h-.431a3.248,3.248,0,0,1,.084-.412.959.959,0,0,1,.11-.376,5.509,5.509,0,0,0,4.739-2.183c.146-.19.3-.457.432-.606a4.5,4.5,0,0,0,2.716.813,4.327,4.327,0,0,0,2.087-.606c.187-.107.411-.3.535-.355a5.459,5.459,0,0,0,4.01-1.341,3.964,3.964,0,0,0,.774-1.012c.04-.09-.033-.026.053-.066.04-.223.029-.063-.051-.123v.048c-.021.069,0,.154-.121.146a4.616,4.616,0,0,1-3.346,1.978c-1.271.066-1.107-.231-1.62.116a4.089,4.089,0,0,1-4.727-.109l-.516-.423a3.926,3.926,0,0,1-.373.69,4.052,4.052,0,0,1-.493.636,4.738,4.738,0,0,1-3.912,1.629c-.256-.012-.8-.151-.966-.034l-.1.869-.2.7c-.151.082-.143.018-1.47.021h-11.95l-.192-.336a3.246,3.246,0,0,1-.436-1.55,4.364,4.364,0,0,1,.524-2.307,3.939,3.939,0,0,1,1.239-1.4c.089-.086.046-.049.083-.1a7.529,7.529,0,0,1-.628-1.625,6.145,6.145,0,0,1,7.81-7.3,5.691,5.691,0,0,1,2.529-3.009,5.4,5.4,0,0,1,3.51-.531c.406.08.971.3,1.1.313a9.883,9.883,0,0,1,.8-1.37,6.64,6.64,0,0,1,2.367-1.96,12.608,12.608,0,0,1,1.636-.586,6,6,0,0,0-3.031,1.172,7.043,7.043,0,0,0-1.957,2.25,6.406,6.406,0,0,0-2.3-.4,5.956,5.956,0,0,0-2.239.53,5.675,5.675,0,0,0-2.761,2.779,9.17,9.17,0,0,0-2.23-.143,6.867,6.867,0,0,0-4.656,2.406,7.814,7.814,0,0,0-.924,1.422,7.213,7.213,0,0,0-.663,3.958,12.539,12.539,0,0,0,.5,1.884,5.135,5.135,0,0,0-1.228,1.684,5.573,5.573,0,0,0-.448,2.514m.771,13.812a10.086,10.086,0,0,1,.336-3.837,7.38,7.38,0,0,1,14.177.827c1.5,5.984-5.3,11.254-10.943,7.95a7.4,7.4,0,0,1-2.664-2.684" transform="translate(-46.844)" fill="#fff"/>
          <path id="路径_6286" data-name="路径 6286" d="M473.008,570.745l.213.207a1.166,1.166,0,0,1,.354.591c.043.2,0,.25.135.328h4.2a5.641,5.641,0,0,0-1.683-3.969,4.15,4.15,0,0,0-1.126-.819c-.273.6-1.91,3.217-2.093,3.663" transform="translate(-110.85 -135.337)" fill="#fff"/>
          <path id="路径_6287" data-name="路径 6287" d="M453.471,604.677a3.957,3.957,0,0,0-.488.962c.3.072.781.361,1.2.476a5.609,5.609,0,0,0,4.28-.5c-.018-.283-1.908-3.256-2.079-3.715-.282.057-.3.154-.664.154s-.407-.12-.658-.138Z" transform="translate(-94.223 -164.248)" fill="#fff"/>
          <path id="路径_6288" data-name="路径 6288" d="M437.456,571.706l3.564.215a1.228,1.228,0,0,1,.5-1.006l.025-.026c.064-.07.016,0,.072-.092-.039-.123-1.888-3.39-2.1-3.652-1.391.333-3.9,4.6-2.071,4.562" transform="translate(-80.796 -135.388)" fill="#fff"/>
          <path id="路径_6289" data-name="路径 6289" d="M463.551,588.832a1.1,1.1,0,1,0,1.255.845,1.087,1.087,0,0,0-1.255-.845" transform="translate(-102.23 -153.375)" fill="#fff"/>
          <path id="路径_6290" data-name="路径 6290" d="M550.223,490.122h-.158a.2.2,0,0,0-.119.048l.3.006.032-.315c.181,0,.322.041.328-.164.006-.188-.087-.21-.264-.214-.426-.008-.43.247-.414.643a.907.907,0,0,0,.033-.423.434.434,0,0,1,.574-.1v.141c-.24.146-.346-.121-.321.374" transform="translate(-174.718 -70.907)" fill="#fff"/>
          <path id="路径_6291" data-name="路径 6291" d="M469.992,532.274l7.081,6.53.217,1.789-9.021-8.319Z" transform="translate(-106.915 -106.436)" fill="#fff"/>
          <path id="路径_6292" data-name="路径 6292" d="M425.85,532.274l-8.434,7.778.167-1.893,6.381-5.885Z" transform="translate(-64.691 -106.436)" fill="#fff"/>
        </g>
      </g>
    </g>
  </g>
</svg>
