<svg xmlns="http://www.w3.org/2000/svg" xmlns:xlink="http://www.w3.org/1999/xlink" width="1920" height="760" viewBox="0 0 1920 760">
  <defs>
    <clipPath id="clip-path">
      <rect id="矩形_366" data-name="矩形 366" width="1920" height="760" transform="translate(-0.453 -0.5)" fill="#fff"/>
    </clipPath>
    <linearGradient id="linear-gradient" x1="0.5" x2="0.5" y2="0.537" gradientUnits="objectBoundingBox">
      <stop offset="0" stop-color="#c9eff9"/>
      <stop offset="0.72" stop-color="#fff"/>
      <stop offset="1" stop-color="#a5eaff"/>
    </linearGradient>
    <linearGradient id="linear-gradient-2" x1="0.5" y1="1" x2="0.5" gradientUnits="objectBoundingBox">
      <stop offset="0" stop-color="#d2eef9"/>
      <stop offset="0.51" stop-color="#6fc0e0"/>
      <stop offset="1" stop-color="#2f6fc7"/>
    </linearGradient>
  </defs>
  <g id="Cloud_background" transform="translate(0.453 0.5)" clip-path="url(#clip-path)">
    <rect id="藍天" width="1920" height="600" transform="translate(-0.453 -0.5)" opacity="0.65" fill="url(#linear-gradient)"/>
    <rect id="矩形_26" data-name="矩形 26" width="1931.717" height="305" fill="url(#linear-gradient-2)"/>
    <g id="组_73" data-name="组 73" transform="matrix(1, -0.017, 0.017, 1, -28.375, 28.593)">
      <path id="路径_262" data-name="路径 262" d="M2072.91,599.253c-1.056-22.437-5.171-44.794-9.8-67.093-4.646-22.387-9.537-44.759-13.984-67.157-8.936-45.01-16.592-90.107-20.8-135.315q-1.581-17.01-2.48-34.034c-.475-9.178-.3-18.584-4.878-27.517-3.982-7.762-11.908-15.043-25.548-19.063-10.975-3.234-24.942-4.533-36.885-2.016l-.037.009a3.47,3.47,0,0,0-3.9-.452l-1.032.692a29.557,29.557,0,0,0-3.381-1.47c-4.378-1.6-10.192-2.282-15.437-2.446-9.571-.3-19.5,1.809-25.491,5.759-10.209-1.921-22.819.886-27.082,6.123-12.839-3.124-29.675,1.12-34.166,8.063-9.079-2.577-20.411-2.765-29.5.1-8.313,2.621-13.3,7.267-14.137,12.195-11.51-3.17-26.412-2.58-36.375,2.1-10.027,4.713-12.679,12.912-7.343,19.287-5.644.857-10.047,3.411-11.591,6.4a57.9,57.9,0,0,0-29.623.167c-8.308,2.432-13.955,7.039-15.405,11.953-16-7.727-34.629-14.464-56.887-15.236-21.9-.758-44.344,5.157-49.751,17-2.068,4.533-1.243,9.25,2.778,13.281-4.385.76-7.98,2.791-9.049,5.16a23.841,23.841,0,0,0-10.148,1.769c-2.448,1.057-4.063,2.4-4.713,3.865-11.209-1.884-25.072,1.378-29.419,7.177-8.429-1.137-17.717,2.882-18.781,7.35a44.523,44.523,0,0,0-23.346,3.521,22.485,22.485,0,0,0-11.8,12.939,4.291,4.291,0,0,0-.2.934c-20.544-9.336-56.311-4.972-67.889,7.718-22.541-8.144-57.646-.961-63.991,13.046a410.3,410.3,0,0,0-77.532,4.8c-4.7.759-12.071,3.032-16.648,2.757-4.607-.276-7.9-1.232-12.846-.844-6.922.543-13.09,2.5-16.964,5.478-14.122-4.8-34.543-2.922-44.284,4.345-18.594-8.522-50.231-6.54-64.57,4.019-17.015-6.474-40.411-6.521-57.611-.167-12.007-6.118-32.157-6.389-44.92-.781-14.752-7.993-39.463-9.189-57.173-3.374-2.285-13.013-15.42-25.437-35.582-33.107-22.2-8.447-51.8-10.458-77.626-5.968-5.708-15.964-44.3-25.668-71.206-17.106-30.935-13.513-77.874-14.6-110.494-2.12a129.976,129.976,0,0,0-30.918-5.319c-3.782-.2-4.785.041-7.279-1.423-1.692-.995-3.147-2.063-4.962-3.007a73.318,73.318,0,0,0-13.43-5.2,5.713,5.713,0,0,0-3.25,0c-2.563,1.035-5.085,2.085-7.589,3.147-4.048-11.565-11.844-23.786-30.729-30.833-15.819-5.9-38.323-7.19-54.26-1.14-13.782-17.827-48.475-27.635-84.7-25.488-21.832,1.292-43.147,5.88-65.306,5.415-12.078-.253-23.807-2.2-33.556-6.021-4.29-1.681-4.78-2.889-10.084-2.164-4.467.61-8.9,1.293-13.344,1.963-2.586-7.969-21.5-12.621-34.952-9.093-1.5-7.1-10.99-13.614-24.5-15.478-12.177-1.678-25.036.659-33.351,5.372-3.8-12.5-10.293-26.874-32.489-33.347-15.829-4.617-38.668-4.918-50.714,2.577-7.941-6.417-22.206-10.494-37.015-9.871-9.709.408-18.414,2.737-24.9,6.255-1.527-.61-3.974-.664-4.861.423-2.332,2.858-4.415,7.671-8.729,9.778-4.179,2.038-13.144,2.634-18.633,3.541-12.706,2.1-25.368,4.269-38.035,6.43-1.842.315-2.682,1.048-2.906,2.007-25.178,107.541-46.929,215.2-61.637,323.288-3.795,27.893-8.584,56.554,7.823,83.645.488.8,1.748,1.278,3.319,1.33q374.554,12.3,748.926,26.122,374.351,13.793,748.5,29.056c126.82,5.188,253.576,10.9,380.507,15.29-9.662,2.445-19.106,5.089-28.16,8.035-7.139,2.323-13.883,4.99-20.5,7.7-1.566.64.426,1.814,2.029,1.382q32.179-8.672,65.185-16.491c7.656.256,15.312.528,22.97.773,2.152.07,2.078-1.627,0-1.739-5.119-.28-10.244-.539-15.363-.813q13.711-3.174,27.564-6.167c33.529-7.223,67.446-14.071,99.66-22.845,16.191-4.409,31.95-9.3,46.749-14.909,13.866-5.257,26.444-11.428,32.659-20,7.013-9.68,7.535-20.932,8.747-31.157A205.037,205.037,0,0,0,2072.91,599.253Z" transform="translate(0 0)" fill="#fff" opacity="0.6" style="mix-blend-mode: soft-light;isolation: isolate"/>
      <path id="路径_263" data-name="路径 263" d="M2035,613.417q.026-34.146.056-68.293c.018-22.679.558-45.386-1.3-68.05-1.854-22.626-6.088-45.188-9.834-67.746q-5.639-33.958-11.216-67.917c-1.893-11.451-3.757-22.9-5.674-34.354-.946-5.66-1.933-11.319-2.9-16.979-.472-2.765-.941-5.529-1.458-8.293a8.973,8.973,0,0,0-2.179-4.7c.753-.392,1.2-.914,1.02-1.491q9.344-.907,18.661-1.9c2.214-.24,1.765-2.174-.543-2.048q-10.669.585-21.279,1.315c-27.422-18.847-80.633-23.843-118.211-9.44-8.957,3.433-16.642,7.711-22.438,12.612-2.836,2.4-4.309,5.133-7,7.521-1.875,1.666-.583,1.065-3.843,1.91-2.9.751-6.445,1.075-9.464,1.741-18.724,4.128-33.961,11.9-43.316,21.1-9.449,9.292-12.939,19.945-8.756,30.113-23.764-6.1-53.558-1.379-72.437,8.06-26.752,13.376-28.868,34.45-29.284,52.637-30.77-7.446-70.966,2.673-79.035,19.458-22.352-5.192-51.3,2.62-55.844,14.886-23.622-5.039-51.633-3.828-72.336,4.239-19.567,7.624-29.332,20.1-27.5,32.4-23.179-6.84-56.3-.67-66.913,11.62-6.775-4.954-21.17-7.409-32.581-5.258-13.04,2.457-18.588,8.767-19.135,15.352-24.546-19.466-70.043-31.758-115.921-29.218-52.094,2.885-96.45,24.436-106.378,50.508-40.051-7.272-87.509,3.391-103.816,23.466-9.512-3.543-21.984-3.848-32.186-.925-5.04-15.225-11.711-32.269-35.229-42.923-17.8-8.067-44.64-12-66.312-6.364,1.063-10.494-8.54-20.97-26.57-26.56-17.406-5.4-39.126-4.987-56.409-.128,27.607-21.681,24.429-48.423-5.179-66.845-36.693-22.826-91.436-26.041-146.742-18.222-20.972,2.965-39.308,8.467-53.8,16.421,5.9-11.014,9.981-23.176-.558-33.511-8.591-8.426-26.788-14.505-45.32-12.778-11.714-20.994-60.009-32.294-91.154-35.1-47.334-4.269-101.151-3.268-140.9,14.128-2.5,1.1-4.847,2.268-7.14,3.475-1.413.743-6.118-1.935-7-2.344-7.107-3.3-20.946-.373-22.646,4.234,3.051-8.273,4.162-17.674-8.391-23.739-9.126-4.409-23.61-6.11-33.812-2.277-17.953-15.452-65.726-16.991-88.407-3.656-8.441-10.256-37.852-13.7-54.345-6.606-7.209-7.439-32.381-8.85-40.861-1.46a4.745,4.745,0,0,0-1.507.216c-8.515,2.664-17.04,5.32-25.5,8.034-2.329.747-6.118,1.421-7.386,2.739-1.809,1.881-1.517,5.424-2.024,7.5q-3.915,15.99-7.427,32-7.111,32.408-12.579,64.9-10.8,64.219-15.239,128.664-2.538,36.81-2.97,73.647c-.01.942,1.509,1.611,3.264,1.665q296.39,9.336,592.791,18.585L1152.39,647.9l166.344,5.208c47.478,1.487,94.936,2.588,142.437,3.625l-10.653,1.561c-4.17.61-3.178,3.642,1,3.762,2.831.083,5.661.14,8.492.218a5.493,5.493,0,0,0-.652,2.9c.35,4.927,8.092,8.464,17.426,8.945,9.157.473,18.159-2.281,20.353-6.979a5.721,5.721,0,0,0,.294-4c73.936,1.439,147.969,1.252,221.923.016,89.366-1.493,178.608-4.425,267.807-7.532,11.335-.394,22.694-.712,34.017-1.19,3.343-.14,6.8-.339,9.6-1.364,3.462-1.268,4.119-3.262,4.2-5.313C2035.4,636.321,2034.994,624.858,2035,613.417Zm-554.294,43.742c-.17.716.391,1.445,2.09,1.87.053.014.1.034.152.048-2.805-.067-5.608-.157-8.413-.228a20.115,20.115,0,0,1,2.054-.351c1.547-.225,2.362-.767,2.6-1.373Zm-3.013,13.073c-5.484-.224-10.382-2.127-10.707-5.06a3.79,3.79,0,0,1,.9-2.7q10.642.272,21.286.514C1490.97,666.5,1486.762,670.6,1477.694,670.232Z" transform="translate(8.564 9.787)" fill="#fff" opacity="0.4" style="mix-blend-mode: soft-light;isolation: isolate"/>
      <g id="组_72" data-name="组 72" transform="translate(-15.786 306.045)">
        <path id="路径_264" data-name="路径 264" d="M2009.189,436.022c-1.533-23.163-4.232-46.311-6.511-69.457q-3.419-34.688-6.833-69.378c-.283-2.863-.626-5.726-.945-8.587-.152-1.36-2.776-2.084-5.172-1.493a19.385,19.385,0,0,0-4.531,1.689,9.679,9.679,0,0,0-2.13.592c-32.493-6.157-69.739-.214-92.718,12.75-22.044,12.436-33.748,30.781-25.529,47.193,2.735,5.464,7.956,10.632,15.714,14.56-9.97.72-19.268,3.856-23.087,8.758-4.554,5.844.361,12.577,9.764,16.4-9.14,1.482-17.153,4.6-20.13,9.379-1.9,3.053-1.324,6.389,1.285,9.21-32.8-4.02-68.27-3.551-99.113,3.682-31.726,7.44-54.489,22.611-59.2,40.125a23.381,23.381,0,0,0,3.513,19.67c-7.065-2.186-14.933-3.541-23.038-2.23-7.217,1.168-13.241,4.266-14.6,7.82-23.435-6.785-54.017-7.128-77.656-.351-20.944,6.005-35.056,17.088-38.386,28.982-6.7-3.341-16.731-5.243-25.753-6.219-19.7-2.13-40.8-2.395-60.86-1.838a538.241,538.241,0,0,0-61.88,5.246c-19.369,2.8-39.7,6.479-56.8,11.941-12.059,3.853-25.271,10.189-26.807,17.529-11.425-4.572-26.2-6.758-41.039-5.559-14.011,1.135-26.263,5.36-34.214,11.128-7.286-8.929-33.075-12.937-50.666-13.487-26.157-.819-52.76,3.534-73.481,11.53a96.424,96.424,0,0,0-24.695,13.452c-11.652-7.745-37.333-7.146-52.166-1.3-.567.223-1.056.484-1.594.723-.387-.229-.734-.471-1.141-.692-15.683-8.49-43.3-9.156-61.409-2.428-22.224-12.418-49.623-22.751-81.2-28.265-30.417-5.311-64.389-5.534-94.505.464-14.2,2.829-27.2,6.955-37.992,12.354-5.962-23.558-48.073-43.239-95.322-44.319,14.395-8.435,21.089-21.371,8.528-31.188-10.294-8.045-32.764-12.3-50.283-8.342,2.859-9.515-1.532-20.133-15.9-26.792-15.09-7-37.853-6.613-53.046.175-6.3,2.817-10.042,6.544-10.452,10.608a124.668,124.668,0,0,0-39.6-3.44c34.95-16.321,41.289-46.506,12.113-66.04-18.678-12.507-48.008-20.165-78.562-22.215-32-2.147-63.995,2.391-89.774,12.091-27.208,10.238-46.692,25.268-55.624,41.709-9.1-11-21.807-21.423-40.238-29.053-17.032-7.052-38.273-11.393-60.178-11.245,10.676-5.706,12.862-15.5,1.306-21.451-13.035-6.715-36.086-4.71-46.646,2.343-11.266-11.745-37.183-19.716-63.387-18.265-27.146,1.5-49.9,12.414-54.311,25.836a8.694,8.694,0,0,0-2.382,1.984,5.628,5.628,0,0,0-.518,2.649q-.3,2.9-.6,5.807c-.4,3.871-.755,7.742-1.11,11.615Q16.639,374,15.574,385.608q-2.129,23.229-4.257,46.456Q7.133,478.2,2.951,524.328L.61,550.137q-.6,6.613-1.2,13.227c-.268,2.943-.747,5.906-.762,8.859a122.746,122.746,0,0,0-22.835,3.423c-3.366.847-2.869,4,1.115,4.291,33.3,2.446,66.707,1.536,100.068,0,33.39-1.543,66.715-3.268,100.2-4.247,67.513-1.971,135.171-2.123,202.774-1.633,136.646.99,273.283,3.222,409.9,4.917q109.8,1.362,219.611,2.294c-.18,2.555.3,5.147,4.294,6.863,2.6,1.115,6.052,1.535,9.3,1.908,4.878.56,9.774,1.08,14.675,1.589q14.221,1.478,28.53,2.73,27.762,2.434,55.761,4.12c38.144,2.34,76.489,3.757,114.862,4.693,77.074,1.879,154.268,1.814,231.368,3.338,79.188,1.565,158.209,5.091,237.217,8.091q119.238,4.525,238.474,9.043l14.5.548c-.3.552-.592,1.107-.9,1.659q-2.218,4-4.538,7.977c-1.445,2.478,5.777,3.365,7.549,1.046a55.282,55.282,0,0,0,6.333-10.363l6.135.232c5.45.207,5.424-4.064,0-4.27l-4.42-.167c.082-.237.162-.48.245-.72a398.771,398.771,0,0,0,21.7-50,341.183,341.183,0,0,0,16.373-66.321A326.733,326.733,0,0,0,2009.189,436.022ZM4.888,576.912l.005-.022c3.289-.021,6.588.092,9.877.325Q9.825,577.1,4.888,576.912Z" transform="translate(-4.44 -279.173)" fill="#fff"/>
        <path id="路径_265" data-name="路径 265" d="M196.12,465.788a12.175,12.175,0,0,0-2.471,1.633,10.96,10.96,0,0,1-2.312,1.615,23.682,23.682,0,0,1-5.517,2.344,19.44,19.44,0,0,1-6.259.563c-.716-.045-1.436-.109-2.15-.2a16.683,16.683,0,0,1-4.293-2.146.784.784,0,0,0-.515-.14,28.976,28.976,0,0,0,.341-3.681c.014-.447-.6-.475-.736-.1a31.163,31.163,0,0,1-2,4.358,15.446,15.446,0,0,1-2.338,3.012,10.7,10.7,0,0,1-7.37,3.181c-2.958.164-4.9-1.664-6.509-3.958a34.657,34.657,0,0,1-1.842-3.023,42.46,42.46,0,0,0,9.656-2.958,39.858,39.858,0,0,0,7.716-4.544c1.2-.9,2.366-1.843,3.468-2.858a10.266,10.266,0,0,0,1.706-1.826,2.6,2.6,0,0,0,.246-.492,12.82,12.82,0,0,0,6.413,2.952,14.707,14.707,0,0,0,7.662-1.142,19.231,19.231,0,0,0,6.842-4.35,1.108,1.108,0,0,0-1.337-1.732c-1.9,1.005-3.542,2.412-5.507,3.335a13.828,13.828,0,0,1-6.2,1.448c-3.745-.1-6.987-2.419-7.4-6.262-.21-1.96-3.161-2.722-3.688-.5a3.509,3.509,0,0,0-.008,1.579,11.654,11.654,0,0,1-4.675,3.883,44.788,44.788,0,0,1-6.447,2.867,48.517,48.517,0,0,1-13.617,2.7c-9.01.471-18.518-1.425-26.293-6.127a15.741,15.741,0,0,1-5.357-4.731c-1.043-1.667-1.609-3.546-2.481-5.278a1.891,1.891,0,0,0-.815-2.917.739.739,0,0,0-.57-.1,1.352,1.352,0,0,0-.386.071l-.126-.017a2.767,2.767,0,0,0-.83.259,6.965,6.965,0,0,0-1.294.887,13.2,13.2,0,0,1-2.374,1.473,12.814,12.814,0,0,1-5.675,1.207,14.841,14.841,0,0,1-5.626-1.092,22.551,22.551,0,0,1-3.589-2.054c-.189-.232-.374-.468-.549-.717a1.829,1.829,0,0,0-.653-.582c-.023-.037-.052-.072-.075-.11-.556-.935-1.075-1.892-1.611-2.838a19.644,19.644,0,0,1-1.054-2.295c0-.066-.006-.133-.006-.2a.354.354,0,0,0-.2-.3c-.025-.057-.048-.115-.071-.172-.219-.513-.872-.163-.925.25a14.19,14.19,0,0,0,.534,6.285,5.9,5.9,0,0,1-1.011,2.5A62.473,62.473,0,0,1,71.1,446.617a38.619,38.619,0,0,1-8.712-.76,21.111,21.111,0,0,1-3.837-1.337c-.724-.319-1.519-.666-2.279-1.044a1.929,1.929,0,0,0-.977-.817l-.126-.049a1.641,1.641,0,0,0-1.847.751c-1.241,2.248,1.773,5.318,3.35,6.648a14.961,14.961,0,0,0,1.414,1.039,8.632,8.632,0,0,1-2.013,5.657c-2.041,2.586-4.653,4.612-6.851,7.048-5.84-.176-13.081,2.215-14.372,8.289a.79.79,0,0,0,1.309.762,22.515,22.515,0,0,1,7.288-4.389,15.162,15.162,0,0,1,5.511-.579,2.2,2.2,0,0,0,.241.122c1.732.662,4.178.614,5.6,1.879a2.807,2.807,0,0,1,.907,2.11c-.018,1-.6,1.251-1.357,1.755a1.872,1.872,0,0,0,1.436,3.406,2.579,2.579,0,0,1,1.34.567c.61.684.12,2.032-.133,2.737a14.876,14.876,0,0,1-2.026,3.685A16.416,16.416,0,0,1,49.2,488.93a2.751,2.751,0,0,0-.582-.2,1.86,1.86,0,0,0-2.3,1.641c-.167,1.479,1.056,2.357,1.919,3.393a39.113,39.113,0,0,1,2.481,3.281,27.38,27.38,0,0,1,3.31,7.832,33.679,33.679,0,0,1,.429,16.584,1.693,1.693,0,0,0,3.078,1.3,32.89,32.89,0,0,1,12.519-10.479,32.2,32.2,0,0,1,7.7-2.546,21.662,21.662,0,0,1,3.925-.479,7.408,7.408,0,0,0,3.6-.516c.7.308,1.412.405,2.167.773.94.458,2.079-.76,1.189-1.541-.6-.526-.8-1.291-1.29-1.912-.478-.6-1.036-1.134-1.523-1.73a17.058,17.058,0,0,1-2.31-3.657,13.789,13.789,0,0,1-1.329-5.955c.877-2.965,3.016-5.651,6.34-5.689,3.2-.039,7.2,2.511,8.163,5.643a1.637,1.637,0,0,0,3.2-.433c.177-1.469,1.151-3.217,2.849-3.142,1.967.086,2.344,2.639,2.492,4.147a1.631,1.631,0,0,0,2.743,1.136,3.552,3.552,0,0,1,3.765-.837,1.794,1.794,0,0,1,1.037,1.716,2.442,2.442,0,0,0,.273,2.731,1.386,1.386,0,0,0,1.65.212c.9-.4,1.264-1.355,2.23-1.741,1.225-.491,2.54-.114,3.786.109,2.671.48,5.341.958,8.037.366a14.957,14.957,0,0,0,6.746-3.883c1.16-1.057,2.277-2.165,3.41-3.251a15.979,15.979,0,0,1,3.5-3,5.971,5.971,0,0,1,1.21.594,5.165,5.165,0,0,1,1.7,2.62,6.739,6.739,0,0,1,.285,2.98c-.1.762-.5,2.935-1.373,3.209a1.818,1.818,0,0,0-1.075,2.642c.829,1.3,2.184,1.583,3.552,2.119a14.19,14.19,0,0,1,3.84,2.2,25.407,25.407,0,0,1,5.7,6.547,19.35,19.35,0,0,1,2.971,8.707c.17,3.078-.359,6.426.313,9.439a1.4,1.4,0,0,0,1.7,1.013c-.2,1.184-.409,2.358-.572,3.5-.3,2.079-.3,4.17-.717,6.236-.4,1.958-1.05,3.989-.888,6,.035.435.593.767.932.386a9.745,9.745,0,0,0,1.338-1.963.531.531,0,0,0,.733-.11c3.094-3.446,5.67-7.593,6.433-12.218a37.369,37.369,0,0,0-.581-14.679,33.427,33.427,0,0,0-6.2-12.9c-2.81-3.58-7.867-7.21-7.479-12.284a8.463,8.463,0,0,1,1.229-3.734,5.013,5.013,0,0,1,5.512-1.948,15.082,15.082,0,0,1,3.053,1.647,11.721,11.721,0,0,1,2.581,2.55.624.624,0,0,0,1.054-.436,7.282,7.282,0,0,0-1.16-3.375,6.406,6.406,0,0,0-2.5-2.836,8.491,8.491,0,0,0-.782-.394,12.708,12.708,0,0,0,4.293-1.056A13.8,13.8,0,0,0,171.966,480a12.368,12.368,0,0,0,1.826-2.418,8.228,8.228,0,0,0,.455-1.1,16.855,16.855,0,0,0,12.287,1.362,11.823,11.823,0,0,0,5.8-3.732,18.085,18.085,0,0,0,1.966-2.79c.51-.491,1-1,1.475-1.513a5.744,5.744,0,0,0,1.474-3.15A.779.779,0,0,0,196.12,465.788Z" transform="translate(44.496 -243.059)" fill="#d7eef4"/>
        <path id="路径_266" data-name="路径 266" d="M78.685,373.614c-5.175,3.795-11.233,6.9-17.729,7.457a30.721,30.721,0,0,1-9.86-.627c-.439-.107-.878-.242-1.32-.382a11.023,11.023,0,0,1-3.151-2.136c-1.254-1.242-1.611-2.919-2.729-4.192a1.3,1.3,0,0,0-2.219.637l-.061-.035a3.422,3.422,0,0,0-.08.931.963.963,0,0,0-.216.281c-.426.856-.939,2.071-2.064,2.13-1.342.071-1.75-1.515-1.9-2.549-.35-2.434-3.834-1.581-4.02.544a9.9,9.9,0,0,1-8.075,8.892,13.107,13.107,0,0,1-6.658-.584,5.938,5.938,0,0,1-3.577-4.115,3.029,3.029,0,0,0,.335-1.247c-.014-.484-.321-.821-.278-1.307.075-.853-1.391-1.066-1.513-.2-.073.316-.909,1.1-1.145,1.406a5.515,5.515,0,0,1-1.514,1.406,4.25,4.25,0,0,1-4.547-.238,10.086,10.086,0,0,1-2.55-3.468,37.293,37.293,0,0,1-2.268-4.973c-.167-.468-1-.443-.935.126.1.92.2,1.886.342,2.858-1.083-1.47-2.173-2.937-3.239-4.41a80.7,80.7,0,0,1-7.262-11.99c-.293-.6-1.212-.173-1.054.444a78.339,78.339,0,0,0,4.168,12.611,42.26,42.26,0,0,0,2.787,5.609c.4.626.837,1.224,1.269,1.826a25.53,25.53,0,0,0,.929,4.716,43.6,43.6,0,0,0,2.538,6.195,27.777,27.777,0,0,0,8.124,9.827,21.211,21.211,0,0,0,7.776,3.648,1.2,1.2,0,0,0,.435.619,3.128,3.128,0,0,1,1.365,3.765c-.733,1.9-2.483,3.479-3.782,4.993a2.313,2.313,0,0,0-.364.576c-2.278,1.01-5.555,2.895-5.458,5.586a.411.411,0,0,0,.4.4,6.982,6.982,0,0,0,3.113-1.062,28.608,28.608,0,0,1,3.937-1.575,41.289,41.289,0,0,1,8.308-1.453,56.774,56.774,0,0,1,8.675-.355,30.413,30.413,0,0,1,4.388.759c1.29.26,2.636.4,3.839.706a1,1,0,0,0,1.12-1.457,7.962,7.962,0,0,0-2.861-2.987,9.9,9.9,0,0,0-3.479-1.182,1.933,1.933,0,0,0-.807-.482A28.9,28.9,0,0,1,30,407.34c-1.642-.913-.819-2.691.047-3.911a18.915,18.915,0,0,1,1.395-1.707,30.381,30.381,0,0,0,5.932-2.874,32,32,0,0,0,6.615-5.065c.943-1.028,1.965-1.967,2.949-2.955a21.655,21.655,0,0,1,1.607-1.553,4.305,4.305,0,0,1,1.085-.619c1.891,1.552,4.982,2.124,7.235,2.164a16.218,16.218,0,0,0,3.413-.3,4.012,4.012,0,0,1,1.263.984,7.408,7.408,0,0,0,.238,1.083,9.133,9.133,0,0,0,.689,1.627c.061,2.511-1.331,4.765-2.576,6.874-.944,1.6,1.444,3.6,2.659,2.053,2.608-3.323,7.166-4.169,11.159-4.438a1.365,1.365,0,0,0,.683-2.52c-2.3-1.6-6.837-2.993-6.894-6.376a5.707,5.707,0,0,1,.979-3.205,34.317,34.317,0,0,0,4.82-3.915c.838-.83,1.776-1.73,2.671-2.691a19.663,19.663,0,0,0,4.24-4.861C80.759,374.237,79.609,372.938,78.685,373.614Z" transform="translate(31.083 -266.054)" fill="#d7eef4"/>
        <path id="路径_267" data-name="路径 267" d="M189.58,423.158a7.794,7.794,0,0,0-2,.366c-.688.194-1.072.142-1.834.289-1.457.281-2.893.65-4.354.91a8.955,8.955,0,0,1-6.7-1.226c-1.805-1.328-2.674-3.65-3.417-5.68-.405-1.106-.679-2.252-.989-3.387-.085-.31-.17-.627-.238-.947a9.754,9.754,0,0,1,1.4-3.268c.569-.881,1.263-1.654,1.826-2.546l1.849-2.923c.8-1.273-.841-3.038-2.132-2.132a19.473,19.473,0,0,1-5.433,2.77c-.231.071-.468.127-.7.192a8.128,8.128,0,0,1-1.247-.04c-1.712-.2-4.129-.76-3.941-2.927.159-1.842-2.579-2.044-3.1-.42-.756,2.347-3.5,3.777-5.68,4.537-.887.31-1.82.615-2.769.861a31.472,31.472,0,0,1-7.009-.657c-5.222-1.144-10.838-3.323-13.91-7.912-.369-.782-.534-1.663-.957-2.418a.41.41,0,0,0-.739.1,6.78,6.78,0,0,0,.052,2.99c.034.218.1.426.142.641a19.7,19.7,0,0,0,1.039,6.245,16.318,16.318,0,0,0,3.265,5.7c2.753,2.891,7.194,4.442,11.068,4.947a27.034,27.034,0,0,0,11.564-1.067c.361-.115.711-.272,1.07-.4a9.593,9.593,0,0,0,2.016-.793c.132-.065.272-.146.417-.233.545-.262,1.1-.512,1.619-.811.1-.06.206-.127.308-.19a3.315,3.315,0,0,1,1.506,1.672c.234.443.113.25.074.149.047.123.087.249.126.374a7.713,7.713,0,0,1,.19.763l.016.078c.014.131.023.264.031.4a8.08,8.08,0,0,1-.012,1.078,12.1,12.1,0,0,1-2.584,5.882,12.336,12.336,0,0,1-4.762,3.986,6.438,6.438,0,0,1-6.741-1.119c-.228-.229-.655.075-.46.356a8.567,8.567,0,0,0,6.371,3.709,10.651,10.651,0,0,0,7.791-2.577c1.748-.531,3.815-.293,5.569-.271,2.77.036,5.546.1,8.317.087a12.583,12.583,0,0,0,5.44.554,14.272,14.272,0,0,0,5.105-1.524,7.816,7.816,0,0,0,1.8-1.294c.672-.657,1.584-.948,2.228-1.68A.707.707,0,0,0,189.58,423.158Z" transform="translate(281.583 -254.583)" fill="#d7eef4"/>
        <path id="路径_268" data-name="路径 268" d="M92.537,411.166c.1-1.214-1.871-1.792-2.366-.641a5.349,5.349,0,0,1-5.388,2.939,4.448,4.448,0,0,1-3.488-4.868c.154-2.033-2.917-1.967-3.134,0a8.267,8.267,0,0,1-6.626,6.969c-1.631.354-3.564.282-4.756-1.027-1.083-1.19-1.158-2.972-2.29-4.021a.908.908,0,0,0-1.056-.136c-1.653.784-1.612,2.8-1.015,4.53a7.841,7.841,0,0,0,.6,3.659,12.245,12.245,0,0,0,2.448,3.849,13.985,13.985,0,0,0,8.168,4.407,13.46,13.46,0,0,0,9.119-1.995,14.39,14.39,0,0,0,3.374-2.931,9.578,9.578,0,0,0,2.155-3.628,9.073,9.073,0,0,0,4.2-6.748l.009-.022h-.005C92.5,411.388,92.526,411.28,92.537,411.166Z" transform="translate(52.526 -251.429)" fill="#d7eef4"/>
        <path id="路径_269" data-name="路径 269" d="M158.148,360.491c-.181-.657-.874-.715-1.438-.774a1.319,1.319,0,0,1-.146-.018c-.194-.027-.368-.048-.558-.058l-.071-.005a1.757,1.757,0,0,0-.523-.254c-.245-.061-.5-.092-.743-.14l-.341-.07c.319.158.313.164-.014.017a1.576,1.576,0,0,0-.808-.18l-.785-.086c-.075-.008-.294.012-.355-.039.3.04.367.049.2.023-.071-.01-.141-.022-.212-.035s-.154-.034-.232-.051a1.754,1.754,0,0,0,.421-.842.921.921,0,0,0-.869-1.14,5.106,5.106,0,0,0-.733.048,7.505,7.505,0,0,1-.917-.1,1.143,1.143,0,0,1-.944-.4,1.62,1.62,0,0,0-2.527.325,3.645,3.645,0,0,1-1.432,1.72,5.318,5.318,0,0,1-.484.264c.128-.044.1-.031-.1.041.167.009.145.016-.069.017a4.4,4.4,0,0,1-.539.036c-.078,0-.506-.058-.514-.044-.175-.045-.345-.093-.515-.153-.128-.045-.653-.334-.269-.092-.373-.236-.769-.434-1.15-.659l-.115-.082c-.159-.131-.319-.26-.484-.382a3.163,3.163,0,0,0-.479-.268,2.2,2.2,0,0,0-2.63.159,2.518,2.518,0,0,0-.2,2.913,4.674,4.674,0,0,0,1.768,1.7,6.323,6.323,0,0,0,4.466.737,6.059,6.059,0,0,0,1.689-.584,11.652,11.652,0,0,0,1.555-.859c.194-.145.363-.307.536-.465.562,1.44,2.559,1.983,3.938,2.248a6.882,6.882,0,0,0,2.538.159,4.2,4.2,0,0,0,2.042-.748C157.007,362.09,158.43,361.518,158.148,360.491Z" transform="translate(288.605 -266.529)" fill="#d7eef4"/>
        <path id="路径_270" data-name="路径 270" d="M687.447,413.72c-.18-.657-.874-.715-1.436-.773-.118-.013.035.005-.146-.019s-.368-.048-.559-.057l-.07-.005a1.717,1.717,0,0,0-.524-.254c-.245-.062-.495-.093-.742-.141-.021,0-.341-.069-.341-.07.319.158.313.164-.016.017a1.588,1.588,0,0,0-.807-.18q-.394-.041-.786-.085c-.075-.008-.294.012-.355-.039.3.04.366.049.2.025l-.212-.035c-.079-.014-.155-.035-.233-.051a1.742,1.742,0,0,0,.421-.842.92.92,0,0,0-.868-1.141,5.3,5.3,0,0,0-.733.048,7.188,7.188,0,0,1-.917-.095,1.155,1.155,0,0,1-.945-.4,1.618,1.618,0,0,0-2.525.325,3.643,3.643,0,0,1-1.434,1.719c-.157.1-.318.185-.484.266.13-.045.1-.031-.1.04.168.009.145.016-.067.018a4.725,4.725,0,0,1-.539.036c-.078,0-.506-.06-.515-.045-.174-.044-.345-.092-.515-.153-.128-.044-.653-.334-.269-.091-.373-.237-.768-.435-1.149-.659l-.117-.083c-.158-.131-.317-.26-.484-.381a3.158,3.158,0,0,0-.478-.269,2.2,2.2,0,0,0-2.63.159,2.516,2.516,0,0,0-.2,2.913,4.675,4.675,0,0,0,1.768,1.7,6.319,6.319,0,0,0,4.467.737,6.074,6.074,0,0,0,1.689-.584,11.722,11.722,0,0,0,1.555-.857c.194-.146.361-.308.535-.466.563,1.441,2.559,1.984,3.94,2.25a6.908,6.908,0,0,0,2.538.158,4.2,4.2,0,0,0,2.042-.747C686.306,415.32,687.729,414.747,687.447,413.72Z" transform="translate(1243.306 -250.819)" fill="#d7eef4"/>
        <path id="路径_271" data-name="路径 271" d="M25.431,481.057c-2.155,1.906-4.9,1.048-6.571-.913a2.442,2.442,0,0,0-2.487-.882c-.256.03-.277.065-.065.106l-.53-.071a4.215,4.215,0,0,0-.995.227,18.1,18.1,0,0,0-2.154,1.039,12.229,12.229,0,0,1-8.356,1,12.569,12.569,0,0,1-3.9-1.625,14.889,14.889,0,0,0-3.485-2.1.827.827,0,0,0-1.037.79,5.3,5.3,0,0,0,1.82,3.594,25.571,25.571,0,0,0-5.45-.979,1.569,1.569,0,0,0-.786,2.9c2.395,1.177,4.681,2.546,7.034,3.8,2.1,1.116,4.116,2.744,6.463,3.314,4.585,1.113,8.737-2.5,12.186-5.34a8.625,8.625,0,0,0,5.235.429c2.367-.562,3.4-2.19,4.53-4.169A.929.929,0,0,0,25.431,481.057ZM5.177,486.05a14.651,14.651,0,0,0,3.911.17A4.568,4.568,0,0,1,5.177,486.05Z" transform="translate(31.467 -230.56)" fill="#d7eef4"/>
        <path id="路径_272" data-name="路径 272" d="M222.494,434.531a.292.292,0,0,0-.3-.355c-.685-.525-1.694.031-2.26.57-.031.03-.06.062-.091.092a1.007,1.007,0,0,0-.364.111c-.142.076-.3.129-.44.2a29.275,29.275,0,0,1-9.924,1.391,14.041,14.041,0,0,1-4.283-1.517c-3.633-2.04-7.087-4.951-8.96-8.752-.365-.9-.671-1.817-1.106-2.691-1.281-2.576-5.4-.774-4.611,1.944.067.229.171.431.25.651a19.236,19.236,0,0,0,.357,2.4,33.769,33.769,0,0,0,1.43,5.257,20.8,20.8,0,0,0,5.006,8.153,13.421,13.421,0,0,0,2.336,1.774,15.183,15.183,0,0,1-5.95,1.457,11.635,11.635,0,0,1-6.394-1.57c-2.128-1.331-3.059-3.647-4.806-5.31a.409.409,0,0,0-.636.082c-1.381,2.575.46,5.911,2.312,7.709a13.509,13.509,0,0,0,8.334,3.617c.2.021.4.023.6.034.085.171.164.345.265.526a7.883,7.883,0,0,0,.661.986q.639.822,1.281,1.64a16.918,16.918,0,0,0,2.79,3.2,1.3,1.3,0,0,0,1.464-.1,1.34,1.34,0,0,0,.471-1.386c-.29-1.254,1.734-2.083,2.7-2.507a9.821,9.821,0,0,0,3.481-2.226,7.609,7.609,0,0,0,2.7,1.173,8.818,8.818,0,0,0,5.385-.519A8.451,8.451,0,0,0,218,447.233a.471.471,0,0,0-.525-.684,17.6,17.6,0,0,0-1.834.439c-.637.166-1.259.256-1.9.395a8.163,8.163,0,0,1-3.5.269,4.492,4.492,0,0,1-2.268-1.44,3.683,3.683,0,0,1-.475-.641,19.03,19.03,0,0,0,7.5-2.265,20.259,20.259,0,0,0,6.666-5.789C222.214,436.771,223.064,435.494,222.494,434.531Z" transform="translate(364.849 -246.931)" fill="#d7eef4"/>
        <path id="路径_273" data-name="路径 273" d="M247.5,499.871c-.207-3.624,1.75-7,4.177-9.614.5-.46.979-.939,1.436-1.432a1.4,1.4,0,0,0-1.985-1.984c-2.91,3.046-6.711,3.8-10.782,3.957-2.893.114-9.555-.383-9.607-4.357a1.478,1.478,0,0,0-2.731-.74c-5.323,8.116-17.229,9.956-23.895,2.619a1.988,1.988,0,0,0-2.961-1.1,2.556,2.556,0,0,0-.579,3.827,3.055,3.055,0,0,1-2.584,3.135,1.488,1.488,0,0,0-.885,2.176l.365.536a20.6,20.6,0,0,1-14.038,10.69c-2.356.5-1.577,3.74.532,3.936,3.787.351,7.595.527,11.391.771,3.486.223,6.983.544,10.477.6,5.3.078,11.125-.711,14.939-4.7,7.859-.345,15.7-.9,23.541-1.519a2.191,2.191,0,0,0,1.369-.613c1.735,2.726,4.4,4.753,7.24,2.664a.648.648,0,0,0,.13-1C250.645,505.3,247.72,503.681,247.5,499.871Z" transform="translate(374.821 -228.434)" fill="#d7eef4"/>
        <path id="路径_274" data-name="路径 274" d="M334.321,502.655c-2.22,1.037-5.433.2-7.324-1.26a6.473,6.473,0,0,1-2.13-3.054,12.326,12.326,0,0,1-.206-1.908c-.119-.68-.638-1.039-.629-1.77a1.558,1.558,0,0,0-1.956-1.489,4.322,4.322,0,0,1-4.532-1.212,2.028,2.028,0,0,0-2.415-.312c-1.678,1.089-3.3,2.421-5.292,2.917a5.255,5.255,0,0,1-5.583-2.616.61.61,0,0,0-.948-.123,40.987,40.987,0,0,1-3.955,3.315c-1.119.8-2.374,1.356-3.54,2.1-2.377,1.509-4.438,3.467-6.894,4.859a11.388,11.388,0,0,1-3.431,1.47c-.923.168-1.971.2-2.235,1.353a1.323,1.323,0,0,0,1.966,1.527,6.667,6.667,0,0,0,2.2.023,10.747,10.747,0,0,0,2.4-.771,16.146,16.146,0,0,0,2.448-1.417,6.656,6.656,0,0,0-.653,1.952.543.543,0,0,0,.659.659,6.554,6.554,0,0,0,1.724-.673c.532-.334.988-.762,1.484-1.144a16.732,16.732,0,0,0,1.746-1.614,1.811,1.811,0,0,0,1.935.211c.228-.111.461-.214.69-.322,1.211,1.11,2.967.6,4.431.291a22.985,22.985,0,0,1,6.007-.26,89.408,89.408,0,0,0,9.883.427c.009.029.025.052.034.08a2.15,2.15,0,0,0,3.749.516,8.48,8.48,0,0,0,1.492,1.355c3.279,2.327,7.25,1.559,10.287-.7A1.4,1.4,0,0,0,334.321,502.655Z" transform="translate(535.964 -226.555)" fill="#d7eef4"/>
        <path id="路径_275" data-name="路径 275" d="M456.482,499.468a23.263,23.263,0,0,0,5.885-9.826,1.4,1.4,0,0,0-2.028-1.559c-.883.554-4.106,2.487-4.126.072a.732.732,0,0,0-1.353-.366,6.606,6.606,0,0,1-5.89,3.2c-1.87-.089-4.368-1.416-4.458-3.41-.1-.93-1.609-1.344-1.791-.242a7.452,7.452,0,0,0,.306,3.69,4.133,4.133,0,0,1-.7,1.662,7.8,7.8,0,0,1-3.966,2.86,5.729,5.729,0,0,1-4.293-.074,5.432,5.432,0,0,1-1.645-1.159c-.69-.763-.91-1.355-2.035-1.572s-2.7.535-2.529,1.927a3.177,3.177,0,0,0,.657,1.721,10.934,10.934,0,0,1,.3,1.649c.031,1.48-.983,2.755-1.93,3.791-2.36,2.58-4.963,4.964-7.461,7.411-1.261,1.234.086,2.944,1.581,2.714,10.313-1.581,20.638-3.068,30.94-4.735a1.441,1.441,0,0,0,1-.655,7.136,7.136,0,0,0,6.052,3.08,1.261,1.261,0,0,0,.334-2.463,7.777,7.777,0,0,1-4.078-2.914,4.181,4.181,0,0,1-.764-2.431C454.63,500.8,455.789,500.141,456.482,499.468Z" transform="translate(753.385 -227.942)" fill="#d7eef4"/>
        <path id="路径_276" data-name="路径 276" d="M801.9,523.5a12.6,12.6,0,0,0-.86-2.132,1.214,1.214,0,0,0-1.891-.243c-.079.079-.15.158-.225.236q.01-.762.022-1.524l.258-17.342q.262-17.661.562-35.323a2.089,2.089,0,0,0-3.521-1.46c-2.759,2.313-5.78,5.889-6.421,9.634-.4.549-.794,1.1-1.169,1.659a37.6,37.6,0,0,1-3.569,4.722,28.2,28.2,0,0,1-10.752,7.211,33.936,33.936,0,0,1-13.918,2.046,24.5,24.5,0,0,1-6.559-1.083c-1.276-.44-3.9-2.533-1.669-3.705,1.36-.714.417-3.085-1.065-2.524-1.852.7-4.195-.874-4.734-2.665-.711-2.369,1.094-4.16,1.527-6.338a1.1,1.1,0,0,0-.258-.911c.218-.2.435-.386.651-.587a.611.611,0,0,0-.591-1.014c-2.83.778-5.68,1.694-8.566,2.264a8.39,8.39,0,0,1-6.657-1.246c-2.325-1.738-2.2-4.475-1.75-7.079.276-1.574.71-3.1,1.03-4.666.332-1.611.29-3.256.927-4.793.36-.868-1.1-1.48-1.522-.641-1.462,2.928-5.765,2.364-5.922-1.107a.9.9,0,0,0-1.655-.448c-.26.418-.958.688-1.344,1.013-.554.468-1.074.973-1.625,1.447a8.431,8.431,0,0,1-3.464,2.015,5.426,5.426,0,0,1-4.195-.78,15.132,15.132,0,0,0-1.382-3.9c-.526-1.013-2.429-.891-2.607.341a6.407,6.407,0,0,0,1.373,4.919,11.856,11.856,0,0,1-1.15,7.175,8.712,8.712,0,0,1-3.731,3.853,15.891,15.891,0,0,1-5.125-.961c-4.058-1.519-7.1-5.108-8.821-8.992a19.1,19.1,0,0,1-1.572-6.3c-.123-1.689.645-4.282-.479-5.643a.565.565,0,0,0-.787-.069l-.014-.035a2.33,2.33,0,0,0-1.03,1.265c-1.261,1-3.685,1.615-4.807,2.217-1.7.912-3.41,1.8-5.095,2.74a42.035,42.035,0,0,1-10.318,4.166,26.73,26.73,0,0,1-10.724.648,17.472,17.472,0,0,1-4.6-1.278c-1.514-.712-2.76-1.842-4.256-2.522-.414-.188-1.028.023-.989.569a4.778,4.778,0,0,0,.914,2.45,13.071,13.071,0,0,0,.5,1.807c.338.8.619,1.616.89,2.439a19.73,19.73,0,0,1,1.006,5.118,19.083,19.083,0,0,1-2,9.8,1.873,1.873,0,0,0,2.088,2.717c2.076-.552,3.9,1.254,4.445,3.159.664,2.334-.416,4.824-1.9,6.6a15.057,15.057,0,0,1-5.7,3.954c-2.374,1.043-4.84,1.268-7.279,2.041-2.584.82-3.628,2.775-4.77,5.043s-2.3,4.523-3.545,6.727c-2.361,4.187-5.561,8.242-10.154,10.085a11.79,11.79,0,0,1-7.334.395c-2.289-.514-4.928-.737-6.214,1.671a.8.8,0,0,0,.5,1.158,1.942,1.942,0,0,0,1.74,2.2,73.22,73.22,0,0,0,9.343.049c3.113-.027,6.228-.127,9.343-.2q9.181-.206,18.365-.359,18.368-.311,36.736-.421c24.645-.149,49.325-.264,73.96.5,12.364.382,24.715,1.057,36.986,2.59q-.023,1.484-.045,2.97c-.023,1.5-.034,3-.005,4.5a14.056,14.056,0,0,0,.682,4.195,1.3,1.3,0,0,0,2.478,0,14.268,14.268,0,0,0,.8-4.195c.074-1.5.109-3,.131-4.5q.017-1.218.036-2.433l.139.018C800.731,526.662,802.379,525.412,801.9,523.5Z" transform="translate(1225.951 -239.23)" fill="#d7eef4"/>
        <path id="路径_277" data-name="路径 277" d="M772.931,437.061c-.627-.626-1.028-1.581-1.827-1.982a9.6,9.6,0,0,0-2.721-.73,15.1,15.1,0,0,0-1.715-.162c.146-.238.284-.487.414-.745a.7.7,0,0,0-.594-1.035c-.437-.032-.861-.049-1.285-.039a2.069,2.069,0,0,0-.286-.376,2.147,2.147,0,0,0-.553-.738,6.015,6.015,0,0,0,.759-2c.368-2.16-.545-3.668-1.3-5.6a7.766,7.766,0,0,1,2.08-8.448,1.62,1.62,0,0,0,.505-.927,1.768,1.768,0,0,0,.436-1.656,1.378,1.378,0,0,0-1.418-1.568,22.037,22.037,0,0,0,3.455-3.731c.743-1.026-.723-2.452-1.745-1.745-3.783,2.616-7.478,7.181-12.586,6.526-4.4-.566-7.127-5.126-7.25-9.257a1.6,1.6,0,0,0-2.379-1.365c-3.222,2.1-8.835,5.006-11.9.973a1.742,1.742,0,0,0-2.685-.346c-3.312,3.077-7.411-.025-10.948-.7a1.158,1.158,0,0,0-1.234,1.765.857.857,0,0,0,.012.908c.921,1.439,2.259,2.523,3.119,4.016a11.264,11.264,0,0,1,1.368,5.015,19.585,19.585,0,0,1-.259,6.32,16.46,16.46,0,0,1-1.421,3.55,8.065,8.065,0,0,1-.988,1.4,8.285,8.285,0,0,0-1.368,1.482l-.021.022c-.006.005-.008.013-.013.019-.053.075-.117.136-.168.214l.03.013c-.487.938.541,2.319,1.552,1.568a9.694,9.694,0,0,1,7.424-2.228,12.965,12.965,0,0,1,7.386,3.629c2.3,2.343,3.315,5.257,1.518,8.189-1.532,2.5-3.663,4.541-4.376,7.481-.319,1.313,1.268,2.943,2.549,1.958a13.934,13.934,0,0,1,10.585-2.658c1.833.275,3.306,1.19,5.037,1.712a5.1,5.1,0,0,0,4.953-1.151c1.242-1.08,2.007-2.589,3.168-3.749a10.674,10.674,0,0,1,4.129-2.553,12.029,12.029,0,0,1,4.675-.594,13.237,13.237,0,0,1,2.509.487c.919.244,1.734-.113,2.633.118A.765.765,0,0,0,772.931,437.061Z" transform="translate(1258.49 -253.156)" fill="#d7eef4"/>
        <path id="路径_278" data-name="路径 278" d="M758.929,332.088c-.136.036-.263.083-.4.122a1.732,1.732,0,0,0-.561-.44,1.84,1.84,0,0,0-1.193-.208,7.53,7.53,0,0,0,2.186-4.7.488.488,0,0,0-.73-.418c-2.045,1.5-3.274,3.853-5.3,5.427a12.444,12.444,0,0,1-7.245,2.761,14.8,14.8,0,0,1-7.114-1.6,12.5,12.5,0,0,1-3.007-2.383c-.9-.922-2.558-2.286-2.766-3.582-.079-.491-.926-.382-.874.118a10.762,10.762,0,0,1-.012,1.518.483.483,0,0,0-.464.846,4.12,4.12,0,0,1,.563.42,6.857,6.857,0,0,0,.785,2.118,9.837,9.837,0,0,0,2.449,2.7,11.13,11.13,0,0,1,.743,3.366,14.748,14.748,0,0,1-3.717,10.378,1.637,1.637,0,0,0,2.313,2.314c1.805-1.465,4.3-4.381,6.713-2.207,2.237,2.019.593,5.208-.468,7.42-.474.989.738,2.085,1.585,1.224,2.076-2.11,6.081-3.183,8.883-2.026a11.353,11.353,0,0,1,3.515,2.266c1.027,1,1.765,2.05,3.129,2.62a1.139,1.139,0,0,0,1.393-.793,4.657,4.657,0,0,0-1.842-4.521,2.195,2.195,0,0,0,.242-.477,1.579,1.579,0,0,0-.451-1.7,1.743,1.743,0,0,0-.772-.449c-.065-.014-.1-.019-.15-.029-.025-.2-.058-.5-.058-.495-.263-1.983-.4-3.993-.614-5.982a37.612,37.612,0,0,1-.484-5.85,5.508,5.508,0,0,1,2.188-4.054,1.426,1.426,0,0,0,.465-.68c.176-.183.358-.356.521-.56.023-.029.032-.061.053-.089a1.615,1.615,0,0,0,.418-.654c.229-.118.452-.233.653-.343A.752.752,0,0,0,758.929,332.088Z" transform="translate(1262.401 -275.253)" fill="#d7eef4"/>
        <path id="路径_279" data-name="路径 279" d="M587.015,474c-1.575.907-3.444,1.742-5.309,1.344a3.4,3.4,0,0,1-2.832-3.611c.126-1.314-1.861-1.261-2.027,0-.215,1.642-2.336,3.261-3.633,4.02a16.742,16.742,0,0,1-6.481,2.273c-2.708.253-4.213-1.3-6.117-2.909-1.938-1.633-3.74-3.407-5.686-5.031a2.881,2.881,0,0,0-3.958,0c-.028.028-.051.066-.078.1a1.88,1.88,0,0,0-1.827,1.48c-.514,2.536.873,4.951,2.112,7.105a30.746,30.746,0,0,0,4.332,5.8c3.477,3.664,8.079,6.9,13.334,6.753,9.115-.263,16.957-7.775,19.795-16.07A1.119,1.119,0,0,0,587.015,474Z" transform="translate(962.709 -233.073)" fill="#d7eef4"/>
        <path id="路径_280" data-name="路径 280" d="M695.233,424c-.256-.183-.351-.2-.565-.354a5.652,5.652,0,0,0-.977-.4,1.933,1.933,0,0,1-.929-.879,1.228,1.228,0,0,0-2.1,0c-.049.078-.1.154-.154.231a11.82,11.82,0,0,1-1.539,1.247,3.511,3.511,0,0,1-1.9.512.3.3,0,0,0-.052,0c-.076-.014-.153-.03-.228-.049-.1-.026-.2-.056-.3-.091.118.058.094.048-.069-.031a2.1,2.1,0,0,1-.75-.548,5.917,5.917,0,0,1-.556-.715c-.636-.9.234.363-.269-.5a1.148,1.148,0,0,0-.41-.412l-.113-.041a.631.631,0,0,0-.957.023,1.188,1.188,0,0,0-.654,1.008,3.4,3.4,0,0,0,.168,1.349,4.4,4.4,0,0,0,.766,3.268A6.132,6.132,0,0,0,687.6,430.2a6.381,6.381,0,0,0,4.754-.878,5.769,5.769,0,0,0,1.724-1.776,3.755,3.755,0,0,0,.554-2.106,1.993,1.993,0,0,0,.811-.658A.587.587,0,0,0,695.233,424Z" transform="translate(1248.086 -247.101)" fill="#d7eef4"/>
        <path id="路径_281" data-name="路径 281" d="M565.869,478.216a.826.826,0,0,0-.379-.206c-.089-.021-.18-.032-.269-.052-.107-.023-.215-.03-.322-.043a2.3,2.3,0,0,0-.468-.272,1.7,1.7,0,0,0-.522-.342,2.214,2.214,0,0,0-.457-.133c-.227-.047-.456-.073-.685-.1l-.014-.008.2.027c-.079-.012-.158-.031-.237-.047a1.72,1.72,0,0,0-.263-.133,1.815,1.815,0,0,0-1.373.18,1.8,1.8,0,0,0-.819,1.063,1.978,1.978,0,0,0,.18,1.373,1.72,1.72,0,0,0,.356.455c.023.023.052.035.076.057a10.981,10.981,0,0,1-1.252,1.779,7.54,7.54,0,0,1-3.711,2.531,4.845,4.845,0,0,1-3.823-.663,4.923,4.923,0,0,1-1.307-1.938,10.319,10.319,0,0,0-.632-1.309,12.7,12.7,0,0,1-.82-1.151.327.327,0,0,0-.592.076,17.034,17.034,0,0,0-.571,1.852,5.566,5.566,0,0,0,.128,1.851,6.736,6.736,0,0,0,.547,1.524,1.633,1.633,0,0,0-.745.228c-.22.139-.444.272-.676.391-.126.066-.254.128-.383.188l-.04.017a9.822,9.822,0,0,1-1.495.449c-.141.03-.282.054-.425.078l-.012,0-.031,0c-.26.023-.521.043-.782.048-.289.006-.579,0-.866-.022-.088-.006-.176-.016-.266-.025-.018,0-.164-.022-.229-.032a10.8,10.8,0,0,1-1.506-.4,7.057,7.057,0,0,1-1.217-.509,19.239,19.239,0,0,0-2.032-1.313,1.185,1.185,0,0,1-.063-.859.254.254,0,0,0-.462-.2c-.03.053-.044.109-.071.162-.007,0-.014,0-.019,0a1.545,1.545,0,0,1-.53.33c-.092.042-.179.095-.268.141-.066.035-.293.082-.1.082l.4.106a1.566,1.566,0,0,0-.692-.11c.025,0-.364.03-.432.038-.28.019-.559.032-.839.045-.334.014-.675.016-1.01,0-.018,0-.08-.01-.122-.017l-.113-.025c-.175-.04-.338-.1-.51-.154-.009,0,0,0-.012,0l-.012-.009c-.074-.044-.155-.079-.232-.122-.172-.1-.334-.206-.5-.313-.038-.025-.045-.029-.058-.036l-.009-.008c-.067-.057-.136-.111-.2-.17-.15-.13-.3-.264-.435-.407-.062-.065-.122-.13-.181-.2l-.127-.157-.074-.1c-.052-.071-.1-.144-.153-.218-.063-.091-.131-.18-.187-.275l-.03-.05a.808.808,0,0,0,.077.1.86.86,0,0,1-.157-.33,2.746,2.746,0,0,0-.181-.588,2.24,2.24,0,0,0-.333-.451,1.949,1.949,0,0,0-3.035.391l-.041.066a1.807,1.807,0,0,0-.154,1.486,11.853,11.853,0,0,0,.347,2.19c.1.55.159.85.2,1.25.043.478.053.96.061,1.439a9.281,9.281,0,0,1-.286,2.562,8.877,8.877,0,0,1-.364,1.4c-.165.479-.345.951-.505,1.432a1.361,1.361,0,0,0-.038.64,4.131,4.131,0,0,0-.231,1.836.573.573,0,0,0,.547.416,2.879,2.879,0,0,0,1.913-.9,1.153,1.153,0,0,0,.591-.374,9.548,9.548,0,0,0,1.729-3.716,2,2,0,0,0,1.9,1.349c.074,0,.149,0,.223,0a1.2,1.2,0,0,0,.107.073.736.736,0,0,0,.784-.083c.177-.008.355-.014.532-.027.546-.036,1.09-.095,1.634-.164a2.144,2.144,0,0,0,1.088-.3l.435-.337a1.784,1.784,0,0,0,.307-.373,1.305,1.305,0,0,0,.385.278,1.892,1.892,0,0,0,.934.6,5.9,5.9,0,0,0,1.2.071c.335.008.668.042,1,.071.048.005.106.013.158.022.175.03.347.065.519.1.313.073.626.159.931.263.145.049.29.1.434.159.049.021.133.056.184.079a9.647,9.647,0,0,1,.869.429c.153.086.3.179.451.271.06.036.079.047.093.054a.657.657,0,0,0,.11.1,1.829,1.829,0,0,0,1.71.452,1.744,1.744,0,0,0,1.228-1.228,12.74,12.74,0,0,1,.336-1.3c.067-.212.142-.422.223-.631.034-.089.069-.179.1-.267-.049.124-.031.089.054-.108a12.387,12.387,0,0,1,1.532-2.2,1.3,1.3,0,0,0,.194-.46,5.355,5.355,0,0,0,2.266.763,6.9,6.9,0,0,0,3.209-.632,12.678,12.678,0,0,0,5.01-3.516,13.06,13.06,0,0,0,1.748-2.567,2.826,2.826,0,0,0,.113-.328,2.169,2.169,0,0,0,.69-.145,1.717,1.717,0,0,0,.483-.32,1.661,1.661,0,0,0,.228-.12c.064-.044.126-.089.188-.136a1.246,1.246,0,0,0,.407-.407,2.542,2.542,0,0,0,.36-.227,1.085,1.085,0,0,0,.43-.572A.531.531,0,0,0,565.869,478.216Z" transform="translate(925.913 -230.845)" fill="#d7eef4"/>
      </g>
    </g>
    <g id="组_49" data-name="组 49" transform="translate(785.206 180.231)">
      <path id="路径_216" data-name="路径 216" d="M296.36,157.3l-.009.007-.008.01A.069.069,0,0,1,296.36,157.3Z" transform="translate(-296.323 -157.267)" fill="#d7eef4"/>
      <path id="路径_217" data-name="路径 217" d="M296.382,157.267l-.013.013c-.015.016-.029.034-.046.049l.028-.021Z" transform="translate(-296.323 -157.267)" fill="#d7eef4"/>
    </g>
    <g id="组_66" data-name="组 66" transform="translate(-31.403 49.828)">
      <g id="组_51" data-name="组 51" transform="translate(1820.032)">
        <path id="路径_218" data-name="路径 218" d="M608.312,105.275c5.788.336,11.662.063,17.461.063l16.962,0,61.113.005c19.173,0,38.345.076,57.519.063,4.647,0,2.945-1.927-.149-3.175-.233-.144-.434-.281-.579-.386a26.538,26.538,0,0,1-4.368-4.132,60.877,60.877,0,0,1-5.917-8.518,25.47,25.47,0,0,0-6.226-7.528,11.612,11.612,0,0,0-9.3-1.834,24.633,24.633,0,0,0-.575-16.014,21.541,21.541,0,0,0-13.044-12.736A22.549,22.549,0,0,0,702.924,52.6c-7.7,4.4-11.064,13.892-9.163,22.182a8.576,8.576,0,0,0-1.122-.14,9.1,9.1,0,0,0-7.521,3.626c-2.783-4.4-8.557-6.547-13.7-5.888-6.85.878-12.24,5.792-16.665,10.723-2.043,2.277-4.348,5.025-7.419,5.869-3.168.87-5.8-1.377-8.526-2.605-2.93-1.323-6.081-1.477-8.75.528-2.646,1.989-3.379,4.824-3.129,8,.1,1.34.491,3.284-.759,4.212s-3.364,1.018-4.851,1.288c-4.142.752-13.048,1.859-13.248,2.017A1.451,1.451,0,0,0,608.312,105.275Z" transform="translate(-606.912 -49.828)" fill="#fff"/>
        <g id="组_50" data-name="组 50" transform="translate(0 32.069)">
          <path id="路径_219" data-name="路径 219" d="M621.385,102.966a20.373,20.373,0,0,0,7.084-.735,10.216,10.216,0,0,0,3.049-1.543c.833-.635,1.458-1.519,2.537-1.741,1.211-.249,2.424.162,3.647-.2a2.842,2.842,0,0,0,2.145-2.227c-.006-.152.018-.309.026-.463a2.419,2.419,0,0,0-.006-.254l.02,0c.01-.088,0-.175.015-.263.185-1.172,1.823-.749,1.924.26a4.17,4.17,0,0,1-.02,1.021,3.379,3.379,0,0,0,3.357,2.621,4.837,4.837,0,0,0,2.668-.992c.693-.5,1.112-1.206,1.928-1.509a.7.7,0,0,1,.57.075,16.282,16.282,0,0,1,3.757,1.284,30.8,30.8,0,0,0,12.648,1.6c4.165-.316,9.062-1.291,12.145-4.333a5.885,5.885,0,0,1-1.661-1.058,2.04,2.04,0,0,1-.741-1.617l-.011-.018-.012-.011a1.242,1.242,0,0,0-.178-.108l-.1-.074a.36.36,0,0,1-.1-.154.23.23,0,0,1-.032-.12.351.351,0,0,1,0-.1.294.294,0,0,1,0-.073c0-.005,0-.01,0-.015l0-.012a.358.358,0,0,1,.012-.065.34.34,0,0,1,.1-.131v0a.263.263,0,0,1,.042-.026c.007-.06.013-.119.021-.176a.322.322,0,0,1,.085-.148.44.44,0,0,1,.308-.3,2.371,2.371,0,0,1,1.047.047,4.8,4.8,0,0,1,1.23.381,2.839,2.839,0,0,0,1.318.177,4.956,4.956,0,0,0,2.188-.917,6.77,6.77,0,0,0,1.568-1.609,13.66,13.66,0,0,0,1.334-2.174.339.339,0,0,1,.614.08c.015.1.015.185.026.278.02.015.045.021.061.041a2.081,2.081,0,0,1,.5,1.019,6.219,6.219,0,0,1,.07,1.132,8.279,8.279,0,0,1-.381,2.376,6.643,6.643,0,0,1-.811,1.7,38.759,38.759,0,0,0,12-.066,26.4,26.4,0,0,0,7.241-2.218,11.353,11.353,0,0,0,2.456-1.682,4.739,4.739,0,0,0-1.018-6.146c-.942-.764.334-2.445,1.309-1.7,3.2,2.454,7.739,3.7,11.714,3.984a27.181,27.181,0,0,0,6.18-.16,10.671,10.671,0,0,0,3.295-1.015c1-.523,1.861-1.241,2.822-1.823a.175.175,0,0,1,.211.02c.015-.017.028-.035.043-.052a.692.692,0,0,1,1.149.669,14.958,14.958,0,0,0-1.092,4.777A8.8,8.8,0,0,0,736.48,96.9a15.136,15.136,0,0,0,5.684,1.085,14.455,14.455,0,0,0,7.493-1.721,4.42,4.42,0,0,0,2.388-2.772,4.784,4.784,0,0,0,.111-1.408,48.258,48.258,0,0,0,4.115,5.63,26.538,26.538,0,0,0,4.368,4.132c.145.105.346.242.579.386,3.094,1.248,4.8,3.175.149,3.175-19.174.013-38.346-.061-57.519-.063l-61.113-.005-16.962,0c-5.8,0-11.673.273-17.461-.063a1.451,1.451,0,0,1-.246-2.87c.126-.1,3.713-.576,7.385-1.1C616.872,102.855,619.442,102.892,621.385,102.966Z" transform="translate(-606.912 -81.898)" fill="#d7eef4"/>
        </g>
      </g>
      <g id="组_53" data-name="组 53" transform="translate(548.31 148.206)">
        <path id="路径_220" data-name="路径 220" d="M285.244,237.338c-.149-.118-6.807-.946-9.9-1.508-1.112-.2-2.686-.264-3.627-.963s-.645-2.147-.566-3.149c.187-2.371-.361-4.49-2.34-5.977a6.2,6.2,0,0,0-6.541-.4c-2.035.919-4.005,2.6-6.373,1.948-2.3-.631-4.019-2.686-5.547-4.388-3.307-3.686-7.337-7.359-12.457-8.015-3.848-.493-8.165,1.113-10.245,4.4a6.806,6.806,0,0,0-5.623-2.711,6.334,6.334,0,0,0-.838.106c1.421-6.2-1.1-13.292-6.85-16.582a16.852,16.852,0,0,0-13.671-1.131,16.1,16.1,0,0,0-9.751,9.521,18.412,18.412,0,0,0-.43,11.971,8.681,8.681,0,0,0-6.95,1.371,19.043,19.043,0,0,0-4.654,5.628,45.383,45.383,0,0,1-4.423,6.366,19.778,19.778,0,0,1-3.265,3.09c-.108.078-.259.181-.433.288-2.313.933-3.585,2.373-.111,2.373,14.333.01,28.665-.045,43-.046l45.684,0h12.68c4.335,0,8.726.2,13.052-.048A1.084,1.084,0,0,0,285.244,237.338Z" transform="translate(-396.861 -291.034)" fill="#fff"/>
        <path id="路径_6073" data-name="路径 6073" d="M285.244,237.338c-.149-.118-6.807-.946-9.9-1.508-1.112-.2-2.686-.264-3.627-.963s-.645-2.147-.566-3.149c.187-2.371-.361-4.49-2.34-5.977a6.2,6.2,0,0,0-6.541-.4c-2.035.919-4.005,2.6-6.373,1.948-2.3-.631-4.019-2.686-5.547-4.388-3.307-3.686-7.337-7.359-12.457-8.015-3.848-.493-8.165,1.113-10.245,4.4a6.806,6.806,0,0,0-5.623-2.711,6.334,6.334,0,0,0-.838.106c1.421-6.2-1.1-13.292-6.85-16.582a16.852,16.852,0,0,0-13.671-1.131,16.1,16.1,0,0,0-9.751,9.521,18.412,18.412,0,0,0-.43,11.971,8.681,8.681,0,0,0-6.95,1.371,19.043,19.043,0,0,0-4.654,5.628,45.383,45.383,0,0,1-4.423,6.366,19.778,19.778,0,0,1-3.265,3.09c-.108.078-.259.181-.433.288-2.313.933-3.585,2.373-.111,2.373,14.333.01,28.665-.045,43-.046l45.684,0h12.68c4.335,0,8.726.2,13.052-.048A1.084,1.084,0,0,0,285.244,237.338Z" transform="translate(185.139 69.966)" fill="#fff"/>
        <g id="组_52" data-name="组 52" transform="translate(-228.36 -69.027)">
          <path id="路径_221" data-name="路径 221" d="M275.288,237.757a15.231,15.231,0,0,1-5.295-.549,7.622,7.622,0,0,1-2.28-1.154c-.622-.474-1.089-1.135-1.9-1.3-.906-.187-1.813.121-2.727-.152a2.124,2.124,0,0,1-1.6-1.665,3.379,3.379,0,0,0-.02-.346c0-.063,0-.124,0-.19l-.015,0c-.007-.066,0-.131-.012-.2-.138-.876-1.362-.56-1.438.194a3.177,3.177,0,0,0,.015.764,2.525,2.525,0,0,1-2.509,1.959,3.617,3.617,0,0,1-1.995-.742c-.517-.376-.831-.9-1.441-1.128a.522.522,0,0,0-.426.057,12.161,12.161,0,0,0-2.809.959,23,23,0,0,1-9.454,1.2c-3.113-.236-6.774-.964-9.079-3.238a4.406,4.406,0,0,0,1.241-.792,1.522,1.522,0,0,0,.555-1.208l.008-.013.008-.009a.948.948,0,0,1,.134-.08l.072-.056a.272.272,0,0,0,.074-.115.173.173,0,0,0,.024-.09.278.278,0,0,0,0-.076.2.2,0,0,0,0-.055v-.01l0-.01a.194.194,0,0,0-.009-.048.254.254,0,0,0-.078-.1v0a.2.2,0,0,0-.031-.019c-.005-.045-.01-.089-.016-.132a.229.229,0,0,0-.064-.11.328.328,0,0,0-.229-.223,1.767,1.767,0,0,0-.783.035,3.6,3.6,0,0,0-.92.285,2.123,2.123,0,0,1-.985.132,3.7,3.7,0,0,1-1.636-.685,5.072,5.072,0,0,1-1.172-1.2,10.217,10.217,0,0,1-1-1.625.253.253,0,0,0-.459.06c-.012.07-.011.138-.019.207-.015.011-.034.016-.046.031a1.558,1.558,0,0,0-.373.762,4.6,4.6,0,0,0-.052.846,6.142,6.142,0,0,0,.285,1.776,4.943,4.943,0,0,0,.606,1.272,28.96,28.96,0,0,1-8.971-.049,19.744,19.744,0,0,1-5.413-1.658,8.491,8.491,0,0,1-1.836-1.257,3.545,3.545,0,0,1,.761-4.6c.7-.571-.25-1.827-.978-1.268a16.9,16.9,0,0,1-8.757,2.978,20.283,20.283,0,0,1-4.62-.12,7.955,7.955,0,0,1-2.463-.759c-.748-.39-1.391-.927-2.11-1.362a.129.129,0,0,0-.157.015c-.012-.013-.021-.027-.032-.039a.518.518,0,0,0-.859.5,11.212,11.212,0,0,1,.816,3.571,6.583,6.583,0,0,1-3.567,6.291,11.305,11.305,0,0,1-4.249.811,10.81,10.81,0,0,1-5.6-1.286,3.308,3.308,0,0,1-1.785-2.072,3.6,3.6,0,0,1-.083-1.053,35.955,35.955,0,0,1-3.076,4.208,19.778,19.778,0,0,1-3.265,3.09c-.108.078-.259.181-.433.288-2.313.933-3.585,2.373-.111,2.373,14.333.01,28.665-.045,43-.046l45.684,0h12.68c4.335,0,8.726.2,13.052-.048a1.084,1.084,0,0,0,.184-2.145c-.094-.074-2.775-.431-5.52-.825C278.661,237.675,276.74,237.7,275.288,237.757Z" transform="translate(-168.501 -222.008)" fill="#d7eef4"/>
        </g>
        <g id="组_5894" data-name="组 5894" transform="translate(353.64 291.973)">
          <path id="路径_221-2" data-name="路径 221" d="M275.288,237.757a15.231,15.231,0,0,1-5.295-.549,7.622,7.622,0,0,1-2.28-1.154c-.622-.474-1.089-1.135-1.9-1.3-.906-.187-1.813.121-2.727-.152a2.124,2.124,0,0,1-1.6-1.665,3.379,3.379,0,0,0-.02-.346c0-.063,0-.124,0-.19l-.015,0c-.007-.066,0-.131-.012-.2-.138-.876-1.362-.56-1.438.194a3.177,3.177,0,0,0,.015.764,2.525,2.525,0,0,1-2.509,1.959,3.617,3.617,0,0,1-1.995-.742c-.517-.376-.831-.9-1.441-1.128a.522.522,0,0,0-.426.057,12.161,12.161,0,0,0-2.809.959,23,23,0,0,1-9.454,1.2c-3.113-.236-6.774-.964-9.079-3.238a4.406,4.406,0,0,0,1.241-.792,1.522,1.522,0,0,0,.555-1.208l.008-.013.008-.009a.948.948,0,0,1,.134-.08l.072-.056a.272.272,0,0,0,.074-.115.173.173,0,0,0,.024-.09.278.278,0,0,0,0-.076.2.2,0,0,0,0-.055v-.01l0-.01a.194.194,0,0,0-.009-.048.254.254,0,0,0-.078-.1v0a.2.2,0,0,0-.031-.019c-.005-.045-.01-.089-.016-.132a.229.229,0,0,0-.064-.11.328.328,0,0,0-.229-.223,1.767,1.767,0,0,0-.783.035,3.6,3.6,0,0,0-.92.285,2.123,2.123,0,0,1-.985.132,3.7,3.7,0,0,1-1.636-.685,5.072,5.072,0,0,1-1.172-1.2,10.217,10.217,0,0,1-1-1.625.253.253,0,0,0-.459.06c-.012.07-.011.138-.019.207-.015.011-.034.016-.046.031a1.558,1.558,0,0,0-.373.762,4.6,4.6,0,0,0-.052.846,6.142,6.142,0,0,0,.285,1.776,4.943,4.943,0,0,0,.606,1.272,28.96,28.96,0,0,1-8.971-.049,19.744,19.744,0,0,1-5.413-1.658,8.491,8.491,0,0,1-1.836-1.257,3.545,3.545,0,0,1,.761-4.6c.7-.571-.25-1.827-.978-1.268a16.9,16.9,0,0,1-8.757,2.978,20.283,20.283,0,0,1-4.62-.12,7.955,7.955,0,0,1-2.463-.759c-.748-.39-1.391-.927-2.11-1.362a.129.129,0,0,0-.157.015c-.012-.013-.021-.027-.032-.039a.518.518,0,0,0-.859.5,11.212,11.212,0,0,1,.816,3.571,6.583,6.583,0,0,1-3.567,6.291,11.305,11.305,0,0,1-4.249.811,10.81,10.81,0,0,1-5.6-1.286,3.308,3.308,0,0,1-1.785-2.072,3.6,3.6,0,0,1-.083-1.053,35.955,35.955,0,0,1-3.076,4.208,19.778,19.778,0,0,1-3.265,3.09c-.108.078-.259.181-.433.288-2.313.933-3.585,2.373-.111,2.373,14.333.01,28.665-.045,43-.046l45.684,0h12.68c4.335,0,8.726.2,13.052-.048a1.084,1.084,0,0,0,.184-2.145c-.094-.074-2.775-.431-5.52-.825C278.661,237.675,276.74,237.7,275.288,237.757Z" transform="translate(-168.501 -222.008)" fill="#d7eef4"/>
        </g>
      </g>
      <g id="组_55" data-name="组 55" transform="translate(1137.82 287.672)">
        <path id="路径_222" data-name="路径 222" d="M495.371,374.658c-3.165-.787-6.726-1.618-9.158-3.947-2.668-2.554-2.865-6.425-4.191-9.679-1.162-2.853-3.239-5.675-6.52-6.065a6.593,6.593,0,0,0-4.079.864c.37-7.156-3.14-14.59-10.06-17.385-8.51-3.437-17.028,3.092-21.493,9.883A32.537,32.537,0,0,0,435.138,360c-1.81-2.034-4.219-3.842-6.736-4.261a4.167,4.167,0,0,0-4.126,1.931,5.459,5.459,0,0,0-.763,1.724,21.388,21.388,0,0,0-5.622-7.269,12.982,12.982,0,0,0-10.9-2.823,12.8,12.8,0,0,0-8.2,6.212c-2.269,4.108-.86,8.681-1.845,13.043a9.62,9.62,0,0,1-8.91,7.073l-.129,0c-.237.006-.473.006-.71-.007a.544.544,0,0,0-.293.065.7.7,0,0,0-.447.682.687.687,0,0,0,.708.733c14.121.111,28.241.311,42.363.347,13.976.035,65.511.012,65.511.012a1.034,1.034,0,0,0,1.053-1.115A1.136,1.136,0,0,0,495.371,374.658Z" transform="translate(-386.455 -337.5)" fill="#fff"/>
        <g id="组_54" data-name="组 54" transform="translate(0 22.908)">
          <path id="路径_223" data-name="路径 223" d="M493.709,376.8a20.593,20.593,0,0,1-4.255-.15,18.633,18.633,0,0,1-8.048-3.134.888.888,0,0,0-.917,0c-2.338,1.53-5.213,2.627-8.034,1.972a6.273,6.273,0,0,1-4.808-4.611.9.9,0,0,0-1.309-.532,4.978,4.978,0,0,1-6.371-7.581c.572-.629-.194-1.8-.96-1.245-.851.616-3.245,1.54-3.306-.349-.045-1.019-1.625-1.027-1.591,0a11.173,11.173,0,0,1-1.406,6.713,6.308,6.308,0,0,1-2.216,2.07c-.466.254-2.591,1.146-2.774.175a.811.811,0,0,0-1.467-.192c-2.2,3.921-7.705,5.292-11.893,5.111-4.518-.2-9.309-3.431-8.7-8.455.084-.7-.9-1.01-1.344-.556a3.881,3.881,0,0,1-3.511,1.424,2.162,2.162,0,0,1-1.615-2c.066-.232.14-.462.187-.7.158-.808-1.055-1.473-1.435-.6-.028.064-.039.129-.063.194l-.016-.007c-.018.094-.049.183-.071.275s-.055.192-.073.288a7.384,7.384,0,0,1-3.886,4.657c-1.76.862-5.214,1.234-6.111-1.08a.973.973,0,0,0-1.6-.422c-1.689,1.387-4.841.37-6.213-.974a9.464,9.464,0,0,1-2.456-6.458c-.178,2.621.088,5.31-.5,7.924a9.62,9.62,0,0,1-8.91,7.073l-.129,0c-.237.006-.473.006-.71-.007a.544.544,0,0,0-.293.065.7.7,0,0,0-.447.682.687.687,0,0,0,.708.733c14.121.111,28.241.311,42.363.347,13.976.035,65.511.012,65.511.012a1,1,0,0,0,1.01-.781c-.073-.005-.139,0-.214-.009A14.434,14.434,0,0,0,493.709,376.8Z" transform="translate(-386.455 -360.408)" fill="#d7eef4"/>
        </g>
      </g>
      <g id="组_57" data-name="组 57" transform="translate(0 37.822)">
        <path id="路径_224" data-name="路径 224" d="M-30.958,143c2.41,0,3.422.158,5.548.158,2.915.111,5.835.1,8.755.1l14.02,0,49.944.011,25.191.005q6.245,0,12.487-.037c2.043-.01,4.09-.009,6.133-.07,1.168-.035,2.321-.125,3.475-.225a10.266,10.266,0,0,0,3.251.237c.555-.05.574-.888,0-.879-.042,0-.084,0-.127,0a.274.274,0,0,0-.246-.191c-.953-.071-1.9-.154-2.844-.234a13.755,13.755,0,0,1-7.464-5.724c-2.73-4.077-3.609-8.929-4.2-13.717-.535-4.367-.7-8.844-1.939-13.087a35.149,35.149,0,0,0-5.007-10.513A25.8,25.8,0,0,0,56.489,87.679,20.628,20.628,0,0,0,37.3,98.272a24.664,24.664,0,0,0-2.449,16.893,8.6,8.6,0,0,0-4.651-1.141,8.984,8.984,0,0,0-6.211,3c-.1-4.944-.8-9.924-3.7-14.029S12.751,96.108,7.608,97c-5.056.882-9.239,4.984-11.337,9.514a22.651,22.651,0,0,0,.35,19.217,10.158,10.158,0,0,0-2.286-.667c-5.735-.911-8.816,3.913-11.344,8.191a17.506,17.506,0,0,1-5.464,6.253,17.422,17.422,0,0,1-6.1,2.324c-.482.036-.964.072-1.445.115a2.667,2.667,0,0,0-1.12.174.6.6,0,0,0-.142.127A.436.436,0,0,0-30.958,143Z" transform="translate(31.403 -87.65)" fill="#fff"/>
        <g id="组_56" data-name="组 56" transform="translate(0 31.146)">
          <path id="路径_225" data-name="路径 225" d="M-12.692,136.432c4.469-.641,11.176-3.436,10.814-8.923-.068-1.036,1.282-1.182,1.785-.483a4.876,4.876,0,0,0,5.167,1.82,4.835,4.835,0,0,0,3.376-4.6,1,1,0,0,1,1.843-.5,6.111,6.111,0,0,0,10.619-.837c.45-.944,1.9-.445,1.9.516,0,2.676.017,5.568,1.224,8.025.946,1.927,2.692,3.711,4.962,3.789a4.78,4.78,0,0,0,3.609-8.206,2.587,2.587,0,0,1-.563-.523,1.115,1.115,0,0,1,1.576-1.577c.555.7,1.6.226,1.978-.466a2.583,2.583,0,0,0,.2-1.665c-.327-.884-.631-1.773-.916-2.651-.46-1.414,1.63-1.893,2.171-.6a15.082,15.082,0,0,1,.761,2.241c1.533,4.308,3.688,8.708,8.293,10.227a10.32,10.32,0,0,0,12.966-6.238,1.023,1.023,0,0,1,1.685-.444,6.686,6.686,0,0,0,4.675,1.889,3.262,3.262,0,0,0,3.024-2.508,1.141,1.141,0,0,1,2.28,0c.474,3.81,5.118,4.854,8.057,3.3a9.871,9.871,0,0,0,4.3-4.578c.591,4.455,1.524,8.913,4.062,12.7a13.755,13.755,0,0,0,7.464,5.724c.945.08,1.891.163,2.844.234a.274.274,0,0,1,.246.191c.043,0,.085,0,.127,0,.574-.009.555.829,0,.879a10.266,10.266,0,0,1-3.251-.237c-1.154.1-2.307.19-3.475.225-2.043.061-4.09.06-6.133.07q-6.245.03-12.487.037l-25.191-.005-49.944-.011-14.02,0c-2.92,0-5.84.015-8.755-.1-2.126,0-3.138-.158-5.548-.158a.436.436,0,0,1-.323-.749.6.6,0,0,1,.142-.127,2.667,2.667,0,0,1,1.12-.174c.481-.043.963-.079,1.445-.115a17.422,17.422,0,0,0,6.1-2.324,13.6,13.6,0,0,0,3.328-3.08A24.937,24.937,0,0,0-12.692,136.432Z" transform="translate(31.403 -118.797)" fill="#d7eef4"/>
        </g>
      </g>
      <g id="组_59" data-name="组 59" transform="translate(1714.796 95.589)">
        <path id="路径_226" data-name="路径 226" d="M662.934,193.122c-2.174-.121-10.074-.909-11.594-1.2a23.8,23.8,0,0,1-4.054-.976c-2.881-1.1-4.866-3.167-7.094-5.195-1.857-1.691-3.953-3.121-6.542-3.2a6.3,6.3,0,0,0-4.221,1.357c-2.331-4.182-5.765-8.289-10.7-9.022a9.985,9.985,0,0,0-9.222,3.431c-1.7-4.153-5.212-8.27-9.8-7.841a7.423,7.423,0,0,0-5.194,3.1c.411-9.728-3.6-19.734-12.232-24.889-10.095-6.034-24.682-3.63-31.047,6.633a34.42,34.42,0,0,0-4.133,11.534c-.623,3.133-1.085,6.3-1.466,9.475a14.282,14.282,0,0,0-4.5-5.045,12.378,12.378,0,0,0-10.637-1.551,13.773,13.773,0,0,0-8.617,6.884c-1.1,2.111-1.786,4.41-2.942,6.491A18.867,18.867,0,0,1,515,187.986a21.784,21.784,0,0,1-10.976,5.124c-.646.005-1.293.016-1.939.02a.422.422,0,0,0,0,.844c20.9.135,41.793.5,62.692.61s41.794.235,62.692.315c5.911.023,11.822.076,17.733-.011s11.829-.577,17.734-.906A.43.43,0,0,0,662.934,193.122Z" transform="translate(-501.675 -145.417)" fill="#fff"/>
        <g id="组_58" data-name="组 58" transform="translate(0 28.609)">
          <path id="路径_227" data-name="路径 227" d="M638.741,191.456a14.837,14.837,0,0,1-9.774-3.235,1.116,1.116,0,0,0-1.286-.166,15.149,15.149,0,0,1-5.332,1.488c-.809.089-1.622.074-2.428.172-.084.01-.165.025-.248.037a.944.944,0,0,0-.631-.508c-3.6-.9-8.664-2.074-9.07-6.609a1.2,1.2,0,0,0-2.015-.835,9.33,9.33,0,0,1-14.332-3.949c-.309-.791-1.624-1.254-2.064-.27-.773,1.727-3.124,1.955-3.782-.024l-.01,0c-.037-.091-.063-.183-.1-.273-.525-1.16-2.458-.338-2.059.868.036.108.087.2.129.309a5.468,5.468,0,0,1-4.486,7.649c-1.614.131-3.87-.462-4.612-2.074a3.422,3.422,0,0,1,.4-3.119,4.854,4.854,0,0,0,2.022-2.847c.247-1.021-1.116-2-1.885-1.1a20.444,20.444,0,0,0-1.682,2.235,2.2,2.2,0,0,1-2.064.085,2.741,2.741,0,0,1-1.02-3.62c.487-1.017-.836-2.279-1.677-1.294a28.69,28.69,0,0,1-12.917,8.333c-3.211,1-11.438,2.783-12.579-2.064a.775.775,0,0,0-1.515.205c.034,2.962-3.4,4.809-6.056,4.445-3.195-.437-4.7-3-6.719-5.122a.913.913,0,0,0-1.5.886,6.681,6.681,0,0,0,.5,1.307,3.96,3.96,0,0,1-1.606,3.854,2.77,2.77,0,0,1-3.979-1.329.775.775,0,0,0-1.4-.183c-.553.928-2.957,2.714-4.078,2.271-.8-.315-.948-1.323-.917-2.342A19.265,19.265,0,0,1,515,187.986a21.784,21.784,0,0,1-10.976,5.124c-.646.005-1.293.016-1.939.02a.422.422,0,0,0,0,.844c20.9.135,41.793.5,62.692.61s41.794.235,62.692.315c5.911.023,11.822.076,17.733-.011s11.829-.577,17.734-.906a.43.43,0,0,0,0-.86c-2.174-.121-10.074-.909-11.594-1.2a23.8,23.8,0,0,1-4.054-.976,11.977,11.977,0,0,1-1.552-.738c-.354.085-.707.173-1.055.266A26.025,26.025,0,0,1,638.741,191.456Z" transform="translate(-501.675 -174.025)" fill="#d7eef4"/>
        </g>
      </g>
      <g id="组_61" data-name="组 61" transform="translate(1193.563 37.721)">
        <path id="路径_228" data-name="路径 228" d="M470.54,98.529c-1.426-.155-2.791-.57-4.214-.695-.546-.048-1.088-.06-1.631-.072-2.419-1.026-3.991-3.793-6.371-5.034a5.421,5.421,0,0,0-5.273.138,8.554,8.554,0,0,0-2.392-4.141,4.6,4.6,0,0,0-5.137-.682c-1.981.986-3.055,2.963-3.839,4.937a15.078,15.078,0,0,1-1.733,3.914c-1,1.255-2.323,1.034-3.68,1.489a.243.243,0,0,0-.136.336.274.274,0,0,0,.193.458c2.819.161,5.679.166,8.511.237,2.892.073,24.191.5,25.7.341C471.022,99.7,471.022,98.581,470.54,98.529Z" transform="translate(-436.064 -87.549)" fill="#fff"/>
        <g id="组_60" data-name="组 60" transform="translate(0 5.958)">
          <path id="路径_229" data-name="路径 229" d="M467.538,98.511c-1.828-.012-3.656.012-5.484.017-3.285.01-7.316-.37-8.515-4.025-.165-.5-1.016-.6-1.124,0-.376,2.1-4.629,2.273-4.012.092.174-.619-.783-1.064-1.067-.45a3.081,3.081,0,0,1-3.911,1.672,3.2,3.2,0,0,1-1.934-2.31,11.673,11.673,0,0,1-1.541,3.387c-1,1.255-2.323,1.034-3.68,1.489a.243.243,0,0,0-.136.336.274.274,0,0,0,.193.458c2.819.161,5.679.166,8.511.237,2.892.073,24.191.5,25.7.341.482-.052.482-1.174,0-1.226-.144-.016-.285-.043-.427-.063C469.219,98.445,468.309,98.517,467.538,98.511Z" transform="translate(-436.064 -93.507)" fill="#d7eef4"/>
        </g>
      </g>
      <g id="组_63" data-name="组 63" transform="translate(971.051 345.794)">
        <path id="路径_230" data-name="路径 230" d="M388.991,412.408c-.151-.009-.3,0-.453-.013a8.525,8.525,0,0,1-4.22-3.147,26.57,26.57,0,0,1-2.408-5.323c-1.308-3.124-3.21-6.255-6.452-7.641a6.91,6.91,0,0,0-8.416,1.927,16.447,16.447,0,0,0-3.14,7.853,5.68,5.68,0,0,0-2.349-2.341,6.5,6.5,0,0,0-5.15-.44c-4.471,1.64-4.454,9.1-9.78,9.128a.261.261,0,0,0-.19.413.222.222,0,0,0,.175.35q10.6.147,21.192.153,5.235,0,10.471.022c3.568.012,7.147.368,10.72.137A.539.539,0,0,0,388.991,412.408Z" transform="translate(-346.384 -395.623)" fill="#fff"/>
        <g id="组_62" data-name="组 62" transform="translate(0 7.044)">
          <path id="路径_231" data-name="路径 231" d="M380.537,410.268a4.5,4.5,0,0,1-2.185-5.338c.167-.473-.466-1-.888-.683-1.34.993-2.519-.1-3.134-1.3-.306-.6-1.366-.172-1.1.463a3.61,3.61,0,0,1,.16,3.4,6.064,6.064,0,0,1-2.615,2.212c-1.635.8-5.52,1.415-6.13-1.059a.521.521,0,0,0-1,0,1.848,1.848,0,0,1-3.45.15,2.89,2.89,0,0,0-.243-1.014c-.215-.484-1-.23-.979.266a3.37,3.37,0,0,0,.183.971,1.423,1.423,0,0,1-.72,1.225,1.439,1.439,0,0,1-2.057-1.167.563.563,0,0,0-.947-.392c-.665.659-2.939,1.4-3.449.183-1.264,2.176-2.588,4.209-5.364,4.222a.261.261,0,0,0-.19.413.222.222,0,0,0,.175.35q10.6.147,21.192.153,5.235,0,10.471.022c3.568.012,7.147.368,10.72.137a.539.539,0,0,0,0-1.078c-.151-.009-.3,0-.453-.013a8.4,8.4,0,0,1-2.99-1.793A6.5,6.5,0,0,1,380.537,410.268Z" transform="translate(-346.384 -402.666)" fill="#d7eef4"/>
        </g>
      </g>
      <g id="组_65" data-name="组 65" transform="translate(479.114 1.397)">
        <path id="路径_232" data-name="路径 232" d="M153.136,76.1c4.975.321,9.959-.176,14.928-.192q7.292-.023,14.582-.031,14.757-.01,29.51-.212a.309.309,0,0,0,.243-.488.364.364,0,0,0-.264-.576c-7.417-.032-7.393-10.426-13.619-12.71a9.055,9.055,0,0,0-7.171.613,7.9,7.9,0,0,0-3.271,3.26A22.893,22.893,0,0,0,183.7,54.831c-2.9-3.658-7.49-4.493-11.72-2.685-4.514,1.931-7.163,6.291-8.985,10.641-1.041,2.486-1.775,5.192-3.352,7.412a11.889,11.889,0,0,1-5.877,4.383c-.21.011-.421,0-.631.018A.751.751,0,0,0,153.136,76.1Z" transform="translate(-152.411 -51.225)" fill="#fff"/>
        <g id="组_64" data-name="组 64" transform="translate(0 9.809)">
          <path id="路径_233" data-name="路径 233" d="M164.909,71.619a6.272,6.272,0,0,0,3.042-7.433c-.232-.658.649-1.386,1.237-.951,1.867,1.383,3.508-.135,4.364-1.8.426-.829,1.9-.239,1.532.646-.657,1.568-1.15,3.151-.223,4.733A8.445,8.445,0,0,0,178.5,69.89c2.277,1.109,7.687,1.971,8.537-1.474a.726.726,0,0,1,1.387,0,2.573,2.573,0,0,0,4.8.209,4.021,4.021,0,0,1,.338-1.412c.3-.675,1.389-.321,1.364.369a4.728,4.728,0,0,1-.255,1.353,1.976,1.976,0,0,0,1,1.705,2,2,0,0,0,2.864-1.624.783.783,0,0,1,1.318-.546c.926.917,4.094,1.95,4.8.254,1.761,3.03,3.605,5.862,7.47,5.879a.364.364,0,0,1,.264.576.309.309,0,0,1-.243.488q-14.757.2-29.51.212-7.291.006-14.582.031c-4.969.016-9.953.513-14.928.192a.751.751,0,0,1,0-1.5c.21-.013.421-.007.631-.018a11.709,11.709,0,0,0,4.164-2.5C160.265,72.683,162.613,72.9,164.909,71.619Z" transform="translate(-152.411 -61.034)" fill="#d7eef4"/>
        </g>
      </g>
    </g>
    <g id="组_68" data-name="组 68" transform="translate(41.909 50.782)">
      <path id="路径_252" data-name="路径 252" d="M532.392,52.146a1.857,1.857,0,0,0-.477-.819l-.376-.29a1.844,1.844,0,0,0-.937-.254,1.409,1.409,0,0,0-.715.16,1.672,1.672,0,0,0-.981.981,1.409,1.409,0,0,0-.16.715c.022.165.045.329.067.494a1.857,1.857,0,0,0,.477.819l.376.29a1.842,1.842,0,0,0,.936.253,1.907,1.907,0,0,0,1.857-1.856C532.436,52.475,532.414,52.31,532.392,52.146Z" transform="translate(845.586 -50.782)" fill="#fff"/>
      <path id="路径_253" data-name="路径 253" d="M692.255,152.36a1.658,1.658,0,0,0,0,3.313A1.658,1.658,0,0,0,692.255,152.36Z" transform="translate(1139.808 -50.782)" fill="#fff"/>
      <path id="路径_254" data-name="路径 254" d="M554.751,62.83a1.251,1.251,0,0,0,0,2.5A1.251,1.251,0,0,0,554.751,62.83Z" transform="translate(888.927 -50.782)" fill="#fff"/>
      <path id="路径_255" data-name="路径 255" d="M507.536,265.322a1.28,1.28,0,1,0,0,2.56A1.28,1.28,0,1,0,507.536,265.322Z" transform="translate(803.094 -50.782)" fill="#fff"/>
      <path id="路径_256" data-name="路径 256" d="M475.078,294.824a1.28,1.28,0,1,0,0,2.559A1.28,1.28,0,1,0,475.078,294.824Z" transform="translate(744.027 -50.782)" fill="#fff"/>
      <path id="路径_257" data-name="路径 257" d="M106.716,64.864a.927.927,0,0,0-.332-.332L106.3,64.5a2.225,2.225,0,0,0-.257-.11,1.349,1.349,0,0,0-.276-.038l-.262.035-.193.035-.378.07-.209.088a.666.666,0,0,0-.246.225.434.434,0,0,0-.112.193.663.663,0,0,0-.076.337c.011.078.021.155.031.233l.089.209a.981.981,0,0,0,.523.4l.378.07.186.034a1.029,1.029,0,0,0,.545,0,2.748,2.748,0,0,0,.257-.109l.084-.037a.926.926,0,0,0,.332-1.265Z" transform="translate(-41.909 -50.782)" fill="#fff"/>
      <path id="路径_258" data-name="路径 258" d="M213.576,109.349a.8.8,0,0,0,.047-.212l0-.027.008-.059.016-.119-.047-.344-.13-.31a.991.991,0,0,0-.334-.364.656.656,0,0,0-.287-.167,1.3,1.3,0,0,0-1,0,.97.97,0,0,0-.417.269l-.2.262-.131.31-.046.344.046.345c.044.1.087.207.131.31a.976.976,0,0,0,.334.364.653.653,0,0,0,.286.167.977.977,0,0,0,.5.111l.118-.015.054-.008.033,0,.249-.034.04.016a.676.676,0,0,0,.229.044.644.644,0,0,0,.4-.168.58.58,0,0,0,.168-.4.68.68,0,0,0-.044-.228Z" transform="translate(265.913 -50.782)" fill="#fff"/>
      <path id="路径_259" data-name="路径 259" d="M44.015,185.3A.549.549,0,0,0,44,185.01a.614.614,0,0,0-.038-.092.539.539,0,0,0-.146-.228l-.143-.11a.991.991,0,0,0-.176-.073l-.192-.026a.718.718,0,0,0-.364.1l-.009.005a.9.9,0,0,0-.136.018.677.677,0,0,0-.306.162.67.67,0,0,0-.232.252c-.01.017-.013.035-.022.051q-.113.2-.226.4l-.075.179a.564.564,0,0,0-.014.3.367.367,0,0,0,.051.189.573.573,0,0,0,.155.242l.152.117.179.076a.578.578,0,0,0,.3.013.551.551,0,0,0,.278-.089l.4-.226c.017-.008.035-.012.051-.021a1,1,0,0,0,.414-.539.889.889,0,0,0,.018-.136l.005-.009A.541.541,0,0,0,44.015,185.3Z" transform="translate(-41.909 -50.782)" fill="#fff"/>
    </g>
    <rect id="矩形_27" data-name="矩形 27" width="1931.717" height="500" fill="none"/>
  </g>
</svg>
