<svg xmlns="http://www.w3.org/2000/svg" width="20.857" height="47.114" viewBox="0 0 20.857 47.114">
  <g id="download_ico" transform="translate(-2765.143 -1151.861)">
    <path id="路径_6915" data-name="路径 6915" d="M146.281,242.465h-2.669v4.184a1.074,1.074,0,0,1-1.092,1.012H129.184a1.057,1.057,0,0,1-1.073-1.012v-4.184h-2.688v4.184a3.647,3.647,0,0,0,3.76,3.532h13.335a3.632,3.632,0,0,0,3.761-3.532v-4.184Zm-.755-6.681-9.487,8.965a.241.241,0,0,1-.381,0l-9.456-8.965a.222.222,0,0,1,0-.355l2.071-2,5.982,5.675V227.109a.489.489,0,0,1,.493-.485h2.227a.488.488,0,0,1,.505.485V239.1l5.95-5.675,2.1,2a.273.273,0,0,1,0,.355Z" transform="translate(2639.719 925.237)" fill="#8a8a8a" fill-rule="evenodd"/>
    <path id="路径_6916" data-name="路径 6916" d="M146.281,242.465h-2.669v4.184a1.074,1.074,0,0,1-1.092,1.012H129.184a1.057,1.057,0,0,1-1.073-1.012v-4.184h-2.688v4.184a3.647,3.647,0,0,0,3.76,3.532h13.335a3.632,3.632,0,0,0,3.761-3.532v-4.184Zm-.755-6.681-9.487,8.965a.241.241,0,0,1-.381,0l-9.456-8.965a.222.222,0,0,1,0-.355l2.071-2,5.982,5.675V227.109a.489.489,0,0,1,.493-.485h2.227a.488.488,0,0,1,.505.485V239.1l5.95-5.675,2.1,2a.273.273,0,0,1,0,.355Z" transform="translate(2639.719 948.794)" fill="#fff" fill-rule="evenodd"/>
  </g>
</svg>
