<svg xmlns="http://www.w3.org/2000/svg" width="48.981" height="105" viewBox="0 0 48.981 105">
  <g id="feedback" transform="translate(0.001)">
    <g id="People">
      <g id="Icon-5">
        <path id="book-write" d="M24.674,25H16.715a.834.834,0,0,0,0,1.667h7.959a.834.834,0,0,0,0-1.667Zm-7.959-1.667H21.49a.834.834,0,0,0,0-1.667H16.715a.834.834,0,0,0,0,1.667ZM12.735,30H28.654V18.333H12.735Zm-1.592.833V17.5a.815.815,0,0,1,.8-.833H29.45a.815.815,0,0,1,.8.833V30.833a.815.815,0,0,1-.8.833H11.939a.815.815,0,0,1-.8-.833ZM1.592,7.572V45.833a2.51,2.51,0,0,0,2.388,2.5H34.225a2.51,2.51,0,0,0,2.388-2.5V8.333H3.98a4.3,4.3,0,0,1-2.388-.761Zm35.817-5.9H3.184A1.632,1.632,0,0,0,1.592,3.333v.833a2.311,2.311,0,0,0,2.393,2.5H37.409a.815.815,0,0,1,.8.833V45.833A4.131,4.131,0,0,1,34.225,50H3.98A4.131,4.131,0,0,1,0,45.833V3.333A3.264,3.264,0,0,1,3.184,0H37.409a.815.815,0,0,1,.8.833.815.815,0,0,1-.8.833ZM35.817,3.333a.834.834,0,0,1,0,1.667H3.98a.834.834,0,0,1,0-1.667Z" fill="#257fb6"/>
      </g>
    </g>
    <path id="路径_174" data-name="路径 174" d="M58.564,6.978,54.645.446a1.157,1.157,0,0,0-1.79,0l-4,6.666a.724.724,0,0,0-.1.372V45.812c0,2.3,2.243,4.166,5,4.166s5-1.869,5-4.166V7.651a.714.714,0,0,0,.02-.167.747.747,0,0,0-.211-.506ZM56.75,43.312h-3a.847.847,0,1,0,0,1.666h3v.833a3.05,3.05,0,0,1-6,0V7.681l3-5L56.132,6.65H53.75a.928.928,0,0,0-1,.833.928.928,0,0,0,1,.833h3Z" transform="translate(-9.795)" fill="#5a9c0b"/>
    <path id="路径_175" data-name="路径 175" d="M53.623,43.424A.809.809,0,0,0,54.5,42.7V12.268a.889.889,0,0,0-1.747,0V42.7a.809.809,0,0,0,.873.725Z" transform="translate(-9.795 -1.491)" fill="#5a9c0b"/>
    <g id="feedback-2" data-name="feedback" transform="translate(0 55)">
      <g id="People-2" data-name="People">
        <g id="Icon-5-2" data-name="Icon-5">
          <path id="book-write-2" data-name="book-write" d="M24.674,25H16.715a.834.834,0,0,0,0,1.667h7.959a.834.834,0,0,0,0-1.667Zm-7.959-1.667H21.49a.834.834,0,0,0,0-1.667H16.715a.834.834,0,0,0,0,1.667ZM12.735,30H28.654V18.333H12.735Zm-1.592.833V17.5a.815.815,0,0,1,.8-.833H29.45a.815.815,0,0,1,.8.833V30.833a.815.815,0,0,1-.8.833H11.939a.815.815,0,0,1-.8-.833ZM1.592,7.572V45.833a2.51,2.51,0,0,0,2.388,2.5H34.225a2.51,2.51,0,0,0,2.388-2.5V8.333H3.98a4.3,4.3,0,0,1-2.388-.761Zm35.817-5.9H3.184A1.632,1.632,0,0,0,1.592,3.333v.833a2.311,2.311,0,0,0,2.393,2.5H37.409a.815.815,0,0,1,.8.833V45.833A4.131,4.131,0,0,1,34.225,50H3.98A4.131,4.131,0,0,1,0,45.833V3.333A3.264,3.264,0,0,1,3.184,0H37.409a.815.815,0,0,1,.8.833.815.815,0,0,1-.8.833ZM35.817,3.333a.834.834,0,0,1,0,1.667H3.98a.834.834,0,0,1,0-1.667Z" fill="#fff"/>
        </g>
      </g>
      <path id="路径_174-2" data-name="路径 174" d="M58.564,6.978,54.645.446a1.157,1.157,0,0,0-1.79,0l-4,6.666a.724.724,0,0,0-.1.372V45.812c0,2.3,2.243,4.166,5,4.166s5-1.869,5-4.166V7.651a.714.714,0,0,0,.02-.167.747.747,0,0,0-.211-.506ZM56.75,43.312h-3a.847.847,0,1,0,0,1.666h3v.833a3.05,3.05,0,0,1-6,0V7.681l3-5L56.132,6.65H53.75a.928.928,0,0,0-1,.833.928.928,0,0,0,1,.833h3Z" transform="translate(-9.795)" fill="#fff"/>
      <path id="路径_175-2" data-name="路径 175" d="M53.623,43.424A.809.809,0,0,0,54.5,42.7V12.268a.889.889,0,0,0-1.747,0V42.7a.809.809,0,0,0,.873.725Z" transform="translate(-9.795 -1.491)" fill="#fff"/>
    </g>
  </g>
</svg>
