<svg xmlns="http://www.w3.org/2000/svg" width="335" height="158" viewBox="0 0 335 158">
  <g id="goal" transform="translate(-290 -719)">
    <rect id="goal-2" data-name="goal" width="335" height="158" transform="translate(290 719)" fill="#c51b2f"/>
    <g id="目標" transform="translate(108.667 195.493)">
      <g id="组_34" data-name="组 34" transform="translate(0 3)">
        <text id="_336" data-name="336" transform="translate(351 608.507)" fill="#fff" font-size="65" font-family="Arial-BoldMT, Arial" font-weight="700"><tspan x="0" y="0">336</tspan></text>
        <text id="目標-2" data-name="目標" transform="translate(380 644.507)" fill="#fff" font-size="20" font-family="MicrosoftJhengHeiRegular, Microsoft JhengHei"><tspan x="0" y="0">目標</tspan></text>
      </g>
      <g id="椭圆_5" data-name="椭圆 5" transform="translate(233.333 551.507)" fill="none" stroke="#fff" stroke-width="1">
        <circle cx="51" cy="51" r="51" stroke="none"/>
        <circle cx="51" cy="51" r="50.5" fill="none"/>
      </g>
      <g id="组_2" data-name="组 2" transform="translate(-39.757 264.089)">
        <path id="路径_42" data-name="路径 42" d="M323.726,316.754a22.662,22.662,0,0,1,19.268,10.18l1.141-.69a23.905,23.905,0,1,0,1.1,1.833l-1.143.69a22.661,22.661,0,1,1-20.362-12.014Z" transform="translate(0 0)" fill="#fff"/>
        <path id="路径_43" data-name="路径 43" d="M347.745,347.272a16.036,16.036,0,0,1,13.5,6.987l4.589-2.772a21.379,21.379,0,1,0,1.092,1.835l-4.6,2.78a16.047,16.047,0,1,1-14.581-8.831Z" transform="translate(-23.914 -23.91)" fill="#fff"/>
        <path id="路径_45" data-name="路径 45" d="M446.746,456.809a5.334,5.334,0,0,1,4.125,1.844l4.612-2.785a10.671,10.671,0,1,0,1.081,1.842l-4.639,2.8a5.353,5.353,0,1,1-5.179-3.7Z" transform="translate(-122.742 -122.743)" fill="#fff"/>
        <path id="路径_47" data-name="路径 47" d="M578.05,348.187a.687.687,0,0,0,.675-.019l.7-.425a.347.347,0,0,0-.018-.6l-3.262-1.719.367-.221a.346.346,0,0,0,.156-.215.342.342,0,0,0-.043-.263l-.459-.737a.348.348,0,0,0-.473-.113l-.378.228-.079-3.65a.345.345,0,0,0-.523-.287l-.7.423a.686.686,0,0,0-.332.6l.085,3.849-.186.114-.082-3.65a.346.346,0,0,0-.179-.3.351.351,0,0,0-.346.008l-.7.423a.688.688,0,0,0-.332.6l.086,3.85-.188.114-.082-3.65a.345.345,0,0,0-.523-.288l-.7.423a.686.686,0,0,0-.331.6l.073,3.278a.346.346,0,0,1-.164.3l-2.749,1.66-1.141.69-1.069.645-4.589,2.772-4.595,2.775-4.612,2.785-3.331,2.011a1.1,1.1,0,0,0-.352,1.54l.051.078a.943.943,0,0,0,1.273.291l3.411-2.06,4.639-2.8,4.591-2.773,4.6-2.78,1.072-.646,1.143-.69,2.746-1.658a.337.337,0,0,1,.334-.01l3.029,1.6a.684.684,0,0,0,.675-.02l.7-.425a.345.345,0,0,0-.017-.6l-3.263-1.719.18-.108,3.46,1.822a.683.683,0,0,0,.675-.019l.7-.425a.352.352,0,0,0,.168-.307.345.345,0,0,0-.185-.295l-3.262-1.718.178-.109Z" transform="translate(-223.233 -22.283)" fill="#fff"/>
      </g>
    </g>
  </g>
</svg>
