<svg xmlns="http://www.w3.org/2000/svg" width="711" height="426" viewBox="0 0 711 426">
  <g id="local_voluntary" transform="translate(-290 -3415)">
    <g id="组_6068" data-name="组 6068" transform="translate(281.362 3413.861)">
      <g id="组_6067" data-name="组 6067">
        <rect id="矩形_372" data-name="矩形 372" width="711" height="426" transform="translate(8.638 1.139)" fill="#49b4e5"/>
        <g id="组_6066" data-name="组 6066">
          <path id="路径_6293" data-name="路径 6293" d="M632.122,104.925c-23.71.093-47.483.022-71.116-1.266-11.743-.641-23.543-1.406-35.025-3.066-20.339-2.939-40.423-6.656-60.2-10.716-22.979-4.713-46.325-9.829-67.412-17.138-8.6-2.981-29.523-10.013-23.579-17.857,3.577-4.72,13.461-6.872,21.328-7.531,16.108-1.349,33.075.685,48.914,2.346,18.925,1.984,37.963,3.608,56.951,5.378,13.037,1.216,26.1,2.377,39.228,3.2,12.676.8,25.4,1.167,38.083,1.965,46.581,2.935,93.453,7.921,140.346,5.955V54.709c-34.927,1.228-69.687,1.769-104.685.715-54.876-1.656-108.074-10.3-162.144-15.412-27.661-2.616-55.668-4.333-83.7-3.629a826.217,826.217,0,0,0-82.36,6.722C233.607,49.793,181,59.356,126.565,61.519c-39.422,1.568-78.713-.159-117.927-2.5V69.488c17.119,4.3,36.457,4.891,54.8,4.432,21.3-.531,42.38-2.479,63.474-4.184,22.06-1.78,44.158-3.142,66.186-5.107,24.5-2.186,49.264-4.349,74.1-4.008,48.532.668,93.5,13.6,136.551,25.894,43.408,12.393,87.6,25.289,135.88,28.916,54.738,4.112,109.9,1.977,164.873,1.7,5.064-.025,10.1-.013,15.132.064V105.214C690.518,104.327,661.217,104.808,632.122,104.925Z" fill="#acebff" opacity="0.5"/>
          <path id="路径_6294" data-name="路径 6294" d="M127.975,142.17c11.415-2.757,25.265-6.014,33.421-11.818,2.958-2.1,5.019-4.9,2.637-7.544-2.827-3.137-8.471-5.365-13.981-6.5-14.935-3.074-31.954-2.229-47.409-1.43-14.91.773-30,2.416-44.995,2.287-16.1-.138-32.647-1.009-48.511-2.623l-.5-.051v42.8q11.8-.357,23.509-1.155C64.751,153.931,97.462,149.538,127.975,142.17Z" fill="#acebff" opacity="0.5"/>
          <path id="路径_6295" data-name="路径 6295" d="M507.855,164.051c9.266-4.071,21.96-4.968,33.078-5.562,14.9-.795,29.88-.695,44.808-1.208,45.2-1.555,89.227-8.126,133.9-12.068v-8.422c-23.787,1.142-47.49,2.881-71.066,5.088-22.882,2.141-45.588,5.138-68.634,6.607-59.117,3.768-118.277-.268-177.362-2.111-29.308-.915-59.117-1.645-88.351.263a618,618,0,0,0-79.31,10.759c-24.936,4.915-49.314,10.757-73.876,16.284-24.162,5.436-48.525,10.876-73.956,13.747a695.952,695.952,0,0,1-78.445,4.156v14.4c.873.032,1.746.061,2.615.093,13.832.511,27.636,1.3,41.483,1.692,9.308.264,18.384.355,27.463-1,11.616-1.734,23.056-3.883,34.612-5.753,13.161-2.132,26.661-4.357,40.305-5,6.86-.325,15.681-.629,18.84,3.8,5.139,7.191-6.728,14.675-14.715,19.085-16.229,8.967-35.779,15.833-55.05,22.156-23.734,7.79-48.257,14.717-73.087,21.155q-11.18,2.9-22.466,5.654v18.639c36.464-2.278,69.917-13.471,98.925-26.384,32.81-14.609,61.81-32.012,90.188-49.564,12.355-7.644,24.583-15.372,37.259-22.83A199.65,199.65,0,0,1,287.353,166.2a325.339,325.339,0,0,1,61.958-9.2c21.035-1.188,43.843-1.716,64.457,1.541,37.814,5.975,65.143,23.433,91.574,39.616,13.366,8.183,26.837,16.449,42.613,22.987a352.33,352.33,0,0,0,48.208,15.627c37.574,9.511,77.992,15.411,118.566,17.8q2.449.143,4.909.268V238.676c-5.11-.232-10.231-.441-15.362-.58-17.918-.486-35.909-.847-53.678-2.4-41.267-3.608-82.308-14.42-114.28-30.535-13.543-6.825-27.375-15.276-33.718-25.4C499.069,174.122,499.1,167.9,507.855,164.051Z" fill="#acebff" opacity="0.5"/>
          <path id="路径_6296" data-name="路径 6296" d="M554.087,281.841c-20.618-4.161-39.182-10.061-57.838-16.671a624.648,624.648,0,0,0-60.428-18.409,463.364,463.364,0,0,0-129.586-13.037c-70.748,3.186-129.045,29.485-185.936,52.32-28.014,11.247-56.77,22.262-88.255,29.719q-11.535,2.732-23.406,4.693v18.253c10.38-2.454,20.642-5.11,31-7.452,22.727-5.14,44.805-11.426,65.153-19.411,38.475-15.1,69.829-38.4,115.206-46.549,23.063-4.14,47.158-3.27,70.465-.241,25.085,3.261,49.335,8.631,72.843,14.74,23.254,6.041,43.851,14.876,65.277,22.851,22.389,8.334,45.791,15.309,71.787,18.482,54.629,6.669,111.361,2.026,165.689-3.359,17.876-1.772,35.712-3.717,53.583-5.51V284.991C665.571,293.4,606.8,292.475,554.087,281.841Zm-4.7,24.88c-2.043,1.838-5.714,2.717-9.192,3.171a126.736,126.736,0,0,1-21.819.523c-20.3-.921-39.793-5.138-58.032-10.373-19.936-5.722-38.779-12.663-57.5-19.675-8.043-3.015-16.009-6.441-24.529-8.952-6.648-1.959-13.334-3.891-19.7-6.167-8.612-3.081-24.731-8.931-20.066-16.33,5.015-7.952,23.954-7.175,35.04-6.016,2.7.281,5.379.631,8.054,1.01a121.58,121.58,0,0,1,14.231,1.3c17.575,2.574,34.2,7.3,50.24,12.211,14.044,4.3,28.014,8.707,41.977,13.09a272.784,272.784,0,0,1,27.283,10.412c9.75,4.248,19.607,8.8,27.456,14.326C546.619,297.922,553.532,302.989,549.383,306.721Z" fill="#acebff" opacity="0.5"/>
          <path id="路径_6297" data-name="路径 6297" d="M619.735,353.04c15.122-.816,29.975,2.323,44.762,3.642,12.468,1.113,24.706,2.3,37.295,2.921,5.809.285,12-.2,17.846.226V355.3c-20.953-1-41.889-2.169-62.828-3.2-47.836-2.352-96.676-4.42-144.541-1.162-50.979,3.468-102.056,8.249-153.494,7.9a687.021,687.021,0,0,1-76.264-4.552c-22.536-2.678-44.621-6.249-66.843-9.707-22.978-3.575-46.422-6.96-70.238-7.558a227.694,227.694,0,0,0-34.492,1.431A247.078,247.078,0,0,0,79.5,345c-23.434,6.164-46.511,13.717-70.861,17.864v7.351Q12.322,369.61,16,369c46.349-7.586,96.6-14.518,143.132-3.608,40.736,9.553,80.713,22.16,124.549,25.765,50.074,4.118,99.653-5.127,148.02-11.741,24.427-3.34,49.023-6.429,73.96-8.026a620.808,620.808,0,0,1,79.289.351c44.946,2.849,89.45,8.277,134.685,9.276v-4.36c-12.871-.612-25.72-1.782-38.39-2.752-15.055-1.15-29.495-1.866-44.158-4.317-9.262-1.548-22.147-3.346-28.611-8.012C602.312,357.127,613.4,353.382,619.735,353.04ZM364.949,379.956c-13.348,2.779-27.724,3.9-41.751,4.614a312.95,312.95,0,0,1-47.186-.928c-18.564-1.864-38.832-4.886-53.742-12.142-4.732-2.3-10.7-5.515-11.362-9.412-.562-3.335,3.05-6.516,8.651-7.121,7.252-.783,14.911.248,21.979,1.217,10.255,1.409,20.688,2.154,31.085,3.118,12.27,1.141,24.533,2.325,36.807,3.456,2.5-.088,5-.163,7.495-.207,14.939-.264,30.294-.413,45.056,1.187,6.1.662,17.454,1.866,19.253,6.3C383.45,375.5,371.636,378.563,364.949,379.956Z" fill="#acebff" opacity="0.5"/>
          <path id="路径_6298" data-name="路径 6298" d="M644.639,397.219c-18.522-.1-37.132.068-55.53,1.473-19.055,1.456-38.04,3.3-57,5.12-50.5,4.86-101.059,10.1-152.193,11.877-52.6,1.828-105.7.132-158.087-2.9q-38.72-2.242-77.208-5.679c-24.385-2.177-48.565-5.256-73.031-7.08a513.723,513.723,0,0,0-62.948-1.2v28.307h711V397.4C694.692,398.1,669.6,397.351,644.639,397.219Z" fill="#acebff" opacity="0.5"/>
        </g>
      </g>
    </g>
    <rect id="矩形_370" data-name="矩形 370" width="393" height="375" transform="translate(583 3443)" fill="#fff"/>
    <g id="svg2600" transform="translate(284.25 3398.392)">
      <g id="组_6065" data-name="组 6065" transform="translate(17.14 54.244)">
        <path id="path2462" d="M328.877,1017.822l-1.117,1.964.31.285.4.111.848-.253.171-.338.962-1.015.9-.566.142-.31-.085-.339-.338-.171-.142-.281-.281-.228-.4.029-.648.31-.228.253-.282.142-.171.285-.041.123Z" transform="translate(-229.506 -712.871)" fill="#fff"/>
        <g id="g2924" transform="translate(0 158.927)">
          <path id="path2464" d="M94.28,602.22v0Z" transform="translate(-69.879 -588.438)" fill="#fff"/>
          <path id="path2466" d="M112.14,593.6l.225-.791.62-.225-.282.452-.168.734-.4-.171Z" transform="translate(-82.09 -581.847)" fill="#fff"/>
          <path id="path2468" d="M120.89,588.584l.734-.114-.171.566-.563-.452Z" transform="translate(-88.072 -579.037)" fill="#fff"/>
          <path id="path2470" d="M78.267,636.51l-.057.791.68-.281-.623-.509Z" transform="translate(-58.893 -611.882)" fill="#fff"/>
          <path id="path2472" d="M78.106,642.4l-1.357.734-.509-.225.114.734,1.692-.111,1.3-.791-.114-.4-.791-.114-.335.168Z" transform="translate(-57.546 -615.792)" fill="#fff"/>
          <path id="path2474" d="M67.656,593.366l-.2.367-.057.256.253.282-.481.452.114.338.338.168.256.228.114.253-.282.142-.228.677.142.367-.367.114h-.424l-.338.228.114.31.452.085.566.734v.424l-.171.338-.31.225-.225.281-.31.225-.31.085-.566-.509-.4.142-.285.228-.2.31-.481.424-.2.281.282.171h.424l.2-.253h1.272l.225-.2.282-.142.819.142.367.171h.424l.367-.171-.139-.367-.225-.281-.114-.31-.028-.4.481-.452-.367-.9,1.158-1.044-.111-.281-.31-.228-.057-.367.2-.677-.171-.367-.2-.253-.085-.338.114-.31.31-.2h.848l.734-.2.31-.2.057-.424-.228-.2-.338.31-.338.085-.4-.2-.677-.762.085-.367-.114-.31-.338.028-.256.225-.705,1.3-.282.313Z" transform="translate(-49.3 -581.109)" fill="#fff"/>
          <path id="path2476" d="M89.33,584.933l-.31.31.028.367.958.652.2.338.2-.2.282-.648.282-.2.876.029.171.367v.424l.225.253.142.31.705.734.142.4.282.057.256-.31.057-.424.705-.4.424-.057-.028-.367-.4-.367-.168-.253.253-.452-.452-.029-.538-.99-.225-.057-.256.171-.677-.2-.085-.338L91.955,584l-.4.171-.168.339-.424.085-.734-.085-.338-.168-.085-.2-.481.791Z" transform="translate(-66.283 -575.981)" fill="#fff"/>
          <path id="path2478" d="M101.252,597.772l-.452.595.566.538h.424l.31-.2.028-.4.538-.648-.253-.171h-.424l-.4.085-.342.2Z" transform="translate(-74.337 -585.204)" fill="#fff"/>
          <path id="path2480" d="M104.491,602.31l-.367.171-.114.31.114.339.338.168h.424l.4-.085.114-.367-.2-.281-.367-.2-.338-.054Z" transform="translate(-76.532 -588.5)" fill="#fff"/>
          <path id="path2482" d="M93.653,608.108l-.933.791-.367.114h-.424l.2.367v.424l-.085.4-.566.481-.057.424.31.171.762-.338.31-.225.452.028.282.2.253.281-.848.9-.424.057-.848-.142.481.538.648.282.509-.057.367-.225,1.272.029.256.338.139.367-.424.677-.057.225.367.256-.028.31-.338.338-.367-.029-.253-.225-.338-.171-.424.057-.509,1.072-.481.509.2.338.819.085.452-.057.566-.2.481-.028.509.566.367-.085.057-.367.338-.31.028-.4.142-.4-.338-.2-.057-.31.282-.31.2-.367,1.411-1.1.367-.057.705-.876.114-.338.31-.253,1.949-.057.595-.281.253.2.085.424.2.367.338.225.4-.085.31-.171h.452l.168-.253L103.2,611l-.253-.933.111-.339V609.3l-.171-.367-.762-.819-.2-.648-.228.253-.114.791-.4-.057-.2-.4-.253-.281.114-.253.225-.171-.535-.509-.367-.142-.256.256-.535.99-.31-.057-.282.085-.481.481-.085.338-.225.057-.028-1.272.31-.68-.481.057-.256.171-1.639.281-.253.2.028.4.228.31v.424l-.171.282-.4.114-.253.31v.876l-.225.253-.424-.2-.31-.281.057-.566-.452-.057-.057-.4.225-.367.028-.256-.275-.342Z" transform="translate(-67.924 -591.501)" fill="#fff"/>
          <path id="path2484" d="M86.925,623.92l-.171.424-.31.142-.114.367.028.819.481.225.142.228.282.253.114-.282-.228-.282.367-.338-.225-.253-.085-.9-.285-.225" transform="translate(-64.444 -603.274)" fill="#fff"/>
          <path id="path2486" d="M90.53,630.83v.452l1.385.028.171-.253-.225-.281-.338-.253-.168-.253-.085.31-.74.25Z" transform="translate(-67.316 -607.615)" fill="#fff"/>
          <path id="path2488" d="M104.351,559.251l-.6,1,.12.519.4.158.361-.56.4-.319.519.079.4-.2.361-.361-1.319-.917-.319.041-.316.56Z" transform="translate(-76.354 -558.65)" fill="#fff"/>
          <path id="path2490" d="M17.58,669.849l-.44,1,.44.278.519-.12.44-.278v-.4l-.718-.56-.24.079Z" transform="translate(-17.14 -634.621)" fill="#fff"/>
          <path id="path2492" d="M69.349,675.07l.282.6v2.755l-.12.519-.481.2.278.4,1.759.041.12-.278-.2-.44.2-.4.519-.161.4.44.4.278.481-.158.278-.319h.6l.361-.24-.158-.519-.24-.4-.519.2-.639.718-1.439-.838-.158-.44v-1.2l-.319.079-.6-.041-.8-.794Z" transform="translate(-52.616 -638.245)" fill="#fff"/>
          <path id="path2494" d="M80.02,715.48l.079.6.519.041-.319-.44-.278-.2Z" transform="translate(-60.13 -665.872)" fill="#fff"/>
          <path id="path2496" d="M82.521,718.26l-.161.639-.319.44.519-.158.56-.718-.6-.2Z" transform="translate(-61.511 -667.773)" fill="#fff"/>
          <path id="path2498" d="M122.478,719.681l-.278.6.24.361v.44l.361.361.24-.041v-.6l.4-.44.2-.4-.319-.278-.6-.041-.24.041Z" transform="translate(-88.968 -668.716)" fill="#fff"/>
          <path id="path2500" d="M49.06,732.431l-1,.361-.12.481.12.56.361.278v.6l.56.759.2.079.041-.56.481-.319.481-.12.12-1.158.4-.361-.8-.639-.845.041Z" transform="translate(-38.197 -677.433)" fill="#fff"/>
        </g>
        <path id="path2523" d="M804.17,202.383l.481.278.4-.041.079-.519.56-.041.56.079.161.519.519.319-.2.319-.519.2-1.158-.041-.639-.6-.244-.471Z" transform="translate(-555.22 -155.928)" fill="#fff"/>
        <path id="path2525" d="M666.07,912.991v.848l.734.509.225.791v.848l.339.4.791.114.791.962.791.225.566-.114-.563-.563-.057-.677.9-1.3v-.848l-.168-.734-.509-.4-.848.057-.734-.339-1.639.285-.62-.063Z" transform="translate(-460.803 -641.829)" fill="#fff"/>
        <path id="path2527" d="M683.208,1112.358l.452.62.506.452h.848l.791.171.4-.114.228-.62.4-.509.111-.734-.734-.338-.506-.509-.62-.171-1.357-1.186-.225-.62.057-.791.791-.057-.057-.677-.452-.452-.111-.734.4-.452-.339-.509-3.106.057-.62.225h-1.692l-.509-.339-.509.114v.566l.62.4v2.486l.339.506.791.285,1.582,1.977h1.7l.677.452.164.506Z" transform="translate(-468.508 -773.302)" fill="#fff"/>
        <path id="B_city" d="M384.875,336.68l-.554.139-.079.721-2.875,4-.6,1.474.079,1.205-.041.158-.4.516-.168.446-.87.4-.326.554-1.474,1,.041.437.158.367.041.674-.278.326-.762-.247.879.4.158.4-.316.446-.288.237-.712-.921-.288.158-.357.4-.683.367.041.554-.237.4-.879.516-.278.446,1.316,1.8-.041.516-.278.4-.12.474-.326-.6.051-.516-.484.516-.474-.041-.12-.595.278-.563-.041-.554-.4.4-.712,2.037.516.4.2.436.2.158.041-.079.554.357v.6l-.2.484-1.227,1.79-.367.288-.474,1.2.028.642,1.4.623.683,1.079.108.731.335.851.12.851L375.388,367l-.4.516-.051.791.4.5.563.4h.168l.455.731.623.288.5.4.683.168.614.335,3.223.74h.791l.516.4.108.278v1.7l.5.674.563.455v.9l-.278.623.456,2.2.791.06.5.456,1.126-.12.345-.228,1.8,1.531,2.828,1.019.683-.177h1.689l.791.177.563.5.683-.06,1.354-.456,2.037-2.2,1.186-3.113,1.019-1.019,1.4-.4.4-.5-.108-2.085,1.186-2.372.516-.345.731.228.335.516,1.474.278.5.456v1.689l.335.177.228-.516.456-.4.288-.563.335-1.354.5.456.12.168.9.446.791.12.791-.168,1.917-1.642.74-.108.446.4.74.168,1.632-.06.563-.335.851-.851.623-1.977.456-.456.791-.168,1.354.168.5-.335h1.306l1.237-.623.4-.623.623-.4.4-.5.563-.335.4-.623.177-.683.563-.278,3.331-.06.456-.4.4-.623.218-.623.791-.06.4-.5.516-.335.623.278.4.455,1.354.4.278-.563.573-.335h.841l1.306-.573.5.345.791.278.623-.228.4-.674.168-.683.731-1.186h.288l1.018.74.335.5,1.474.335h.841l.345-.5,1.521.168.4.4,2.037.563.563-.456.278-.563-.051-.791,1.186-.5.335-.516.851.06.446-.4.177-.731-.288-1.474.4-.623.731-.278.516-.335.563-1.306.456-.5h.841l.563-.4.456-.563.683-1.363.228-2.312.278-.623.731-.4.4-.456-.4-.674-.5-.335-.335-.563-.683-.345-2.255.288-.573.288-.731.108-.5.4-.4.5-.851.12-.563-.288-1.306-2.2h-1.521l-.623-.228-.841-.841.278-2.265-.168-.674-.288-.573-.4-.446-.12-.07-.544.288-.209.436-.4.237-1.838-.041-.4.209-2.066-.079-.019.256-.563.288-.623.5-.456.573-.06.791-1.069,1.749v.841l-.683.177h-.851l-.563-.791.288-.456-.851-.335-.623.278-.228.683-.4.563-.731.228-1.521,2.145-.623.228H433.47l-.573.4-.218.623-.228.051-.623.683-.12.791-.674.168-1.079.9-.674.177-1.582-.177-1.414.516-1.7,2.145-.841.06-.623-.345-1.019-.958-.12-.791-.563-.4-.841-1.237-.516.108h-.851l-.614-.288-1.582-.108-1.926-.683-1.521-.051-.683.278-.446.456v.851l.278.623.12,1.582-.288.614-.563.456-.683.228-3.271-.108-.623.278H405.72l-1.642-.5-1.019-.958-.335-.623-.516-.4-3.559-.683-1.069-.9-.791-.228-.455-.623-1.126-.623-.455-.5-.674-.228-.4-.5-.288-.12-.958-.108-.4-.563-1.019-.683-2.372-3.056h-.108l-.288-.563-1.414-.563-.731-1.186-.12-.623Z" transform="translate(-259.547 -247.966)" fill="#fff"/>
        <path id="C_city" d="M728.367,101.628l.022-.367-.338-.354.158-1.079-.563.041-.753.474-.683-.633-.6-.051-.278-.2v-.674l-.516-.13-.247.446-.474.12-.12-.474h-.4l.158.474.446.642-.563.712-.879.642-.4.041.721-.683-.247-.437v-1l-.474-.041-.437-.237-.563-.079-.642-.642h-1.234L719.1,97.9l.082-.43-.136-.285-.573.364-.623.225-.339.509-.734.171-.4.509-1.3.566-.791.057-.623.225-.563.4-1.525.171v.848l.339.62.734.225.452.509.057.791.962,2.148.734.506.509.68.734.171.452-.4v.62l.509.566,2.2.566,1.692,1.468,1.638.114,1.468-.734.791-.057.339-.566.225-.677-1.468-1.411v-1.525l-.171-.677.734-.171.9-.962.791.171.566.4.282.057.563-.9.452-.452.294-.68Z" transform="translate(-491.917 -84.231)" fill="#fff"/>
        <path id="T_city" d="M394.719,911.516l-.958.32-.639.56-1.038.4-.879-1.518-.958-.24h-1.278l-.4-.879-.879-.319-.718-.481-1.357.079-.161-.718.24-1.038.56-.32-.879-.319-.319-.8-1.518-.876.56-.718.8-.4-.079-2.394-.8-.481-.4-.8h-.879l-1.2-1.278-1.12-.56,1.518-4.634,2.078-.32.4-.879-.24-1.038-.879-.639-.8-1.677-1.278-.8-.079-.958-.319-.958,1.357-1.038v-1.2l-1.278-2.556-.161-1.357-.56-.32-.319-.958.161-1.12.879-1.6-.4-.879.481-.718.319-.879-.079-1.12.319-.8.639-.639.24-.958.56-.639.079-.319,1.278-1.759.079-1.117.56-.718.079-.8,1.038.158,1.12-.56,1.917-.4.958-2,3.514-.161.639-.718.079-1.12.56-.639.161-3.116.639-.639-.319-.718v-1.2l-.319-1.038-.8-.4-1.038-.079-.879-.8-.24-.481-.319-2.635-1.2-.8-.718.24-.079-.4-.8-.4-.319-.079h-1.038l-.481.718-1.6.8-.56.718-.879.481-.879-.481-2-2.4-2.717-1.676h-1.2l-.958.24-1.038,1.518-.958.24-.319.319h-.879l-.879-.4v-1.2l-.56-.639-.958-.4-.958.24-.879.639-1.117.079-2.078,1.439-.4.158-1.278,1.038-.079.4-.8,1.038-.718.56-1.117.079-1.917-.481-.879.4h-1.2l-.481-.718-1.436-.079-.56-.24-.8.4-.481,3.116-.4.8-.158,1.038-.4.876.079,4.792-.24.4.079,1.439-.56,2.157-.56.718-.639,1.917-.079,5.751,1.12,1.357-.879,5.194-.4.876-.778.7-.06.582-.237.357-.041,1.2-.158.4.237.554.041,2.875.921.079.633.6-.041.563-.278.079.563.753,1.591,1.167.288.4.437.2.2.041-.051-.009.051.13.958.4.367.4.474.326.92.316.357.316.484.237.316.285.525.237.357.316,3.034,1.642.357.436.525.168,3.429,2.749.288.4.633,1.711-.12.247,1.721,1.158,1.838,2.312.158.484v1.512l.563.92.237,1.079-.041.563-.158.474.041.484,1.275,1.079.278.4.4.326.237.4.316,1.117,1.038,1.075-.278.563v.6l.12.554.364.4.516,1.563.041,1.759.316,1.038v.6l.209.4.158.683.4.357.237.4.089.563.437.437.079,1.126.237.4-.041.6-.237.4-1.642.474.079.525.563.12.158.4-.041.2.12.516.2.4-.2.4-.278.316-.8.484-.079.516.316.367-1.2,1.117v1.158l.484.278v.6l.4.357-.12.484,1.237,1.076.12.437.4.4.237.4.158.8-.278.958.041,1.879-.357.841.278.357.554.079.288,1.037.316.522,1.234.12.484-.759.357-.278.079-.525-.237-1,.2-.437.446-.2.633-.683.4-.2h.595l.158.437,1.325.92.158.041.721-.041.516.12.2.4.484.12.437.278.6.2.6.041,1.2,1.205.041.554.595.2.288.247.2.4.041.554.838.8h.595l.4-.278-.079-.525-.326-.278-.12-.516.041-.563-.158-.437-1.55-2.363v-2.312l.158-.446-.2-.437.158-.958.316-.12.041-.525,1.075-.158.525-.2.2-.4.474-.12.4-.326.158-.474.041-.563.278-.316.563-.041.12-1.079,1.155-.762.12-.443-.633-.791L394.6,928.9l-.364-.522v-.6l.838-1.414.316-.335v-.484l-.474-.2-.642-.683-.2-.516L394,922.625l.079-.218.278-.019.158-.2.228-.158.1-.228-.278-.437.019-1.158-.269-.4.079-.2.168-.177.1-.2.06-.237-.06-.247v-.595l-.1-.307-.13-.177.019-.357-.2-.256-.1-.266.06-.516.446-.367.12-.2.06-.218.019-.582-.079-.256v-.218l.06-.158-.278-.326.237-1.037.316-.357.158-.436-.316-.367-.051-.288" transform="translate(-244.219 -595.646)" fill="#fff"/>
        <path id="A_city" d="M663.56,92.413l-.4.848-.4.4-.114.228-.4.452v.848l-.566.338-.114.734.225.734.566.4,1.806.225,1.129,1.072.452.848.057,2.6-.848,1.186-.563.509-.285.623.171,1.639.339.677.677-.057.62-.338.4-.563.4-.057.9.4.509.4.228.62V108l.4.677.734.509.791.057.338,1.357,1.186.791,3.163.338.677-.282h.9l.057-.566-1.525-.734-.114-.791.057-.677-.4-1.3v-.734l.4-.62.566-.338,1.582.114.509-.338.677-.171,2.148.114.171-.452-.509-.225-.734.225-1.243-.566-1.525-1.129-.281-.62.4-.509-.114-.62-.452-.452.338-.4.734-1.525-.171-1.471-2.429-2.088.168-.734.452-.509-.171-.566-.9-.791-.338-.509-.057-1.639-.9-.9v-.848l.228-.62v-.848l-1.471.114-.62-1.129-.452-.509-.791,1.243-.62.282-.281.62-1.186.677-.282.734-.509.338-.791.057-.62.282-.962,1.129-.281.734-.731.228Z" transform="translate(-457.733 -76.642)" fill="#fff"/>
        <path id="F_city" d="M676.567,85.239l-.446.041-.357.326-.367-.683-.437-.158-.278-.316-.465-.108-.573.019-.266.269-.535.335-1.275-.12-1.563-1.275-.12-.443v-1.8l-.2-.237.437-.316-.079-.2-1.313-1.325-.4-.958.484-1.433.474-.326.12-.474-.2-.4-.316-.288-.2-.278.237-.4.4-.247v-.588l-.554-.041-.525.12-.316.316-1.079.367h-.6l-1.879-.4-.474.2-.446-.2-1.379-.041-.917-.278-.437.237-.4.4h-.516l-.326-.4.12-.516.247-.4.2-.2h-.6l-.516.2h-.573l.006.367-.281.677-.452.452-.563.9-.281-.057-.566-.4-.791-.171-.9.962-.734.171.171.677v1.525l1.468,1.411-.225.677-.338.566-.791.057-1.468.734-1.639-.114-1.7-1.468-2.2-.566-.509-.566v-.62l-.452.4-.734-.171-.506-.68-.734-.506-.962-2.148-.057-.791-.452-.509-.734-.225-.338-.62v-.848l1.525-.171.566-.4.62-.225.791-.057,1.3-.566.4-.509.734-.171.338-.509.62-.225.468-.351-.92-.661-.484-.158-.516-.357-.168-.4.209-.474.92-.446-.089-.237-.357-.316.316-.357.446-.247.4-.357-.12-.357-1.433,1.237-2,.12-1.563-1.6-.079-.4.4-.4-.2-.4h-.633l-.446-.2-.642-.642.168-1.2-.12-.563-.206-.4-.357-.316L640.3,58.39l-1-.316-.563-.721-.437-.237h-.6l-.43-.272-.326-.357-.4-.237-.139-.028-.424.07-.316.357-.158.484h-1.917l-.6-.642-.357.237v.6l-.357.237-1.6.237-.2-.516-.2.2-.079.563-.443.357-1.079.278-.437.326-.525.158L626.6,61.525l-.2.041-1.167-.158-.4.316-.041.563-.316.357-.12.484-.4.8-.079.595-.278.4-.4.237-.674.683-.079.595-.642,1.237-.6.168-.357-.041.079.357,1.079,1,.6.041,1.117.525.474.832.446.326.316.4.683,1.4.079,2.391-.278.237-.079-.516-.247-.525-.079-.516-.633-.841-.041-.563-.209-.554-.712-.721-1.838-1.2h-.6l-.357.316-.2.762-1.167,1.117-.516.158-.879.525-.474.12-1.325.879-1.632.516-.4.278-3.8.041-.762.721-.3.443.573.784.4.114.4.509,1.582.171,2.939,1.411-.171,1.129.623.563,1.638.4h1.692l.4.282.566.677.171.734v.225l-.285.566.114.734.4.452.734.509-.282.506-.623.4-.62.225.677.509.057.677-.509.338-.677.225-.623,1.129-.9.623-3.559-.114-.566.282-.168.677.339.62-.171,1.582-.452.452-.285.62.4.734.68.057.506.4-.677.452-.4.452-.282.62.282,1.357,1.411.848,1.072,1.639-.4.509.114.677.057.057.791.509-.506.4-1.471.282-.057.677.791.114.509-.4.509.509.563.338.9.225.848-.057.62-.338,1.7-.114.4.228.114.282.452.452.225.62.9.9.509.282.506.566.057.791.282.791.734.225v.848l-.509.338-.338.509-1.015.848-.338.62.114.734.282.566v.338l.623,1.582,1.015.962-.171.62.791.338.057.566.791.225.452.623.62.452.171,1.582.468.2,1.509.085.734-.452,1.471-.225,1.639-1.075.171-.791,1.863-1.015.848-.057.677-.225.339-.509.506-.4.734-.114.452-1.357v-.848l-.225-.677-.452-.452-.114-.791.62-.509.114-.734-.057-.791.282-.623.677-.168.563-.338.791.225.734-.566.168-.677-.452-.4,3.334-.4,1.129-.566.509.566.225-.62.677-.228.338-.563.563-.509.171-.538,1.525-.819.848-1.015.62-.338.734-.114,2.372.338.566-.282.791-.171-.057-.4.057-.677.452-.566.057-.68-.171-.734L656.836,98l.962-.791.734-.114,1.7.114,1.863-1.243.452-1.357-1.3-1.863.281-.566.171-.677.566-.452,1.639.114.734.282h.9l.452-.506,2.145-1.525,1.7-.114,1.977-.734.791-.057,1.174.218h0l.354-.158.247-.487.557-.038.237-.357.879-.4.247-.418.595-.057.218-.455.019-.465Zm-31.894-.285-2.148-.114-.677.171-.509.338-1.582-.114-.566.338-.4.62v.734l.4,1.3-.057.677.114.791,1.525.734-.057.566h-.9l-.677.282-3.163-.338-1.186-.791-.338-1.357-.791-.057-.734-.509-.4-.677V86.7l-.228-.62-.509-.4-.9-.4-.4.057-.4.563-.62.338-.677.057-.338-.677-.171-1.639.285-.623.563-.509.848-1.186-.057-2.6-.452-.848-1.129-1.072-1.806-.225-.566-.4-.225-.734.114-.734.566-.338V73.88l.4-.452.114-.228.4-.4.4-.848.734-.225.281-.734.962-1.129.62-.282.791-.057.509-.338.282-.734,1.186-.677.281-.62.62-.282.791-1.243.452.509.62,1.129,1.471-.114v.848l-.228.62v.848l.9.9.057,1.639.338.509.9.791.171.566-.452.509-.168.734,2.429,2.088.171,1.471-.734,1.525-.339.4.452.452.114.62-.4.509.281.62,1.525,1.129,1.243.566.734-.225.509.225Z" transform="translate(-421.901 -56.22)" fill="#fff"/>
        <path id="G_city" d="M635,190.568l-.149.367-.519.161-1.12.079-.4.24-.56.759-.2,1.6-.718.958-.12.481-.2.4-.12.481-1.079,1.676-.079.519h-.56l-.44.2-.361.278-.123.225-.272.291.035.2.361.24.2.44.041.56.158.44-.4.361-.161.079-.158.24-.4.24-.44.481-.12.519.2.4.041,2.315-.24.56-.361.44-.44.319-.519.8-.56.44-.158.4-.44-.041-1.079,1.559-.4.24-.6-.12-.44.879-.44.24-.361.917-.281.361-.481.4-.4.8.032.5-.218.323.456.535.281.566.171.677-.281,2.262.848.848.62.225h1.525l1.3,2.2.563.285.848-.114.4-.509.506-.4.734-.114.566-.282,2.258-.282.68.338.339.566.509.338.4.667,3.8,2.436h2.556l.958.4,1.278.158,2.556,1.759,2.635.319.958-.24-.958-.8.24-.958,1.037-.24.718-.481.718.319.639-.56-.24-.481-.639-.56.079-1.038.639-.24,1.357,1.2,1.518.481,1.439,1.12,2.875,1.2,2.315.158,2.556,1.278,1.306.158-.07-1.278-.237-.4.041-1.158.8-1.521.12-.475.484-.8.158-3.441.158-.516.278-.367v-.674l.316-1.117.563-.762.158-.563.841-.516.316-.367.4-.832.041-.563,1.433-1.354,1.442-.6h.595l.168-.079-.446-.237-.316-.326-.237-.4v-.6l-.8-.474-.158-1.563.554-.357.278-.4,1.038-.2.879-.554.522-.12.158-.522-.041-.474-.2-.563-.041-.563-.237-.357-.089-1.117.247-.357-.285-.446.206-.474h.595l-.079-.446-.316-.278-.079-.158.474-.209-.4.089-.563-.209-.041-.4-.762-.683.13-.516.554-.041.484.278.079.563.554-.041.484-.247-1.158-1.158-.958-.316-.13-.237-.158-.051-.516-.712-.041-.4-1.158-2.875-.041-1.2-.247-.357.12-.2v-.642l-.158-.525.158-3.233-.917-1-.278-.474v-.525l-.437-.516-.2-1.079.041-.563-.326-.316.158-4.438.209-.683v-.595l.4-.879-.079-1.158.316-.958.041-.563.759-1.632.079-.563.4-.683.474-.237.316-.92.288-.357.437-.158,1.2-1.4.4-.2,1-1.155.079-1.117.158-.484.879-.516.474-.12.484-.683.373-.3.386-.183.791-1.117.089-.595.554-.326.563-.079.4-.158.357-.354.525-.079.4-.247.6-.041.854-.392-1.148-.225-.791.057-1.977.734-1.692.111-2.148,1.525-.452.506h-.9l-.734-.282-1.639-.114-.566.452-.171.677-.282.566,1.3,1.863-.452,1.357-1.863,1.243-1.7-.114-.734.114-.962.791-.791,1.015.171.734-.057.68-.452.566-.057.677.057.4-.791.171-.566.282-2.372-.338-.734.114-.62.338-.848,1.015-1.525.819-.171.538-.566.509-.339.563-.68.228-.225.62-.509-.566-1.129.566-3.334.4.452.4-.171.677-.734.566-.791-.225-.566.338-.68.168-.281.623.057.791-.111.734-.623.509.114.791.452.452.228.68v.848l-.452,1.357-.734.114-.509.4-.338.509-.677.225-.848.057-1.863,1.015-.171.791-1.638,1.075-1.471.225-.734.452-1.6-.044Z" transform="translate(-429.278 -125.969)" fill="#fff"/>
        <path id="H_city" d="M566.927,160.7l-.171.37-.519.161-1.12.079-.4.24-.56.759-.2,1.6-.718.958-.12.481-.2.4-.12.481-1.079,1.676-.079.519h-.56l-.44.2-.361.278-.481.614-.24.146-.56.12-1.158-.158-.481-.278-.4-.6h-.281l-.24-.319-.158-.481-.44-.158v-1.237l.24-.44.12-.56-.481-.24-.519-.079-.4-.24-.041-1.2.319-.319.041-.6.161-.481-.079-.6-.519-.24h-.6l-.2-.4-.079-.56-.24-.4-.361-.278-.718-.917-.917-.44-.958.319-.44-.161v-1.2l.361-.361.2-.4v-1.2l-.68-.12.041-1.4.161-.44.278-.4.12-.519-.4-.4-.2-.481-.56-.12-.4-.4-.44-.161-.56-.041-.161-.24h-.079l-.519-.278-.319-.4-.481-.278-.12-.2-.041-.361-.278-.759-.481-.2-.68-.12v-.6l-.481-.158-1.237.56h-.519l-1.8-1.436-.44-.2-.361-.361-.639-.24v-.44l-.6-.079-.56-.2-1.12-.879-.2-.282-.958-.6.12-.519.56-.879-.161-1.759-.44-.319-3.714-.319-.24-.481-.079-.6.32-.278-.44-.24-.4.278-.522.2-.6.041-.519-.4-.639-.2h-.6l-.4-.44-.958-.361.041-1.158.2-.481-.361-.958-.041-.56-.56-.041-.68-.68-1.158-.079-1.36.4-.718-.481-1.357.8-.981-.263.146-.253.4-.326.958-1.275.2-.437.4-.4.4-.237.563-.6v-1.158l-.288-.4.041-.563.958-1.2.326-.917.357-.278.762-1.117,1.474-1.284,1.246-.554.516-.079.367-.364.475-.158.8-.516.4-.446.525-.316.554-.158.879-.683.484-.2h.633l3.837-1,.484-.4,1.117-.516,1.155-1.158.525-.326.674-.041,2.638-1.079h.6l.316-.316,1.117-.237.484.158.791.633.743.025.25.592.4.452.4.114.4.509,1.582.168,2.939,1.414-.171,1.129.62.566,1.639.4h1.7l.4.282.566.677.171.734v.225l-.285.566.114.734.4.452.734.509-.281.509-.62.4-.62.225.677.509.057.677-.506.338-.68.225-.62,1.129-.9.62-3.559-.114-.566.282-.171.677.339.62-.171,1.582-.452.452-.281.62.4.734.677.057.509.4-.677.452-.4.452-.285.62.285,1.357,1.411.848,1.072,1.639-.4.509.114.677.848.566-.509.4-1.468.282-.057.677.791.114.506-.4.509.509.566.338.9.228.848-.057.623-.338,1.692-.114.4.228.114.282.452.452.225.62.9.9.506.282.509.566.057.791.285.791.734.225v.848l-.506.338-.338.509-1.019.848-.339.62.114.734.281.566v.338l.62,1.582,1.015.962-.168.62.791.338.057.566.791.225.452.623.62.452.171,1.582.37.221Z" transform="translate(-361.176 -96.106)" fill="#fff"/>
        <path id="O_city" d="M489.82,214.972l.063.332.4.2h.639l.44-.158.361-.278.44.161.6.718.158.519v.481l1.54.4.218-.158.639-.759.12-1.158.4-.917.519-.12.32-.481.481-.2.361-.278.158-.481.281-.44,1.718-.4-.161-.44.361-.56.481-.161h.6l2.236,2.277.481-.319v-1.2l-1.038-3.514-.6-.838-1.079-.917-1.158-.12-.041-.2-.161-.319-.44-.282h-.6l-2.436-.6-.6-.838-.158-.44-.509-.367-.326.244-.484.2-1.6,2.2-.4.357.2.958-.079.316.158.168.6.041.079.516-.237.484-.12,1.117-.247.357-.041,1.237-.595.8-.158.484.437.357-.237.316-.2.563-.721.683-.563.316-.506.133Z" transform="translate(-340.304 -156.653)" fill="#fff"/>
        <path id="J_city" d="M541.075,224.833l-.535.285-.2.44-.4.24-1.838-.041-.4.2-1.8-.041-.281-.319-.041-.68.079-.4-.2-.24v-1.2l-.278-.4-.481-.278-.361-.4-.2-.481-.68-.759-.2-.481-.481-.24-.24-.361-.519-.278-.158-.4.079-.917-.361-.481-1.158-.079-.481.161-.838.56h-1.357l-.44.24h-.6l-.4-.361-2.394-.12-.44.158-.481-.12h-.6l-.68.6-1.079.44-1.079-.24h-1.879v-.68l-.278-.6v-.639l.24-.481.677-.718.161-.481-.041-.6-.481-.917-.838-.68.639-1.038.357-1.319.361-.44.041-.56.278-.4.12-.519-.44-.24-.361-1.079-.6-.158-.44-1-.278-.12-.639.158-.481.278-.759-.6-.278-.481-.519-.12-.4-.278-.639-1-.56-.079-.56-.24-.041-.56-.361-.4-.56-.079-1.038-.68-.278-.481-.44-.44-.519-.917-.079-.56-.639-.24.12-.4.281-.44.079-.519.319-.4-.44-.24.278-.361-1.12.079-.4.319-.481.2-.278-.361h-.917l-.481-.24-.313-.383.791-.974.12-1.158.4-.917.519-.12.319-.481.481-.2.361-.278.158-.481.282-.44,1.718-.4-.161-.44.361-.56.481-.158h.6l2.236,2.277.481-.319v-1.2l-1.038-3.514-.6-.838L511.1,185.6l-1.158-.12-.041-.2-.161-.319-.44-.278h-.6l-2.436-.6-.6-.838-.161-.44-.5-.4.177-.474.642-.8.158-.563.316-.278.2-1.079,1.759-2.2-.237-.484-.12-.6,1.733-2.5.981.263,1.357-.8.718.481,1.357-.4,1.158.079.68.68.56.041.041.56.361.958-.2.481-.041,1.158.958.361.4.44h.6l.639.2.519.4.6-.041.519-.2.4-.278.44.24-.319.278.079.6.24.481,3.714.319.44.319.161,1.759-.56.879-.12.519.958.6.2.282,1.12.879.56.2.6.079v.44l.639.24,2.6,2h.519l1.237-.56.481.158v.6l.68.12.481.2.278.759.041.361.12.2.478.278.319.4.519.278h.079l.161.24.56.041.44.161.4.4.56.12.2.481.4.4-.12.519-.278.4-.158.44-.041,1.4.68.12v1.2l-.2.4-.361.361v1.2l.44.161.958-.319.917.44.718.917.361.278.24.4.079.56.2.4h.6l.519.24.079.6-.161.481-.041.6-.32.319.041,1.2.4.24.519.079.478.24-.12.56-.24.44v1.237l.44.158.158.481.24.319h.278l.4.6.481.278,1.158.161.822-.225.456.3.2.44.041.56.158.44-.4.361-.161.079-.158.24-.4.24-.44.481-.12.519.2.4.041,2.315-.24.56-.361.44-.44.319-.519.8-.56.44-.158.4-.44-.041-1.079,1.556-.4.24-.6-.12-.44.879-.44.24-.361.917-.278.361-.481.4-.4.8-.041.56-.209.266" transform="translate(-350.456 -135.992)" fill="#fff"/>
        <path id="K_city" d="M442.49,243.426l.481.24h.917l.278.361.481-.2.4-.319,1.12-.079-.278.361.44.24-.319.4-.079.519-.278.44-.12.4.639.24.079.56.519.917.44.44.278.481,1.038.68.56.079.361.4.041.56.56.24.56.079.639,1,.4.278.519.12.278.481.759.6.481-.278.639-.158.278.12.44,1,.6.158.361,1.079.44.24-.12.519-.282.4-.041.56-.361.44-.361,1.319-.639,1.038.838.68.481.917.041.6-.158.481-.68.718-.24.481v.639l.278.6v.68h1.876l1.079.24,1.079-.44.68-.6h.6l.478.12.44-.161,2.395.12.4.361h.6l.44-.24h1.357l.838-.56.481-.161,1.158.079.361.478-.079.917.158.4.519.278.24.361.481.24.2.481.68.759.2.481.357.4.481.278.278.4v1.2l.2.24-.079.4.032,1.224-.566.282-.62.509-.452.566-.057.791-1.072,1.752v.848l-.677.171h-.848l-.566-.791.281-.452-.848-.339-.623.282-.225.68-.4.563-.734.228-1.525,2.145-.62.228h-1.689l-.566.4-.225.62-.225.057-.623.677-.114.791-.677.171-1.072.9-.677.171-1.582-.171-1.411.509-1.7,2.148-.848.057-.62-.338-1.015-.962-.111-.791-.566-.4-.848-1.243-.509.114h-.851l-.623-.285-1.582-.111-1.92-.68L442,281.492l-.677.281-.452.452v.848l.282.62.114,1.582-.281.62-.566.452-.677.228-3.277-.114-.62.282h-1.7l-1.639-.506-1.015-.962-.338-.62-.506-.4-3.559-.68-1.076-.9-.791-.225-.452-.62-1.129-.623-.452-.506-.677-.225-.4-.509-.281-.111-.962-.114-.4-.566-1.015-.677-2.372-3.052h-.114l-.282-.566-1.411-.563-.734-1.186-.111-.623-1.193-1.493.5-.225,1.2-1,.958-1.246.2-.436,1.642-2.154.4-1,.446-.6,3-8.907.712-.92.041-.237.367-.4,1-.247.841.721.357.525.12-.484-.12-.642.838-.516h.437l.326.079-.041-.525-.525-.237-.474-.357.316-.278.2-1.038.958-1.68.525-.079.633-.762,1.759-.079,1.395-.642h.762l1.237.446.326.316.712.158.4-.237-.237-.316-.6-.079-.474-.209-.247-.516-.554-.079.041-.563.316-.357.484-.237,1.749-1.484.168-.516.278-.367.12-.474v-.6l.4-.879.4-.357.278-.4.614-.266.146.31.4.2h.639l.44-.158.361-.278.44.158.6.718.161.519v.481l1.278.361.607.487Z" transform="translate(-287.954 -182.298)" fill="#fff"/>
        <path id="N_city" d="M302,453.539l2,.718,1.2.079,1.838.56,5.112-.24.879-.319,4.634.079.8-.4,1.6.879.24.4,1.357.158,2.556,1.278,2,.481,2.315-.079.958-.24,9.667,1.6,1.838-.56.639-.56.4-.8v-1.038l-.639-.158-.8.4h-1.038l-.8-.4-2.315-2.477.079-.718.4-.8-.56-.639.481-.8.158-1.038.4-.8.4-3.037-.158-.879.158-.718-.319-1.759.481-.718.639-.56.4-.8.079-1.12-.4-.879-.56-.639-.158-.079.079-1.2h2.395l1.265-.715-1.822-1.512-.338.225-1.129.114-.506-.452-.791-.057-.452-2.2.282-.623v-.9l-.563-.452-.509-.68v-1.692l-.114-.285-.509-.4h-.791l-2.372-.677-.848-.057-.623-.338-.677-.171-.509-.4-.62-.282-.452-.734h-.171l-.566-.4-.4-.509.057-.791.4-.509-1.019-1.076-.114-.848-.338-.848-.114-.734-.677-1.072-1.4-.623-.481.117.158.474.209.278-.484.247-1.028,1.316-.009.041-.841,1.354-.4.247-1.759.041.079.474.484.4-.041,1.158-.326.278-.2.437-.12.563-.278.4-.041,1.205-.041.12-.326.474v.6l.2.4-.079.6-.437.4-.958.367-.237.554-.721.762-.079,1.117-.2.446-.841.158-.446.357-.516.079-.762.563-.436.158-.12.516-1.284.958-.237.958v.683l-.278.484-.079.516-.4.278-.2,1.038-.762.051-.595-.13-.446.367-.316,1.553.12.367h1.2v.278l-1.512,2.274-.079-.041-.13.642-.278.357-.12.484-.316.316-.4,1.521-.674.753-.168.582-.595.8-.2.474-.288.326-.079.693-.4.209-.357.316-.446.237-.278.4-.446.237v.437l.288.4-.209.158h-.595l-.278.4-.089,1.155-.12.326" transform="translate(-211.805 -302.223)" fill="#fff"/>
        <path id="P_city" d="M318.972,557.31v-.958l-.718-.639-1.038-.161-.319.879-.879.161-1.038-.24-.24.958-.958.158-1.12-.079-.718-.481-.481-.879-.24-.958-1.518,1.12-.079-2.315.639-1.838.079-.079.56-1.278.158-1.038-.079-1.12-.481-.8-.079-2.315.24-.958.879.161.161-2.236-1.6-3.438-6.551-.958-1.2-.481-.639-.079-3.274.32-4.555-1.759-1.357-.158-.24-.4-1.6-.879-.8.4-4.634-.079-2.4.639-3.593-.079-1.838-.56-1.2-.079-2.037-.7-1.237.022-.4-.209-.446-.079-.158.484-.554.041-1.917,3.429-.041.209-.683-.041-.4.237-.633.762-.2.516-.079,1.2-.326.364-.079.516.522.762-.079.563-.522.753-1,.041-.12.484v.595l-.683.367v.762l-.041-.041-.158.079-.12.516v.6l.158.436.6.041.437.642-.721.879-.437.879-.12.474-.6,1-.316,1.117-.4.6-.832,2.353.079,2.363-.12.474.041.446.554.278-.041.525-.474.2-.683.516.158.68.357.2.484.079.041.6-.316.4v1.2l.4.288.642.879.436.354-.4.237-.285.525-.554.041-.158-.446-.326-.278-.474.278-.7.8,1.218.041,1.838.718h1.2l.481.718h1.2l.879-.4,2,.718,1.2.161.718-.56.56-.718.079-1.12-.24-.958.639-.639h1.038v1.038l1.117.4.319-.879,1.518-.879.24-1.117.56-.639,2-.8.879.481.56-1.917.481-.8,1.278.079.8-.4.32-.958,1.838-.56.319-.879.718-.56.56-.718.879.4.718.56.879.32,1.838-.718h2.4l1.676-.879,1.6.4.481,1.6,1.357,1.117.481.718.8.481,1.12.079.718.56.958.319,4.394.481.879-.481.56-.639,1.756.079-.158,1.2.639,1.037.639-.639,1.038-.24.639.639.958-.079.879-.319,1.12.079.879.481,1.117.158.4-.8v-1.117l-.24-.958-.481-.718.487-.743Z" transform="translate(-184.048 -382.747)" fill="#fff"/>
        <path id="U_city" d="M569.085,457.889l-1.06-.3-.718-.56-.958-.24h-1.2l-.879.319-1.357,1.12L560.6,462.38l-.079.079.161,1.439.639.718,1.038.56v.079l-3.834,5.833-.161,2.8-.56.718-.718.481-.4.8L556.2,477.8l-.718.56v1.2l-.481.879-.079.879-.958,1.838-1.357,1.12-.32.879.24,1.12v3.593l-.319.879-3.116.481-.8.56-.639-.079-.079-1.12-.56-1.038-.639-.56-1.436-.079-.319-.24-.56-.718-.958-.319-.8-.481v-.879l-1.2-1.68v-1.357l-.4-.879-.56-.718-1.6-1.038-1.676.8-.161.4H536.4l-.879-.4-.4-.8L534,479.322l-1.12-.079-1.676-1.038h-1.357l-.4-.8-.24-.24-1.2-2.875.079-1.2-1.2-1.518-.24-.8.24-.958-.079-1.12-4.871-3.356-.958-.24.319-1.12.56-.8,1.037-.319-.158-.718.481-.718,1.038-.161.478-.718v-2.236l-.718-.481-.161-.519.4-.361.958-.24.958-.639.958-.24.24-1.117-.32-.958-.718-.56.56-.639.24-1.038.639-.718.718-.481.24-.958.718-.481,1.12.079.879-.4h1.2l.4-.161.8.481.958.24,1.518-1.278v-2.4l.24-.958.718-.481-.718-2,.8-.4,1.2.319.879-.4.481-.718,1.037-.481,1.436-.079,1.2-2.635.4-3.274.4-.8v-1.2l.639-1.759v-2.954l-.8-.718-.079-1.12.24-.879-2.556-1.838.079-1.12,1.038-.24.958-.718v-.481l-.24-.958.161-1.117.718-.481.319-1.038.079-1.2.319-.958.639-.8.079-1.2.718-.718.958-.24-.161-1.759-.56-.958,1.357-1.2-.079-.958-.32-1.037v-1.2l.24-.639v-2.4l-.639-.8-.319-.079v-1.12L549.1,395.6l.079-2.315.718-.718.8-.4.481-.8.8-.4.639-1.12.24-.8.079-1.12-.481-.718-1.12-.158-.319-.879-.56-.639-1.2-.4-.24-.319-.079-2,.879-2.078.958-.24.639-.56.879-.4,1.2-1.2h1.2l.478-.718-.553-1.771.629-.49.281-.563-.057-.791,1.186-.509.339-.509.848.057.452-.4.171-.734-.281-1.468.4-.62.734-.282.509-.338.566-1.3.452-.509h.848l.566-.4.452-.566.677-1.357.225-2.315.281-.62.734-.4.4-.462,3.8,2.436h2.556l.958.4,1.278.158,2.556,1.759,2.635.319.958-.24-.958-.8.24-.958,1.038-.24.718-.481.718.319.639-.56-.24-.481-.639-.56.079-1.038.639-.24,1.357,1.2,1.518.481,1.439,1.12,2.875,1.2,2.315.158,2.556,1.278,1.313.155-.041.4-.2.4-.474.209-.288.474-.712.642-.838,1.234-.041,1.759-.367.278-.357.841-.474.2-.247.6-.079.041-1.117.12-.958,1.721-.4.316-.525.079-1.038.92-.474.12-.288.357-.4.247-1.234,1.67-.326,1.038v1.8l.762,1.363-.237.237-.158,1.642-.079.158-.12-.079-.446.772-.437.149-1.019,1.177-.484.256-1.373,1.484-.2.437.041,3.758.2.4.158,1.038,2.274,2.363v.595l-.316,1.075-.446-.12-.12.525.209.4-.484.158-.357.8h.516l-.237.958-.6.041-.237-.357h-.474l-.326.278-.2.522-.357.357-.326.958.443.958.041,1.759-.316,1.079-.041,1.67-.168.525-.041,1.759-.2.4-.12,1.079-.6,1.363v.595l-.2.446-.079.516-.595,1.246-.089.554-1.038,1.521-.2.674v3.321l.158.437-.436,2.037-1.117,1.721-.525.357v.563l-.2.437-.041.563.278.2.237.8-.278.357-.079.525-.2.4-.278,2.2-.288.326.041.4.247.367-.326.357-.474.2-.158,1.079-.4.484-.041,4.033-.278.554-.041,1.246-.278.958-.443.4-.12.525-.516.753-.051.6-.4,1.038L570.373,448l-.278.446-.079.674.158.12.2.522v1.2l.525.8-.041,1.158-.168.484-.316.357-.474.2-.563.041.12.158.525.326-.247.474v.6l-.278,1.038v.6l-.2.474-.171.215Z" transform="translate(-361.607 -264.654)" fill="#fff"/>
        <path id="M_city" d="M412.321,447.936l1.6,3.435-.158,2.236-.879-.158-.24.958.079,2.315.481.8.079,1.12-.481,1.917-.24.4-.079.079-.639,1.838.079,2.315,1.518-1.12.24.958.481.879.718.481,1.12.079.958-.158.24-.958,1.038.24.879-.161.319-.879,1.038.161.718.639.032.952,2.047-.234,3.676,1.357h1.2l1.038.24.4.8.079,2.717-.24,1.038-.879.718v1.2l.481.8.718.639.158,2.315.8,1.838.639.718,3.6.4,1.756-.718,3.514.319.879.319,3.755.24,2,.718h.161l.8.56.4,2,.32.161.4-.4.958-.24.958-.639.958-.24.24-1.117-.32-.958-.718-.56.56-.639.24-1.038.639-.718.718-.481.24-.958.718-.481,1.12.079.879-.4h1.2l.4-.158.8.481.958.24,1.518-1.278v-2.395l.24-.958.718-.481-.718-2,.8-.4,1.2.319.879-.4.481-.718,1.038-.481,1.436-.079,1.2-2.635.4-3.274.4-.8v-1.2l.639-1.759v-2.954l-.8-.718-.079-1.12.24-.879-2.556-1.838.079-1.117,1.038-.24.958-.718v-.481l-.24-.958.158-1.12.718-.481.319-1.038.079-1.2.319-.958.639-.8.079-1.2.718-.718.958-.24-.161-1.759-.56-.958,1.357-1.2-.079-.958L472.541,433v-1.2l.24-.639v-2.4l-.639-.8-.32-.079v-1.12l1.917-4.074.079-2.315.718-.718.8-.4.478-.8.8-.4.639-1.12.24-.8.079-1.12-.481-.718-1.12-.161-.319-.879-.56-.639-1.2-.4-.24-.319-.079-2,.879-2.075.958-.24.639-.56.879-.4,1.2-1.2h1.2l.478-.718-.544-1.784-.452-.25-1.525-.338-.4-.4-1.525-.171-.338.509-1.638-.114-.677-.225-.338-.506-1.019-.734h-.281l-.734,1.186-.171.677-.4.677-.62.225-.791-.281-.509-.338-1.3.566H465.7l-.566.338-.282.566-1.357-.4-.4-.452-.62-.281-.509.338-.4.509-.791.057-.225.62-.4.623-.452.4-3.334.057-.566.281-.171.68-.4.62-.566.338-.4.509-.62.4-.4.62-1.243.62h-1.3l-.506.338-1.357-.171-.791.171-.452.452L447,412.639l-.848.848-.566.338-1.639.057-.734-.171-.452-.4-.734.114-1.92,1.639-.791.171-.791-.114-.9-.452-.111-.171-.509-.452-.338,1.357-.282.566-.452.4-.225.509-.338-.171v-1.7l-.509-.452-1.468-.281-.338-.509-.734-.225-.506.339-1.186,2.372.111,2.091-.4.506-1.411.4-1.015,1.019-1.186,3.106-2.034,2.2-1.357.452-.677.057-.566-.509-.791-.171h-1.7l-.677.171-2.85-1.044-1.224.731h-2.4l-.079,1.2.161.079.56.639.4.879-.079,1.12-.4.8-.639.56-.481.718.319,1.759-.158.718.158.879-.4,3.037-.4.8-.158,1.038-.481.8.56.639-.4.8-.079.718,2.315,2.477.8.4h1.038l.8-.4.639.158V446.1l-.4.8-.639.56-1.838.56-1.253-.082Z" transform="translate(-286.266 -291.749)" fill="#fff"/>
        <path id="V_city" d="M517.661,664.863l-.709,2.154v.6l-.446.278-.554,2.2-.041,1.828-.563,1.205.041,1.749-.357,1.759-.484.326h-.595l-.484.12-.4.316-.357,1-.247.4-.437.4-.2.437-.041.525-.367.357-.12,1.284-.316.4-.759,3.075.278.357.168.446-.247.4-.474.364-.446-.079-.278-.443-.357.158.316.326.041.437-.939.642.1,2.512.6,1.2.12.563-.079,1.158-.446.446.041,1.708.958,1-.278.92-1.158.041-.4.326-.68,1.313-.4.2-1.2.041-.278.367-.437.237v.6l-.247.4v.6l-.633.911-.446,1.563-.316.437-.278,1.8-.364.525-.079.516-.357.247-.326.357-.316.917-.316.516-.4,1.6-.237.278-.158.484v.595l-1.038,1.088-.158.436-.563.041-.357.316-.278.484-.209.079-.079,1-1.079,2.353-.683.642-.674,1.395-.2,1-.364.326-.474.12-.762.8-.041.958-1-.247-.443.168-1.079.158-1.838,1.512-.237.367-.079.516.2.4.563.633.12.4h-.6l-.237.4.2.4.4.209.316.357-.12.563.357.87-.158.522-.674.6-.525.079-.437.437-.4,2.521-.68.633-.87.367-.367.316-.237.4-.8.642-.237.357-.357.247-.484.2-1.2,1.433-.841.484-.484.12-.316.278-.437.2-.6.089-.316.316-.563.041-.278.357-.762.446-.316.316-.841.4-.12.484-.316.4-.563.041-.357.326-1.284.554-.357.326-.525.832-.278,1-.357.4-.079.516-.288.367-.041.554-.237.484.041.554-.06.187-.06,1.651-.237.465-.019.437-.623.9-1.117,1-.278.4-.525.278-.237.4-.079.525-.278.4-.041.563-.206.516v.6l-.4.237v.8l-.921,2.154v.6l-.278.278v1.2l-.683,1.325.041.674-.4.525-.168,1.117-.278.358-.079,1.117-.316.4-.12.553-.6.8-.158.443-.278.357-1.126,3.195-.278.4-.158,1.591-.8.8-.92,2.875v1.117l-.2.446.079,1.708.4.525v2.47l.278,1,.029,1.471-1.107.37-.639.56-1.038.4-.879-1.518-.958-.24H454.91l-.4-.879-.876-.319-.718-.481-1.357.079-.161-.718.24-1.038.56-.319-.879-.319-.32-.8-1.518-.879.56-.718.8-.4-.079-2.394-.8-.481-.4-.8h-.879l-1.2-1.278-1.12-.56,1.518-4.631,2.078-.319.4-.879-.24-1.038-.879-.639-.8-1.677-1.278-.8-.079-.958-.319-.958,1.357-1.038v-1.2l-1.278-2.556-.161-1.357-.56-.319-.319-.958.161-1.117.879-1.6-.4-.879.481-.718.32-.879-.079-1.117.319-.8.639-.639.24-.958.56-.639.079-.32,1.278-1.759.079-1.12.56-.718.079-.8,1.038.158,1.12-.56,1.917-.4.958-2,3.514-.161.639-.718.079-1.12.56-.639.161-3.116.639-.639-.319-.718v-1.2l-.319-1.037-.8-.4-1.038-.079-.879-.8-.24-.481-.24-.958v-1.2l.142-.307.225-2.148-.9-1.243-1.7-.114-.9-2.711.114-1.582-.452-.452-.566-1.243v-1.692l.338-1.357,3.163-4.068.225-.566V706.6l2.034-1.468-.452-1.357-.791-.791.566-1.357,1.129-1.243-.338-7.117,1.015-.68.677-1.582,1.129-.566-.338-1.243v-1.243l.452-1.243-.111-.566-.338-.225.9-1.129,1.129-.452,2.148-1.809,1.582-2.034h1.243l2.483-.677.9-.9,2.648-1.129.288.8,1.2,1.518-.079,1.2,1.2,2.875.24.24.4.8h1.357l1.676,1.038,1.12.079,1.12,1.278.4.8.879.4h.319l.161-.4,1.676-.8,1.6,1.038.56.718.4.879v1.357l1.2,1.677v.879l.8.481.958.319.56.718.319.24,1.436.079.639.56.56,1.038.079,1.12.639.079.8-.56,3.116-.481.319-.879v-3.593l-.24-1.12.319-.879,1.357-1.12.958-1.838.079-.879.481-.879v-1.2l.718-.56.481-1.917.4-.8.718-.481.56-.718.161-2.8,3.834-5.833v-.079l-1.038-.56-.639-.718-.161-1.439.079-.079,2.315-4.153,1.357-1.12.879-.319h1.2l.958.24.718.56,1.018.326h0v.006h.054Z" transform="translate(-310.215 -471.613)" fill="#fff"/>
        <path id="D_city" d="M272.537,672.49l-.079.158-.721.474-1.038.079-.633-.633-1.038.158-1.68.8h-2.4l-1.907,1.117-.089.079-.474.8-2-.089.079.958-2.233.168-.168,1.038-.4.791-.563.484-.791-.484-.642.642.316.879-.158.563-3.033,1.512-.237.958-1.038,1.521-.958.4-1.442-.4-.4-.642v.879l-.8-.079-.721-.642-.316-.958-1.2-.237-.87-.573-.247-.307-2.274-.4-1.237,2.154.2.4.316.041-.2.595-.4.288-.079.554.879.525.367.079.516-.158-.683,1-1.079.4-.278.4.079.554.237.484-.791.753-.13.525-.237.437-.762-.2-.2.4-.237,1.079.041,1.2-1.563,2.916L237,697.049l-.474.8.357-.446.484-.2.474-.041.2,2.521.367.278.474.2-.278,1.68-1.038.437h-.079l-1.117.367-1,.92-1.038.474-.079,1.117.079.158.079,1.167.237.278h.6l-.041,1.879.237.762.674.791.089.247.595-.209.4-.278.326-.335.108.493-.079.563,1.474.879.288.079.554.516,1,.525,1.246,1.316.474.237,1.68,1.563.041.158,1.079,1.037.762,1.158.516-.12.721-.674.437-.247-.316.683-.278.357v.4l1.038.278-.525.446-.595-.041-.326-.446-.278-.158.237.6.367.475.158.525-.158,3.034-.168.436.316.642.4-.237.642-.642.484-.177.019-.01,2.689.99.8-.4.554.326,1.2,1.275h1.117l.168-.237.879.4.633.079.484-.642,5.675,1.284,1.2-.079,2-1.838.554-.8.958-.316,1.117-.079.8.474h.958l.484-2,.474-.237.326-.4.158-1.038,1.2-2.8.958-.237.316-.958.079-1.117,1.759-.079.079-1.117,2.875-2.075,1.117-1.759,3.283-2.233.712-.8,1.2-.721.168-.958.079-.079.4-.237.158-1.117.4-.8.079-1.117,1.759-2.154.554-.079,2.559-3.442.079-1.2,1.275-1.6.237-.958-.712-.554-.089-.158-.316.237-.8-.4-2,.4-.958-.316-1.117-.8-1.2,1.759-.958.237-1.038-.079-1.354-.958-1.917-.563-.326-.791,1.037-1.521-.237-.8-.633-1.037-.168-.8.4-.791-.326-.879-.079-1.117.484-.879.721-.563.079-.958-.326-.879-1.117-.079-1.2-.4-.316-.721.791-.554-.079-1.038-2.47-.168v-1.038l.8-.554.474-.721-.642-.563-.712.4-.958-.237-.8-.642-1.038-.316-.563-.721-1.205-.351Z" transform="translate(-165.575 -477.554)" fill="#003881"/>
        <path id="E_city" d="M293.13,753.215l2.164,1.759.554.237.879.8,1.721.516.079-.2-.278-4.6.278-.917.278-.357.585.139.778-.7.639-1.838.079-1.12.56-1.917v-1.2l-1.117-1.357.079-5.751.639-1.917.56-.718.56-2.157-.079-1.439.24-.4-.079-4.792.4-.876.161-1.038.4-.8.481-3.116.8-.4.56.24,1.436.079.481.718h1.2l.879-.4,1.917.481,1.12-.079.718-.56.8-1.038.079-.4,1.278-1.038.4-.161,2.078-1.439,1.117-.079.879-.639.958-.24.958.4.56.639v1.2l.879.4h.879l.319-.32.958-.24,1.038-1.518.958-.24h1.2l2.717,1.677,2,2.4.879.481.879-.481.56-.718,1.6-.8.481-.718h1.038l.319.079.8.4.079.4.718-.24,1.423.958.225-2.135-.9-1.243-1.7-.114-.9-2.711.114-1.582-.452-.452-.566-1.243v-1.7l.338-1.357,3.163-4.065.225-.566v-1.243l2.034-1.471-.452-1.357-.791-.791.566-1.354,1.129-1.243-.338-7.117,1.015-.677.677-1.582,1.129-.566-.338-1.243v-1.243l.452-1.243-.114-.566-.338-.225.9-1.129,1.129-.452,2.145-1.806,1.582-2.034h1.243l2.483-.68.9-.9,2.686-1.126.25-.962-.079-1.12-4.871-3.35-.958-.24.319-1.117.56-.8,1.038-.32-.158-.718.481-.718,1.038-.161.481-.718v-2.236l-.718-.481-.19-.554-.291-.085-.4-2-.8-.56h-.158l-3.116-.879-.319.079-.8.4-2.078.319-.718.481-2,.4-1.357,1.12-.481.8-.879.4-.718.56-1.038.161-.718.8-.56,1.357-.56.481-.319.879-.56.639-.079,1.117-.879.319h-1.2l-.639.639-.478.8-1.278,1.278-2.236.158-.718,1.838-1.6.8-.32.879-2.075.158-.4,2.078-2.556-.079-.718-.639-2.477-.079-.4,3.676.4.879.639.8v1.2l-.348.342h0l.108.139.718.56-.24.958-1.278,1.6-.079,1.2-2.556,3.435-.56.079-1.759,2.157-.079,1.117-.4.8-.158,1.12-.4.24-.079.079-.158.958-5.194,3.755-1.12,1.756-2.875,2.078-.079,1.117-1.759.082-.079,1.117-.319.958-.958.24-1.2,2.8-.158,1.038-.319.4-.481.24-.481,2h-.958l-.8-.481-1.12.079-.958.32-2.556,2.635-1.2.079-3.195-1.038-2.477-.24-.481.639-.639-.079-.879-.4-.161.24h-1.117l-1.2-1.278-.56-.319-.8.4-2.673-1.009-.522.209-1.022.952.38.446.237,1.325.958,2v.595h.209l.079-.516.2-.4.6-.041.674,1.6-.079.516-.595.079-.446-.278-.237-.4-.12.278.041.563.237.712.041.563.563,1.079v.437L281.164,727l.047.563.474,1.079.437.554.984,2.088.541,1.2,1.433,1.759-.674.791-1.234-1.237.791,1.917-1.275,1.237-.079,1.325-.158.516.158.563.879.8.278.437v.6l.278.316-.041.6-.357.237.237.357.484.237.4,1.088.841.832.2.443.4.554.357.247.316.357.209.437.316.326.879,1.433-.838.158-.158.206v.2l.516.12,1.038-.041.2.041,1.047,1.117.437.237.721.8.2.446,1.234,1.038.449.234" transform="translate(-193.838 -464.94)" fill="#fff"/>
        <path id="path3219" d="M57.277,1079.452l.351-.221.411.016.629.383.705.161.278.278.351.718-.69-.044-.939-.278-.9-.294-.44-.294.367-.028.661.4.9-.133-.19-.307-.879-.146-.221-.117-.427.073.032-.161Z" transform="translate(-44.419 -755.635)" fill="#fff"/>
        <path id="path3221" d="M59.255,1140.954l.949-.3.576-.051.009.2-.883.494-.737-.06.085-.282Z" transform="translate(-45.875 -797.593)" fill="#fff"/>
        <g id="g4342" transform="translate(62.383 75.916)">
          <path id="path4338" d="M-712.949,181.84l-.171.791.452.452.509.225v-.848l-.4-.452-.4-.168Z" transform="translate(713.12 -181.84)" fill="#fff"/>
          <path id="path4340" d="M-706.465,186.12l-.4.677.566.338.566-.4-.4-.452-.342-.168Z" transform="translate(708.84 -184.766)" fill="#fff"/>
        </g>
        <g id="g4313" transform="translate(19.744 19.22)">
          <path id="path2683" d="M52.429,98.44l-.879.879,1.259-.25-.38-.629Z" transform="translate(-51.55 -98.44)" fill="#fff"/>
        </g>
      </g>
      <path id="I_city" d="M340.8,640.173l.161,1.037.958.958-.639,1.439,3.195.481.319.879.639.879.8.4.8-.481.4-.8,1.436-1.12.639.56,1.439.481.24-.8,1.12-1.357-.639-.639-.24-.958-.958-.24-.4-.8-.718-.481-.879.32-.639-.56-.56-.8-.8-.4-.958.24-2.236,1.6-.958-.24-1.518.4Z" transform="translate(-221.281 -399.852)" fill="#fff"/>
      <path id="Q_city" d="M337.636,616.88l-.879-.32-3.514-.319-1.759.718-3.593-.4-.639-.718-.8-1.838-.161-2.315-.718-.639-.478-.8v-1.2l.879-.718.24-1.038-.079-2.717-.4-.8-1.038-.24h-1.2l-3.676-1.357-2.037.2-.519.759.481.718.24.958v1.117l-.4.8-1.12-.158-.879-.481-1.12-.079-.879.319-.958.079L312,605.78l-1.038.24-.639.639-.639-1.038.158-1.2-1.759-.079-.56.639-.879.481-4.394-.481-.958-.32-.718-.56-1.12-.079-.8-.481-.481-.718-1.357-1.12-.481-1.6-1.6-.4-1.676.879h-2.4l-1.838.718-.879-.319-.718-.56-.879-.4-.56.718-.718.56-.319.879-1.838.56-.319.958-.8.4-1.278-.079-.481.8-.56,1.917-.879-.481-2,.8-.56.639-.24,1.117-1.518.879-.319.876-1.12-.4V609.13h-1.038l-.639.639.24.958-.079,1.12-.56.718-.718.56-1.2-.161-2-.718-.879.4h-1.2l-.481-.718h-1.2l-1.838-.718-1.218-.041-.5.275-.12,2.875.278.484.554.2,1.8-.12.446.2v.6l-.247.437-.158.563-.278.357v.642l-.237.474.12.642.516.278h.525l-.683,1.325-.041.554.484.12v.522l-.326,1,.041.595.247.484.4.316.446-.4.2.278.079,1.117-.316.522-.4,1.591-1.158.484-.446-.041-.949,2.2-.051,1.6.13.474h1.2l.516.2.063.522.857.563,1.2.24.32.958.718.639.8.079v-.873l.4.639,1.439.4.958-.4,1.038-1.518.24-.958,3.037-1.518.158-.56-.319-.879.639-.639.8.481.56-.481.4-.8.158-1.038,2.236-.158-.079-.958,2,.079.481-.8.079-.079,1.917-1.12h2.4l1.676-.8,1.038-.161.639.639,1.038-.079.718-.481.079-.158,1.2.319.56.718,1.038.319.8.639.958.24.718-.4.639.56-.481.718-.8.56v1.038l2.477.161.079,1.037-.8.56.32.718,1.2.4,1.12.079.319.879-.079.958-.718.56-.481.879.079,1.12.319.879-.4.8.161.8.639,1.038.24.8-1.037,1.518.319.8,1.917.56,1.357.958,1.038.079.958-.24,1.2-1.759,1.12.8.958.32,2-.4.8.4.639-.56v-1.2l-.639-.8-.4-.879.4-3.676,2.477.079.718.639,2.556.079.4-2.078,2.075-.161.319-.876,1.6-.8.718-1.838,2.236-.161,1.278-1.278.478-.8.639-.639h1.2l.879-.319.079-1.12.56-.639.319-.879.56-.481.56-1.357.718-.8,1.038-.161.718-.56.879-.4.481-.8,1.357-1.12,2-.4.718-.481,2.075-.319.8-.4.383-.089Zm-41.969,1.044-.24.8-1.436-.481-.639-.56-1.439,1.12-.4.8-.8.481-.8-.4-.639-.879-.319-.879-3.195-.481L286.4,616l-.958-.958L285.286,614l1.518-.4.958.24,2.236-1.6.958-.24.8.4.56.8.639.56.879-.32.718.481.4.8.958.24.24.958.639.639Z" transform="translate(-165.65 -373.551)" fill="#fff"/>
      <g id="g4330" transform="translate(27.987 135.642)">
        <path id="path2643" d="M58.367,288.538l-.263.174-.2.231-.784-.117-.291.146-.146.319v.873l-.146.291-.028.408-.263.206h-.437l-.291.145.085.437.2.291-.146.319-.263.263-.319.117H54.96l.2.348.813.057.146.376.408-.028.639-.845.348-.085.376.085.174.263.319-.146.174-.291-.028-.408.174-.291.845-.028.376-.117.206-.231.465-1.338-.057-.376L59.581,289l-.231-.263-.291-.145-.408-.085-.285.028Z" transform="translate(-48.975 -280.776)" fill="#fff"/>
        <path id="path2645" d="M38.06,307l.146.348.206.291-.117.231.437.028.291.146.263-.174-.06-.206-.437-.028-.2-.667L38.06,307Z" transform="translate(-37.421 -293.397)" fill="#fff"/>
        <path id="path2647" d="M36.242,310.84l-.2.263.728.174L37,311.1l-.756-.263Z" transform="translate(-36.04 -296.043)" fill="#fff"/>
        <path id="path2651" d="M91.445,266.151l-.117-.408-.206-.291v-.437l-.2-.263.174-.2h-.376l.028-.231-.291-.028-.231.057-.117-.2-.493.554-.146-.291.291-.174-.263-.174-.291.174-.174.263.319.263.231.32-.117.348-.376.057-.522.376-.38.057-.376-.028-.146.085-.089.291.146.231.028.408.408-.437.319.146h.437l-.028.234h-.437l.291.263.146.291-.263.174v.437l-.291-.085-.376-.522-.231-.2-.057.291.174.291v.085l-.291.319-.291.174-.174.263-.291.146h-.437l.408.376-.117.146.174.756-.085.231h-.174l-.554.437-.174.291-2.559-.348-3.432-2.47-.376-.085-.117-.089-.206.234-.408.057-.667.667-.376.06-.639,1.193.7.408.376.089-.057-.291-.231-.263.291-.146.873.028.146-.348.291-.174.234.263-.028.554-.231.231-.756.146-.146.376v.582l.117.085.231.376.234.756v.873l.057.231.493.057.2.231-.028.408-.319.117-.206-.554-.146.291-.7.089-.028.728-.263.206-1.278.028-.174-.146.028-.408-.263.522-.348-.06-.089.291.319.231.291.117.522.7.465.376.174.319.845.057.319.146.174.348.408.145.465.057.639.408.146-.263.493-.085.117-.319.234-.2.174-.756.958-1.366.234-.2.2-.291.263-.2.057-.146.376-.06.263-.174.376-.089.231-.2.291-.146.408-.028.639-.263,2.5-.174.465.174.522.437.291.146h.437l.728.291.756.756-.028.348-.2.263-.263.174-.174.057.348.146h.437l.319-.117.263-.206.376-.085.2-.291.728-.174.117-.319-.146-.263.089-.319.263-.117.437.085.2-.231.117-.263-.437-.522-.06-.32.582-.348.319-.028.174.174.319-.263-.117-.263.028-.291.146-.231-.291-.145h-.437l-.085-.231-.234-.231-.231-1.075v-.7l.465-.291.117-.348-.206-.231-.639.231-.291-.085-.146-.291-.174-.728.057-.376-.2-.174-.291-.146-.057-1.075-1.771-.089Z" transform="translate(-63.387 -264.06)" fill="#fff"/>
        <path id="path2655" d="M126.288,265.71l-.348.117.146.146h.437l-.234-.263Z" transform="translate(-97.503 -265.188)" fill="#fff"/>
        <path id="path2657" d="M133.1,300.82l-.174.174.408-.028-.234-.146Z" transform="translate(-102.282 -289.192)" fill="#fff"/>
      </g>
      <path id="path2671" d="M28.617,191.06H30.5l-.629,1.006-1.382-.127.127-.879Z" transform="translate(-7.76 -94.164)" fill="#fff"/>
      <path id="path2673" d="M41.279,193.05l-1.259,3.018.5-.127,2.388-1.635-1.259-.5-.373-.753Z" transform="translate(-15.643 -95.524)" fill="#fff"/>
      <path id="path2675" d="M23.847,123.88l-.127,1.382.25,1.509-.25.879,2.012.25,1.509-.376,2.012-1.635-.879-1.132-1.006.879-1.382.253-.756-1.006-1.382-1Z" transform="translate(-4.499 -48.234)" fill="#fff"/>
      <path id="path2677" d="M43.6,126.27l.376.756-.376-.756Z" transform="translate(-18.09 -49.868)" fill="#fff"/>
      <path id="path2679" d="M42.01,105.385l.127,3.018.253-1.382,1.006-.629,1.509-.127,1.132-.756.879,1.006.25-.629L46.034,104l-4.024,1.385Z" transform="translate(-17.003 -34.642)" fill="#fff"/>
      <path id="path2681" d="M46.736,87.71l-.756,1.509.538.228.595-.478-.376-1.259Z" transform="translate(-19.717 -23.505)" fill="#fff"/>
      <path id="path2685" d="M218.408,55.786l-.032.471-.25.285-.127.376.376.25,1.287-.408.471-.693.376.095.408-.127-.19-.348-.44-.158-.629-.566-.345-.063-.221.535-.313.376-.373-.025Z" transform="translate(-137.325 -1.073)" fill="#fff"/>
      <path id="path2687" d="M214.483,53.33l-.753.661.063.218,1.319.095-.063-.376-.566-.6Z" transform="translate(-134.405)" fill="#fff"/>
    </g>
    <text id="嘉義市是充滿熱情的文化藝術之都_臺灣最珍貴的_交趾陶_工藝與著名畫家陳澄波都出身於此_獨具特色的古蹟_道地的傳統小吃_具人文色彩的景點_交織出既知性又感性的城市風采_" data-name="嘉義市是充滿熱情的文化藝術之都，臺灣最珍貴的「交趾陶」工藝與著名畫家陳澄波都出身於此。獨具特色的古蹟，道地的傳統小吃，具人文色彩的景點，交織出既知性又感性的城市風采。" transform="translate(618 3519)" font-size="16" font-family="YuGothicUI-Regular, Yu Gothic UI"><tspan x="0" y="17">嘉義市是充滿熱情的文化藝術之都，臺灣最</tspan><tspan x="0" y="41">珍貴的「交趾陶」工藝與著名畫家陳澄波都出</tspan><tspan x="0" y="65">身於此。獨具特色的古蹟，道地的傳統小</tspan><tspan x="0" y="89">吃，具人文色彩的景點，交織出既知性又感</tspan><tspan x="0" y="113">性的城市風采。</tspan></text>
    <text id="臺灣_嘉義市" data-name="臺灣，嘉義市" transform="translate(618 3509)" fill="#0f6a9a" font-size="22" font-family="MicrosoftJhengHeiBold, Microsoft JhengHei"><tspan x="0" y="0">臺灣，嘉義市</tspan></text>
    <rect id="矩形_371" data-name="矩形 371" width="7" height="267" transform="translate(957 3477)" fill="#c1c1c1"/>
    <g id="组_6074" data-name="组 6074" transform="translate(33 95)">
      <rect id="矩形_375" data-name="矩形 375" width="236" height="39" transform="translate(623 3658)" fill="#49b4e5"/>
      <text id="嘉義市VLR下載" transform="translate(666 3687)" fill="#fff" font-size="22" font-family="MicrosoftJhengHeiBold, Microsoft JhengHei"><tspan x="0" y="0">嘉義市VLR下載</tspan></text>
    </g>
  </g>
</svg>
