<svg xmlns="http://www.w3.org/2000/svg" width="277" height="76" viewBox="0 0 277 76">
  <g id="logo_mobile" transform="translate(0 9)">
    <g id="组_1" data-name="组 1" transform="translate(0 -9)">
      <path id="路径_1" data-name="路径 1" d="M234.535,178.092c1.09,4.215-1.842,8.619-1.842,8.619s-4.7-2.43-5.79-6.645,1.842-8.62,1.842-8.62,4.7,2.43,5.79,6.646" transform="translate(-189.494 -159.298)" fill="#437a35"/>
      <path id="路径_2" data-name="路径 2" d="M200.528,196.329c3,3.158,2.568,8.432,2.568,8.432s-5.289.153-8.286-3.005-2.568-8.432-2.568-8.432,5.289-.153,8.286,3.005" transform="translate(-169.171 -175.778)" fill="#d39100"/>
      <path id="路径_3" data-name="路径 3" d="M177.059,227.7c4.152,1.309,6.334,6.13,6.334,6.13s-4.552,2.7-8.7,1.389-6.334-6.13-6.334-6.13,4.552-2.7,8.7-1.389" transform="translate(-155.087 -197.974)" fill="#f4a100"/>
      <path id="路径_4" data-name="路径 4" d="M172.933,263.2c4.267-.868,8.512,2.29,8.512,2.29s-2.673,4.567-6.939,5.434-8.511-2.29-8.511-2.29,2.673-4.567,6.939-5.434" transform="translate(-153.693 -221.402)" fill="#dc007b"/>
      <path id="路径_5" data-name="路径 5" d="M195.668,293.762c2.483-2.121,6.416-1.592,6.416-1.592s-.093,3.967-2.576,6.088-6.416,1.593-6.416,1.593.093-3.967,2.576-6.088" transform="translate(-169.685 -240.456)" fill="#a2ca0e" opacity="0.3"/>
      <path id="路径_6" data-name="路径 6" d="M300.014,293.762c-2.483-2.121-6.416-1.592-6.416-1.592s.093,3.967,2.576,6.088,6.416,1.593,6.416,1.593-.093-3.967-2.576-6.088" transform="translate(-228.997 -240.456)" fill="#970b31" opacity="0.4"/>
      <path id="路径_7" data-name="路径 7" d="M262.4,178.092c-1.09,4.215,1.842,8.619,1.842,8.619s4.7-2.43,5.79-6.645-1.841-8.62-1.841-8.62-4.7,2.43-5.791,6.646" transform="translate(-210.445 -159.298)" fill="#0076ba"/>
      <path id="路径_8" data-name="路径 8" d="M292.412,196.329c-3,3.158-2.567,8.432-2.567,8.432s5.289.153,8.286-3.005,2.568-8.432,2.568-8.432-5.289-.153-8.286,3.005" transform="translate(-226.769 -175.778)" fill="#29a738"/>
      <path id="路径_9" data-name="路径 9" d="M309.918,227.7c-4.152,1.309-6.334,6.13-6.334,6.13s4.552,2.7,8.7,1.389,6.334-6.13,6.334-6.13-4.552-2.7-8.7-1.389" transform="translate(-234.89 -197.974)" fill="#004c87"/>
      <path id="路径_10" data-name="路径 10" d="M313.449,263.2c-4.266-.868-8.511,2.29-8.511,2.29s2.673,4.567,6.939,5.434,8.511-2.29,8.511-2.29-2.673-4.567-6.939-5.434" transform="translate(-235.689 -221.402)" fill="#003068"/>
      <path id="路径_11" data-name="路径 11" d="M252.765,206.062c0,4.107-3.718,7.437-3.718,7.437s-3.719-3.33-3.719-7.437,3.719-7.437,3.719-7.437,3.718,3.33,3.718,7.437" transform="translate(-200.511 -179.457)" fill="#e4001e"/>
      <path id="路径_12" data-name="路径 12" d="M253.181,165.051c0,3.185-2.883,5.767-2.883,5.767s-2.883-2.582-2.883-5.767,2.883-5.767,2.883-5.767,2.883,2.582,2.883,5.767" transform="translate(-201.742 -152.121)" fill="#d39100" opacity="0.4"/>
      <path id="路径_13" data-name="路径 13" d="M210.842,175.33c1.544,2.785.273,6.441.273,6.441s-3.773-.86-5.318-3.645-.274-6.442-.274-6.442,3.774.86,5.318,3.646" transform="translate(-176.732 -159.439)" fill="#0076ba" opacity="0.4"/>
      <path id="路径_14" data-name="路径 14" d="M176.49,206.027c2.7,1.687,3.363,5.5,3.363,5.5s-3.717,1.077-6.418-.611-3.363-5.5-3.363-5.5,3.718-1.077,6.419.611" transform="translate(-156.099 -183.282)" fill="#29a738" opacity="0.4"/>
      <path id="路径_15" data-name="路径 15" d="M160.946,247.065c3.181.166,5.608,3.182,5.608,3.182s-2.729,2.744-5.91,2.578-5.608-3.182-5.608-3.182,2.729-2.744,5.91-2.578" transform="translate(-147.227 -210.717)" fill="#004c87" opacity="0.4"/>
      <path id="路径_16" data-name="路径 16" d="M168.814,288.8c2.863-1.4,6.447.064,6.447.064s-1.057,3.724-3.919,5.119-6.448-.063-6.448-.063,1.057-3.724,3.919-5.12" transform="translate(-153.045 -237.724)" fill="#00a6d9" opacity="0.4"/>
      <path id="路径_17" data-name="路径 17" d="M288.32,175.33c-1.544,2.785-.273,6.441-.273,6.441s3.773-.86,5.318-3.645.274-6.442.274-6.442-3.774.86-5.318,3.646" transform="translate(-225.431 -159.439)" fill="#437a35" opacity="0.4"/>
      <path id="路径_18" data-name="路径 18" d="M318.055,206.027c-2.7,1.687-3.362,5.5-3.362,5.5s3.717,1.077,6.418-.611,3.363-5.5,3.363-5.5-3.717-1.077-6.419.611" transform="translate(-241.446 -183.282)" fill="#f4a100" opacity="0.4"/>
      <path id="路径_19" data-name="路径 19" d="M331.1,247.065c-3.181.166-5.608,3.182-5.608,3.182s2.729,2.744,5.91,2.578,5.608-3.182,5.608-3.182-2.729-2.744-5.91-2.578" transform="translate(-247.818 -210.717)" fill="#dc007b" opacity="0.4"/>
      <path id="路径_20" data-name="路径 20" d="M324.888,288.8c-2.863-1.4-6.447.064-6.447.064s1.057,3.724,3.919,5.119,6.448-.063,6.448-.063-1.057-3.724-3.919-5.12" transform="translate(-243.658 -237.724)" fill="#ec6a03" opacity="0.4"/>
      <path id="路径_21" data-name="路径 21" d="M225.825,146.258c.761,2.839-1.193,5.829-1.193,5.829s-3.187-1.612-3.947-4.452,1.193-5.828,1.193-5.828,3.187,1.612,3.947,4.451" transform="translate(-185.865 -141.807)" fill="#a2ca0e" opacity="0.2"/>
      <path id="路径_22" data-name="路径 22" d="M176.59,173.21c2.041,2.114,1.783,5.676,1.783,5.676s-3.569.134-5.61-1.98-1.783-5.676-1.783-5.676,3.569-.134,5.611,1.98" transform="translate(-156.629 -159.17)" fill="#970b31" opacity="0.2"/>
      <path id="路径_23" data-name="路径 23" d="M144.9,219.853c2.81.859,4.311,4.1,4.311,4.1s-3.056,1.848-5.866.989-4.311-4.1-4.311-4.1,3.055-1.848,5.867-.989" transform="translate(-137.784 -192.742)" fill="#ec6a03" opacity="0.2"/>
      <path id="路径_24" data-name="路径 24" d="M140.634,273.8c2.874-.611,5.758,1.5,5.758,1.5s-1.777,3.1-4.652,3.708-5.758-1.5-5.758-1.5,1.777-3.1,4.652-3.709" transform="translate(-135.982 -228.118)" fill="#f5a700" opacity="0.2"/>
      <path id="路径_25" data-name="路径 25" d="M274.9,146.258c-.761,2.839,1.193,5.829,1.193,5.829s3.186-1.612,3.947-4.452-1.192-5.828-1.192-5.828-3.187,1.612-3.947,4.451" transform="translate(-217.857 -141.807)" fill="#437a35" opacity="0.2"/>
      <path id="路径_26" data-name="路径 26" d="M321.363,173.21c-2.041,2.114-1.782,5.676-1.782,5.676s3.569.134,5.61-1.98,1.783-5.676,1.783-5.676-3.569-.134-5.611,1.98" transform="translate(-244.324 -159.17)" fill="#e4001e" opacity="0.2"/>
      <path id="路径_27" data-name="路径 27" d="M349.073,219.853c-2.81.859-4.31,4.1-4.31,4.1s3.056,1.848,5.866.989,4.311-4.1,4.311-4.1-3.056-1.848-5.867-.989" transform="translate(-259.192 -192.742)" fill="#d7a600" opacity="0.2"/>
      <path id="路径_28" data-name="路径 28" d="M353.007,273.8c-2.874-.611-5.758,1.5-5.758,1.5s1.777,3.1,4.652,3.708,5.758-1.5,5.758-1.5-1.777-3.1-4.652-3.709" transform="translate(-260.659 -228.118)" fill="#00963b" opacity="0.2"/>
      <path id="路径_29" data-name="路径 29" d="M252.765,206.062c0,4.107-3.718,7.437-3.718,7.437s-3.719-3.33-3.719-7.437,3.719-7.437,3.719-7.437,3.718,3.33,3.718,7.437" transform="translate(-200.511 -179.457)" fill="#e4001e"/>
      <path id="路径_30" data-name="路径 30" d="M271.851,214.391c-1.991,3.592-6.858,4.7-6.858,4.7s-1.638-4.715.353-8.307,6.858-4.7,6.858-4.7,1.639,4.715-.353,8.308" transform="translate(-211.742 -184.284)" fill="#d7a600"/>
      <path id="路径_31" data-name="路径 31" d="M282.836,233.178c-3.483,2.177-8.278.787-8.278.787s.853-4.917,4.336-7.095,8.278-.787,8.278-.787-.853,4.918-4.336,7.095" transform="translate(-217.761 -196.9)" fill="#00963b"/>
      <path id="路径_32" data-name="路径 32" d="M285.811,254.645c-4.1.215-7.622-3.324-7.622-3.324s3.13-3.888,7.232-4.1,7.622,3.324,7.622,3.324-3.131,3.888-7.232,4.1" transform="translate(-219.904 -210.955)" fill="#c60f28"/>
      <path id="路径_33" data-name="路径 33" d="M280.942,274.244c-3.692-1.8-5.054-6.6-5.054-6.6s4.623-1.883,8.315-.082,5.054,6.6,5.054,6.6-4.623,1.883-8.314.082" transform="translate(-218.546 -223.876)" fill="#e7391a"/>
      <path id="路径_34" data-name="路径 34" d="M269.057,286.173c-2.356-3.365-1.22-8.225-1.22-8.225s4.956.594,7.312,3.959,1.22,8.226,1.22,8.226-4.956-.595-7.311-3.96" transform="translate(-213.633 -231.674)" fill="#00a6d9"/>
      <path id="路径_35" data-name="路径 35" d="M231.377,210.97c1.992,3.592.353,8.307.353,8.307s-4.867-1.109-6.858-4.7-.353-8.307-.353-8.307,4.867,1.109,6.858,4.7" transform="translate(-187.857 -184.407)" fill="#f9bc00"/>
      <path id="路径_36" data-name="路径 36" d="M212.076,227.153c3.484,2.177,4.337,7.1,4.337,7.1s-4.794,1.389-8.278-.788-4.336-7.1-4.336-7.1,4.794-1.389,8.278.787" transform="translate(-176.003 -197.085)" fill="#970b31"/>
      <path id="路径_37" data-name="路径 37" d="M202.549,247.488c4.1.215,7.232,4.1,7.232,4.1s-3.52,3.539-7.622,3.324-7.232-4.1-7.232-4.1,3.52-3.539,7.621-3.324" transform="translate(-170.768 -211.132)" fill="#ec6a03"/>
      <path id="路径_38" data-name="路径 38" d="M206.1,267.711c3.692-1.8,8.315.082,8.315.082s-1.362,4.8-5.054,6.6-8.314-.082-8.314-.082,1.362-4.8,5.054-6.6" transform="translate(-174.377 -223.975)" fill="#982a8a"/>
      <path id="路径_39" data-name="路径 39" d="M242.3,243.068a1.051,1.051,0,0,0-1.685-.763,1.946,1.946,0,0,0-.943,1.3,2.087,2.087,0,0,1-1.762.7,1.013,1.013,0,0,0-.594.32s-.869-.231-2.146,2.433c0,0-.725.251-.322.835,0,0,.334.4-1.435,1.809,0,0-.191.007-.18.306,0,0-.387-.1-.689,1.258a.925.925,0,0,1-.365.5,1.284,1.284,0,0,0-.234.607s-.378.125-.609.806c0,0-.017.413-.174.492,0,0-.321-.062-.227.794,0,0,.009.261-.754,1.186a.2.2,0,0,0,.041.261,1.212,1.212,0,0,0-.362.612s-.259-.141-.4.538c0,0-.939,1.342-.8,1.711a1.353,1.353,0,0,0-.812,1.376s-.859.929-.365,1.4a18.928,18.928,0,0,1,.183,2.426,1.253,1.253,0,0,0-.286.908s-.443.091-.349.985c0,0-.2.605-.065.863a.467.467,0,0,0-.133.716s1.051.859,1.168,1.453a10.206,10.206,0,0,0,.909,2.25.934.934,0,0,1,.088.633s-.085.339.4.584a.793.793,0,0,1,.214.628s.015.412.326.213c0,0,.438.658.942.491,0,0,.239.441.553.279,0,0-.557.469.3.327a15.655,15.655,0,0,1,1.475,1.144.723.723,0,0,0,.382.847,6.786,6.786,0,0,1,.351,1.82c-.079.452-.232.644.126.818,0,0,.021,1.5.69.575,0,0,.147-.342.806.27,0,0,.234.253.389.135,0,0,.347-.123-.081-.483s-.146-.481-.146-.481.507-.131.543-.917c0,0-.02-1.458-.1-1.9a1.966,1.966,0,0,1,.2-1.653,1.483,1.483,0,0,1,.13-.864c.21-.345.912-2.165.912-2.165s.273-.384.56-.394a1.107,1.107,0,0,0,.458-.577.482.482,0,0,0,.436-.314c.083-.3-.158-.818.251-.982s.939-1.417.939-1.417a.891.891,0,0,0,.262-.721,1.265,1.265,0,0,1,.579-.768,5.408,5.408,0,0,1,.141-1.389,3.181,3.181,0,0,0,.519-1.552s.109-.528.251-.982a2.441,2.441,0,0,0,.062-.974,16.555,16.555,0,0,1,.433-2.148c.232-.681-.03-.821.2-1.428s-.24-.477.429-1.4a.848.848,0,0,0-.247-.627c-.262-.216.271-.459.32-.873a1.191,1.191,0,0,1,.722-1.222s.413-.053.419-1.7a2.915,2.915,0,0,1,.484-.727c.157-.081.373-.238.075-.564a.859.859,0,0,0-.017-1.346,5.821,5.821,0,0,0-.437-1.555s.345-1.957,1.45-2.259c0,0,.318-.011.24-.42,0,0,.021-.3-.58-.166,0,0-.255.009-.24-.477,0,0,.225-.832-.5-.73a1.252,1.252,0,0,1-.928-.08,2.26,2.26,0,0,0-.8-.083c-.349.049.231-.682-.591-.5" transform="translate(-189.531 -214.116)" fill="#009088"/>
      <path id="路径_40" data-name="路径 40" d="M238.742,326.488l.993-.97a.979.979,0,0,0,.636.277,1.2,1.2,0,0,0,.726-.271,1.366,1.366,0,0,0,.535-.622.433.433,0,0,0-.067-.4.356.356,0,0,0-.228-.15,1.1,1.1,0,0,0-.475.121,7.434,7.434,0,0,1-2.088.686,1.32,1.32,0,0,1-1.172-.58,1.422,1.422,0,0,1-.225-1.221,2.479,2.479,0,0,1,1.067-1.327,2.881,2.881,0,0,1,1.48-.64,1.765,1.765,0,0,1,1.171.413l-.9.942a.8.8,0,0,0-.525-.192,1.156,1.156,0,0,0-.63.257,1.507,1.507,0,0,0-.544.575.32.32,0,0,0,.034.314.3.3,0,0,0,.255.121,5.171,5.171,0,0,0,1.262-.437,3.813,3.813,0,0,1,1.592-.4,1.247,1.247,0,0,1,.938.568,1.542,1.542,0,0,1,.225,1.33,2.639,2.639,0,0,1-1.13,1.436,2.915,2.915,0,0,1-1.6.632,1.942,1.942,0,0,1-1.323-.462m-3.737.729-.535-1.068,2.766-1.385,1.263,2.523a3.886,3.886,0,0,1-.826,1.273,4.768,4.768,0,0,1-1.4,1.073,3.908,3.908,0,0,1-1.949.454,2.986,2.986,0,0,1-1.713-.636,4.3,4.3,0,0,1-1.218-1.5,4.071,4.071,0,0,1-.464-1.967,3.144,3.144,0,0,1,.63-1.791,3.69,3.69,0,0,1,1.366-1.078,3.42,3.42,0,0,1,2.1-.433,2.506,2.506,0,0,1,1.542.94l-1.162.879a1.5,1.5,0,0,0-.875-.484,1.706,1.706,0,0,0-1.06.193,1.947,1.947,0,0,0-1.071,1.2,2.5,2.5,0,0,0,.293,1.825,2.765,2.765,0,0,0,1.349,1.44,1.888,1.888,0,0,0,1.6-.1,2.491,2.491,0,0,0,.729-.562,3.053,3.053,0,0,0,.505-.731l-.4-.8Zm-9.051.24,1.491,4.437,1.014-.341a3.914,3.914,0,0,0,.8-.34,1.311,1.311,0,0,0,.455-.464,1.481,1.481,0,0,0,.138-.765,4.561,4.561,0,0,0-.275-1.274,4.155,4.155,0,0,0-.539-1.146,1.609,1.609,0,0,0-.6-.52,1.368,1.368,0,0,0-.734-.1,6.571,6.571,0,0,0-1.136.311Zm-1.748-.673,2.486-.835a5.114,5.114,0,0,1,1.325-.3,2.367,2.367,0,0,1,1.223.277,3.064,3.064,0,0,1,1.009.869A5.215,5.215,0,0,1,231,328.3a4.606,4.606,0,0,1,.272,1.5,3.1,3.1,0,0,1-.323,1.427,2.514,2.514,0,0,1-.775.856,4.32,4.32,0,0,1-1.156.547l-2.56.86Zm-5,6,1.344-.423a1.691,1.691,0,0,0,.711.9,1.549,1.549,0,0,0,1.084.107,1.6,1.6,0,0,0,.961-.5.868.868,0,0,0,.2-.739.649.649,0,0,0-.232-.389,1.167,1.167,0,0,0-.567-.192c-.176-.024-.57-.045-1.184-.068a3.889,3.889,0,0,1-1.726-.356,1.864,1.864,0,0,1-.841-2.317,1.929,1.929,0,0,1,.721-.885,3.555,3.555,0,0,1,1.317-.529,2.978,2.978,0,0,1,2.089.164,2.086,2.086,0,0,1,1.018,1.394l-1.4.345a1.218,1.218,0,0,0-.546-.689,1.433,1.433,0,0,0-.934-.05,1.62,1.62,0,0,0-.9.451.519.519,0,0,0-.132.478.543.543,0,0,0,.3.377,3.736,3.736,0,0,0,1.388.195,6.942,6.942,0,0,1,1.618.18,1.993,1.993,0,0,1,.917.543,2.1,2.1,0,0,1,.509,1.044,2.071,2.071,0,0,1-.1,1.184,2.03,2.03,0,0,1-.779.969,4.051,4.051,0,0,1-1.464.571,3.1,3.1,0,0,1-2.157-.18A2.678,2.678,0,0,1,219.205,332.787Zm-9.091,2.786L209.9,328.5l1.4-.042,3.072,4.649-.142-4.737,1.332-.04.212,7.068-1.44.043-3.024-4.56.139,4.646Zm-3.085-3.079-.65-2.722-1.285,2.474Zm2.26,3.116-1.541-.2-.406-1.675-2.833-.361-.791,1.522-1.513-.193,3.638-6.664,1.511.193Zm-13.982-2.822.264-7.262,1.429.393-.268,4.964,2.543-4.338,1.653.455-.113,5.093,2.357-4.474,1.4.384-3.532,6.361-1.484-.409.05-5.47-2.767,4.722Zm-3.485-1.375,2.747-6.516,1.329.56-2.747,6.516Zm-1.72-3.943.323-2.779-2.056,1.883Zm1.053,3.7-1.38-.714.193-1.712-2.537-1.312-1.266,1.158-1.355-.7,5.7-5.01,1.353.7Zm-8.881-5.006,3.375-4.81-1.726-1.211.686-.978,4.625,3.245-.686.978-1.718-1.205-3.375,4.811Z" transform="translate(-163.301 -259.609)" fill="#595757"/>
    </g>
    <g id="组_18" data-name="组 18" transform="translate(-123 84.864)">
      <text style="font-weight:bold" id="台灣永續發展目_標知識分享平台" data-name="台灣永續發展目標知識分享平台" transform="translate(225 -58)" font-size="25" font-family="MicrosoftJhengHeiBold, Microsoft JhengHei"><tspan x="0" y="0">台灣永續發展目</tspan><tspan x="0" y="25">標知識分享平台</tspan></text>
    </g>
  </g>
</svg>
