<svg xmlns="http://www.w3.org/2000/svg" xmlns:xlink="http://www.w3.org/1999/xlink" width="737" height="416" viewBox="0 0 737 416">
  <defs>
    <clipPath id="clip-path">
      <rect id="矩形_374" data-name="矩形 374" width="737" height="416" transform="translate(882 1107)" fill="#fff"/>
    </clipPath>
  </defs>
  <g id="new_top2" transform="translate(-882 -1107)" clip-path="url(#clip-path)">
    <g id="矩形_91" data-name="矩形 91" transform="translate(929 1144)" fill="none" stroke="#f99d25" stroke-width="2">
      <rect width="373" height="63" stroke="none"/>
      <rect x="1" y="1" width="371" height="61" fill="none"/>
    </g>
    <text id="建構便捷公共運輸網絡" transform="translate(946 1190)" fill="#f99d25" font-size="34" font-family="MicrosoftJhengHeiBold, Microsoft JhengHei"><tspan x="0" y="0">建構便捷公共運輸網絡</tspan></text>
    <text id="推動捷運_幹線公車及轉乘優惠_實施大眾運輸定期票及提供YouBike_轉乘大眾運輸優惠" data-name="推動捷運、幹線公車及轉乘優惠、實施大眾運輸定期票及提供YouBike 轉乘大眾運輸優惠" transform="translate(938 1219.597)" fill="#595757" font-size="25" font-family="MicrosoftJhengHeiRegular, Microsoft JhengHei"><tspan x="0" y="27">推動捷運、幹線公車及轉乘優惠、實施大眾運輸定期票及提</tspan><tspan x="0" y="67">供YouBike 轉乘大眾運輸優惠</tspan></text>
    <g id="bus" transform="translate(743.934 687.332)">
      <g id="组_5910" data-name="组 5910" transform="translate(-2 -12.928)">
        <path id="路径_6146" data-name="路径 6146" d="M304.459,709.229l-2.777-30A26.8,26.8,0,0,0,275,654.909H226.159a27.418,27.418,0,0,0-27.3,24.891l-2.723,29.429q-.067.72-.067,1.442v37.115a15.649,15.649,0,0,0,15.648,15.648h77.163a15.65,15.65,0,0,0,15.65-15.648V710.671Q304.527,709.948,304.459,709.229Zm-90.026-29.59a7.314,7.314,0,0,1,7.288-6.679h57.15a7.315,7.315,0,0,1,7.288,6.679l2.1,24H212.337Zm.934,65.134a7.109,7.109,0,1,1,7.109-7.109A7.11,7.11,0,0,1,215.367,744.773Zm71.6,1.106a7.109,7.109,0,1,1,7.109-7.109A7.11,7.11,0,0,1,286.968,745.879Z" transform="translate(0 0)" fill="#595757"/>
        <path id="路径_6147" data-name="路径 6147" d="M204.019,738.926a3.261,3.261,0,0,0,3.26,3.26h7.906a3.262,3.262,0,0,0,3.262-3.26V727.758H204.019Z" transform="translate(4.209 38.551)" fill="#595757"/>
        <path id="路径_6148" data-name="路径 6148" d="M250.794,738.926a3.26,3.26,0,0,0,3.26,3.26h7.906a3.262,3.262,0,0,0,3.262-3.26V727.758H250.794Z" transform="translate(28.961 38.551)" fill="#595757"/>
      </g>
      <g id="组_5911" data-name="组 5911" transform="translate(-220 -5.027)">
        <path id="路径_6149" data-name="路径 6149" d="M633.345,647.008h-52.18a23.91,23.91,0,0,0-23.911,23.91V730.9a23.912,23.912,0,0,0,23.911,23.911h52.18a23.911,23.911,0,0,0,23.91-23.911V670.918A23.909,23.909,0,0,0,633.345,647.008ZM576.809,737.6a6.971,6.971,0,1,1,6.971-6.971A6.972,6.972,0,0,1,576.809,737.6ZM602.9,695.325a5.921,5.921,0,0,1-5.92,5.921H573.619a5.921,5.921,0,0,1-5.92-5.921V680.49a5.827,5.827,0,0,1,5.827-5.828h23.542a5.828,5.828,0,0,1,5.828,5.828Zm-2.612-36.2a6.97,6.97,0,1,1,6.971,6.971A6.971,6.971,0,0,1,600.284,659.126ZM637.7,737.6a6.971,6.971,0,1,1,6.971-6.971A6.971,6.971,0,0,1,637.7,737.6Zm9.068-42.272a5.921,5.921,0,0,1-5.921,5.921H617.49a5.921,5.921,0,0,1-5.921-5.921V680.49a5.828,5.828,0,0,1,5.828-5.828H640.94a5.829,5.829,0,0,1,5.828,5.828Z" transform="translate(0 0)" fill="#f99d25"/>
        <rect id="矩形_88" data-name="矩形 88" width="45.935" height="9.564" transform="translate(585.297 763.271)" fill="#595757"/>
      </g>
      <g id="组_5913" data-name="组 5913" transform="translate(-223.62 27.133)">
        <path id="路径_6150" data-name="路径 6150" d="M1068.6,661.112l-2.338-7.311a4.8,4.8,0,0,1,4.909-6.253l11.647.812-.427,6.126-9.679-.675,1.737,5.432Z" transform="translate(-59.058)" fill="#595757"/>
        <path id="路径_6151" data-name="路径 6151" d="M1094.636,723.023a1.641,1.641,0,0,1-1.53-1.061L1072.9,667.908a1.633,1.633,0,0,1,1.529-2.2,1.64,1.64,0,0,1,1.529,1.061l20.207,54.054a1.633,1.633,0,0,1-1.528,2.2Z" transform="translate(-61.669 -7.012)" fill="#595757"/>
        <path id="路径_6152" data-name="路径 6152" d="M954.264,730.572a1.93,1.93,0,0,1-1.672-2.889l25.068-43.7a1.929,1.929,0,1,1,3.346,1.919l-25.067,43.7A1.929,1.929,0,0,1,954.264,730.572Z" transform="translate(-15.177 -13.692)" fill="#f99d25"/>
        <path id="路径_6153" data-name="路径 6153" d="M1006.951,730.725a1.929,1.929,0,0,1-1.864-1.432l-11.711-43.921a1.929,1.929,0,0,1,1.864-2.426h51.969a1.929,1.929,0,1,1,0,3.858H997.75l10.231,38.371,39.419-37.121a1.929,1.929,0,1,1,2.645,2.809L1008.273,730.2A1.93,1.93,0,0,1,1006.951,730.725Z" transform="translate(-30.992 -13.667)" fill="#f99d25"/>
        <path id="路径_6154" data-name="路径 6154" d="M1100.073,753.869a5.406,5.406,0,1,0,5.406-5.406A5.405,5.405,0,0,0,1100.073,753.869Z" transform="translate(-72.197 -38.954)" fill="#595757"/>
        <path id="路径_6155" data-name="路径 6155" d="M947.248,753.869a5.406,5.406,0,1,0,5.405-5.406A5.405,5.405,0,0,0,947.248,753.869Z" transform="translate(-13.213 -38.954)" fill="#595757"/>
        <path id="路径_6156" data-name="路径 6156" d="M995.268,680.238a1.929,1.929,0,0,1-1.929-1.929v-9.125a1.929,1.929,0,0,1,3.858,0v9.125A1.929,1.929,0,0,1,995.268,680.238Z" transform="translate(-31.002 -7.611)" fill="#f7b029"/>
        <path id="路径_6157" data-name="路径 6157" d="M1084.615,689.389l-8.566-22.914a1.929,1.929,0,0,0-3.614,1.351l8.635,23.1A14.076,14.076,0,0,1,1084.615,689.389Z" transform="translate(-61.483 -6.826)" fill="#f99d25"/>
        <path id="路径_6158" data-name="路径 6158" d="M939.186,713.971a26.173,26.173,0,1,0,26.173,26.173A26.173,26.173,0,0,0,939.186,713.971Zm0,47.019a20.846,20.846,0,1,1,20.846-20.846A20.846,20.846,0,0,1,939.186,760.99Z" transform="translate(0 -25.642)" fill="#595757"/>
        <path id="路径_6159" data-name="路径 6159" d="M1092.425,713.971a26.173,26.173,0,1,0,26.174,26.173A26.173,26.173,0,0,0,1092.425,713.971Zm0,47.019a20.846,20.846,0,1,1,20.847-20.846A20.846,20.846,0,0,1,1092.425,760.99Z" transform="translate(-59.144 -25.642)" fill="#595757"/>
        <path id="路径_6160" data-name="路径 6160" d="M995.268,680.238a1.929,1.929,0,0,1-1.929-1.929v-9.125a1.929,1.929,0,0,1,3.858,0v9.125A1.929,1.929,0,0,1,995.268,680.238Z" transform="translate(-31.002 -7.611)" fill="#f99d25"/>
        <path id="路径_6161" data-name="路径 6161" d="M1018.029,770.748a1.336,1.336,0,0,1-1.294-1.01l-3.264-12.959a1.335,1.335,0,1,1,2.589-.652l3.265,12.959a1.338,1.338,0,0,1-1.3,1.662Z" transform="translate(-38.756 -41.522)" fill="#595757"/>
        <path id="路径_6162" data-name="路径 6162" d="M1020.871,774.1,1012.2,776.4a2.239,2.239,0,0,0-1.589,2.739h0a2.239,2.239,0,0,0,2.739,1.589l8.674-2.305a2.24,2.24,0,0,0,1.589-2.74h0A2.24,2.24,0,0,0,1020.871,774.1Z" transform="translate(-37.639 -48.819)" fill="#595757"/>
        <rect id="矩形_89" data-name="矩形 89" width="3.262" height="7.689" rx="1.631" transform="translate(1015.471 656.662) rotate(71.501)" fill="#f99d25"/>
        <rect id="矩形_90" data-name="矩形 90" width="3.262" height="7.689" rx="1.631" transform="matrix(0.317, 0.948, -0.948, 0.317, 1024.427, 680.244)" fill="#f99d25"/>
        <path id="路径_6163" data-name="路径 6163" d="M972.855,661.9a1.684,1.684,0,0,1,1.943-2.565,22.038,22.038,0,0,0,8.455,1.089l.874-.015,3.165-.055,10.62-.184a1.618,1.618,0,0,1,.946.269c1.445.992,2.51,4.078,2.51,4.078h-6.236a13.476,13.476,0,0,0-7.121,1.681,7.5,7.5,0,0,0-1.082.732,7.484,7.484,0,0,1-1.856.744c-6.192,1.552-12.175-5.718-12.175-5.718Z" transform="translate(-22.97 -4.512)" fill="#595757"/>
      </g>
    </g>
    <g id="组_5914" data-name="组 5914" transform="translate(981.671 1326.138)">
      <path id="路径_6164" data-name="路径 6164" d="M239.318,51.5H228.195a1.594,1.594,0,0,0-1.482,1.482v8.9a1.5,1.5,0,0,0,1.482,1.482H240.3a21.5,21.5,0,0,1-1.356-7.536A25.409,25.409,0,0,1,239.318,51.5Z" transform="translate(0 53.883)" fill="#595757"/>
      <path id="路径_6165" data-name="路径 6165" d="M248.485,48.328a18.221,18.221,0,1,0,18.163,18.158A18.215,18.215,0,0,0,248.485,48.328Zm0,26.065a7.8,7.8,0,0,1-7.907-7.907,7.907,7.907,0,1,1,7.907,7.907Z" transform="translate(11.712 43.223)" fill="#595757"/>
      <path id="路径_6166" data-name="路径 6166" d="M294.27,51.5H267.586a25.858,25.858,0,0,1,.37,4.324,21.5,21.5,0,0,1-1.36,7.536H294.27a1.5,1.5,0,0,0,1.486-1.482v-8.9A1.6,1.6,0,0,0,294.27,51.5Z" transform="translate(133.957 53.883)" fill="#595757"/>
      <path id="路径_6167" data-name="路径 6167" d="M421.4,76.6a6.459,6.459,0,0,0-6.425-6.425H399.281l-9.14-30.885c-.619-1.979-1.73-3.831-3.831-3.831H231.621a3.851,3.851,0,0,0-3.831,3.831V101.8h9.022a21.223,21.223,0,0,1,39.411,0h81.054a21.313,21.313,0,0,1,39.533,0H421.4ZM262.263,70.176H235.331V42.5h26.932Zm32.25,0H268.195V42.5h26.318Zm32.367,0H300.44V42.5h26.44Zm32.25,0H332.812V42.5h26.318Zm5.928,0V42.5h18.9l8.155,27.673Zm52.513,21a1.221,1.221,0,0,1-1.111,1.233h-3.831a1.218,1.218,0,0,1-1.111-1.233V80.554a1.219,1.219,0,0,1,1.111-1.238h3.831a1.222,1.222,0,0,1,1.111,1.238Z" transform="translate(3.617)" fill="#f99d25"/>
      <path id="路径_6168" data-name="路径 6168" d="M318.775,51.5H239.822a17.22,17.22,0,0,1,.5,4.324,21.5,21.5,0,0,1-1.36,7.536h80.679a21.508,21.508,0,0,1-1.36-7.536A17.223,17.223,0,0,1,318.775,51.5Z" transform="translate(41.13 53.883)" fill="#595757"/>
      <path id="路径_6169" data-name="路径 6169" d="M276.028,48.328a18.221,18.221,0,1,0,18.285,18.158A18.189,18.189,0,0,0,276.028,48.328Zm0,26.065a7.881,7.881,0,0,1-7.907-7.907,7.907,7.907,0,1,1,15.813,0A7.88,7.88,0,0,1,276.028,74.393Z" transform="translate(104.632 43.223)" fill="#595757"/>
    </g>
  </g>
</svg>
