<svg xmlns="http://www.w3.org/2000/svg" width="1340" height="77.097" viewBox="0 0 1340 77.097">
  <g id="new_top" transform="translate(-290 -1028)">
    <rect id="矩形_70" data-name="矩形 70" width="1340" height="16" transform="translate(290 1028)" fill="#f99d25"/>
    <g id="组_5904" data-name="组 5904" transform="translate(-702.351 2155)">
      <g id="组_5905" data-name="组 5905" transform="translate(0 -640)">
        <path id="路径_6087" data-name="路径 6087" d="M1530.428-437.864l7.287-.013c8.362,4.613,16.664,9.337,25.1,13.819q38.65,20.547,77.369,40.959c1.791.949,3.464,2.122,5.314,3.266-5.484,1.012-6.84.473-14.728-3.945-10.665-5.975-21.432-11.772-32.218-17.525C1575.809-413.431,1552.826-425.1,1530.428-437.864Z" transform="translate(19.831 -30.746)" fill="#fac58f"/>
        <path id="路径_6088" data-name="路径 6088" d="M1134.428-437.864l7.287-.013c7.832,4.353,15.6,8.827,23.508,13.034,21.21,11.279,42.495,22.42,63.722,33.668,6.868,3.639,13.65,7.441,21,11.46-7.055,1.777-11.715-2.469-16.7-5-10.763-5.467-21.249-11.479-31.91-17.152q-31.421-16.719-62.9-33.332A47,47,0,0,1,1134.428-437.864Z" transform="translate(63.489 -30.746)" fill="#fac58f"/>
        <path id="路径_6089" data-name="路径 6089" d="M1743.428-437.864l7.287-.013c9.814,5.325,19.59,10.723,29.45,15.96q39.027,20.725,78.11,41.346a12.657,12.657,0,0,1,1.4,1.109c-3.944.384-7.2.306-10.424-1.57-6.362-3.7-12.847-7.185-19.349-10.633-21.211-11.25-42.47-22.409-63.672-33.676C1758.572-429.411,1751.025-433.684,1743.428-437.864Z" transform="translate(-3.652 -30.746)" fill="#fac58f"/>
        <path id="路径_6090" data-name="路径 6090" d="M1774.424-437.865l7.291-.012c6.628,4.692,14.1,7.892,21.181,11.756,16.693,9.107,33.644,17.739,50.437,26.664,12.068,6.413,24.05,12.99,36.9,19.945-3.773.381-6.417.317-9.145-1.134-30.453-16.2-61.019-32.18-91.373-48.558C1784.583-431.975,1778.861-433.83,1774.424-437.865Z" transform="translate(-7.069 -30.746)" fill="#fac58f"/>
        <path id="路径_6091" data-name="路径 6091" d="M1834.428-437.864l8.177-.013c6.685,4.88,14.324,8.075,21.55,11.97,25.8,13.91,51.785,27.483,77.686,41.211,2.838,1.5,5.586,3.183,9.039,5.161-3.335.414-5.858.51-8.421-.862q-40.513-21.68-81.077-43.262C1852.417-428.434,1843.414-433.131,1834.428-437.864Z" transform="translate(-13.684 -30.746)" fill="#fac58f"/>
        <path id="路径_6092" data-name="路径 6092" d="M1652.428-437.864l7.287-.013c7.832,4.353,15.6,8.827,23.508,13.034,21.211,11.279,42.559,22.3,63.685,33.736,6.83,3.7,14.012,6.8,20.7,11.479-6.712,1.691-11.373-2.555-16.354-5.086-10.764-5.467-21.25-11.479-31.911-17.152q-31.421-16.719-62.9-33.332A46.918,46.918,0,0,1,1652.428-437.864Z" transform="translate(6.381 -30.746)" fill="#fac58f"/>
        <path id="路径_6093" data-name="路径 6093" d="M1865.428-437.864l7.287-.013c9.416,5.131,18.787,10.349,28.259,15.378q39.421,20.93,78.9,41.744c.244.129.4.416.924.97-2.887.824-5.416.868-7.941-.489q-30.348-16.313-60.712-32.6c-11.3-6.04-22.689-11.93-34.009-17.941C1873.861-433.087,1869.663-435.509,1865.428-437.864Z" transform="translate(-17.102 -30.746)" fill="#fac58f"/>
        <path id="路径_6094" data-name="路径 6094" d="M1408.428-437.864l7.287-.013c9.156,5,18.267,10.1,27.479,15q38.451,20.451,76.963,40.789c1.14.605,2.167,1.424,3.507,2.316-5.233,1.843-9-1.07-12.863-3.1-11.6-6.112-23.1-12.4-34.65-18.612Q1442.295-419.686,1408.428-437.864Z" transform="translate(33.281 -30.746)" fill="#fac58f"/>
        <path id="路径_6095" data-name="路径 6095" d="M1895.428-437.864l8.177-.013c6.285,4.684,13.543,7.657,20.369,11.361,21.1,11.449,42.424,22.5,63.635,33.756,7.912,4.2,15.751,8.534,24.03,13.026a10.954,10.954,0,0,1-8.567-.883q-41.315-22.053-82.677-44.019Q1907.921-431.268,1895.428-437.864Z" transform="translate(-20.409 -30.746)" fill="#fac58f"/>
        <path id="路径_6096" data-name="路径 6096" d="M1438.428-437.864l8.176-.013c5.74,4.75,12.808,7.161,19.216,10.716,15.975,8.865,32.282,17.132,48.418,25.71,13.371,7.108,26.688,14.319,40.552,21.765a13.4,13.4,0,0,1-9.908-1.408c-16.586-8.989-33.343-17.663-50-26.53Q1466.621-422.675,1438.428-437.864Z" transform="translate(29.974 -30.746)" fill="#fac58f"/>
        <path id="路径_6097" data-name="路径 6097" d="M1012.428-437.864l7.287-.013c8.362,4.613,16.664,9.337,25.1,13.819q38.65,20.547,77.369,40.959c1.792.949,3.467,2.124,5.313,3.266-5.483,1.012-6.84.472-14.728-3.945-10.665-5.975-21.431-11.772-32.218-17.525C1057.809-413.431,1034.826-425.1,1012.428-437.864Z" transform="translate(76.939 -30.746)" fill="#fac58f"/>
        <path id="路径_6098" data-name="路径 6098" d="M2170.428-437.864l7.287-.013c7.832,4.353,15.6,8.827,23.509,13.034,21.21,11.279,42.495,22.42,63.721,33.668,6.868,3.639,13.65,7.441,21,11.459-7.054,1.779-11.715-2.468-16.7-5-10.765-5.467-21.25-11.479-31.911-17.152q-31.421-16.719-62.9-33.332A46.937,46.937,0,0,1,2170.428-437.864Z" transform="translate(-50.728 -30.746)" fill="#fac58f"/>
        <path id="路径_6099" data-name="路径 6099" d="M951.428-437.864l7.287-.013c8.362,4.613,16.663,9.341,25.1,13.818,21.872,11.611,43.881,22.967,65.657,34.755,5.653,3.061,11.743,5.425,17.052,9.458-5.5,1.032-5.864.815-12.754-2.969-11.491-6.311-23.074-12.457-34.614-18.678C996.6-413.654,973.687-425.153,951.428-437.864Z" transform="translate(83.665 -30.746)" fill="#fac58f"/>
        <path id="路径_6100" data-name="路径 6100" d="M981.428-437.864l8.176-.013c5.233,4.436,11.726,6.692,17.623,9.939,16.653,9.166,33.619,17.762,50.407,26.685,13.242,7.038,26.4,14.227,40.05,21.592a13.333,13.333,0,0,1-9.8-1.431c-16.586-8.99-33.343-17.664-49.995-26.531Q1009.621-422.675,981.428-437.864Z" transform="translate(80.357 -30.746)" fill="#fac58f"/>
        <path id="路径_6101" data-name="路径 6101" d="M1987.428-437.864l7.287-.013c8.493,4.683,16.928,9.472,25.49,14.026,21.211,11.28,42.566,22.294,63.671,33.768,6.17,3.355,12.82,5.906,18.656,10.234-5.513,1.035-5.875.819-12.766-2.966-11.491-6.311-23.073-12.457-34.614-18.678C2032.6-413.654,2009.687-425.153,1987.428-437.864Z" transform="translate(-30.552 -30.746)" fill="#fac58f"/>
        <path id="路径_6102" data-name="路径 6102" d="M2139.428-437.863l8.172-.012c4.786,4.271,10.866,6.353,16.37,9.336,25.658,13.909,51.543,27.4,77.336,41.059,4.665,2.471,9.278,5.042,14.357,7.808-4.45.985-7.749-.138-11.347-2.177-10.512-5.958-21.339-11.359-32-17.049Q2175.853-418.347,2139.428-437.863Z" transform="translate(-47.31 -30.746)" fill="#fac58f"/>
        <path id="路径_6103" data-name="路径 6103" d="M1164.428-437.864l7.287-.013c5.785,3.183,11.528,6.444,17.362,9.534,21.216,11.239,42.477,22.4,63.691,33.639,9.2,4.876,18.326,9.889,28.18,15.216-4.218.409-7.444.277-10.7-1.542-10.8-6.029-21.69-11.883-32.592-17.721Q1201.064-418.347,1164.428-437.864Z" transform="translate(60.182 -30.746)" fill="#fac58f"/>
        <path id="路径_6104" data-name="路径 6104" d="M1103.428-437.863l8.172-.012c4.786,4.271,10.867,6.353,16.37,9.336,25.658,13.909,51.543,27.4,77.336,41.059,4.665,2.471,9.276,5.042,14.356,7.808-4.449.985-7.748-.139-11.347-2.178-10.513-5.957-21.338-11.359-32-17.049Q1139.852-418.347,1103.428-437.863Z" transform="translate(66.907 -30.746)" fill="#fac58f"/>
        <path id="路径_6105" data-name="路径 6105" d="M1286.428-437.864l7.287-.013c10.339,5.6,20.643,11.259,31.024,16.776q38.043,20.221,76.138,40.346c.245.129.4.415.925.97-2.888.823-5.417.867-7.942-.49q-30.349-16.313-60.712-32.6c-10.26-5.488-20.593-10.84-30.864-16.308C1296.966-432.015,1291.711-434.967,1286.428-437.864Z" transform="translate(46.731 -30.746)" fill="#fac58f"/>
        <path id="路径_6106" data-name="路径 6106" d="M1256.424-437.865l7.291-.012c6.628,4.693,14.1,7.891,21.181,11.756,16.693,9.107,33.644,17.739,50.437,26.664,12.069,6.413,24.05,12.99,36.9,19.945-3.773.381-6.417.317-9.145-1.134-30.453-16.2-61.02-32.18-91.374-48.558C1266.583-431.975,1260.861-433.83,1256.424-437.865Z" transform="translate(50.039 -30.746)" fill="#fac58f"/>
        <path id="路径_6107" data-name="路径 6107" d="M1560.428-437.863l8.172-.012c.461,1.5,1.923,1.761,3.053,2.36q39.478,20.894,78.977,41.749c8.57,4.541,17.064,9.227,26.047,14.092-4.465.989-7.769-.117-11.362-2.175-9.842-5.641-20-10.737-30.014-16.076Q1597.858-417.883,1560.428-437.863Z" transform="translate(16.523 -30.746)" fill="#fac58f"/>
        <path id="路径_6108" data-name="路径 6108" d="M1591.428-437.864l7.287-.013c7.968,4.411,15.874,8.936,23.915,13.209,21.735,11.553,43.606,22.853,65.247,34.576,6.177,3.345,12.789,5.965,18.695,10.44-6,1.715-10.238-2-14.756-4.23-6.2-3.062-12.126-6.669-18.237-9.913q-39.054-20.731-78.139-41.4A47.09,47.09,0,0,1,1591.428-437.864Z" transform="translate(13.106 -30.746)" fill="#fac58f"/>
        <path id="路径_6109" data-name="路径 6109" d="M2017.428-437.864l8.177-.013c5.232,4.436,11.724,6.692,17.622,9.939,16.652,9.166,33.62,17.762,50.407,26.685,13.242,7.038,26.4,14.227,40.05,21.592a13.333,13.333,0,0,1-9.8-1.431c-16.586-8.99-33.342-17.664-49.994-26.531Q2045.621-422.673,2017.428-437.864Z" transform="translate(-33.859 -30.746)" fill="#fac58f"/>
        <path id="路径_6110" data-name="路径 6110" d="M2048.428-437.864l7.287-.013c8.362,4.613,16.664,9.337,25.1,13.819q38.65,20.547,77.369,40.959c1.791.949,3.464,2.122,5.313,3.266-5.482,1.013-6.838.474-14.727-3.945-10.666-5.975-21.431-11.772-32.218-17.525C2093.809-413.431,2070.826-425.1,2048.428-437.864Z" transform="translate(-37.277 -30.746)" fill="#fac58f"/>
        <path id="路径_6111" data-name="路径 6111" d="M1713.424-437.865l7.291-.012c7.034,4.878,14.871,8.323,22.368,12.352,26.1,14.028,52.348,27.775,78.524,41.657,2.31,1.224,4.507,2.658,6.859,4.054-5.638,1.455-5.281.763-16.258-4.876-11.53-5.924-22.809-12.334-34.259-18.416q-31.242-16.595-62.544-33.076A11.882,11.882,0,0,1,1713.424-437.865Z" transform="translate(-0.344 -30.746)" fill="#fac58f"/>
        <path id="路径_6112" data-name="路径 6112" d="M2261.428-437.864l7.287-.013c9.946,5.391,19.855,10.852,29.845,16.159q38.831,20.624,77.715,41.147a12.667,12.667,0,0,1,1.4,1.109c-3.943.384-7.194.306-10.423-1.57-6.361-3.7-12.847-7.185-19.348-10.633-21.211-11.25-42.47-22.409-63.673-33.676C2276.573-429.41,2269.026-433.684,2261.428-437.864Z" transform="translate(-60.76 -30.746)" fill="#fac58f"/>
        <path id="路径_6113" data-name="路径 6113" d="M2231.424-437.865l7.291-.012c7.033,4.878,14.871,8.323,22.368,12.352,26.1,14.028,52.348,27.775,78.524,41.657,2.31,1.224,4.507,2.658,6.859,4.054-5.639,1.455-5.28.764-16.258-4.876-11.53-5.923-22.809-12.334-34.259-18.416q-31.243-16.595-62.544-33.076A11.869,11.869,0,0,1,2231.424-437.865Z" transform="translate(-57.452 -30.746)" fill="#fac58f"/>
        <path id="路径_6114" data-name="路径 6114" d="M1377.428-437.864l8.177-.013c6.285,4.684,13.543,7.657,20.369,11.361,21.1,11.449,42.424,22.5,63.635,33.756,7.912,4.2,15.752,8.534,24.029,13.026a10.953,10.953,0,0,1-8.567-.883q-41.316-22.053-82.678-44.019Q1389.92-431.268,1377.428-437.864Z" transform="translate(36.699 -30.746)" fill="#fac58f"/>
        <path id="路径_6115" data-name="路径 6115" d="M2200.428-437.864l7.287-.013c5.4,2.964,10.762,5.994,16.2,8.881q39.23,20.816,78.491,41.577c4.646,2.463,9.238,5.025,14.563,7.928-4.241.413-7.466.279-10.722-1.539-10.8-6.029-21.691-11.883-32.592-17.721Q2237.064-418.347,2200.428-437.864Z" transform="translate(-54.034 -30.746)" fill="#fac58f"/>
        <path id="路径_6116" data-name="路径 6116" d="M1469.428-437.864l7.287-.013c8.493,4.683,16.929,9.472,25.49,14.026,21.211,11.281,42.567,22.294,63.672,33.769,6.17,3.354,12.82,5.905,18.656,10.233-5.512,1.035-5.875.819-12.766-2.966-11.491-6.311-23.074-12.457-34.614-18.678C1514.6-413.654,1491.687-425.153,1469.428-437.864Z" transform="translate(26.556 -30.746)" fill="#fac58f"/>
        <path id="路径_6117" data-name="路径 6117" d="M1499.428-437.864l8.176-.013c5.233,4.436,11.725,6.692,17.623,9.939,16.653,9.166,33.619,17.762,50.407,26.685,13.242,7.038,26.4,14.227,40.05,21.592a13.33,13.33,0,0,1-9.8-1.431c-16.585-8.99-33.342-17.664-49.994-26.531Q1527.621-422.675,1499.428-437.864Z" transform="translate(23.249 -30.746)" fill="#fac58f"/>
        <path id="路径_6118" data-name="路径 6118" d="M1073.428-437.864l7.287-.013c7.968,4.411,15.874,8.936,23.915,13.209,21.735,11.553,43.606,22.853,65.248,34.576,6.176,3.345,12.789,5.965,18.694,10.44-6,1.715-10.238-2-14.756-4.229-6.2-3.063-12.126-6.67-18.237-9.914q-39.054-20.731-78.139-41.4A47.088,47.088,0,0,1,1073.428-437.864Z" transform="translate(70.214 -30.746)" fill="#fac58f"/>
        <path id="路径_6119" data-name="路径 6119" d="M2109.428-437.864l7.287-.013c7.832,4.353,15.6,8.833,23.508,13.034q39.44,20.946,78.958,41.744c1.793.949,3.467,2.123,5.314,3.266-5.485,1.01-6.887.541-14.725-3.958-6-3.445-12.079-6.759-18.191-10q-39.052-20.731-78.138-41.4A46.948,46.948,0,0,1,2109.428-437.864Z" transform="translate(-44.002 -30.746)" fill="#fac58f"/>
        <path id="路径_6120" data-name="路径 6120" d="M1347.428-437.864l7.287-.013c9.416,5.131,18.787,10.349,28.258,15.378q39.421,20.93,78.9,41.745c.245.129.4.415.925.97-2.888.823-5.417.867-7.942-.49q-30.349-16.313-60.713-32.6c-11.3-6.04-22.689-11.93-34.008-17.941C1355.86-433.087,1351.662-435.509,1347.428-437.864Z" transform="translate(40.006 -30.746)" fill="#fac58f"/>
        <path id="路径_6121" data-name="路径 6121" d="M1316.428-437.864l8.177-.013c6.685,4.881,14.323,8.075,21.549,11.97,25.8,13.91,51.786,27.483,77.687,41.211,2.838,1.5,5.586,3.183,9.041,5.161-3.338.412-5.86.509-8.423-.863q-40.514-21.68-81.078-43.263C1334.417-428.434,1325.413-433.132,1316.428-437.864Z" transform="translate(43.424 -30.746)" fill="#fac58f"/>
        <path id="路径_6122" data-name="路径 6122" d="M1621.428-437.863l8.172-.012c4.786,4.271,10.866,6.353,16.37,9.336,25.658,13.909,51.543,27.4,77.336,41.059,4.665,2.471,9.277,5.042,14.356,7.808-4.45.985-7.748-.139-11.347-2.178-10.513-5.957-21.338-11.359-32-17.049Q1657.852-418.347,1621.428-437.863Z" transform="translate(9.799 -30.746)" fill="#fac58f"/>
        <path id="路径_6123" data-name="路径 6123" d="M1804.428-437.864l7.287-.013c10.339,5.6,20.643,11.258,31.024,16.776q38.044,20.221,76.138,40.345c.244.13.4.416.924.97-2.887.824-5.416.868-7.941-.489q-30.348-16.313-60.711-32.6c-10.261-5.488-20.593-10.84-30.864-16.308C1814.966-432.015,1809.711-434.967,1804.428-437.864Z" transform="translate(-10.376 -30.746)" fill="#fac58f"/>
        <path id="路径_6124" data-name="路径 6124" d="M1225.428-437.864l7.287-.013c9.814,5.325,19.589,10.723,29.45,15.96q39.027,20.725,78.109,41.346a12.686,12.686,0,0,1,1.4,1.109c-3.943.384-7.19.3-10.424-1.569-6.5-3.749-13.134-7.269-19.763-10.789q-38.443-20.413-76.909-40.78C1231.472-434.251,1228.475-436.1,1225.428-437.864Z" transform="translate(53.457 -30.746)" fill="#fac58f"/>
        <path id="路径_6125" data-name="路径 6125" d="M1195.424-437.865l7.291-.012c7.033,4.879,14.87,8.323,22.368,12.352,26.1,14.028,52.348,27.775,78.524,41.656,2.309,1.225,4.508,2.658,6.859,4.055-5.638,1.456-5.281.763-16.258-4.876-11.53-5.924-22.81-12.334-34.26-18.416q-31.241-16.595-62.543-33.076A11.842,11.842,0,0,1,1195.424-437.865Z" transform="translate(56.765 -30.746)" fill="#fac58f"/>
        <path id="路径_6126" data-name="路径 6126" d="M2078.428-437.863l8.172-.012c5.1,4.321,11.4,6.588,17.173,9.7,26.077,14.071,52.331,27.81,78.51,41.694,4.011,2.127,7.955,4.382,12.353,6.813-4.423.981-7.728-.126-11.32-2.184-9.843-5.64-20-10.737-30.015-16.076Q2115.859-417.883,2078.428-437.863Z" transform="translate(-40.584 -30.746)" fill="#fac58f"/>
        <path id="路径_6127" data-name="路径 6127" d="M1042.428-437.863l8.172-.012c.462,1.5,1.923,1.761,3.054,2.36q39.478,20.894,78.977,41.749c8.57,4.541,17.064,9.227,26.046,14.092-4.464.989-7.769-.117-11.361-2.175-9.843-5.64-20-10.737-30.014-16.076Q1079.859-417.883,1042.428-437.863Z" transform="translate(73.632 -30.746)" fill="#fac58f"/>
        <path id="路径_6128" data-name="路径 6128" d="M1926.428-437.864l7.287-.013c9.156,5,18.267,10.1,27.479,15q38.451,20.452,76.963,40.79c1.142.606,2.17,1.425,3.494,2.308-5.219,1.854-8.991-1.062-12.85-3.1-11.6-6.113-23.1-12.4-34.65-18.612Q1960.295-419.686,1926.428-437.864Z" transform="translate(-23.827 -30.746)" fill="#fac58f"/>
        <path id="路径_6129" data-name="路径 6129" d="M1682.428-437.864l7.287-.013c5.785,3.183,11.529,6.444,17.363,9.534,21.216,11.239,42.477,22.4,63.691,33.639,9.2,4.876,18.326,9.889,28.18,15.215-4.218.411-7.444.278-10.7-1.541-10.8-6.029-21.69-11.883-32.592-17.721Q1719.064-418.347,1682.428-437.864Z" transform="translate(3.074 -30.746)" fill="#fac58f"/>
        <path id="路径_6130" data-name="路径 6130" d="M920.428-437.864l8.176-.013c5.74,4.75,12.808,7.161,19.216,10.716,15.976,8.865,32.282,17.132,48.419,25.71,13.371,7.108,26.688,14.319,40.552,21.765a13.391,13.391,0,0,1-9.908-1.408c-16.586-8.989-33.343-17.663-50-26.53Q948.621-422.675,920.428-437.864Z" transform="translate(87.082 -30.746)" fill="#fac58f"/>
        <path id="路径_6131" data-name="路径 6131" d="M1956.428-437.864l8.177-.013c5.232,4.436,11.724,6.692,17.622,9.939,16.653,9.166,33.616,17.768,50.408,26.683,13.246,7.031,26.42,14.2,40.138,21.577a13.408,13.408,0,0,1-9.891-1.413c-16.586-8.99-33.343-17.664-50-26.531Q1984.621-422.675,1956.428-437.864Z" transform="translate(-27.134 -30.746)" fill="#fac58f"/>
        <path id="路径_6132" data-name="路径 6132" d="M903.916-434.741l103.67,55.212c-5.733,1.87-9.545-.982-13.437-3.041-10.941-5.788-21.76-11.809-32.679-17.639q-27.894-14.9-55.868-29.639C903.657-430.874,903.109-432.158,903.916-434.741Z" transform="translate(88.942 -31.092)" fill="#fac58f"/>
        <path id="路径_6133" data-name="路径 6133" d="M2292.424-437.865l7.291-.012c6.63,4.694,14.1,7.894,21.189,11.761,16.7,9.11,33.643,17.765,50.453,26.671,6.249,3.311,12.37,6.864,18.613,10.185,1.708.908,2.862,2.2,1.867,3.806-1.017,1.647-2.33-.138-3.33-.669-10.67-5.673-21.271-11.479-31.942-17.147q-31.057-16.495-62.157-32.911A11.937,11.937,0,0,1,2292.424-437.865Z" transform="translate(-64.177 -30.746)" fill="#fac58f"/>
        <path id="路径_6134" data-name="路径 6134" d="M980.933-377.286c-8.633,1.239-14.216-3.941-20.392-6.989-10.56-5.21-20.742-11.18-31.131-16.741-7.15-3.827-14.384-7.5-21.573-11.252-.78-.408-1.512-.908-2.256-1.381-1.27-.806-2.85-1.774-1.846-3.427,1.08-1.778,2.409.036,3.363.528q17.494,9.013,34.877,18.241C954.706-391.523,967.369-384.612,980.933-377.286Z" transform="translate(88.957 -32.955)" fill="#fac58f"/>
        <path id="路径_6135" data-name="路径 6135" d="M2322.428-437.864l7.287-.013c9.685,5.278,19.334,10.623,29.065,15.815q16.976,9.059,34.083,17.875c2.142,1.107,3.255,2.35,2.04,5.346Z" transform="translate(-67.485 -30.746)" fill="#fac58f"/>
        <path id="路径_6136" data-name="路径 6136" d="M954.061-375.766c-4.617.825-7.494.376-10.381-1.2-12.535-6.832-25.139-13.535-37.749-20.229-1.586-.842-3.121-1.889-2.223-3.675,1.1-2.184,2.563-.106,3.582.426,14.873,7.772,29.692,15.647,44.523,23.5C952.2-376.737,952.589-376.536,954.061-375.766Z" transform="translate(88.955 -34.718)" fill="#fac58f"/>
        <path id="路径_6137" data-name="路径 6137" d="M2352.428-437.864l8.177-.013c8.755,5.694,18.217,10.1,27.406,15,2.982,1.59,5.878,3.349,8.907,4.839,2.114,1.04,2.109,2.543,1.424,4.708Z" transform="translate(-70.792 -30.746)" fill="#fac58f"/>
        <path id="路径_6138" data-name="路径 6138" d="M926.012-374.252c-8.755,1.021-15.037-4.126-21.779-8.047a2.051,2.051,0,0,1-.495-2.829c.949-1.481,1.68.052,2.471.468Q916.111-379.458,926.012-374.252Z" transform="translate(88.96 -36.492)" fill="#fac58f"/>
        <path id="路径_6139" data-name="路径 6139" d="M2383.428-437.864l7.287-.013c3.083,1.683,6.122,3.453,9.267,5.011,1.733.859,2.865,2.168,1.9,3.8-1,1.7-2.385-.087-3.359-.593C2393.44-432.293,2388.451-435.11,2383.428-437.864Z" transform="translate(-74.21 -30.746)" fill="#fac58f"/>
      </g>
    </g>
  </g>
</svg>
