<svg xmlns="http://www.w3.org/2000/svg" width="34.368" height="35.16" viewBox="0 0 34.368 35.16">
  <g id="news_disc" transform="translate(-29.5 -313.096)">
    <path id="路径_176" data-name="路径 176" d="M115.181,350.145l6.6,1.361,1.274,4.574-4.969,4.49s-2.815-6.607-2.9-10.425" transform="translate(-63.147 -27.305)" fill="#7db33d"/>
    <path id="路径_177" data-name="路径 177" d="M53.521,405.468l6.936,10.442,4.768-1.328-4.733-5.7.4-3.86a.075.075,0,0,0-.024,0,25.524,25.524,0,0,0-3.121.2,14.015,14.015,0,0,0-1.96.388l-.2-.719Z" transform="translate(-17.704 -67.654)" fill="#007dc6"/>
    <path id="路径_178" data-name="路径 178" d="M53.673,342.98l.2.719a14.059,14.059,0,0,1,1.96-.388,25.424,25.424,0,0,1,3.122-.2.066.066,0,0,1,.024,0,78.506,78.506,0,0,1,16.1,2.144c-2.2-1.458-4.7-5.881-6.251-11.437-1.528-5.487-1.688-10.505-.6-12.933-3.335,3.2-11.487,10.579-17.309,12.2Z" transform="translate(-15.79 -5.741)" fill="#7db33d"/>
    <path id="路径_179" data-name="路径 179" d="M121.6,340.553c-1.3,0-2.786-1.129-4.242-3.252a31.51,31.51,0,0,1-3.978-9.085c-1.842-6.617-2.047-14.137,1.2-15.042,1.434-.4,3.146.728,4.823,3.173a31.51,31.51,0,0,1,3.978,9.085c1.842,6.617,2.047,14.137-1.2,15.042a2.16,2.16,0,0,1-.581.079m-7.214-12.616a30.463,30.463,0,0,0,3.833,8.774c1.364,1.989,2.74,3.021,3.682,2.758,1.889-.526,2.549-6.3.475-13.757a30.459,30.459,0,0,0-3.833-8.774c-1.364-1.989-2.74-3.021-3.682-2.758-1.89.526-2.549,6.305-.475,13.757" transform="translate(-60.844)" fill="#007dc6"/>
    <path id="路径_180" data-name="路径 180" d="M138.669,359.969a.3.3,0,0,1-.18-.061,3.707,3.707,0,0,1-1.257-4.576.3.3,0,0,1,.535.268,3.07,3.07,0,0,0,1.083,3.83.3.3,0,0,1-.18.538" transform="translate(-79.154 -31.007)" fill="#fff"/>
    <rect id="矩形_332" data-name="矩形 332" width="4.137" height="7.023" transform="matrix(0.963, -0.268, 0.268, 0.963, 29.5, 330.82)" fill="#7db33d"/>
    <rect id="矩形_333" data-name="矩形 333" width="2.219" height="9.577" transform="matrix(0.963, -0.268, 0.268, 0.963, 33.177, 328.608)" fill="#fff"/>
    <path id="路径_181" data-name="路径 181" d="M58.938,345.041a.3.3,0,0,1-.137-.565c.075-.039,7.6-3.939,12.149-8.346a.3.3,0,1,1,.416.43c-4.613,4.468-12.215,8.408-12.291,8.447a.3.3,0,0,1-.137.033" transform="translate(-21.475 -16.914)" fill="#007dc6"/>
    <path id="路径_182" data-name="路径 182" d="M61.126,389.951a.3.3,0,0,1-.29-.229L59.7,385.039a.3.3,0,0,1,.581-.141L61.35,389.3a28.6,28.6,0,0,1,7.228-.2.3.3,0,1,1-.05.6,26.771,26.771,0,0,0-7.336.243.315.315,0,0,1-.066.007" transform="translate(-22.251 -52.749)" fill="#007dc6"/>
  </g>
</svg>
