<svg id="project" xmlns="http://www.w3.org/2000/svg" width="61.013" height="50" viewBox="0 0 61.013 50">
  <path id="file_x5F_folder" d="M63.643,51.2l-.22-39.58a2.2,2.2,0,0,0-2.2-2.2l-28.146.22c-.88,0-1.539-1.539-1.539-2.2v-.22A2.44,2.44,0,0,0,29.12,4.8l-14.952.22a2.2,2.2,0,0,0-2.2,2.2v.22c0,.66-.66,2.2-1.539,2.2h0a2.365,2.365,0,0,0-2.2,2.2l.774,12.147H4.168s-2.2,0-1.319,2.419L8.126,52.13c0,1.319.556,2.67,1.875,2.67l52.323-1.4C63.863,53.615,63.643,51.2,63.643,51.2ZM60.784,26.349,62.323,53.4,56.5,25.3a2.023,2.023,0,0,0-2.2-1.319l-42.438.22-.774-9.509,49.695-.44V26.349Z" transform="translate(-2.641 -4.8)" fill="#007dc6"/>
  <line id="直线_17" data-name="直线 17" y2="15" transform="translate(29.319 27.526)" fill="none" stroke="#7db33d" stroke-linecap="round" stroke-linejoin="round" stroke-width="5"/>
  <line id="直线_18" data-name="直线 18" x2="16" transform="translate(21.268 33.814)" fill="none" stroke="#7db33d" stroke-linecap="round" stroke-linejoin="round" stroke-width="5"/>
</svg>
