<svg xmlns="http://www.w3.org/2000/svg" width="335" height="158" viewBox="0 0 335 158">
  <g id="Publication" transform="translate(-960 -719)">
    <rect id="Publication-2" data-name="Publication" width="335" height="158" transform="translate(960 719)" fill="#60ba47"/>
    <g id="Publication-3" data-name="Publication" transform="translate(779.667 195.493)">
      <g id="组_34" data-name="组 34" transform="translate(0 3)">
        <text id="_242" data-name="242" transform="translate(354.333 608.507)" fill="#fff" font-size="65" font-family="Arial-BoldMT, Arial" font-weight="700"><tspan x="0" y="0">242</tspan></text>
        <text id="出版物" transform="translate(365.333 644.507)" fill="#fff" font-size="20" font-family="MicrosoftJhengHeiRegular, Microsoft JhengHei"><tspan x="0" y="0">出版物</tspan></text>
      </g>
      <g id="椭圆_5" data-name="椭圆 5" transform="translate(233.333 551.507)" fill="none" stroke="#fff" stroke-width="1">
        <circle cx="51" cy="51" r="51" stroke="none"/>
        <circle cx="51" cy="51" r="50.5" fill="none"/>
      </g>
      <g id="book" transform="translate(252.575 528.445)">
        <path id="路径_206" data-name="路径 206" d="M61.713,56.595c-.119,0-2.573-.087-6.174-.007V49.2a1.869,1.869,0,0,0-2.024-1.862c-7.18.6-16.315,3.772-21.758,9.559C26.315,51.115,17.18,47.942,10,47.343A1.869,1.869,0,0,0,7.977,49.2v7.583C5.931,56.71,4,56.655,1.924,56.595A1.869,1.869,0,0,0,0,58.462V92.483a1.868,1.868,0,0,0,1.743,1.864c7.431.5,19.879.556,29.283,4.567a1.873,1.873,0,0,0,1.466,0c9.4-4.011,21.849-4.067,29.283-4.567a1.868,1.868,0,0,0,1.743-1.864V58.462a1.869,1.869,0,0,0-1.8-1.867ZM51.8,51.306V83.324a39.637,39.637,0,0,0-18.177,9.229V60.441c4.087-5.1,11.828-8.174,18.177-9.136Zm-40.091,0c6.349.962,14.09,4.036,18.177,9.136V92.553a39.637,39.637,0,0,0-18.177-9.229ZM3.736,90.725V60.386c1.338.04,2.768.084,4.24.14v24.32A1.868,1.868,0,0,0,9.5,86.682a37.372,37.372,0,0,1,14.983,6.281c-7.376-1.654-15.1-1.92-20.747-2.238Zm56.044,0c-5.641.317-13.368.583-20.747,2.238a37.373,37.373,0,0,1,14.983-6.281,1.868,1.868,0,0,0,1.524-1.836V60.325c1.719-.038,3.184-.039,4.24-.029V90.725Z" fill="#fff"/>
        <path id="路径_207" data-name="路径 207" d="M139.366,167.983a17.4,17.4,0,0,0-6.6-2.7,1.868,1.868,0,1,0-.622,3.684,13.621,13.621,0,0,1,5.09,2.077,1.868,1.868,0,1,0,2.136-3.066Z" transform="translate(-114.32 -103.239)" fill="#fff"/>
        <path id="路径_208" data-name="路径 208" d="M139.179,252.71a19.963,19.963,0,0,0-6.416-2.659,1.868,1.868,0,1,0-.622,3.684,16.681,16.681,0,0,1,5.091,2.163,1.868,1.868,0,0,0,1.947-3.189Z" transform="translate(-114.32 -177.446)" fill="#fff"/>
        <path id="路径_209" data-name="路径 209" d="M305.4,171.048a13.621,13.621,0,0,1,5.09-2.077,1.868,1.868,0,1,0-.622-3.684,17.4,17.4,0,0,0-6.6,2.7,1.868,1.868,0,1,0,2.136,3.066Z" transform="translate(-264.797 -103.238)" fill="#fff"/>
        <path id="路径_210" data-name="路径 210" d="M310.522,250.051a19.957,19.957,0,0,0-6.416,2.659,1.868,1.868,0,1,0,1.947,3.189,16.681,16.681,0,0,1,5.091-2.163,1.868,1.868,0,1,0-.622-3.684Z" transform="translate(-265.449 -177.445)" fill="#fff"/>
      </g>
    </g>
  </g>
</svg>
