<svg xmlns="http://www.w3.org/2000/svg" xmlns:xlink="http://www.w3.org/1999/xlink" width="719" height="526" viewBox="0 0 719 526">
  <defs>
    <clipPath id="clip-path">
      <rect id="矩形_665" data-name="矩形 665" width="719" height="526" transform="translate(911 1116)" fill="#fff" stroke="#707070" stroke-width="1"/>
    </clipPath>
  </defs>
  <g id="red_top2" transform="translate(-911 -1116)" clip-path="url(#clip-path)">
    <g id="组_6213" data-name="组 6213" transform="translate(952.128 1116.307)">
      <g id="组_6185" data-name="组 6185" transform="translate(257.626 265.948)">
        <rect id="矩形_512" data-name="矩形 512" width="10.981" height="48.871" transform="translate(76.257 142.039)" fill="#4c5c6e"/>
        <path id="路径_6917" data-name="路径 6917" d="M526.885,555v-4.372h-8.4v1.886H467.82v1.249H446.141V552.51h-50.67v-1.886h-8.4V555h-7.89a3.594,3.594,0,0,0,3.142,1.849h4.747v17.377a6.859,6.859,0,0,0,6.859,6.859h16.259a10.193,10.193,0,0,0,10.109,8.894H449.83v3.448h14.3v-3.032l8.677,5.117a3.7,3.7,0,0,0,1.722,4.032l4.046,2.387a3.7,3.7,0,1,0,3.757-6.371l-4.046-2.386a3.7,3.7,0,0,0-4.362.444l-6.171-3.639h25.9a10.193,10.193,0,0,0,10.109-8.894h16.259a6.859,6.859,0,0,0,6.859-6.859V556.845h4.755A3.6,3.6,0,0,0,534.783,555Zm-8.4,14.879a2.811,2.811,0,0,1-2.811,2.811H496.428v7.1h-78.9v-7.1H398.282a2.811,2.811,0,0,1-2.811-2.811v-13.03h5.247a3.569,3.569,0,0,0,1.922-.562h42.883v18.464h22.915V556.283H511.33a3.569,3.569,0,0,0,1.922.562h5.239Z" transform="translate(-375.233 -438.142)" fill="#161f28"/>
        <path id="路径_6918" data-name="路径 6918" d="M520.292,487.109a22.324,22.324,0,0,1-20.259,12.925H444.608A22.338,22.338,0,0,1,422.333,476l5.416-71.131A27.4,27.4,0,0,1,437.5,385.9a27.348,27.348,0,0,0-3.02,10.606l-5.422,71.131a22.342,22.342,0,0,0,22.274,24.039h55.431A22.179,22.179,0,0,0,520.292,487.109Z" transform="translate(-390.572 -379.493)" fill="#b50018"/>
        <path id="路径_6919" data-name="路径 6919" d="M524.013,483.567a22.179,22.179,0,0,1-13.523,4.566H455.058a22.342,22.342,0,0,1-22.274-24.039l5.422-71.131a27.348,27.348,0,0,1,3.02-10.606,27.361,27.361,0,0,1,17.625-6.407h34.381a27.453,27.453,0,0,1,27.374,25.372l5.422,71.131A22.19,22.19,0,0,1,524.013,483.567Z" transform="translate(-394.293 -375.95)" fill="#e5233d"/>
        <path id="路径_6920" data-name="路径 6920" d="M523.21,587.161v.006q0,.222-.019.444a7.488,7.488,0,0,1-7.476,7.045H426.856a7.484,7.484,0,0,1-7.476-7.045q-.019-.222-.019-.444v-.006A14.541,14.541,0,0,1,433.9,572.62h74.763A14.542,14.542,0,0,1,523.21,587.161Z" transform="translate(-389.537 -445.974)" fill="#e5233d"/>
        <path id="路径_6921" data-name="路径 6921" d="M523.2,595.9a7.488,7.488,0,0,1-7.476,7.045H426.866a7.484,7.484,0,0,1-7.476-7.045Z" transform="translate(-389.548 -454.262)" fill="#b50018"/>
        <path id="矩形_513" data-name="矩形 513" d="M7.423,0H24.308a7.423,7.423,0,0,1,7.423,7.423v0A2.022,2.022,0,0,1,29.71,9.444H2.022A2.022,2.022,0,0,1,0,7.423v0A7.423,7.423,0,0,1,7.423,0Z" transform="translate(0 107.46)" fill="#e5233d"/>
        <path id="矩形_514" data-name="矩形 514" d="M2.022,0H29.71a2.022,2.022,0,0,1,2.022,2.022v0a7.423,7.423,0,0,1-7.423,7.423H7.423A7.423,7.423,0,0,1,0,2.022v0A2.022,2.022,0,0,1,2.022,0Z" transform="translate(163.503 116.904) rotate(180)" fill="#e5233d"/>
        <ellipse id="椭圆_25" data-name="椭圆 25" cx="74.193" cy="4.771" rx="74.193" ry="4.771" transform="translate(7.559 231.002)" fill="#e0e0e0"/>
        <path id="路径_6922" data-name="路径 6922" d="M521.369,701.867a4.453,4.453,0,0,0-3.562-3.7l-44.359-8.489-.031.162V667.915h-14.3v21.926l-.031-.162-44.359,8.489a4.455,4.455,0,0,0-3.566,3.716,6.614,6.614,0,1,0,7.048,4.775l42.388-8.111h1.188v4.043a4.46,4.46,0,0,0,.124,1.031,6.593,6.593,0,1,0,8.758-.207,4.5,4.5,0,0,0,.079-.824v-4.043h1.188l42.648,8.161a6.594,6.594,0,1,0,6.785-4.842Z" transform="translate(-384.519 -479.903)" fill="#161f28"/>
      </g>
      <g id="组_6211" data-name="组 6211" transform="translate(48.872 282.356)">
        <g id="组_6210" data-name="组 6210" transform="translate(0 0)">
          <g id="组_6191" data-name="组 6191" transform="translate(110.173)">
            <g id="组_6187" data-name="组 6187" transform="translate(0 61.393)">
              <g id="组_6186" data-name="组 6186">
                <path id="路径_6923" data-name="路径 6923" d="M314.836,561.558h-11.72a3.705,3.705,0,0,0-3.706,3.706v.459h-4.161a13.426,13.426,0,0,0,4.139-10.771l-3.268-42.889a16.555,16.555,0,0,0-16.507-15.3H258.884a16.556,16.556,0,0,0-16.507,15.3l-3.267,42.889a13.426,13.426,0,0,0,4.139,10.771h-4.156v-.459a3.706,3.706,0,0,0-3.706-3.706h-11.72a3.705,3.705,0,0,0-3.706,3.706v.979a1.01,1.01,0,0,0,1.009,1.01h1.394a2.167,2.167,0,0,0,1.876,1.084H227.1v10.477a4.135,4.135,0,0,0,4.135,4.135h6.835a4.517,4.517,0,0,0,4.39,3.464h.234a6.123,6.123,0,0,0,4.438,1.9h17.8v2.079h1v19.734h-1v13.22l-.019-.1-26.745,5.118a2.684,2.684,0,0,0-2.15,2.24,3.989,3.989,0,1,0,4.249,2.879l25.557-4.89h.717v2.438a2.708,2.708,0,0,0,.075.621,3.975,3.975,0,1,0,5.281-.125,2.74,2.74,0,0,0,.047-.5v-2.438h.717l25.714,4.92a3.976,3.976,0,1,0,4.09-2.919,2.684,2.684,0,0,0-2.148-2.231l-26.745-5.118-.019.1v-13.22h-1V590.391h.988v-2.064l17.816-.015a6.124,6.124,0,0,0,4.438-1.9h.234a4.518,4.518,0,0,0,4.391-3.464h6.835a4.135,4.135,0,0,0,4.135-4.135V568.337h2.868a2.166,2.166,0,0,0,1.875-1.084h1.393a1.009,1.009,0,0,0,1.009-1.01v-.979A3.705,3.705,0,0,0,314.836,561.558Zm-52.5,11.569H246.71a8.761,8.761,0,0,0-7.792,4.76h-5.06a1.694,1.694,0,0,1-1.694-1.694v-7.856h3.163a2.152,2.152,0,0,0,1.158-.339h9.975a13.405,13.405,0,0,0,6.08,1.446h9.8Zm43.994,3.066a1.694,1.694,0,0,1-1.695,1.694h-5.06a8.76,8.76,0,0,0-7.792-4.76H276.157v-3.683h9.8A13.4,13.4,0,0,0,292.037,568h9.98a2.152,2.152,0,0,0,1.158.339h3.159Z" transform="translate(-219.961 -496.767)" fill="#4c5c6e"/>
              </g>
            </g>
            <g id="组_6188" data-name="组 6188" transform="translate(26.568)">
              <path id="路径_6924" data-name="路径 6924" d="M283.944,401.43a22.723,22.723,0,0,0-11.314,42.429,22.458,22.458,0,0,0,9.222,2.914l2.374,7.278,2.392-7.337a22.721,22.721,0,0,0-2.673-45.285Z" transform="translate(-261.219 -401.43)" fill="#e5233d"/>
            </g>
            <g id="组_6190" data-name="组 6190" transform="translate(39.606 6.332)">
              <g id="组_6189" data-name="组 6189">
                <path id="路径_6925" data-name="路径 6925" d="M297.569,417.682a6.419,6.419,0,1,1-6.42-6.419A6.419,6.419,0,0,1,297.569,417.682ZM298,428.844a9.659,9.659,0,0,0-7.528-2.816,9.856,9.856,0,0,0-9.006,9.921v4.385a1.892,1.892,0,0,0,1.046,1.693,19.471,19.471,0,0,0,17.274,0,1.891,1.891,0,0,0,1.048-1.694v-4.646A9.65,9.65,0,0,0,298,428.844Z" transform="translate(-281.466 -411.263)" fill="#fffef1"/>
              </g>
            </g>
          </g>
          <g id="组_6197" data-name="组 6197">
            <g id="组_6193" data-name="组 6193" transform="translate(0 61.393)">
              <g id="组_6192" data-name="组 6192">
                <path id="路径_6926" data-name="路径 6926" d="M143.746,561.558h-11.72a3.705,3.705,0,0,0-3.705,3.706v.459H124.16a13.426,13.426,0,0,0,4.139-10.771l-3.268-42.889a16.555,16.555,0,0,0-16.507-15.3H87.8a16.555,16.555,0,0,0-16.507,15.3l-3.267,42.889a13.426,13.426,0,0,0,4.139,10.771H68v-.459a3.706,3.706,0,0,0-3.706-3.706H52.578a3.705,3.705,0,0,0-3.706,3.706v.979a1.01,1.01,0,0,0,1.009,1.01h1.394a2.167,2.167,0,0,0,1.876,1.084h2.862v10.477a4.135,4.135,0,0,0,4.135,4.135h6.835a4.517,4.517,0,0,0,4.39,3.464h.234a6.123,6.123,0,0,0,4.438,1.9h17.8v2.079h1v19.734h-1v13.22l-.019-.1-26.745,5.118a2.684,2.684,0,0,0-2.15,2.24,3.989,3.989,0,1,0,4.249,2.879l25.557-4.89h.717v2.438a2.709,2.709,0,0,0,.075.621,3.975,3.975,0,1,0,5.281-.125,2.738,2.738,0,0,0,.047-.5v-2.438h.717l25.714,4.92a3.976,3.976,0,1,0,4.091-2.919,2.684,2.684,0,0,0-2.148-2.231l-26.745-5.118-.019.1v-13.22h-1V590.391h.988v-2.064l17.816-.015a6.124,6.124,0,0,0,4.438-1.9h.234a4.518,4.518,0,0,0,4.39-3.464h6.834a4.135,4.135,0,0,0,4.135-4.135V568.337h2.868a2.166,2.166,0,0,0,1.875-1.084h1.394a1.009,1.009,0,0,0,1.009-1.01v-.979A3.705,3.705,0,0,0,143.746,561.558Zm-52.5,11.569H75.621a8.761,8.761,0,0,0-7.792,4.76h-5.06a1.7,1.7,0,0,1-1.695-1.694v-7.856h3.164A2.152,2.152,0,0,0,65.4,568h9.975a13.405,13.405,0,0,0,6.08,1.446h9.8Zm43.994,3.066a1.694,1.694,0,0,1-1.695,1.694h-5.06a8.76,8.76,0,0,0-7.792-4.76H105.068v-3.683h9.8A13.4,13.4,0,0,0,120.948,568h9.98a2.152,2.152,0,0,0,1.158.339h3.159Z" transform="translate(-48.872 -496.767)" fill="#4c5c6e"/>
              </g>
            </g>
            <g id="组_6194" data-name="组 6194" transform="translate(26.568)">
              <path id="路径_6927" data-name="路径 6927" d="M112.855,401.43a22.723,22.723,0,0,0-11.314,42.429,22.455,22.455,0,0,0,9.222,2.914l2.373,7.278,2.392-7.337a22.721,22.721,0,0,0-2.673-45.285Z" transform="translate(-90.13 -401.43)" fill="#e5233d"/>
            </g>
            <g id="组_6196" data-name="组 6196" transform="translate(39.606 6.332)">
              <g id="组_6195" data-name="组 6195">
                <path id="路径_6928" data-name="路径 6928" d="M126.48,417.682a6.42,6.42,0,1,1-6.42-6.419A6.419,6.419,0,0,1,126.48,417.682Zm.431,11.162a9.66,9.66,0,0,0-7.528-2.816,9.856,9.856,0,0,0-9.006,9.921v4.385a1.892,1.892,0,0,0,1.046,1.693,19.471,19.471,0,0,0,17.274,0,1.893,1.893,0,0,0,1.048-1.694v-4.646A9.65,9.65,0,0,0,126.911,428.844Z" transform="translate(-110.377 -411.263)" fill="#fffef1"/>
              </g>
            </g>
          </g>
          <g id="组_6203" data-name="组 6203" transform="translate(372.249)">
            <g id="组_6199" data-name="组 6199" transform="translate(0 61.393)">
              <g id="组_6198" data-name="组 6198">
                <path id="路径_6929" data-name="路径 6929" d="M626.94,565.264v.979a1.009,1.009,0,0,0,1.009,1.01h1.394a2.166,2.166,0,0,0,1.875,1.084h2.867v10.477a4.135,4.135,0,0,0,4.135,4.135h6.835a4.518,4.518,0,0,0,4.391,3.464h.234a6.124,6.124,0,0,0,4.438,1.9l17.816.015v2.064h.989v19.734h-1v13.22l-.019-.1-26.745,5.118a2.684,2.684,0,0,0-2.148,2.231,3.987,3.987,0,1,0,4.09,2.919l25.714-4.92h.716v2.438a2.74,2.74,0,0,0,.048.5,3.979,3.979,0,1,0,5.281.125,2.71,2.71,0,0,0,.075-.621v-2.438h.717l25.557,4.89a3.975,3.975,0,1,0,4.249-2.879,2.684,2.684,0,0,0-2.15-2.24l-26.745-5.118-.019.1v-13.22h-1V590.391h1v-2.079h17.8a6.123,6.123,0,0,0,4.438-1.9h.234a4.517,4.517,0,0,0,4.391-3.464h6.835a4.135,4.135,0,0,0,4.135-4.135V568.337h2.862a2.167,2.167,0,0,0,1.876-1.084h1.393a1.01,1.01,0,0,0,1.009-1.01v-.979a3.705,3.705,0,0,0-3.706-3.706h-11.72a3.706,3.706,0,0,0-3.706,3.706v.459h-4.156a13.426,13.426,0,0,0,4.139-10.771L703.1,512.064a16.556,16.556,0,0,0-16.507-15.3H665.868a16.555,16.555,0,0,0-16.507,15.3l-3.268,42.889a13.426,13.426,0,0,0,4.139,10.771h-4.161v-.459a3.705,3.705,0,0,0-3.706-3.706h-11.72A3.705,3.705,0,0,0,626.94,565.264Zm56.2,4.18h9.8A13.4,13.4,0,0,0,699.021,568H709a2.152,2.152,0,0,0,1.158.339h3.163v7.856a1.694,1.694,0,0,1-1.694,1.694h-5.06a8.761,8.761,0,0,0-7.793-4.76h-15.63Zm-43.994-1.107h3.159a2.152,2.152,0,0,0,1.158-.339h9.98a13.4,13.4,0,0,0,6.079,1.446h9.8v3.683H653.694a8.76,8.76,0,0,0-7.792,4.76h-5.06a1.694,1.694,0,0,1-1.695-1.694Z" transform="translate(-626.94 -496.767)" fill="#4c5c6e"/>
              </g>
            </g>
            <g id="组_6200" data-name="组 6200" transform="translate(26.568)">
              <path id="路径_6930" data-name="路径 6930" d="M690.923,401.43a22.723,22.723,0,0,0-11.314,42.429,22.454,22.454,0,0,0,9.222,2.914l2.373,7.278,2.392-7.337a22.721,22.721,0,0,0-2.673-45.285Z" transform="translate(-668.198 -401.43)" fill="#e5233d"/>
            </g>
            <g id="组_6202" data-name="组 6202" transform="translate(39.606 6.332)">
              <g id="组_6201" data-name="组 6201">
                <path id="路径_6931" data-name="路径 6931" d="M704.548,417.682a6.42,6.42,0,1,1-6.42-6.419A6.42,6.42,0,0,1,704.548,417.682Zm.431,11.162a9.66,9.66,0,0,0-7.528-2.816,9.856,9.856,0,0,0-9.006,9.921v4.385a1.892,1.892,0,0,0,1.046,1.693,19.471,19.471,0,0,0,17.274,0,1.893,1.893,0,0,0,1.048-1.694v-4.646A9.65,9.65,0,0,0,704.979,428.844Z" transform="translate(-688.445 -411.263)" fill="#fffef1"/>
              </g>
            </g>
          </g>
          <g id="组_6209" data-name="组 6209" transform="translate(482.422)">
            <g id="组_6205" data-name="组 6205" transform="translate(0 61.393)">
              <g id="组_6204" data-name="组 6204">
                <path id="路径_6932" data-name="路径 6932" d="M798.029,565.264v.979a1.009,1.009,0,0,0,1.009,1.01h1.394a2.166,2.166,0,0,0,1.875,1.084h2.868v10.477a4.135,4.135,0,0,0,4.135,4.135h6.834a4.518,4.518,0,0,0,4.391,3.464h.234a6.124,6.124,0,0,0,4.438,1.9l17.816.015v2.064h.988v19.734h-1v13.22l-.019-.1-26.745,5.118A2.685,2.685,0,0,0,814.1,630.6a3.985,3.985,0,1,0,4.091,2.919l25.714-4.92h.717v2.438a2.681,2.681,0,0,0,.048.5,3.979,3.979,0,1,0,5.28.125,2.7,2.7,0,0,0,.075-.621v-2.438h.717l25.557,4.89a3.975,3.975,0,1,0,4.249-2.879,2.684,2.684,0,0,0-2.149-2.24l-26.745-5.118-.019.1v-13.22h-1V590.391h1v-2.079h17.8a6.123,6.123,0,0,0,4.438-1.9h.234a4.517,4.517,0,0,0,4.391-3.464h6.835a4.135,4.135,0,0,0,4.135-4.135V568.337h2.862a2.167,2.167,0,0,0,1.876-1.084H895.6a1.01,1.01,0,0,0,1.009-1.01v-.979a3.705,3.705,0,0,0-3.706-3.706h-11.72a3.705,3.705,0,0,0-3.705,3.706v.459h-4.157a13.427,13.427,0,0,0,4.139-10.771l-3.267-42.889a16.555,16.555,0,0,0-16.507-15.3H836.957a16.555,16.555,0,0,0-16.507,15.3l-3.267,42.889a13.424,13.424,0,0,0,4.139,10.771H817.16v-.459a3.705,3.705,0,0,0-3.705-3.706h-11.72A3.705,3.705,0,0,0,798.029,565.264Zm56.2,4.18h9.8a13.406,13.406,0,0,0,6.08-1.446h9.975a2.152,2.152,0,0,0,1.158.339h3.163v7.856a1.694,1.694,0,0,1-1.694,1.694h-5.06a8.761,8.761,0,0,0-7.792-4.76H854.23Zm-43.994-1.107h3.159a2.152,2.152,0,0,0,1.158-.339h9.98a13.4,13.4,0,0,0,6.079,1.446h9.8v3.683H824.783a8.76,8.76,0,0,0-7.792,4.76h-5.06a1.694,1.694,0,0,1-1.695-1.694Z" transform="translate(-798.029 -496.767)" fill="#4c5c6e"/>
              </g>
            </g>
            <g id="组_6206" data-name="组 6206" transform="translate(26.568)">
              <path id="路径_6933" data-name="路径 6933" d="M862.012,401.43A22.723,22.723,0,0,0,850.7,443.859a22.455,22.455,0,0,0,9.222,2.914l2.373,7.278,2.392-7.337a22.721,22.721,0,0,0-2.673-45.285Z" transform="translate(-839.287 -401.43)" fill="#e5233d"/>
            </g>
            <g id="组_6208" data-name="组 6208" transform="translate(39.606 6.332)">
              <g id="组_6207" data-name="组 6207">
                <path id="路径_6934" data-name="路径 6934" d="M875.637,417.682a6.42,6.42,0,1,1-6.42-6.419A6.419,6.419,0,0,1,875.637,417.682Zm.431,11.162a9.66,9.66,0,0,0-7.528-2.816,9.856,9.856,0,0,0-9.006,9.921v4.385a1.892,1.892,0,0,0,1.046,1.693,19.471,19.471,0,0,0,17.274,0,1.893,1.893,0,0,0,1.048-1.694v-4.646A9.65,9.65,0,0,0,876.068,428.844Z" transform="translate(-859.534 -411.263)" fill="#fffef1"/>
              </g>
            </g>
          </g>
        </g>
      </g>
      <g id="组_6212" data-name="组 6212" transform="translate(69.148 18.894)">
        <path id="路径_6935" data-name="路径 6935" d="M685.089,186.556,207.409,207.763c-4.32.192-7.742-4.339-7.16-9.482L213.115,84.451c.484-4.277,3.6-7.411,7.191-7.232l460.072,22.87c3.514.175,6.368,3.467,6.655,7.676l4.743,69.753C692.1,182.267,689.056,186.38,685.089,186.556Z" transform="translate(-191.075 -68.845)" fill="#e5233d"/>
        <path id="路径_6936" data-name="路径 6936" d="M632.861,179.841,592.57,181.63v-1.64l40.291-1.789Zm44.685-81.527c-.314-4.616-3.508-8.244-7.431-8.439l-211.264-10.5v1.641l211.182,10.5c3.094.154,5.621,3.127,5.878,6.913l.682,10.042h1.643ZM197.069,197.549a5.481,5.481,0,0,1-4.253-1.85,8.517,8.517,0,0,1-2.057-6.722l3.358-29.708h-1.649l-3.337,29.524a10.17,10.17,0,0,0,2.487,8.023,7.118,7.118,0,0,0,5.223,2.375c.1,0,.2,0,.3-.007L314.037,194v-1.64ZM199,116.058l4.625-40.911c.425-3.762,3.016-6.511,6.081-6.511.084,0,.17,0,.255.006l53.857,2.678V69.678l-53.775-2.673c-4.051-.195-7.511,3.221-8.046,7.958l-4.644,41.094Zm134.889-42.9V74.8l52.554,2.612v-1.64Zm343.5,46.983.794,11.679h1.643l-.795-11.679Zm3.469,26.861h-1.642l1.439,21.172a8.451,8.451,0,0,1-1.99,6.2,5.61,5.61,0,0,1-3.914,1.963l-10.941.486v1.64l11.013-.489a7.23,7.23,0,0,0,5.063-2.509,10.094,10.094,0,0,0,2.4-7.4Z" transform="translate(-189.063 -66.997)" fill="#ff9c51"/>
        <path id="路径_6937" data-name="路径 6937" d="M599.573,205.137l-259.8,13.053a8.228,8.228,0,0,0-7.487,10.519q8.493,29.153,16.986,58.305a8.228,8.228,0,0,0,7.806,5.926l149.873,1.707q-.815,12.834-1.629,25.668l27.723-25.371,66.1.752a8.227,8.227,0,0,0,8.321-8.144l.753-74.115A8.229,8.229,0,0,0,599.573,205.137Z" transform="translate(-214.909 -91.982)" fill="#ff9c51"/>
        <path id="路径_6938" data-name="路径 6938" d="M607.037,210.635,468.373,217.6v-1.64L606.956,209a9.046,9.046,0,0,1,9.5,9.127l-.357,35.152h-1.638l.357-35.168a7.41,7.41,0,0,0-7.781-7.475Zm-130.1,87.448-28.418-.324V299.4l28.418.324Zm63.215.719L513.69,323.02l1.555-24.5-33.636-.383v1.638l31.892.363-1.7,26.835,28.983-26.525,38.15.435v-1.639Zm74.036-18.663-.123,12.086a7.358,7.358,0,0,1-2.227,5.22,7.459,7.459,0,0,1-5.265,2.113l-4.286-.049v1.638l4.266.049a9.047,9.047,0,0,0,9.15-8.955l.123-12.1ZM364.509,296.8a7.368,7.368,0,0,1-7.029-5.337l-4.094-14.051H351.68l4.228,14.509a9,9,0,0,0,8.584,6.517l57.946.659v-1.638Zm-16-30.288h1.706l-9.718-33.354a7.409,7.409,0,0,1,6.742-9.472l63.524-3.192v-1.64l-63.606,3.2a9.048,9.048,0,0,0-8.233,11.567Z" transform="translate(-216.103 -92.68)" fill="#ef6848"/>
      </g>
    </g>
    <text id="_2020年就業服務站服務人次" data-name="2020年就業服務站服務人次" transform="translate(1084.002 1184.299)" fill="#fff" font-size="32" font-family="MicrosoftJhengHeiBold, Microsoft JhengHei"><tspan x="0" y="34">2020年就業服務站服務人次</tspan></text>
    <text id="_763_399" data-name="+763,399" transform="translate(1173.567 1312.089)" fill="#fff" font-size="43" font-family="MicrosoftJhengHeiBold, Microsoft JhengHei"><tspan x="0" y="0">+763,399</tspan></text>
  </g>
</svg>
