<svg xmlns="http://www.w3.org/2000/svg" xmlns:xlink="http://www.w3.org/1999/xlink" width="1359" height="1214.635" viewBox="0 0 1359 1214.635">
  <defs>
    <clipPath id="clip-path">
      <rect id="矩形_1100" data-name="矩形 1100" width="1273" height="437" transform="translate(290 648)" fill="#a31c44" opacity="0.18"/>
    </clipPath>
    <clipPath id="clip-path-2">
      <rect id="矩形_1135" data-name="矩形 1135" width="616" height="286" transform="translate(1010 3106)" fill="#fff" stroke="#707070" stroke-width="1"/>
    </clipPath>
    <clipPath id="clip-path-3">
      <rect id="矩形_1165" data-name="矩形 1165" width="1334" height="533.635" transform="translate(290 3425.174)" fill="#feede5"/>
    </clipPath>
    <clipPath id="clip-path-4">
      <rect id="矩形_1194" data-name="矩形 1194" width="1325" height="348" transform="translate(1010 3106.413)" fill="#fff" stroke="#707070" stroke-width="1"/>
    </clipPath>
  </defs>
  <g id="目標9" transform="translate(-282 -2744.174)">
    <rect id="矩形_388" data-name="矩形 388" width="601.525" height="5" transform="translate(1012 2823.648) rotate(90)" fill="#f26a2d"/>
    <rect id="矩形_399" data-name="矩形 399" width="1334" height="488.635" transform="translate(290 3425.174)" fill="#feede5"/>
    <rect id="矩形_389" data-name="矩形 389" width="1340" height="16" transform="translate(290 2744.174)" fill="#f26a2d"/>
    <path id="路径_6173" data-name="路径 6173" d="M1985.773,339.7a10.515,10.515,0,1,0,10.515,10.514A10.514,10.514,0,0,0,1985.773,339.7Z" transform="translate(-838.48 3138.115)" fill="#f8fbff"/>
    <path id="路径_6088" data-name="路径 6088" d="M1134.428-437.864l7.287-.013c7.832,4.353,15.6,8.827,23.508,13.034,21.21,11.279,42.495,22.42,63.722,33.668,6.868,3.639,13.65,7.441,21,11.46-7.055,1.777-11.715-2.469-16.7-5-10.763-5.467-21.249-11.479-31.91-17.152q-31.421-16.719-62.9-33.332A47,47,0,0,1,1134.428-437.864Z" transform="translate(-638.861 3200.428)" fill="#a31c44" opacity="0.27"/>
    <g id="组_9356" data-name="组 9356" transform="translate(180 -5738.191)" opacity="0.32">
      <path id="路径_6089" data-name="路径 6089" d="M1743.428-437.864l7.287-.013c9.814,5.325,19.59,10.723,29.45,15.96q39.027,20.725,78.11,41.346a12.657,12.657,0,0,1,1.4,1.109c-3.944.384-7.2.306-10.424-1.57-6.362-3.7-12.847-7.185-19.349-10.633-21.211-11.25-42.47-22.409-63.672-33.676C1758.572-429.411,1751.025-433.684,1743.428-437.864Z" transform="translate(-886.002 8938.619)" fill="#f26a2d"/>
      <path id="路径_6090" data-name="路径 6090" d="M1774.424-437.865l7.291-.012c6.628,4.692,14.1,7.892,21.181,11.756,16.693,9.107,33.644,17.739,50.437,26.664,12.068,6.413,24.05,12.99,36.9,19.945-3.773.381-6.417.317-9.145-1.134-30.453-16.2-61.019-32.18-91.373-48.558C1784.583-431.975,1778.861-433.83,1774.424-437.865Z" transform="translate(-889.42 8938.619)" fill="#f26a2d"/>
      <path id="路径_6091" data-name="路径 6091" d="M1834.428-437.864l8.177-.013c6.685,4.88,14.324,8.075,21.55,11.97,25.8,13.91,51.785,27.483,77.686,41.211,2.838,1.5,5.586,3.183,9.039,5.161-3.335.414-5.858.51-8.421-.862q-40.513-21.68-81.077-43.262C1852.417-428.434,1843.414-433.131,1834.428-437.864Z" transform="translate(-896.035 8938.619)" fill="#f26a2d"/>
      <path id="路径_6092" data-name="路径 6092" d="M1652.428-437.864l7.287-.013c7.832,4.353,15.6,8.827,23.508,13.034,21.211,11.279,42.559,22.3,63.685,33.736,6.83,3.7,14.012,6.8,20.7,11.479-6.712,1.691-11.373-2.555-16.354-5.086-10.764-5.467-21.25-11.479-31.911-17.152q-31.421-16.719-62.9-33.332A46.918,46.918,0,0,1,1652.428-437.864Z" transform="translate(-875.97 8938.619)" fill="#f26a2d"/>
      <path id="路径_6093" data-name="路径 6093" d="M1865.428-437.864l7.287-.013c9.416,5.131,18.787,10.349,28.259,15.378q39.421,20.93,78.9,41.744c.244.129.4.416.924.97-2.887.824-5.416.868-7.941-.489q-30.348-16.313-60.712-32.6c-11.3-6.04-22.689-11.93-34.009-17.941C1873.861-433.087,1869.663-435.509,1865.428-437.864Z" transform="translate(-899.452 8938.619)" fill="#f26a2d"/>
      <path id="路径_6094" data-name="路径 6094" d="M1408.428-437.864l7.287-.013c9.156,5,18.267,10.1,27.479,15q38.451,20.451,76.963,40.789c1.14.605,2.167,1.424,3.507,2.316-5.233,1.843-9-1.07-12.863-3.1-11.6-6.112-23.1-12.4-34.65-18.612Q1442.295-419.686,1408.428-437.864Z" transform="translate(-849.069 8938.619)" fill="#f26a2d"/>
      <path id="路径_6095" data-name="路径 6095" d="M1895.428-437.864l8.177-.013c6.285,4.684,13.543,7.657,20.369,11.361,21.1,11.449,42.424,22.5,63.635,33.756,7.912,4.2,15.751,8.534,24.03,13.026a10.954,10.954,0,0,1-8.567-.883q-41.315-22.053-82.677-44.019Q1907.921-431.268,1895.428-437.864Z" transform="translate(-902.76 8938.619)" fill="#f26a2d"/>
      <path id="路径_6096" data-name="路径 6096" d="M1438.428-437.864l8.176-.013c5.74,4.75,12.808,7.161,19.216,10.716,15.975,8.865,32.282,17.132,48.418,25.71,13.371,7.108,26.688,14.319,40.552,21.765a13.4,13.4,0,0,1-9.908-1.408c-16.586-8.989-33.343-17.663-50-26.53Q1466.621-422.675,1438.428-437.864Z" transform="translate(-852.377 8938.619)" fill="#f26a2d"/>
      <path id="路径_6097" data-name="路径 6097" d="M1012.428-437.864l7.287-.013c8.362,4.613,16.664,9.337,25.1,13.819q38.65,20.547,77.369,40.959c1.792.949,3.467,2.124,5.313,3.266-5.483,1.012-6.84.472-14.728-3.945-10.665-5.975-21.431-11.772-32.218-17.525C1057.809-413.431,1034.826-425.1,1012.428-437.864Z" transform="translate(-805.411 8938.619)" fill="#f26a2d"/>
      <path id="路径_6098" data-name="路径 6098" d="M2170.428-437.864l7.287-.013c7.832,4.353,15.6,8.827,23.509,13.034,21.21,11.279,42.495,22.42,63.721,33.668,6.868,3.639,13.65,7.441,21,11.459-7.054,1.779-11.715-2.468-16.7-5-10.765-5.467-21.25-11.479-31.911-17.152q-31.421-16.719-62.9-33.332A46.937,46.937,0,0,1,2170.428-437.864Z" transform="translate(-933.078 8938.619)" fill="#f26a2d"/>
      <path id="路径_6099" data-name="路径 6099" d="M951.428-437.864l7.287-.013c8.362,4.613,16.663,9.341,25.1,13.818,21.872,11.611,43.881,22.967,65.657,34.755,5.653,3.061,11.743,5.425,17.052,9.458-5.5,1.032-5.864.815-12.754-2.969-11.491-6.311-23.074-12.457-34.614-18.678C996.6-413.654,973.687-425.153,951.428-437.864Z" transform="translate(-798.686 8938.619)" fill="#f26a2d"/>
      <path id="路径_6100" data-name="路径 6100" d="M981.428-437.864l8.176-.013c5.233,4.436,11.726,6.692,17.623,9.939,16.653,9.166,33.619,17.762,50.407,26.685,13.242,7.038,26.4,14.227,40.05,21.592a13.333,13.333,0,0,1-9.8-1.431c-16.586-8.99-33.343-17.664-49.995-26.531Q1009.621-422.675,981.428-437.864Z" transform="translate(-801.993 8938.619)" fill="#f26a2d"/>
      <path id="路径_6101" data-name="路径 6101" d="M1987.428-437.864l7.287-.013c8.493,4.683,16.928,9.472,25.49,14.026,21.211,11.28,42.566,22.294,63.671,33.768,6.17,3.355,12.82,5.906,18.656,10.234-5.513,1.035-5.875.819-12.766-2.966-11.491-6.311-23.073-12.457-34.614-18.678C2032.6-413.654,2009.687-425.153,1987.428-437.864Z" transform="translate(-912.902 8938.619)" fill="#f26a2d"/>
      <path id="路径_6102" data-name="路径 6102" d="M2139.428-437.863l8.172-.012c4.786,4.271,10.866,6.353,16.37,9.336,25.658,13.909,51.543,27.4,77.336,41.059,4.665,2.471,9.278,5.042,14.357,7.808-4.45.985-7.749-.138-11.347-2.177-10.512-5.958-21.339-11.359-32-17.049Q2175.853-418.347,2139.428-437.863Z" transform="translate(-929.66 8938.619)" fill="#f26a2d"/>
      <path id="路径_6103" data-name="路径 6103" d="M1164.428-437.864l7.287-.013c5.785,3.183,11.528,6.444,17.362,9.534,21.216,11.239,42.477,22.4,63.691,33.639,9.2,4.876,18.326,9.889,28.18,15.216-4.218.409-7.444.277-10.7-1.542-10.8-6.029-21.69-11.883-32.592-17.721Q1201.064-418.347,1164.428-437.864Z" transform="translate(-822.169 8938.619)" fill="#f26a2d"/>
      <path id="路径_6104" data-name="路径 6104" d="M1103.428-437.863l8.172-.012c4.786,4.271,10.867,6.353,16.37,9.336,25.658,13.909,51.543,27.4,77.336,41.059,4.665,2.471,9.276,5.042,14.356,7.808-4.449.985-7.748-.139-11.347-2.178-10.513-5.957-21.338-11.359-32-17.049Q1139.852-418.347,1103.428-437.863Z" transform="translate(-815.443 8938.619)" fill="#f26a2d"/>
      <path id="路径_6105" data-name="路径 6105" d="M1286.428-437.864l7.287-.013c10.339,5.6,20.643,11.259,31.024,16.776q38.043,20.221,76.138,40.346c.245.129.4.415.925.97-2.888.823-5.417.867-7.942-.49q-30.349-16.313-60.712-32.6c-10.26-5.488-20.593-10.84-30.864-16.308C1296.966-432.015,1291.711-434.967,1286.428-437.864Z" transform="translate(-835.619 8938.619)" fill="#f26a2d"/>
      <path id="路径_6106" data-name="路径 6106" d="M1256.424-437.865l7.291-.012c6.628,4.693,14.1,7.891,21.181,11.756,16.693,9.107,33.644,17.739,50.437,26.664,12.069,6.413,24.05,12.99,36.9,19.945-3.773.381-6.417.317-9.145-1.134-30.453-16.2-61.02-32.18-91.374-48.558C1266.583-431.975,1260.861-433.83,1256.424-437.865Z" transform="translate(-832.312 8938.619)" fill="#f26a2d"/>
      <path id="路径_6107" data-name="路径 6107" d="M1560.428-437.863l8.172-.012c.461,1.5,1.923,1.761,3.053,2.36q39.478,20.894,78.977,41.749c8.57,4.541,17.064,9.227,26.047,14.092-4.465.989-7.769-.117-11.362-2.175-9.842-5.641-20-10.737-30.014-16.076Q1597.858-417.883,1560.428-437.863Z" transform="translate(-865.827 8938.619)" fill="#f26a2d"/>
      <path id="路径_6108" data-name="路径 6108" d="M1591.428-437.864l7.287-.013c7.968,4.411,15.874,8.936,23.915,13.209,21.735,11.553,43.606,22.853,65.247,34.576,6.177,3.345,12.789,5.965,18.695,10.44-6,1.715-10.238-2-14.756-4.23-6.2-3.062-12.126-6.669-18.237-9.913q-39.054-20.731-78.139-41.4A47.09,47.09,0,0,1,1591.428-437.864Z" transform="translate(-869.244 8938.619)" fill="#f26a2d"/>
      <path id="路径_6109" data-name="路径 6109" d="M2017.428-437.864l8.177-.013c5.232,4.436,11.724,6.692,17.622,9.939,16.652,9.166,33.62,17.762,50.407,26.685,13.242,7.038,26.4,14.227,40.05,21.592a13.333,13.333,0,0,1-9.8-1.431c-16.586-8.99-33.342-17.664-49.994-26.531Q2045.621-422.673,2017.428-437.864Z" transform="translate(-916.21 8938.619)" fill="#f26a2d"/>
      <path id="路径_6110" data-name="路径 6110" d="M2048.428-437.864l7.287-.013c8.362,4.613,16.664,9.337,25.1,13.819q38.65,20.547,77.369,40.959c1.791.949,3.464,2.122,5.313,3.266-5.482,1.013-6.838.474-14.727-3.945-10.666-5.975-21.431-11.772-32.218-17.525C2093.809-413.431,2070.826-425.1,2048.428-437.864Z" transform="translate(-919.627 8938.619)" fill="#f26a2d"/>
      <path id="路径_6111" data-name="路径 6111" d="M1713.424-437.865l7.291-.012c7.034,4.878,14.871,8.323,22.368,12.352,26.1,14.028,52.348,27.775,78.524,41.657,2.31,1.224,4.507,2.658,6.859,4.054-5.638,1.455-5.281.763-16.258-4.876-11.53-5.924-22.809-12.334-34.259-18.416q-31.242-16.595-62.544-33.076A11.882,11.882,0,0,1,1713.424-437.865Z" transform="translate(-882.694 8938.619)" fill="#f26a2d"/>
      <path id="路径_6112" data-name="路径 6112" d="M2261.428-437.864l7.287-.013c9.946,5.391,19.855,10.852,29.845,16.159q38.831,20.624,77.715,41.147a12.667,12.667,0,0,1,1.4,1.109c-3.943.384-7.194.306-10.423-1.57-6.361-3.7-12.847-7.185-19.348-10.633-21.211-11.25-42.47-22.409-63.673-33.676C2276.573-429.41,2269.026-433.684,2261.428-437.864Z" transform="translate(-943.11 8938.619)" fill="#f26a2d"/>
      <path id="路径_6113" data-name="路径 6113" d="M2231.424-437.865l7.291-.012c7.033,4.878,14.871,8.323,22.368,12.352,26.1,14.028,52.348,27.775,78.524,41.657,2.31,1.224,4.507,2.658,6.859,4.054-5.639,1.455-5.28.764-16.258-4.876-11.53-5.923-22.809-12.334-34.259-18.416q-31.243-16.595-62.544-33.076A11.869,11.869,0,0,1,2231.424-437.865Z" transform="translate(-939.803 8938.619)" fill="#f26a2d"/>
      <path id="路径_6114" data-name="路径 6114" d="M1377.428-437.864l8.177-.013c6.285,4.684,13.543,7.657,20.369,11.361,21.1,11.449,42.424,22.5,63.635,33.756,7.912,4.2,15.752,8.534,24.029,13.026a10.953,10.953,0,0,1-8.567-.883q-41.316-22.053-82.678-44.019Q1389.92-431.268,1377.428-437.864Z" transform="translate(-845.651 8938.619)" fill="#f26a2d"/>
      <path id="路径_6115" data-name="路径 6115" d="M2200.428-437.864l7.287-.013c5.4,2.964,10.762,5.994,16.2,8.881q39.23,20.816,78.491,41.577c4.646,2.463,9.238,5.025,14.563,7.928-4.241.413-7.466.279-10.722-1.539-10.8-6.029-21.691-11.883-32.592-17.721Q2237.064-418.347,2200.428-437.864Z" transform="translate(-936.385 8938.619)" fill="#f26a2d"/>
      <path id="路径_6116" data-name="路径 6116" d="M1469.428-437.864l7.287-.013c8.493,4.683,16.929,9.472,25.49,14.026,21.211,11.281,42.567,22.294,63.672,33.769,6.17,3.354,12.82,5.905,18.656,10.233-5.512,1.035-5.875.819-12.766-2.966-11.491-6.311-23.074-12.457-34.614-18.678C1514.6-413.654,1491.687-425.153,1469.428-437.864Z" transform="translate(-855.794 8938.619)" fill="#f26a2d"/>
      <path id="路径_6117" data-name="路径 6117" d="M1499.428-437.864l8.176-.013c5.233,4.436,11.725,6.692,17.623,9.939,16.653,9.166,33.619,17.762,50.407,26.685,13.242,7.038,26.4,14.227,40.05,21.592a13.33,13.33,0,0,1-9.8-1.431c-16.585-8.99-33.342-17.664-49.994-26.531Q1527.621-422.675,1499.428-437.864Z" transform="translate(-859.102 8938.619)" fill="#f26a2d"/>
      <path id="路径_6118" data-name="路径 6118" d="M1073.428-437.864l7.287-.013c7.968,4.411,15.874,8.936,23.915,13.209,21.735,11.553,43.606,22.853,65.248,34.576,6.176,3.345,12.789,5.965,18.694,10.44-6,1.715-10.238-2-14.756-4.229-6.2-3.063-12.126-6.67-18.237-9.914q-39.054-20.731-78.139-41.4A47.088,47.088,0,0,1,1073.428-437.864Z" transform="translate(-812.137 8938.619)" fill="#f26a2d"/>
      <path id="路径_6119" data-name="路径 6119" d="M2109.428-437.864l7.287-.013c7.832,4.353,15.6,8.833,23.508,13.034q39.44,20.946,78.958,41.744c1.793.949,3.467,2.123,5.314,3.266-5.485,1.01-6.887.541-14.725-3.958-6-3.445-12.079-6.759-18.191-10q-39.052-20.731-78.138-41.4A46.948,46.948,0,0,1,2109.428-437.864Z" transform="translate(-926.353 8938.619)" fill="#f26a2d"/>
      <path id="路径_6120" data-name="路径 6120" d="M1347.428-437.864l7.287-.013c9.416,5.131,18.787,10.349,28.258,15.378q39.421,20.93,78.9,41.745c.245.129.4.415.925.97-2.888.823-5.417.867-7.942-.49q-30.349-16.313-60.713-32.6c-11.3-6.04-22.689-11.93-34.008-17.941C1355.86-433.087,1351.662-435.509,1347.428-437.864Z" transform="translate(-842.344 8938.619)" fill="#f26a2d"/>
      <path id="路径_6121" data-name="路径 6121" d="M1316.428-437.864l8.177-.013c6.685,4.881,14.323,8.075,21.549,11.97,25.8,13.91,51.786,27.483,77.687,41.211,2.838,1.5,5.586,3.183,9.041,5.161-3.338.412-5.86.509-8.423-.863q-40.514-21.68-81.078-43.263C1334.417-428.434,1325.413-433.132,1316.428-437.864Z" transform="translate(-838.927 8938.619)" fill="#f26a2d"/>
      <path id="路径_6122" data-name="路径 6122" d="M1621.428-437.863l8.172-.012c4.786,4.271,10.866,6.353,16.37,9.336,25.658,13.909,51.543,27.4,77.336,41.059,4.665,2.471,9.277,5.042,14.356,7.808-4.45.985-7.748-.139-11.347-2.178-10.513-5.957-21.338-11.359-32-17.049Q1657.852-418.347,1621.428-437.863Z" transform="translate(-872.552 8938.619)" fill="#f26a2d"/>
      <path id="路径_6123" data-name="路径 6123" d="M1804.428-437.864l7.287-.013c10.339,5.6,20.643,11.258,31.024,16.776q38.044,20.221,76.138,40.345c.244.13.4.416.924.97-2.887.824-5.416.868-7.941-.489q-30.348-16.313-60.711-32.6c-10.261-5.488-20.593-10.84-30.864-16.308C1814.966-432.015,1809.711-434.967,1804.428-437.864Z" transform="translate(-892.727 8938.619)" fill="#f26a2d"/>
      <path id="路径_6124" data-name="路径 6124" d="M1225.428-437.864l7.287-.013c9.814,5.325,19.589,10.723,29.45,15.96q39.027,20.725,78.109,41.346a12.686,12.686,0,0,1,1.4,1.109c-3.943.384-7.19.3-10.424-1.569-6.5-3.749-13.134-7.269-19.763-10.789q-38.443-20.413-76.909-40.78C1231.472-434.251,1228.475-436.1,1225.428-437.864Z" transform="translate(-828.894 8938.619)" fill="#f26a2d"/>
      <path id="路径_6125" data-name="路径 6125" d="M1195.424-437.865l7.291-.012c7.033,4.879,14.87,8.323,22.368,12.352,26.1,14.028,52.348,27.775,78.524,41.656,2.309,1.225,4.508,2.658,6.859,4.055-5.638,1.456-5.281.763-16.258-4.876-11.53-5.924-22.81-12.334-34.26-18.416q-31.241-16.595-62.543-33.076A11.842,11.842,0,0,1,1195.424-437.865Z" transform="translate(-825.586 8938.619)" fill="#f26a2d"/>
      <path id="路径_6126" data-name="路径 6126" d="M2078.428-437.863l8.172-.012c5.1,4.321,11.4,6.588,17.173,9.7,26.077,14.071,52.331,27.81,78.51,41.694,4.011,2.127,7.955,4.382,12.353,6.813-4.423.981-7.728-.126-11.32-2.184-9.843-5.64-20-10.737-30.015-16.076Q2115.859-417.883,2078.428-437.863Z" transform="translate(-922.936 8938.619)" fill="#f26a2d"/>
      <path id="路径_6127" data-name="路径 6127" d="M1042.428-437.863l8.172-.012c.462,1.5,1.923,1.761,3.054,2.36q39.478,20.894,78.977,41.749c8.57,4.541,17.064,9.227,26.046,14.092-4.464.989-7.769-.117-11.361-2.175-9.843-5.64-20-10.737-30.014-16.076Q1079.859-417.883,1042.428-437.863Z" transform="translate(-808.719 8938.619)" fill="#f26a2d"/>
      <path id="路径_6128" data-name="路径 6128" d="M1926.428-437.864l7.287-.013c9.156,5,18.267,10.1,27.479,15q38.451,20.452,76.963,40.79c1.142.606,2.17,1.425,3.494,2.308-5.219,1.854-8.991-1.062-12.85-3.1-11.6-6.113-23.1-12.4-34.65-18.612Q1960.295-419.686,1926.428-437.864Z" transform="translate(-906.178 8938.619)" fill="#f26a2d"/>
      <path id="路径_6129" data-name="路径 6129" d="M1682.428-437.864l7.287-.013c5.785,3.183,11.529,6.444,17.363,9.534,21.216,11.239,42.477,22.4,63.691,33.639,9.2,4.876,18.326,9.889,28.18,15.215-4.218.411-7.444.278-10.7-1.541-10.8-6.029-21.69-11.883-32.592-17.721Q1719.064-418.347,1682.428-437.864Z" transform="translate(-879.277 8938.619)" fill="#f26a2d"/>
      <path id="路径_6130" data-name="路径 6130" d="M920.428-437.864l8.176-.013c5.74,4.75,12.808,7.161,19.216,10.716,15.976,8.865,32.282,17.132,48.419,25.71,13.371,7.108,26.688,14.319,40.552,21.765a13.391,13.391,0,0,1-9.908-1.408c-16.586-8.989-33.343-17.663-50-26.53Q948.621-422.675,920.428-437.864Z" transform="translate(-795.269 8938.619)" fill="#f26a2d"/>
      <path id="路径_6131" data-name="路径 6131" d="M1956.428-437.864l8.177-.013c5.232,4.436,11.724,6.692,17.622,9.939,16.653,9.166,33.616,17.768,50.408,26.683,13.246,7.031,26.42,14.2,40.138,21.577a13.408,13.408,0,0,1-9.891-1.413c-16.586-8.99-33.343-17.664-50-26.531Q1984.621-422.675,1956.428-437.864Z" transform="translate(-909.484 8938.619)" fill="#f26a2d"/>
      <path id="路径_6132" data-name="路径 6132" d="M903.916-434.741l103.67,55.212c-5.733,1.87-9.545-.982-13.437-3.041-10.941-5.788-21.76-11.809-32.679-17.639q-27.894-14.9-55.868-29.639C903.657-430.874,903.109-432.158,903.916-434.741Z" transform="translate(-793.408 8938.273)" fill="#f26a2d"/>
      <path id="路径_6133" data-name="路径 6133" d="M2292.424-437.865l7.291-.012c6.63,4.694,14.1,7.894,21.189,11.761,16.7,9.11,33.643,17.765,50.453,26.671,6.249,3.311,12.37,6.864,18.613,10.185,1.708.908,2.862,2.2,1.867,3.806-1.017,1.647-2.33-.138-3.33-.669-10.67-5.673-21.271-11.479-31.942-17.147q-31.057-16.495-62.157-32.911A11.937,11.937,0,0,1,2292.424-437.865Z" transform="translate(-946.527 8938.619)" fill="#f26a2d"/>
      <path id="路径_6134" data-name="路径 6134" d="M980.933-377.286c-8.633,1.239-14.216-3.941-20.392-6.989-10.56-5.21-20.742-11.18-31.131-16.741-7.15-3.827-14.384-7.5-21.573-11.252-.78-.408-1.512-.908-2.256-1.381-1.27-.806-2.85-1.774-1.846-3.427,1.08-1.778,2.409.036,3.363.528q17.494,9.013,34.877,18.241C954.706-391.523,967.369-384.612,980.933-377.286Z" transform="translate(-793.394 8936.41)" fill="#f26a2d"/>
      <path id="路径_6135" data-name="路径 6135" d="M2322.428-437.864l7.287-.013c9.685,5.278,19.334,10.623,29.065,15.815q16.976,9.059,34.083,17.875c2.142,1.107,3.255,2.35,2.04,5.346Z" transform="translate(-949.836 8938.619)" fill="#f26a2d"/>
      <path id="路径_6136" data-name="路径 6136" d="M954.061-375.766c-4.617.825-7.494.376-10.381-1.2-12.535-6.832-25.139-13.535-37.749-20.229-1.586-.842-3.121-1.889-2.223-3.675,1.1-2.184,2.563-.106,3.582.426,14.873,7.772,29.692,15.647,44.523,23.5C952.2-376.737,952.589-376.536,954.061-375.766Z" transform="translate(-793.396 8934.646)" fill="#f26a2d"/>
      <path id="路径_6137" data-name="路径 6137" d="M2352.428-437.864l8.177-.013c8.755,5.694,18.217,10.1,27.406,15,2.982,1.59,5.878,3.349,8.907,4.839,2.114,1.04,2.109,2.543,1.424,4.708Z" transform="translate(-953.143 8938.619)" fill="#f26a2d"/>
      <path id="路径_6138" data-name="路径 6138" d="M926.012-374.252c-8.755,1.021-15.037-4.126-21.779-8.047a2.051,2.051,0,0,1-.495-2.829c.949-1.481,1.68.052,2.471.468Q916.111-379.458,926.012-374.252Z" transform="translate(-793.391 8932.873)" fill="#f26a2d"/>
      <path id="路径_6139" data-name="路径 6139" d="M2383.428-437.864l7.287-.013c3.083,1.683,6.122,3.453,9.267,5.011,1.733.859,2.865,2.168,1.9,3.8-1,1.7-2.385-.087-3.359-.593C2393.44-432.293,2388.451-435.11,2383.428-437.864Z" transform="translate(-956.561 8938.619)" fill="#f26a2d"/>
      <path id="路径_10516" data-name="路径 10516" d="M1530.428-437.864l7.287-.013c8.362,4.613,16.664,9.337,25.1,13.819q38.65,20.547,77.369,40.959c1.791.949,3.464,2.122,5.314,3.266-5.484,1.012-6.84.473-14.728-3.945-10.665-5.975-21.432-11.772-32.218-17.525C1575.809-413.431,1552.826-425.1,1530.428-437.864Z" transform="translate(-862.52 8938.619)" fill="#f26a2d"/>
    </g>
    <rect id="矩形_390" data-name="矩形 390" width="1331.5" height="2" transform="translate(290 3423.174)" fill="#a31c44"/>
    <rect id="矩形_398" data-name="矩形 398" width="465.738" height="63" transform="translate(318.262 3528.147)" fill="#f26a2d"/>
    <text id="_2019年高鐵運量成長比例" data-name="2019年高鐵運量成長比例" transform="translate(357.262 3573.507)" fill="#fff" font-size="34" font-family="MicrosoftJhengHeiBold, Microsoft JhengHei"><tspan x="0" y="0">2019年高鐵運量成長比例</tspan></text>
    <rect id="矩形_408" data-name="矩形 408" width="536" height="63" transform="translate(286.262 2902.809)" fill="#f26a2d"/>
    <text id="公路公共運輸運量成長比例" transform="translate(359.262 2948.809)" fill="#fff" font-size="34" font-family="MicrosoftJhengHeiBold, Microsoft JhengHei"><tspan x="0" y="0">公路公共運輸運量成長比例</tspan></text>
    <text id="_2019年" data-name="2019年" transform="translate(479.262 2888.809)" fill="#f26a2d" font-size="46" font-family="SegoeUI-Bold, Segoe UI" font-weight="700"><tspan x="0" y="0">2019</tspan><tspan y="0" font-family="YuGothicUI-Bold, Yu Gothic UI">年</tspan></text>
    <line id="直线_12" data-name="直线 12" x2="179" transform="translate(286.762 2868.309)" fill="none" stroke="#f26a2d" stroke-width="4"/>
    <line id="直线_13" data-name="直线 13" x2="180" transform="translate(642.262 2868.309)" fill="none" stroke="#f26a2d" stroke-width="4"/>
    <line id="直线_14" data-name="直线 14" x2="179" transform="translate(286.762 2878.309)" fill="none" stroke="#f26a2d" stroke-width="4"/>
    <line id="直线_15" data-name="直线 15" x2="180" transform="translate(642.262 2878.309)" fill="none" stroke="#f26a2d" stroke-width="4"/>
    <path id="路径_10197" data-name="路径 10197" d="M262.779,378.657a.15.15,0,1,1-.15-.149A.149.149,0,0,1,262.779,378.657Z" transform="translate(712.947 3455.398)" fill="#4e4f4f" opacity="0.6" style="mix-blend-mode: multiply;isolation: isolate"/>
    <path id="路径_10199" data-name="路径 10199" d="M269.825,378.657a.149.149,0,1,1-.149-.149A.149.149,0,0,1,269.825,378.657Z" transform="translate(709.779 3455.398)" fill="#4e4f4f" opacity="0.6" style="mix-blend-mode: multiply;isolation: isolate"/>
    <path id="路径_10437" data-name="路径 10437" d="M192.246,389.323c0,1.122-3.818,2.03-8.527,2.03s-8.527-.909-8.527-2.03,3.818-2.03,8.527-2.03S192.246,388.2,192.246,389.323Z" transform="translate(752.194 3451.447)" fill="#a1c33c" opacity="0.4" style="mix-blend-mode: multiply;isolation: isolate"/>
    <path id="路径_10445" data-name="路径 10445" d="M190.887,388.676c.009,0,.022-.023.014-.023S190.878,388.676,190.887,388.676Z" transform="translate(745.139 3450.836)" fill="#b95a2e"/>
    <path id="路径_10446" data-name="路径 10446" d="M190.514,385.133c-.007-.043-.068.024-.068.048a21.7,21.7,0,0,0,.12,3.114c.007.048.075-.028.075-.055A18.956,18.956,0,0,0,190.514,385.133Z" transform="translate(745.336 3452.425)" fill="#b95a2e"/>
    <path id="路径_10448" data-name="路径 10448" d="M191.771,390.123c-.227-.279-.741-.146-1.016-.018a1.433,1.433,0,0,0-.134.073c-.43.324.236-.226.48-.32a.186.186,0,0,0,.1-.1,1.15,1.15,0,0,0-.692.031l-.01,0a1.879,1.879,0,0,0-.367.292,2.585,2.585,0,0,1,.119-.31.727.727,0,0,1,.057-.1.106.106,0,0,1,.054-.108.143.143,0,0,0,0-.014,1.867,1.867,0,0,0-.607.35,1.145,1.145,0,0,0-.134.3.768.768,0,0,0-1.012-.176c-.02.012-.113.108-.053.123a1.942,1.942,0,0,1,.525.148.869.869,0,0,0-.823.26.194.194,0,0,0-.018.028.851.851,0,0,1,.647-.034,1.1,1.1,0,0,1,.488.313l0,.007h1.227a1.332,1.332,0,0,1,.78-.68,1.883,1.883,0,0,1,.386-.063Z" transform="translate(746.328 3450.433)" fill="#3f7d25"/>
    <circle id="椭圆_71" data-name="椭圆 71" cx="162.5" cy="162.5" r="162.5" transform="translate(1273.214 2871.309)" fill="#f26a2d" opacity="0.12"/>
    <path id="路径_6190" data-name="路径 6190" d="M1545.733,1455.1H217.25c-.83,0-1.509-.442-1.509-.981v-.335c0-.54.679-.981,1.509-.981H1545.733c.83,0,1.509.442,1.509.981v.335C1547.241,1454.658,1546.562,1455.1,1545.733,1455.1Z" transform="translate(74.259 2456.169)" fill="#a31c44"/>
    <g id="组_9763" data-name="组 9763" transform="translate(30.1 -136.629)">
      <text id="_2.0" data-name="2.0" transform="translate(685 3397.263)" fill="#f26a2d" font-size="152" font-family="GenYoGothicTW-B, GenYoGothic TW"><tspan x="0" y="0">2.0</tspan></text>
      <text id="_" data-name="%" transform="translate(912.349 3343.263)" fill="#707070" font-size="46" font-family="SegoeUI-Bold, Segoe UI" font-weight="700"><tspan x="0" y="50">%</tspan></text>
      <text id="_達12.38億人次_" data-name="（達12.38億人次）" transform="translate(692.9 3443.829)" fill="#707070" font-size="24" font-family="MicrosoftJhengHeiBold, Microsoft JhengHei"><tspan x="0" y="0">（達12.38億人次）</tspan></text>
    </g>
    <circle id="椭圆_86" data-name="椭圆 86" cx="169.369" cy="169.369" r="169.369" transform="translate(657 3026.939)" fill="#f26a2d" opacity="0.12"/>
    <g id="组_9762" data-name="组 9762" transform="translate(267.404 2960.841)">
      <g id="组_9730" data-name="组 9730" transform="translate(25.157 28.468)">
        <path id="路径_10874" data-name="路径 10874" d="M118.345,367.506S422.17,198.515,439.92,188.861c9.714-5.283,9.253-12.831,0-17.814-20.8-11.2-205.975-109.638-205.975-109.638l31.382-14.558L136.285,25.063l17.881,77.169L199.54,78.9l175.3,100S48.483,348.021,29.109,358.446c-11.216,6.036-11.263,16.957-1.234,22.546,24.2,13.483,129.471,79.936,129.471,79.936H316.489Z" transform="translate(-20.518 -25.063)" fill="#919191"/>
      </g>
      <g id="组_9761" data-name="组 9761" transform="translate(90.402 71.503)">
        <g id="组_9733" data-name="组 9733" transform="translate(59.804 205.71)">
          <path id="路径_10917" data-name="路径 10917" d="M150.031,138.815,103.4,163.778,80.081,151.527l47.612-24.2Z" transform="translate(-80.081 -101.689)" fill="#969696" style="mix-blend-mode: multiply;isolation: isolate"/>
          <path id="路径_10918" data-name="路径 10918" d="M150.031,134.423l-23.314-13.056L89.491,142.291l-9.411,9.266L103.4,164.29l9.6-9.315Z" transform="translate(-80.081 -114.84)" fill="#aa1d1d"/>
          <path id="路径_10919" data-name="路径 10919" d="M130.215,132.388,106.9,119.331l-22.1,12.918L108.1,144.981Z" transform="translate(-69.69 -119.331)" fill="#cc2323"/>
          <path id="路径_10920" data-name="路径 10920" d="M80.081,138.4l23.319,12.74v-7.625L80.081,130.785Z" transform="translate(-80.081 -94.069)" fill="#631111"/>
          <g id="组_9731" data-name="组 9731" transform="translate(27.426 44.868)">
            <path id="路径_10921" data-name="路径 10921" d="M90.185,135.776c-1.894,2.34-2.077,5.353-.4,6.706.414.337,3.657,2.17,3.657,2.17a48.12,48.12,0,0,1,2.808-3.962,49.45,49.45,0,0,0,3.375-4.939s-2.76-1.59-2.968-1.76C94.98,132.631,92.08,133.433,90.185,135.776Z" transform="translate(-88.637 -133.329)" fill="#141414"/>
            <path id="路径_10922" data-name="路径 10922" d="M91.116,136.332c-1.9,2.34-2.08,5.343-.41,6.7s4.577.551,6.472-1.795,2.083-5.347.407-6.7S93.013,133.976,91.116,136.332Z" transform="translate(-86.596 -132.119)" fill="#2b2b2b"/>
            <path id="路径_10923" data-name="路径 10923" d="M90.906,136.011c1.667-2.064,4.215-2.773,5.693-1.571.109.09.144.237.24.34-1.5-.753-3.689-.077-5.189,1.789-1.545,1.91-1.731,4.263-.6,5.548a1.492,1.492,0,0,1-.5-.221C89.082,140.719,89.242,138.078,90.906,136.011Z" transform="translate(-86.633 -132.169)" fill="#454545"/>
          </g>
          <g id="组_9732" data-name="组 9732" transform="translate(52.971 30.461)">
            <path id="路径_10924" data-name="路径 10924" d="M98.156,131.29c-1.894,2.34-2.08,5.343-.4,6.7.42.337,3.661,2.17,3.661,2.17s1.385-2.2,2.8-3.962a49.125,49.125,0,0,0,3.378-4.939s-2.76-1.587-2.968-1.76C102.952,128.135,100.054,128.937,98.156,131.29Z" transform="translate(-96.606 -128.834)" fill="#141414"/>
            <path id="路径_10925" data-name="路径 10925" d="M99.083,131.834c-1.9,2.343-2.077,5.346-.407,6.7s4.577.558,6.472-1.789,2.083-5.346.407-6.7S100.984,129.488,99.083,131.834Z" transform="translate(-94.564 -127.622)" fill="#2b2b2b"/>
            <path id="路径_10926" data-name="路径 10926" d="M98.875,131.516c1.667-2.064,4.215-2.769,5.693-1.571.109.09.144.237.244.337-1.5-.744-3.689-.074-5.2,1.792-1.539,1.91-1.728,4.263-.593,5.555a1.881,1.881,0,0,1-.5-.221C97.051,136.221,97.212,133.583,98.875,131.516Z" transform="translate(-94.601 -127.672)" fill="#454545"/>
          </g>
          <path id="路径_10927" data-name="路径 10927" d="M133.989,129.93v11.6l-3.827,2.122a4.053,4.053,0,0,0-1.244-1.792c-2.279-1.846-6.215-.753-8.8,2.439a8.387,8.387,0,0,0-1.965,6.026L104.6,157.842a4.043,4.043,0,0,0-1.224-1.734c-2.276-1.846-6.215-.756-8.805,2.436a8.406,8.406,0,0,0-1.968,5.965l-5.244,2.914V159.8l9.606-9.315L102.452,136l22.11-12.594,4.584,9.215Z" transform="translate(-64.038 -110.347)" fill="#7c1515"/>
          <path id="路径_10928" data-name="路径 10928" d="M106.535,150.577l5.492-14.484L88.715,123.361l-5.7,14.538Z" transform="translate(-73.613 -110.443)" fill="#891717"/>
          <path id="路径_10929" data-name="路径 10929" d="M104.562,147.173l4.5-11.857L88.247,123.961l-4.666,11.9Z" transform="translate(-72.36 -109.118)" fill="#6878a1"/>
          <path id="路径_10930" data-name="路径 10930" d="M95.354,143.935l-1.892-15.374-7.872-4.3,1.664,15.307Z" transform="translate(-67.932 -108.456)" fill="#7c8fbf"/>
          <path id="路径_10931" data-name="路径 10931" d="M91.245,143.546,95.4,130.822l8.258-4.673.368,9.522Z" transform="translate(-55.46 -104.295)" fill="#515d7d"/>
          <path id="路径_10932" data-name="路径 10932" d="M92.526,140.1l3.363-12.064,2.6-1.471v9.873Z" transform="translate(-52.634 -103.382)" fill="#6878a1"/>
          <path id="路径_10933" data-name="路径 10933" d="M96.391,138.316l-.479-9.234,8.783-4.821,3.285,7.531Z" transform="translate(-45.167 -108.456)" fill="#515d7d"/>
          <path id="路径_10934" data-name="路径 10934" d="M97.117,135.861,98.23,125.8l2.363-1.291,1.446,8.58Z" transform="translate(-42.51 -107.907)" fill="#6878a1"/>
          <path id="路径_10935" data-name="路径 10935" d="M94.935,132.234l1.909-1.274v-1.271l-1.909,1.271Z" transform="translate(-47.322 -96.486)" fill="#080608"/>
          <path id="路径_10936" data-name="路径 10936" d="M89.675,136.024l-3.371-1.84v2.542l3.371,1.916Z" transform="translate(-66.357 -86.575)" fill="#d49d26"/>
          <path id="路径_10937" data-name="路径 10937" d="M80.081,130.785v2.535l3.155,1.859v-2.655Z" transform="translate(-80.081 -94.069)" fill="#d49d26"/>
          <path id="路径_10938" data-name="路径 10938" d="M102.689,125.815l-1.141.636v1.9l1.141-.485Z" transform="translate(-32.738 -105.029)" fill="#d49d26"/>
        </g>
        <g id="组_9736" data-name="组 9736" transform="translate(0 285.799)">
          <path id="路径_10939" data-name="路径 10939" d="M54.089,202.056l74.57,39.914,37.289-19.59-76.137-38.7Z" transform="translate(-54.088 -142.685)" fill="#969696" style="mix-blend-mode: multiply;isolation: isolate"/>
          <path id="路径_10940" data-name="路径 10940" d="M54.089,196.753,91.37,175.875,150.9,209.331l15.048,14.817L128.659,244.51l-15.358-14.9Z" transform="translate(-54.088 -165.438)" fill="#e6e6e6"/>
          <path id="路径_10941" data-name="路径 10941" d="M57.941,194.086,95.23,173.208l35.346,20.657L93.3,214.227Z" transform="translate(-42.865 -173.208)" fill="#fff"/>
          <path id="路径_10942" data-name="路径 10942" d="M110.433,200.393,73.144,220.767v-12.2l37.289-20.362Z" transform="translate(1.427 -129.5)" fill="#b3b3b3"/>
          <g id="组_9734" data-name="组 9734" transform="translate(48.6 71.747)">
            <path id="路径_10943" data-name="路径 10943" d="M82.07,195.453c3.029,3.745,3.323,8.559.642,10.719-.665.544-5.851,3.475-5.851,3.475a77.251,77.251,0,0,0-4.489-6.336,78.787,78.787,0,0,1-5.4-7.9s4.414-2.54,4.747-2.814C74.4,190.429,79.037,191.708,82.07,195.453Z" transform="translate(-65.143 -191.541)" fill="#141414"/>
            <path id="路径_10944" data-name="路径 10944" d="M78.684,196.185c3.041,3.741,3.326,8.547.654,10.719-2.689,2.152-7.314.884-10.343-2.872s-3.334-8.551-.654-10.715S75.647,192.42,78.684,196.185Z" transform="translate(-66.507 -189.448)" fill="#2b2b2b"/>
            <path id="路径_10945" data-name="路径 10945" d="M76.781,195.677c-2.665-3.3-6.735-4.434-9.1-2.508-.176.137-.231.376-.387.536,2.4-1.2,5.9-.117,8.3,2.865,2.469,3.053,2.767,6.817.955,8.868a2.367,2.367,0,0,0,.794-.348C79.7,203.207,79.446,198.984,76.781,195.677Z" transform="translate(-64.213 -189.535)" fill="#454545"/>
          </g>
          <g id="组_9735" data-name="组 9735" transform="translate(7.747 48.712)">
            <path id="路径_10946" data-name="路径 10946" d="M71.635,189.575c3.025,3.745,3.323,8.551.642,10.715-.669.536-5.855,3.471-5.855,3.471a76.71,76.71,0,0,0-4.485-6.336,79.041,79.041,0,0,1-5.4-7.9s4.414-2.536,4.747-2.814C63.965,184.539,68.6,185.822,71.635,189.575Z" transform="translate(-54.704 -185.655)" fill="#141414"/>
            <path id="路径_10947" data-name="路径 10947" d="M68.249,190.293c3.037,3.745,3.326,8.547.654,10.711-2.689,2.172-7.322.892-10.347-2.861-3.041-3.745-3.334-8.551-.654-10.711S65.208,186.54,68.249,190.293Z" transform="translate(-56.069 -183.559)" fill="#2b2b2b"/>
            <path id="路径_10948" data-name="路径 10948" d="M66.342,189.793c-2.665-3.307-6.735-4.426-9.1-2.516-.176.149-.231.384-.387.544,2.4-1.194,5.9-.125,8.3,2.861,2.462,3.052,2.767,6.817.951,8.88a2.838,2.838,0,0,0,.794-.348C69.262,197.314,69.007,193.092,66.342,189.793Z" transform="translate(-53.774 -183.646)" fill="#454545"/>
          </g>
          <path id="路径_10949" data-name="路径 10949" d="M54.089,188.98v18.542l6.121,3.393a6.464,6.464,0,0,1,1.988-2.861c3.643-2.951,9.94-1.2,14.077,3.906a13.374,13.374,0,0,1,3.139,9.631l21.677,12.022a6.531,6.531,0,0,1,1.957-2.775c3.643-2.951,9.94-1.209,14.081,3.894a13.462,13.462,0,0,1,3.15,9.545l8.383,4.653V236.736l-15.356-14.9-8.782-23.152L69.164,178.543l-7.326,14.738Z" transform="translate(-54.089 -157.665)" fill="#c5c4c4"/>
          <path id="路径_10950" data-name="路径 10950" d="M75.758,222l-8.782-23.156,37.279-20.363,9.118,23.248Z" transform="translate(-16.544 -157.83)" fill="#cecdcd"/>
          <path id="路径_10951" data-name="路径 10951" d="M74.867,216.39l-7.191-18.964,33.28-18.153,7.46,19.025Z" transform="translate(-14.501 -155.537)" fill="#6878a1"/>
          <path id="路径_10952" data-name="路径 10952" d="M71.467,211.131l3.025-24.586,12.589-6.879-2.66,24.478Z" transform="translate(-3.458 -154.393)" fill="#7c8fbf"/>
          <path id="路径_10953" data-name="路径 10953" d="M83.268,209.959,76.62,189.616l-13.2-7.479-.589,15.23Z" transform="translate(-28.631 -147.194)" fill="#515d7d"/>
          <path id="路径_10954" data-name="路径 10954" d="M73.467,204.322,68.088,185.03l-4.151-2.35v15.788Z" transform="translate(-25.397 -145.612)" fill="#6878a1"/>
          <path id="路径_10955" data-name="路径 10955" d="M75.539,202.142l.766-14.768L62.26,179.666l-5.255,12.043Z" transform="translate(-45.592 -154.393)" fill="#515d7d"/>
          <path id="路径_10956" data-name="路径 10956" d="M66.219,198.143l-1.781-16.086-3.778-2.064-2.312,13.716Z" transform="translate(-41.68 -153.439)" fill="#6878a1"/>
          <path id="路径_10957" data-name="路径 10957" d="M65.491,190.849,62.437,188.8v-2.029l3.054,2.029Z" transform="translate(-29.767 -133.68)" fill="#080608"/>
          <path id="路径_10958" data-name="路径 10958" d="M73.144,195.6l5.391-2.943v4.066l-5.391,3.061Z" transform="translate(1.427 -116.532)" fill="#d49d26"/>
          <path id="路径_10959" data-name="路径 10959" d="M86.428,188.21v4.055l-5.045,2.974v-4.246Z" transform="translate(25.432 -129.5)" fill="#d49d26"/>
          <path id="路径_10960" data-name="路径 10960" d="M54.089,181.7l1.825,1.013v3.042l-1.825-.78Z" transform="translate(-54.088 -148.461)" fill="#d49d26"/>
        </g>
        <g id="组_9742" data-name="组 9742" transform="translate(175.974 139.62)">
          <path id="路径_10983" data-name="路径 10983" d="M185.462,118.275,140.677,142.25l-22.393-11.771,45.725-23.234Z" transform="translate(-118.283 -82.622)" fill="#969696" style="mix-blend-mode: multiply;isolation: isolate"/>
          <path id="路径_10984" data-name="路径 10984" d="M185.462,113.707,163.07,101.168l-35.75,20.1-9.037,8.9,22.393,12.228,9.224-8.948Z" transform="translate(-118.283 -94.9)" fill="#c47622"/>
          <path id="路径_10985" data-name="路径 10985" d="M166.7,111.63,144.313,99.092l-21.228,12.4,22.4,12.23Z" transform="translate(-108.584 -99.092)" fill="#e68a28"/>
          <path id="路径_10986" data-name="路径 10986" d="M118.283,118.085l22.393,12.228V123l-22.393-12.228Z" transform="translate(-118.283 -75.506)" fill="#7d4b16"/>
          <g id="组_9740" data-name="组 9740" transform="translate(26.339 43.086)">
            <path id="路径_10987" data-name="路径 10987" d="M128.5,115.713c-1.824,2.25-2,5.134-.393,6.433.4.326,3.515,2.09,3.515,2.09s1.329-2.117,2.691-3.811a47.153,47.153,0,0,0,3.253-4.742s-2.658-1.522-2.857-1.691C133.1,112.69,130.314,113.46,128.5,115.713Z" transform="translate(-127.004 -113.358)" fill="#141414"/>
            <path id="路径_10988" data-name="路径 10988" d="M129.437,116.274c-1.824,2.25-2,5.134-.393,6.436s4.4.532,6.219-1.722,2-5.134.4-6.436S131.261,114.018,129.437,116.274Z" transform="translate(-125.1 -112.228)" fill="#2b2b2b"/>
            <path id="路径_10989" data-name="路径 10989" d="M129.242,115.969c1.6-1.987,4.038-2.664,5.467-1.513.1.088.139.23.23.326-1.444-.719-3.549-.072-4.989,1.715-1.48,1.836-1.658,4.1-.571,5.334a1.584,1.584,0,0,1-.48-.211C127.484,120.484,127.635,117.947,129.242,115.969Z" transform="translate(-125.135 -112.274)" fill="#454545"/>
          </g>
          <g id="组_9741" data-name="组 9741" transform="translate(50.872 29.252)">
            <path id="路径_10990" data-name="路径 10990" d="M136.616,111.134c-1.818,2.247-2,5.134-.393,6.433.4.326,3.515,2.087,3.515,2.087a46.083,46.083,0,0,1,2.7-3.805,48.089,48.089,0,0,0,3.25-4.745s-2.658-1.522-2.854-1.691C141.221,108.108,138.434,108.878,136.616,111.134Z" transform="translate(-135.127 -108.778)" fill="#141414"/>
            <path id="路径_10991" data-name="路径 10991" d="M137.558,111.69c-1.821,2.25-1.993,5.134-.39,6.436s4.4.532,6.216-1.718,2-5.134.4-6.436C142.164,108.67,139.385,109.44,137.558,111.69Z" transform="translate(-133.222 -107.645)" fill="#2b2b2b"/>
            <path id="路径_10992" data-name="路径 10992" d="M137.365,111.387c1.6-1.981,4.044-2.664,5.467-1.51.1.085.136.23.23.323-1.444-.713-3.552-.073-4.986,1.721-1.483,1.833-1.664,4.092-.577,5.328a1.623,1.623,0,0,1-.474-.208C135.607,115.9,135.758,113.368,137.365,111.387Z" transform="translate(-133.258 -107.692)" fill="#454545"/>
          </g>
          <path id="路径_10993" data-name="路径 10993" d="M170.481,109.511v11.138l-3.676,2.045a3.9,3.9,0,0,0-1.193-1.725c-2.19-1.77-5.971-.725-8.457,2.344a8.059,8.059,0,0,0-1.885,5.781l-13.017,7.221a3.825,3.825,0,0,0-1.178-1.661c-2.187-1.776-5.971-.731-8.453,2.335a8.092,8.092,0,0,0-1.894,5.732l-5.032,2.791v-7.318l9.224-8.946,5.279-13.911,21.223-12.093,4.4,8.852Z" transform="translate(-103.304 -90.705)" fill="#965a1a"/>
          <path id="路径_10994" data-name="路径 10994" d="M143.863,129.337l5.279-13.908-22.4-12.23-5.474,13.965Z" transform="translate(-112.245 -90.796)" fill="#a3621c"/>
          <path id="路径_10995" data-name="路径 10995" d="M142,126.1l4.318-11.386L126.33,103.812l-4.479,11.43Z" transform="translate(-111.075 -89.559)" fill="#6878a1"/>
          <path id="路径_10996" data-name="路径 10996" d="M133.279,123.013l-1.817-14.766-7.565-4.129,1.6,14.7Z" transform="translate(-106.941 -88.939)" fill="#7c8fbf"/>
          <path id="路径_10997" data-name="路径 10997" d="M129.661,122.746l3.994-12.218,7.931-4.486.351,9.142Z" transform="translate(-95.298 -85.054)" fill="#515d7d"/>
          <path id="路径_10998" data-name="路径 10998" d="M130.968,119.462l3.229-11.588,2.489-1.41v9.476Z" transform="translate(-92.658 -84.2)" fill="#6878a1"/>
          <path id="路径_10999" data-name="路径 10999" d="M134.881,117.613l-.463-8.864,8.438-4.631,3.153,7.235Z" transform="translate(-85.688 -88.939)" fill="#515d7d"/>
          <path id="路径_11000" data-name="路径 11000" d="M135.645,115.271l1.074-9.656,2.274-1.243,1.383,8.242Z" transform="translate(-83.208 -88.427)" fill="#6878a1"/>
          <path id="路径_11001" data-name="路径 11001" d="M133.423,112.1l1.831-1.223v-1.224l-1.831,1.224Z" transform="translate(-87.698 -77.765)" fill="#080608"/>
          <path id="路径_11002" data-name="路径 11002" d="M127.864,116l-3.238-1.768v2.442l3.238,1.834Z" transform="translate(-105.471 -68.509)" fill="#d49d26"/>
          <path id="路径_11003" data-name="路径 11003" d="M118.283,110.768v2.43l3.029,1.789v-2.553Z" transform="translate(-118.283 -75.506)" fill="#d49d26"/>
          <path id="路径_11004" data-name="路径 11004" d="M141.262,105.7l-1.1.612v1.824l1.1-.468Z" transform="translate(-74.084 -85.74)" fill="#d49d26"/>
        </g>
        <g id="组_9745" data-name="组 9745" transform="translate(145.911)">
          <path id="路径_11005" data-name="路径 11005" d="M104.789,58.094,131.507,72.4l13.359-7.024L117.588,51.515Z" transform="translate(-104.789 -36.824)" fill="#969696" style="mix-blend-mode: multiply;isolation: isolate"/>
          <path id="路径_11006" data-name="路径 11006" d="M104.789,54.556l13.358-7.48,21.328,11.989,5.391,5.309-13.359,7.295L126,66.331Z" transform="translate(-104.789 -43.336)" fill="#9cbf21"/>
          <path id="路径_11007" data-name="路径 11007" d="M106.979,53.041l13.358-7.48L133,52.962l-13.361,7.3Z" transform="translate(-101.576 -45.56)" fill="#b8e127"/>
          <path id="路径_11008" data-name="路径 11008" d="M128.977,58.452l-13.359,7.3V61.382l13.359-7.295Z" transform="translate(-88.9 -33.049)" fill="#637815"/>
          <g id="组_9743" data-name="组 9743" transform="translate(17.411 25.705)">
            <path id="路径_11009" data-name="路径 11009" d="M117.519,57.383c1.091,1.342,1.194,3.064.234,3.839-.237.192-2.1,1.246-2.1,1.246A27.534,27.534,0,0,0,114.05,60.2a28.445,28.445,0,0,1-1.939-2.83s1.584-.908,1.7-1.009C114.773,55.58,116.436,56.039,117.519,57.383Z" transform="translate(-111.456 -55.979)" fill="#141414"/>
            <path id="路径_11010" data-name="路径 11010" d="M116.211,57.792c1.088,1.342,1.192,3.062.234,3.839s-2.623.318-3.711-1.026-1.192-3.064-.234-3.839S115.123,56.448,116.211,57.792Z" transform="translate(-111.846 -55.379)" fill="#2b2b2b"/>
            <path id="路径_11011" data-name="路径 11011" d="M115.69,57.608c-.952-1.184-2.408-1.589-3.259-.9-.062.054-.084.138-.138.195a2.958,2.958,0,0,1,3.319,4.207,1.055,1.055,0,0,0,.286-.126C116.742,60.3,116.65,58.787,115.69,57.608Z" transform="translate(-111.189 -55.404)" fill="#454545"/>
          </g>
          <g id="组_9744" data-name="组 9744" transform="translate(2.775 17.453)">
            <path id="路径_11012" data-name="路径 11012" d="M111.59,54.04c1.086,1.34,1.189,3.062.234,3.834-.239.195-2.1,1.248-2.1,1.248a27.207,27.207,0,0,0-1.609-2.272,28.441,28.441,0,0,1-1.939-2.83s1.584-.908,1.7-1.007C108.841,52.234,110.507,52.693,111.59,54.04Z" transform="translate(-105.524 -52.634)" fill="#141414"/>
            <path id="路径_11013" data-name="路径 11013" d="M110.279,54.447c1.086,1.342,1.189,3.064.234,3.839s-2.625.316-3.711-1.026-1.192-3.064-.234-3.839S109.191,53.1,110.279,54.447Z" transform="translate(-105.914 -52.034)" fill="#2b2b2b"/>
            <path id="路径_11014" data-name="路径 11014" d="M109.761,54.259c-.952-1.179-2.413-1.586-3.262-.9-.062.052-.081.136-.138.192a2.575,2.575,0,0,1,2.976,1.026,2.545,2.545,0,0,1,.343,3.18.978.978,0,0,0,.284-.126C110.81,56.956,110.718,55.444,109.761,54.259Z" transform="translate(-105.257 -52.059)" fill="#454545"/>
          </g>
          <path id="路径_11015" data-name="路径 11015" d="M104.789,52.332v6.645l2.193,1.219a2.321,2.321,0,0,1,.711-1.029c1.308-1.056,3.563-.432,5.046,1.4a4.8,4.8,0,0,1,1.125,3.449l7.767,4.308a2.285,2.285,0,0,1,.7-.992c1.305-1.058,3.56-.434,5.043,1.394a4.831,4.831,0,0,1,1.13,3.417l3,1.668V69.443L126,64.107l-3.148-8.3-12.662-7.217-2.625,5.283Z" transform="translate(-104.789 -41.112)" fill="#779119"/>
          <path id="路径_11016" data-name="路径 11016" d="M115.26,64.153l-3.149-8.3,13.361-7.3,3.266,8.331Z" transform="translate(-94.046 -41.159)" fill="#819e1b"/>
          <path id="路径_11017" data-name="路径 11017" d="M115.088,62.307l-2.577-6.794,11.925-6.507,2.672,6.82Z" transform="translate(-93.459 -40.504)" fill="#6878a1"/>
          <path id="路径_11018" data-name="路径 11018" d="M114.664,60.5l1.083-8.809,4.514-2.464L119.308,58Z" transform="translate(-90.299 -40.175)" fill="#7c8fbf"/>
          <path id="路径_11019" data-name="路径 11019" d="M117.079,60.6,114.7,53.312l-4.731-2.677-.209,5.454Z" transform="translate(-97.502 -38.114)" fill="#515d7d"/>
          <path id="路径_11020" data-name="路径 11020" d="M113.8,58.7l-1.926-6.914-1.484-.841V56.6Z" transform="translate(-96.575 -37.661)" fill="#6878a1"/>
          <path id="路径_11021" data-name="路径 11021" d="M113.085,57.282l.276-5.289-5.033-2.762-1.881,4.317Z" transform="translate(-102.356 -40.175)" fill="#515d7d"/>
          <path id="路径_11022" data-name="路径 11022" d="M110.032,55.918l-.641-5.76-1.357-.742-.825,4.917Z" transform="translate(-101.237 -39.903)" fill="#6878a1"/>
          <path id="路径_11023" data-name="路径 11023" d="M110.626,54.73,109.534,54v-.73l1.093.73Z" transform="translate(-97.827 -34.248)" fill="#080608"/>
          <path id="路径_11024" data-name="路径 11024" d="M115.618,57.671l1.932-1.056v1.458l-1.932,1.094Z" transform="translate(-88.9 -29.339)" fill="#d49d26"/>
          <path id="路径_11025" data-name="路径 11025" d="M122.107,54.087v1.449L120.3,56.6V55.081Z" transform="translate(-82.03 -33.049)" fill="#d49d26"/>
          <path id="路径_11026" data-name="路径 11026" d="M104.789,50.387l.657.365v1.089l-.657-.28Z" transform="translate(-104.789 -38.478)" fill="#d49d26"/>
        </g>
        <g id="组_9754" data-name="组 9754" transform="translate(241.463 51.322)">
          <path id="路径_11071" data-name="路径 11071" d="M130.725,68.182l43.7,23.391,21.852-11.486L151.659,57.416Z" transform="translate(-130.725 -38.157)" fill="#969696" style="mix-blend-mode: multiply;isolation: isolate"/>
          <path id="路径_11072" data-name="路径 11072" d="M130.725,64.975l21.852-12.229,34.879,19.6,8.818,5.09L174.421,89.371l-8.994-5.137Z" transform="translate(-130.725 -51.392)" fill="#6b6b6a"/>
          <path id="路径_11073" data-name="路径 11073" d="M135.112,64.623l21.845-12.231L176.63,63.515,154.785,75.447Z" transform="translate(-118.289 -52.393)" fill="#8d8d8c"/>
          <path id="路径_11074" data-name="路径 11074" d="M163.973,69.925,142.121,81.856V71.118l21.852-11.932Z" transform="translate(-98.424 -33.139)" fill="#242424"/>
          <g id="组_9752" data-name="组 9752" transform="translate(28.481 37.277)">
            <path id="路径_11075" data-name="路径 11075" d="M147.276,64.408c1.775,2.2,1.948,5.015.38,6.284-.395.318-3.436,2.032-3.436,2.032s-1.3-2.059-2.626-3.708a45.786,45.786,0,0,1-3.159-4.636s2.577-1.484,2.772-1.649C142.782,61.464,145.5,62.211,147.276,64.408Z" transform="translate(-137.356 -62.115)" fill="#141414"/>
            <path id="路径_11076" data-name="路径 11076" d="M145.285,64.841c1.779,2.2,1.948,5.015.383,6.284s-4.29.521-6.058-1.679c-1.783-2.2-1.955-5.015-.38-6.284S143.514,62.64,145.285,64.841Z" transform="translate(-138.153 -60.895)" fill="#2b2b2b"/>
            <path id="路径_11077" data-name="路径 11077" d="M144.184,64.545c-1.564-1.929-3.953-2.592-5.33-1.472-.107.084-.142.226-.23.318,1.407-.7,3.451-.065,4.866,1.676,1.442,1.791,1.622,4,.552,5.2a1.479,1.479,0,0,0,.472-.2C145.894,68.954,145.744,66.485,144.184,64.545Z" transform="translate(-136.817 -60.944)" fill="#454545"/>
          </g>
          <g id="组_9753" data-name="组 9753" transform="translate(4.537 23.78)">
            <path id="路径_11078" data-name="路径 11078" d="M141.044,60.889c1.775,2.2,1.948,5.015.38,6.284-.395.318-3.439,2.032-3.439,2.032s-1.3-2.059-2.626-3.712a47.017,47.017,0,0,1-3.171-4.632s2.6-1.484,2.791-1.653C136.55,57.944,139.261,58.692,141.044,60.889Z" transform="translate(-131.117 -58.595)" fill="#141414"/>
            <path id="路径_11079" data-name="路径 11079" d="M139.048,61.319c1.775,2.2,1.948,5.019.38,6.284s-4.283.521-6.062-1.676-1.952-5.015-.387-6.284C134.558,58.374,137.272,59.118,139.048,61.319Z" transform="translate(-131.908 -57.376)" fill="#2b2b2b"/>
            <path id="路径_11080" data-name="路径 11080" d="M137.94,61.028c-1.564-1.932-3.945-2.6-5.337-1.476-.1.084-.13.226-.222.318,1.407-.7,3.455-.065,4.862,1.676,1.449,1.794,1.626,4,.56,5.2a1.479,1.479,0,0,0,.472-.2C139.65,65.437,139.5,62.964,137.94,61.028Z" transform="translate(-130.57 -57.425)" fill="#454545"/>
          </g>
          <path id="路径_11081" data-name="路径 11081" d="M130.725,56.933V67.8L134.31,69.8a3.839,3.839,0,0,1,1.169-1.679c2.132-1.733,5.82-.705,8.244,2.285a7.834,7.834,0,0,1,1.848,5.64l12.7,7.047a3.842,3.842,0,0,1,1.15-1.622c2.136-1.733,5.824-.706,8.244,2.285a7.866,7.866,0,0,1,1.852,5.586l4.908,2.73V81.33l-4.283-2.442L167.219,66.4l-19.673-10.82-7.987,5.663Z" transform="translate(-130.723 -43.35)" fill="#3d3d3d"/>
          <path id="路径_11082" data-name="路径 11082" d="M143.238,79.708l-3.022-12.326,21.949-12.089,3.28,12.659Z" transform="translate(-103.824 -44.171)" fill="#4a4a49"/>
          <path id="路径_11083" data-name="路径 11083" d="M143.048,76.737,140.6,66.378,160.1,55.74l2.6,10.395Z" transform="translate(-102.748 -42.905)" fill="#6878a1"/>
          <path id="路径_11084" data-name="路径 11084" d="M142.4,72.836l1.771-12.547,7.38-4.025-1.561,12.48Z" transform="translate(-97.625 -41.421)" fill="#7c8fbf"/>
          <path id="路径_11085" data-name="路径 11085" d="M147.78,72.407,145.358,61.79l-7.552-4.381L138,66.655Z" transform="translate(-110.655 -38.176)" fill="#515d7d"/>
          <path id="路径_11086" data-name="路径 11086" d="M143.376,69.82l-1.059-9.8-4.164-2.415.813,9.668Z" transform="translate(-109.673 -37.604)" fill="#6878a1"/>
          <path id="路径_11087" data-name="路径 11087" d="M146.858,68.777l.446-8.652-7.388-4.083-6.279,5.295Z" transform="translate(-122.471 -42.049)" fill="#515d7d"/>
          <path id="路径_11088" data-name="路径 11088" d="M139.054,65.035l2.475-7.5L139.2,56.264l-4.763,6.178Z" transform="translate(-120.201 -41.421)" fill="#6878a1"/>
          <path id="路径_11089" data-name="路径 11089" d="M137.843,61.9l-1.79-1.194V59.509l1.79,1.192Z" transform="translate(-115.624 -32.222)" fill="#080608"/>
          <path id="路径_11090" data-name="路径 11090" d="M142.121,64.258l3.16-1.724v2.387l-3.16,1.789Z" transform="translate(-98.424 -23.651)" fill="#d49d26"/>
          <path id="路径_11091" data-name="路径 11091" d="M150,59.82V62.2l-2.95,1.745V61.453Z" transform="translate(-84.453 -31.341)" fill="#d49d26"/>
          <path id="路径_11092" data-name="路径 11092" d="M130.725,56.229l1.071.6v1.778l-1.071-.457Z" transform="translate(-130.725 -41.519)" fill="#d49d26"/>
        </g>
      </g>
    </g>
    <g id="组_9764" data-name="组 9764" transform="translate(416.484 -185.237)">
      <text id="較2015年成長" transform="translate(659 3238.263)" fill="#585858" font-size="32" font-family="MicrosoftJhengHeiBold, Microsoft JhengHei"><tspan x="0" y="0">較2015年成長</tspan></text>
      <text id="_1.6" data-name="1.6" transform="translate(895.293 3261.263)" fill="#f26a2d" font-size="152" font-family="GenYoGothicTW-B, GenYoGothic TW"><tspan x="0" y="0">1.6</tspan></text>
      <text id="_2" data-name="%" transform="translate(1130.642 3212.263)" fill="#707070" font-size="46" font-family="SegoeUI-Bold, Segoe UI" font-weight="700"><tspan x="0" y="50">%</tspan></text>
      <text id="_達2.36億人次_" data-name="（達2.36億人次）" transform="translate(916.293 3304.829)" fill="#707070" font-size="24" font-family="MicrosoftJhengHeiBold, Microsoft JhengHei"><tspan x="0" y="0">（達2.36億人次）</tspan></text>
    </g>
    <g id="矩形_1105" data-name="矩形 1105" transform="translate(1075 2843.809)" fill="#fff" stroke="#f26a2d" stroke-width="2">
      <rect width="514.992" height="63" stroke="none"/>
      <rect x="1" y="1" width="512.992" height="61" fill="none"/>
    </g>
    <text id="_2019年臺鐵運量成長比例" data-name="2019年臺鐵運量成長比例" transform="translate(1134 2889.809)" fill="#f26a2d" font-size="34" font-family="MicrosoftJhengHeiBold, Microsoft JhengHei"><tspan x="0" y="0">2019年臺鐵運量成長比例</tspan></text>
    <g id="蒙版组_2" data-name="蒙版组 2" transform="translate(-4 30)" clip-path="url(#clip-path-2)">
      <g id="组_9803" data-name="组 9803" transform="translate(985.897 3108.274)">
        <rect id="矩形_1195" data-name="矩形 1195" width="29.168" height="46.404" rx="2.494" transform="translate(192.028 84.667)" fill="#757575"/>
        <path id="路径_11207" data-name="路径 11207" d="M101.586,55.333H152.41V78.794L141.582,97.431H112.414L101.586,78.794Z" transform="translate(79.615 2.15)" fill="#c5c5c5" fill-rule="evenodd"/>
        <rect id="矩形_1196" data-name="矩形 1196" width="55.906" height="8.397" rx="0.816" transform="translate(178.66 53.726)" fill="#f4821f"/>
        <path id="路径_11208" data-name="路径 11208" d="M152.41,65.366H101.586L112.414,84h29.168Z" transform="translate(79.615 15.579)" fill="#a8a8a8" fill-rule="evenodd"/>
        <rect id="矩形_1197" data-name="矩形 1197" width="23.202" height="34.305" rx="1.984" transform="translate(287.489 93.673)" fill="#919191"/>
        <path id="路径_11209" data-name="路径 11209" d="M97.984,82.6h311.2v65.3H97.984a7.583,7.583,0,0,1-7.56-7.56V90.16A7.583,7.583,0,0,1,97.984,82.6Z" transform="translate(64.675 38.642)" fill="#b5b5b5" fill-rule="evenodd"/>
        <path id="路径_11210" data-name="路径 11210" d="M409.183,107.289v7.736H97.984a7.671,7.671,0,0,1-7.56-7.736Z" transform="translate(64.675 71.69)" fill="#555" fill-rule="evenodd"/>
        <rect id="矩形_1198" data-name="矩形 1198" width="15.026" height="21.655" transform="translate(468.778 210.007)" fill="#221806"/>
        <rect id="矩形_1199" data-name="矩形 1199" width="11.932" height="6.629" transform="translate(479.937 217.52)" fill="#221806"/>
        <path id="路径_11211" data-name="路径 11211" d="M433.711,110.522c0,.1.007.2.007.306v52.652H72.1c0-31.824,28.545-47.62,50.414-52.959Z" transform="translate(40.147 76.017)" fill="#777" fill-rule="evenodd"/>
        <rect id="矩形_1200" data-name="矩形 1200" width="127.575" height="102.754" transform="translate(346.284 83.785)" fill="#fbb03b"/>
        <path id="路径_11212" data-name="路径 11212" d="M184.82,54.485H300.61a17.73,17.73,0,0,1,17.679,17.676V89.84H167.141V72.161A17.73,17.73,0,0,1,184.82,54.485Z" transform="translate(167.356 1.015)" fill="#f4821f" fill-rule="evenodd"/>
        <rect id="矩形_1201" data-name="矩形 1201" width="80.43" height="54.576" rx="3.637" transform="translate(369.856 95.167)" fill="#e6e7e8"/>
        <rect id="矩形_1202" data-name="矩形 1202" width="77.119" height="51.266" rx="2.929" transform="translate(371.511 96.823)" fill="#86b7c8"/>
        <path id="路径_11213" data-name="路径 11213" d="M189.819,72.156h23.922l14.66,51.266H189.819a6.869,6.869,0,0,1-6.849-6.849V79.005A6.869,6.869,0,0,1,189.819,72.156Z" transform="translate(188.542 24.667)" fill="#91bfd0" fill-rule="evenodd"/>
        <path id="路径_11214" data-name="路径 11214" d="M115.133,172.18A27.854,27.854,0,1,0,87.28,144.324,27.909,27.909,0,0,0,115.133,172.18Z" transform="translate(60.467 83.98)" fill="#f7a439" fill-rule="evenodd"/>
        <path id="路径_11215" data-name="路径 11215" d="M298.137,54.485H182.347a17.652,17.652,0,0,0-13.359,6.131H311.5A17.652,17.652,0,0,0,298.137,54.485Z" transform="translate(169.828 1.015)" fill="#f79945" fill-rule="evenodd"/>
        <rect id="矩形_1203" data-name="矩形 1203" width="26.13" height="6.408" rx="0.402" transform="translate(286.024 93.065)" fill="#f4821f"/>
        <g id="组_9791" data-name="组 9791" transform="translate(163.779 216.483)">
          <path id="路径_11216" data-name="路径 11216" d="M105.957,146.971a11.822,11.822,0,1,0-11.821-11.823A11.845,11.845,0,0,0,105.957,146.971Z" transform="translate(-94.136 -123.327)" fill="#404041" fill-rule="evenodd"/>
          <path id="路径_11217" data-name="路径 11217" d="M102.737,138.122a6.195,6.195,0,1,0-6.195-6.195A6.207,6.207,0,0,0,102.737,138.122Z" transform="translate(-90.916 -120.107)" fill="#f48245" fill-rule="evenodd"/>
        </g>
        <circle id="椭圆_88" data-name="椭圆 88" cx="33.588" cy="33.588" r="33.588" transform="translate(233.75 188.983)" fill="#f7a439"/>
        <g id="组_9792" data-name="组 9792" transform="translate(249.427 204.66)">
          <path id="路径_11218" data-name="路径 11218" d="M148.674,154.093a17.911,17.911,0,1,0-17.912-17.91A17.946,17.946,0,0,0,148.674,154.093Z" transform="translate(-130.762 -118.271)" fill="#404041" fill-rule="evenodd"/>
          <path id="路径_11219" data-name="路径 11219" d="M143.792,140.688a9.385,9.385,0,1,0-9.384-9.386A9.4,9.4,0,0,0,143.792,140.688Z" transform="translate(-125.882 -113.391)" fill="#f48245" fill-rule="evenodd"/>
        </g>
        <circle id="椭圆_89" data-name="椭圆 89" cx="33.588" cy="33.588" r="33.588" transform="translate(302.09 220.347) rotate(-42.316)" fill="#f7a439"/>
        <g id="组_9793" data-name="组 9793" transform="translate(331.627 204.66)">
          <circle id="椭圆_90" data-name="椭圆 90" cx="17.911" cy="17.911" r="17.911" fill="#404041"/>
          <path id="路径_11220" data-name="路径 11220" d="M178.944,140.688a9.385,9.385,0,1,0-9.384-9.384A9.4,9.4,0,0,0,178.944,140.688Z" transform="translate(-161.034 -113.392)" fill="#f48245" fill-rule="evenodd"/>
        </g>
        <circle id="椭圆_91" data-name="椭圆 91" cx="33.588" cy="33.588" r="33.588" transform="translate(384.237 222.572) rotate(-45)" fill="#f7a439"/>
        <g id="组_9794" data-name="组 9794" transform="translate(413.827 204.661)">
          <circle id="椭圆_92" data-name="椭圆 92" cx="17.911" cy="17.911" r="17.911" fill="#404041"/>
          <path id="路径_11221" data-name="路径 11221" d="M214.1,140.688a9.385,9.385,0,1,0-9.384-9.384A9.4,9.4,0,0,0,214.1,140.688Z" transform="translate(-196.186 -113.392)" fill="#f48245" fill-rule="evenodd"/>
        </g>
        <rect id="矩形_1204" data-name="矩形 1204" width="206.83" height="123.789" transform="translate(497.616 90.856)" fill="#f4821f"/>
        <g id="组_9795" data-name="组 9795" transform="translate(507.339 90.856)">
          <rect id="矩形_1205" data-name="矩形 1205" width="4.42" height="123.789" fill="#f69337"/>
          <rect id="矩形_1206" data-name="矩形 1206" width="4.42" height="123.789" transform="translate(20.329)" fill="#f69337"/>
          <rect id="矩形_1207" data-name="矩形 1207" width="4.42" height="123.789" transform="translate(40.658)" fill="#f69337"/>
          <rect id="矩形_1208" data-name="矩形 1208" width="4.42" height="123.789" transform="translate(60.988)" fill="#f69337"/>
          <rect id="矩形_1209" data-name="矩形 1209" width="4.42" height="123.789" transform="translate(81.317)" fill="#f69337"/>
          <rect id="矩形_1210" data-name="矩形 1210" width="4.42" height="123.789" transform="translate(101.646)" fill="#f69337"/>
          <rect id="矩形_1211" data-name="矩形 1211" width="4.42" height="123.789" transform="translate(121.976)" fill="#f69337"/>
          <rect id="矩形_1212" data-name="矩形 1212" width="4.42" height="123.789" transform="translate(142.305)" fill="#f69337"/>
          <rect id="矩形_1213" data-name="矩形 1213" width="4.42" height="123.789" transform="translate(162.634)" fill="#f69337"/>
          <rect id="矩形_1214" data-name="矩形 1214" width="4.42" height="123.789" transform="translate(182.964)" fill="#f69337"/>
        </g>
        <rect id="矩形_1215" data-name="矩形 1215" width="214.123" height="11.712" transform="translate(493.969 85.155)" fill="#fab577"/>
        <rect id="矩形_1216" data-name="矩形 1216" width="11.933" height="6.629" transform="translate(710.85 217.52)" fill="#221806"/>
        <rect id="矩形_1217" data-name="矩形 1217" width="206.83" height="123.789" transform="translate(728.529 90.856)" fill="#00adee"/>
        <g id="组_9796" data-name="组 9796" transform="translate(738.252 90.856)">
          <rect id="矩形_1218" data-name="矩形 1218" width="4.42" height="123.789" fill="#008fc4"/>
          <rect id="矩形_1219" data-name="矩形 1219" width="4.42" height="123.789" transform="translate(20.329)" fill="#008fc4"/>
          <rect id="矩形_1220" data-name="矩形 1220" width="4.42" height="123.789" transform="translate(40.658)" fill="#008fc4"/>
          <rect id="矩形_1221" data-name="矩形 1221" width="4.42" height="123.789" transform="translate(60.988)" fill="#008fc4"/>
          <rect id="矩形_1222" data-name="矩形 1222" width="4.42" height="123.789" transform="translate(81.317)" fill="#008fc4"/>
          <rect id="矩形_1223" data-name="矩形 1223" width="4.42" height="123.789" transform="translate(101.646)" fill="#008fc4"/>
          <rect id="矩形_1224" data-name="矩形 1224" width="4.42" height="123.789" transform="translate(121.976)" fill="#008fc4"/>
          <rect id="矩形_1225" data-name="矩形 1225" width="4.42" height="123.789" transform="translate(142.305)" fill="#008fc4"/>
          <rect id="矩形_1226" data-name="矩形 1226" width="4.42" height="123.789" transform="translate(162.634)" fill="#008fc4"/>
          <rect id="矩形_1227" data-name="矩形 1227" width="4.42" height="123.789" transform="translate(182.964)" fill="#008fc4"/>
        </g>
        <rect id="矩形_1228" data-name="矩形 1228" width="206.83" height="3.609" transform="translate(728.528 96.867)" fill="#f2f2f2" style="mix-blend-mode: multiply;isolation: isolate"/>
        <rect id="矩形_1229" data-name="矩形 1229" width="214.123" height="11.712" transform="translate(724.882 85.155)" fill="#0082b3"/>
        <rect id="矩形_1230" data-name="矩形 1230" width="11.933" height="6.629" transform="translate(942.028 217.52)" fill="#221806"/>
        <rect id="矩形_1231" data-name="矩形 1231" width="220.531" height="41.102" transform="translate(721.677 198.397)" fill="#006991"/>
        <rect id="矩形_1232" data-name="矩形 1232" width="220.531" height="8.18" transform="translate(721.677 231.265)" fill="#006287"/>
        <path id="路径_11222" data-name="路径 11222" d="M367.087,172.18a27.854,27.854,0,1,0-27.855-27.855A27.908,27.908,0,0,0,367.087,172.18Z" transform="translate(397.689 83.98)" fill="#f7a439" fill-rule="evenodd"/>
        <g id="组_9797" data-name="组 9797" transform="translate(752.953 216.483)">
          <path id="路径_11223" data-name="路径 11223" d="M357.911,146.971a11.822,11.822,0,1,0-11.823-11.823A11.845,11.845,0,0,0,357.911,146.971Z" transform="translate(-346.088 -123.327)" fill="#404041" fill-rule="evenodd"/>
          <path id="路径_11224" data-name="路径 11224" d="M354.691,138.122a6.195,6.195,0,1,0-6.2-6.195A6.207,6.207,0,0,0,354.691,138.122Z" transform="translate(-342.868 -120.107)" fill="#f48245" fill-rule="evenodd"/>
        </g>
        <path id="路径_11225" data-name="路径 11225" d="M427.187,172.18a27.854,27.854,0,1,0-27.855-27.855A27.908,27.908,0,0,0,427.187,172.18Z" transform="translate(478.129 83.98)" fill="#f7a439" fill-rule="evenodd"/>
        <g id="组_9798" data-name="组 9798" transform="translate(893.493 216.483)">
          <path id="路径_11226" data-name="路径 11226" d="M418.011,146.971a11.822,11.822,0,1,0-11.823-11.823A11.845,11.845,0,0,0,418.011,146.971Z" transform="translate(-406.188 -123.327)" fill="#404041" fill-rule="evenodd"/>
          <path id="路径_11227" data-name="路径 11227" d="M414.789,138.122a6.195,6.195,0,1,0-6.194-6.195A6.207,6.207,0,0,0,414.789,138.122Z" transform="translate(-402.966 -120.107)" fill="#f48245" fill-rule="evenodd"/>
        </g>
        <rect id="矩形_1233" data-name="矩形 1233" width="220.531" height="41.102" transform="translate(490.764 198.397)" fill="#784921"/>
        <rect id="矩形_1234" data-name="矩形 1234" width="220.531" height="8.18" transform="translate(490.764 231.265)" fill="#734620"/>
        <path id="路径_11228" data-name="路径 11228" d="M268.34,172.18a27.854,27.854,0,1,0-27.855-27.855A27.908,27.908,0,0,0,268.34,172.18Z" transform="translate(265.522 83.98)" fill="#f7a439" fill-rule="evenodd"/>
        <g id="组_9799" data-name="组 9799" transform="translate(522.04 216.483)">
          <path id="路径_11229" data-name="路径 11229" d="M259.164,146.971a11.822,11.822,0,1,0-11.823-11.823A11.845,11.845,0,0,0,259.164,146.971Z" transform="translate(-247.341 -123.327)" fill="#404041" fill-rule="evenodd"/>
          <path id="路径_11230" data-name="路径 11230" d="M255.943,138.122a6.195,6.195,0,1,0-6.195-6.195A6.206,6.206,0,0,0,255.943,138.122Z" transform="translate(-244.119 -120.107)" fill="#f48245" fill-rule="evenodd"/>
        </g>
        <path id="路径_11231" data-name="路径 11231" d="M328.44,172.18a27.854,27.854,0,1,0-27.856-27.855A27.907,27.907,0,0,0,328.44,172.18Z" transform="translate(345.962 83.98)" fill="#f7a439" fill-rule="evenodd"/>
        <g id="组_9800" data-name="组 9800" transform="translate(662.58 216.483)">
          <path id="路径_11232" data-name="路径 11232" d="M319.264,146.971a11.822,11.822,0,1,0-11.823-11.823A11.845,11.845,0,0,0,319.264,146.971Z" transform="translate(-307.441 -123.327)" fill="#404041" fill-rule="evenodd"/>
          <path id="路径_11233" data-name="路径 11233" d="M316.043,138.122a6.195,6.195,0,1,0-6.195-6.195A6.207,6.207,0,0,0,316.043,138.122Z" transform="translate(-304.219 -120.107)" fill="#f48245" fill-rule="evenodd"/>
        </g>
        <path id="路径_11234" data-name="路径 11234" d="M95.984,83.923H268.563c1.094,0,1.988,1.595,1.988,3.547h0c0,1.95-.893,3.545-1.988,3.545H95.984c-1.094,0-1.99-1.595-1.99-3.545h0C93.994,85.518,94.89,83.923,95.984,83.923Z" transform="translate(69.453 40.416)" fill="#606060" fill-rule="evenodd"/>
        <g id="组_9802" data-name="组 9802" transform="translate(42.103 256.159)">
          <rect id="矩形_1235" data-name="矩形 1235" width="982" height="6.188" fill="#6d6e70"/>
          <g id="组_9801" data-name="组 9801" transform="translate(22.069 2.707)">
            <rect id="矩形_1236" data-name="矩形 1236" width="29.219" height="10.02" fill="#a15641"/>
            <rect id="矩形_1237" data-name="矩形 1237" width="29.219" height="10.02" transform="translate(64.903)" fill="#a15641"/>
            <rect id="矩形_1238" data-name="矩形 1238" width="29.219" height="10.02" transform="translate(129.806)" fill="#a15641"/>
            <rect id="矩形_1239" data-name="矩形 1239" width="29.219" height="10.02" transform="translate(194.709)" fill="#a15641"/>
            <rect id="矩形_1240" data-name="矩形 1240" width="29.219" height="10.02" transform="translate(259.613)" fill="#a15641"/>
            <rect id="矩形_1241" data-name="矩形 1241" width="29.219" height="10.02" transform="translate(324.516)" fill="#a15641"/>
            <rect id="矩形_1242" data-name="矩形 1242" width="29.219" height="10.02" transform="translate(389.419)" fill="#a15641"/>
            <rect id="矩形_1243" data-name="矩形 1243" width="29.219" height="10.02" transform="translate(454.322)" fill="#a15641"/>
            <rect id="矩形_1244" data-name="矩形 1244" width="29.219" height="10.02" transform="translate(519.226)" fill="#a15641"/>
            <rect id="矩形_1245" data-name="矩形 1245" width="29.219" height="10.02" transform="translate(584.129)" fill="#a15641"/>
            <rect id="矩形_1246" data-name="矩形 1246" width="29.219" height="10.02" transform="translate(649.032)" fill="#a15641"/>
            <rect id="矩形_1247" data-name="矩形 1247" width="29.219" height="10.02" transform="translate(713.935)" fill="#a15641"/>
            <rect id="矩形_1248" data-name="矩形 1248" width="29.219" height="10.02" transform="translate(778.838)" fill="#a15641"/>
            <rect id="矩形_1249" data-name="矩形 1249" width="29.219" height="10.02" transform="translate(843.741)" fill="#a15641"/>
            <rect id="矩形_1250" data-name="矩形 1250" width="29.219" height="10.02" transform="translate(908.644)" fill="#a15641"/>
          </g>
        </g>
        <rect id="矩形_1251" data-name="矩形 1251" width="206.83" height="3.609" transform="translate(497.616 96.867)" fill="#f2f2f2" style="mix-blend-mode: multiply;isolation: isolate"/>
        <path id="矩形_1252" data-name="矩形 1252" d="M1.946,0H38.43a0,0,0,0,1,0,0V11.14a0,0,0,0,1,0,0H1.946A1.946,1.946,0,0,1,0,9.194V1.946A1.946,1.946,0,0,1,1.946,0Z" transform="translate(106.48 228.305)" fill="#fbb03b"/>
      </g>
    </g>
    <text id="較2015年成長-2" data-name="較2015年成長" transform="translate(724 3121.635)" fill="#585858" font-size="32" font-family="MicrosoftJhengHeiBold, Microsoft JhengHei"><tspan x="0" y="0">較2015年成長</tspan></text>
    <g id="蒙版组_4" data-name="蒙版组 4" clip-path="url(#clip-path-3)">
      <circle id="椭圆_87" data-name="椭圆 87" cx="197.5" cy="197.5" r="197.5" transform="translate(997.856 3355.086)" fill="#fff"/>
      <g id="组_9781" data-name="组 9781" transform="translate(236.484 284.763)">
        <text id="較2015年成長-3" data-name="較2015年成長" transform="translate(565 3289.263)" fill="#585858" font-size="32" font-family="MicrosoftJhengHeiBold, Microsoft JhengHei"><tspan x="0" y="0">較2015年成長</tspan></text>
        <text id="_15.4" data-name="15.4" transform="translate(780.935 3313.481)" fill="#f26a2d" font-size="152" font-family="GenYoGothicTW-B, GenYoGothic TW"><tspan x="0" y="0">15.4</tspan></text>
        <text id="_3" data-name="%" transform="translate(1108.642 3260.263)" fill="#707070" font-size="46" font-family="SegoeUI-Bold, Segoe UI" font-weight="700"><tspan x="0" y="50">%</tspan></text>
        <text id="_達5_838萬人次_" data-name="（達5,838萬人次）" transform="translate(1163.45 3302.263)" fill="#707070" font-size="24" font-family="MicrosoftJhengHeiBold, Microsoft JhengHei"><tspan x="0" y="0">（達5,838萬人次）</tspan></text>
      </g>
    </g>
    <g id="蒙版组_5" data-name="蒙版组 5" transform="translate(-728 498.587)" clip-path="url(#clip-path-4)">
      <g id="组_9789" data-name="组 9789" transform="translate(1016.735 3130.311)">
        <g id="组_9782" data-name="组 9782" transform="translate(33.534 0)">
          <rect id="矩形_1166" data-name="矩形 1166" width="74.558" height="117.014" transform="translate(790.621 34.223)" fill="#f26a2d"/>
          <path id="路径_11150" data-name="路径 11150" d="M0,0H74.558V117.014H0Z" transform="translate(495.87 151.236) rotate(180)" fill="#f26a2d"/>
          <path id="路径_11151" data-name="路径 11151" d="M2561.859,1887.046c-.152-1.011-.339-2.044-.56-3.087q-.1-.461-.207-.927-.211-.925-.463-1.86l-.051-.19c-.177-.653-.365-1.312-.571-1.978q-.452-1.486-1-3c-.051-.141-.106-.289-.16-.43-.036-.109-.076-.21-.116-.32l-.533-1.424-25.7-68.426q-1.165-3.1-2.631-6.091c-.274-.565-.558-1.129-.849-1.686q-.834-1.606-1.747-3.16c-.1-.179-.208-.356-.314-.536l-.015-.021c-.068-.114-.133-.23-.2-.343q-1.482-2.462-3.137-4.789l-.137-.19c-10.024-14.052-24.225-23.877-36.354-23.877H2142.365c-10.482,0-19.758,7.336-25.147,18.4a47.78,47.78,0,0,0-3.643,10.433,53.574,53.574,0,0,0-1.312,11.857v105.92c0,2.545,1.538,4.625,3.419,4.625h428.225c10.162,0,16.6-6.894,18.111-17.39a33.47,33.47,0,0,0,.335-4.159A42.836,42.836,0,0,0,2561.859,1887.046Z" transform="translate(-1277.185 -1764.71)" fill="#f5f3f6"/>
          <path id="路径_11152" data-name="路径 11152" d="M2330.876,1799.435v32.123c0,7.05-5.113,12.818-11.362,12.818h-82.65c-6.249,0-11.363-5.769-11.363-12.818v-32.123c0-7.052,5.114-12.818,11.363-12.818h82.65C2325.763,1786.617,2330.876,1792.383,2330.876,1799.435Z" transform="translate(-1151.844 -1740.462)" fill="#454f5e"/>
          <path id="路径_11153" data-name="路径 11153" d="M2325.293,1799.563v27.68a10.85,10.85,0,0,1-10.57,11.046h-76.879a10.849,10.849,0,0,1-10.57-11.046v-27.68a10.848,10.848,0,0,1,10.57-11.048h76.879A10.85,10.85,0,0,1,2325.293,1799.563Z" transform="translate(-1149.884 -1738.361)" fill="#636a76"/>
          <path id="路径_11154" data-name="路径 11154" d="M2297.231,1805.4v105.92c0,2.545-1.539,4.625-3.42,4.625H1938.741c-1.88,0-3.419-2.08-3.419-4.625V1805.4a53.457,53.457,0,0,1,1.314-11.857,47.929,47.929,0,0,1,3.64-10.433c5.394-11.065,14.666-18.4,25.148-18.4h301.7c10.481,0,19.754,7.336,25.148,18.4a48.024,48.024,0,0,1,3.643,10.433A53.56,53.56,0,0,1,2297.231,1805.4Z" transform="translate(-1473.031 -1764.71)" fill="#f5f3f6"/>
          <path id="路径_11155" data-name="路径 11155" d="M2225.913,1799.151v32.121c0,7.05-5.115,12.818-11.362,12.818H2131.9c-6.246,0-11.361-5.769-11.361-12.818v-32.121c0-7.053,5.115-12.818,11.361-12.818h82.652C2220.8,1786.333,2225.913,1792.1,2225.913,1799.151Z" transform="translate(-1268.026 -1740.775)" fill="#454f5e"/>
          <path id="路径_11156" data-name="路径 11156" d="M2220.328,1799.277v27.684a10.849,10.849,0,0,1-10.571,11.044h-76.878a10.85,10.85,0,0,1-10.57-11.044v-27.684a10.848,10.848,0,0,1,10.57-11.046h76.878A10.847,10.847,0,0,1,2220.328,1799.277Z" transform="translate(-1266.064 -1738.676)" fill="#636a76"/>
          <path id="路径_11157" data-name="路径 11157" d="M2083.038,1796.473v101.493h-81.059V1796.473c0-8.535,5.647-15.519,12.549-15.519h55.962C2077.391,1780.954,2083.038,1787.938,2083.038,1796.473Z" transform="translate(-1399.251 -1746.73)" fill="#8c9cb4"/>
          <path id="路径_11158" data-name="路径 11158" d="M2154.061,1799.151v32.121c0,7.05-5.115,12.818-11.362,12.818h-82.652c-6.246,0-11.361-5.769-11.361-12.818v-32.121c0-7.053,5.115-12.818,11.361-12.818H2142.7C2148.945,1786.333,2154.061,1792.1,2154.061,1799.151Z" transform="translate(-1347.555 -1740.775)" fill="#454f5e"/>
          <path id="路径_11159" data-name="路径 11159" d="M2148.475,1799.277v27.684a10.849,10.849,0,0,1-10.57,11.044h-76.877a10.849,10.849,0,0,1-10.57-11.044v-27.684a10.847,10.847,0,0,1,10.57-11.046H2137.9A10.847,10.847,0,0,1,2148.475,1799.277Z" transform="translate(-1345.592 -1738.676)" fill="#636a76"/>
          <path id="路径_11160" data-name="路径 11160" d="M2078.027,1796.9v95.337h-74.6V1796.9c0-7.806,5.341-14.192,11.87-14.192h50.859C2072.684,1782.711,2078.027,1789.1,2078.027,1796.9Z" transform="translate(-1397.65 -1744.785)" fill="#f5f3f6"/>
          <rect id="矩形_1167" data-name="矩形 1167" width="26.576" height="47.196" rx="6.307" transform="translate(648.793 44.96)" fill="#454f5e"/>
          <rect id="矩形_1168" data-name="矩形 1168" width="26.576" height="47.196" rx="6.307" transform="translate(611.145 44.96)" fill="#454f5e"/>
          <rect id="矩形_1169" data-name="矩形 1169" width="3.048" height="117.013" transform="translate(641.733 34.223)" fill="#8c9cb4"/>
          <path id="路径_11161" data-name="路径 11161" d="M2049.095,1798.868v32.121c0,7.049-5.113,12.818-11.362,12.818h-82.65c-6.249,0-11.362-5.769-11.362-12.818v-32.121c0-7.052,5.113-12.818,11.362-12.818h82.65C2043.981,1786.05,2049.095,1791.816,2049.095,1798.868Z" transform="translate(-1463.734 -1741.089)" fill="#454f5e"/>
          <path id="路径_11162" data-name="路径 11162" d="M2043.508,1798.992v27.684a10.848,10.848,0,0,1-10.566,11.046h-76.881a10.847,10.847,0,0,1-10.568-11.046v-27.684a10.846,10.846,0,0,1,10.568-11.044h76.881A10.847,10.847,0,0,1,2043.508,1798.992Z" transform="translate(-1461.772 -1738.989)" fill="#636a76"/>
          <path id="路径_11163" data-name="路径 11163" d="M2027.591,1792.26v30.107c0,2.269-1.5,4.13-3.339,4.13h-13.37c-1.835,0-3.339-1.86-3.339-4.13V1792.26c0-2.273,1.5-4.129,3.339-4.129h13.37C2026.089,1788.131,2027.591,1789.987,2027.591,1792.26Z" transform="translate(-1393.093 -1738.786)" fill="#636a76"/>
          <path id="路径_11164" data-name="路径 11164" d="M2045.461,1792.26v30.107c0,2.269-1.5,4.13-3.337,4.13H2028.75c-1.835,0-3.337-1.86-3.337-4.13V1792.26c0-2.273,1.5-4.129,3.337-4.129h13.375C2043.957,1788.131,2045.461,1789.987,2045.461,1792.26Z" transform="translate(-1373.313 -1738.786)" fill="#636a76"/>
          <path id="路径_11165" data-name="路径 11165" d="M2259.8,1796.473v101.493h-81.061V1796.473c0-8.535,5.646-15.519,12.55-15.519h55.96C2254.151,1780.954,2259.8,1787.938,2259.8,1796.473Z" transform="translate(-1203.607 -1746.73)" fill="#8c9cb4"/>
          <path id="路径_11166" data-name="路径 11166" d="M2254.785,1796.9v95.337h-74.6V1796.9c0-7.806,5.341-14.192,11.872-14.192h50.857C2249.444,1782.711,2254.785,1789.1,2254.785,1796.9Z" transform="translate(-1202.005 -1744.785)" fill="#f5f3f6"/>
          <rect id="矩形_1170" data-name="矩形 1170" width="26.576" height="47.196" rx="6.307" transform="translate(1021.196 44.96)" fill="#454f5e"/>
          <rect id="矩形_1171" data-name="矩形 1171" width="26.576" height="47.196" rx="6.307" transform="translate(983.548 44.96)" fill="#454f5e"/>
          <rect id="矩形_1172" data-name="矩形 1172" width="3.048" height="117.013" transform="translate(1014.136 34.223)" fill="#8c9cb4"/>
          <path id="路径_11167" data-name="路径 11167" d="M2204.351,1792.26v30.107c0,2.269-1.5,4.13-3.34,4.13h-13.372c-1.837,0-3.337-1.86-3.337-4.13V1792.26c0-2.273,1.5-4.129,3.337-4.129h13.372C2202.848,1788.131,2204.351,1789.987,2204.351,1792.26Z" transform="translate(-1197.447 -1738.786)" fill="#636a76"/>
          <path id="路径_11168" data-name="路径 11168" d="M2222.22,1792.26v30.107c0,2.269-1.5,4.13-3.34,4.13h-13.374c-1.833,0-3.335-1.86-3.335-4.13V1792.26c0-2.273,1.5-4.129,3.335-4.129h13.374C2220.716,1788.131,2222.22,1789.987,2222.22,1792.26Z" transform="translate(-1177.668 -1738.786)" fill="#636a76"/>
          <path id="路径_11169" data-name="路径 11169" d="M2075.758,1821.391v31.818H1938.741c-1.88,0-3.419-1.9-3.419-4.229v-27.589Z" transform="translate(-1473.031 -1701.973)" fill="#f26a2d"/>
          <path id="路径_11170" data-name="路径 11170" d="M2180.866,1821.391v27.589c0,2.326-1.539,4.229-3.42,4.229H2040.453v-31.818Z" transform="translate(-1356.666 -1701.973)" fill="#f26a2d"/>
          <rect id="矩形_1173" data-name="矩形 1173" width="35.958" height="28.036" transform="translate(605.775 119.419)" fill="#f26a2d"/>
          <rect id="矩形_1174" data-name="矩形 1174" width="35.596" height="28.036" transform="translate(644.781 119.419)" fill="#f26a2d"/>
          <path id="路径_11171" data-name="路径 11171" d="M2252.315,1821.391v31.818H2115.681c-1.882,0-3.419-1.9-3.419-4.229v-27.589Z" transform="translate(-1277.185 -1701.973)" fill="#f26a2d"/>
          <path id="路径_11172" data-name="路径 11172" d="M2355.343,1853.209H2217.212v-31.818h122.646c2.071,0,4.538,2.1,5.48,4.658Z" transform="translate(-1161.021 -1701.973)" fill="#f26a2d"/>
          <rect id="矩形_1175" data-name="矩形 1175" width="35.958" height="28.036" transform="translate(978.178 119.419)" fill="#f26a2d"/>
          <rect id="矩形_1176" data-name="矩形 1176" width="35.596" height="28.036" transform="translate(1017.184 119.419)" fill="#f26a2d"/>
          <path id="路径_11173" data-name="路径 11173" d="M2365.145,1863.372h-39.507c-6.247,0-13.6-6.324-16.332-14.052l-19.958-56.434c-2.732-7.728.146-14.053,6.392-14.053H2332.4q.914,1.554,1.747,3.16c.291.557.575,1.121.849,1.686q1.46,2.986,2.631,6.091l25.7,68.426.533,1.424c.04.11.08.211.115.321.055.141.11.288.16.43Q2364.7,1861.887,2365.145,1863.372Z" transform="translate(-1082.322 -1749.078)" fill="#454f5e"/>
          <path id="路径_11174" data-name="路径 11174" d="M2360.907,1855.984l-2.377-.042-12.176-.225-20.579-.377c-6.165-.112-13.282-5.78-15.823-12.6l-8.925-23.936-9.615-25.8c-2.537-6.811.426-12.3,6.59-12.178l19.99.365,2.21.044,12.371.226q1.46,2.986,2.631,6.091l11.74,31.251Z" transform="translate(-1079.896 -1746.866)" fill="#636a76"/>
          <path id="路径_11175" data-name="路径 11175" d="M2383.221,1828.941c-1.515,9.6-7.949,15.911-18.111,15.911H2273.8v-11.683c0-2.326,1.538-4.229,3.419-4.229Z" transform="translate(-1098.388 -1693.615)" fill="#f26a2d"/>
          <path id="路径_11176" data-name="路径 11176" d="M2291.584,1773.444a48.01,48.01,0,0,1,3.643,10.433H1935.946a47.9,47.9,0,0,1,3.641-10.433Z" transform="translate(-1472.34 -1755.042)" fill="#f26a2d"/>
          <path id="路径_11177" data-name="路径 11177" d="M2561.169,1877.379c-.152-1.011-.339-2.044-.56-3.087h-62.947l-33.365-97.442-.034-.11a4.527,4.527,0,0,0-4.071-3.3H2116.527a47.766,47.766,0,0,0-3.643,10.433h341.244a4.513,4.513,0,0,1,4.064,3.272l29.839,87.144,2.587,7.551a3.915,3.915,0,0,0,3.542,2.886l.027,0,.038,0h67.436A42.76,42.76,0,0,0,2561.169,1877.379Z" transform="translate(-1276.495 -1755.042)" fill="#f26a2d"/>
          <path id="路径_11178" data-name="路径 11178" d="M1715.909,1894.4a33.306,33.306,0,0,0,.335,4.159c1.513,10.5,7.949,17.39,18.108,17.39H2162.58c1.882,0,3.42-2.08,3.42-4.625V1805.4a53.574,53.574,0,0,0-1.312-11.857,47.894,47.894,0,0,0-3.643-10.433c-5.39-11.065-14.666-18.4-25.147-18.4H1791.155c-12.129,0-26.33,9.824-36.354,23.877l-.137.19q-1.65,2.323-3.137,4.789c-.071.114-.137.23-.2.343l-.015.021c-.105.179-.211.356-.314.536q-.913,1.554-1.747,3.16c-.291.557-.575,1.121-.849,1.686q-1.46,2.986-2.631,6.091l-25.7,68.426-.533,1.424c-.04.11-.08.211-.118.32-.052.141-.107.289-.158.43q-.553,1.517-1,3c-.206.666-.394,1.325-.571,1.978-.017.063-.034.129-.05.19-.169.624-.323,1.243-.466,1.86-.069.31-.139.619-.2.927-.222,1.043-.411,2.075-.561,3.087A42.809,42.809,0,0,0,1715.909,1894.4Z" transform="translate(-1715.899 -1764.71)" fill="#f5f3f6"/>
          <path id="路径_11179" data-name="路径 11179" d="M1766.281,1799.435v32.123c0,7.05,5.113,12.818,11.362,12.818h82.65c6.249,0,11.362-5.769,11.362-12.818v-32.123c0-7.052-5.113-12.818-11.362-12.818h-82.65C1771.394,1786.617,1766.281,1792.383,1766.281,1799.435Z" transform="translate(-1660.134 -1740.462)" fill="#454f5e"/>
          <path id="路径_11180" data-name="路径 11180" d="M1866.019,1799.563v27.68a10.851,10.851,0,0,1-10.57,11.046H1778.57a10.849,10.849,0,0,1-10.57-11.046v-27.68a10.849,10.849,0,0,1,10.57-11.048h76.879A10.85,10.85,0,0,1,1866.019,1799.563Z" transform="translate(-1658.231 -1738.361)" fill="#636a76"/>
          <path id="路径_11181" data-name="路径 11181" d="M1871.245,1799.151v32.121c0,7.05,5.116,12.818,11.362,12.818h82.652c6.246,0,11.36-5.769,11.36-12.818v-32.121c0-7.053-5.114-12.818-11.36-12.818h-82.652C1876.36,1786.333,1871.245,1792.1,1871.245,1799.151Z" transform="translate(-1543.954 -1740.775)" fill="#454f5e"/>
          <path id="路径_11182" data-name="路径 11182" d="M1970.984,1799.277v27.684a10.85,10.85,0,0,1-10.57,11.044h-76.879a10.849,10.849,0,0,1-10.57-11.044v-27.684a10.847,10.847,0,0,1,10.57-11.046h76.879A10.848,10.848,0,0,1,1970.984,1799.277Z" transform="translate(-1542.051 -1738.676)" fill="#636a76"/>
          <path id="路径_11183" data-name="路径 11183" d="M1824.586,1796.473v101.493h81.061V1796.473c0-8.535-5.646-15.519-12.551-15.519h-55.96C1830.232,1780.954,1824.586,1787.938,1824.586,1796.473Z" transform="translate(-1595.599 -1746.73)" fill="#8c9cb4"/>
          <path id="路径_11184" data-name="路径 11184" d="M1826.2,1796.9v95.337h74.6V1796.9c0-7.806-5.343-14.192-11.872-14.192h-50.857C1831.545,1782.711,1826.2,1789.1,1826.2,1796.9Z" transform="translate(-1593.807 -1744.785)" fill="#f5f3f6"/>
          <rect id="矩形_1177" data-name="矩形 1177" width="26.576" height="47.196" rx="6.307" transform="translate(263.981 92.156) rotate(-180)" fill="#454f5e"/>
          <rect id="矩形_1178" data-name="矩形 1178" width="26.576" height="47.196" rx="6.307" transform="translate(301.63 92.156) rotate(-180)" fill="#454f5e"/>
          <rect id="矩形_1179" data-name="矩形 1179" width="3.048" height="117.013" transform="translate(267.993 34.223)" fill="#8c9cb4"/>
          <path id="路径_11185" data-name="路径 11185" d="M1868.028,1792.26v30.107c0,2.269-1.5,4.13-3.339,4.13h-13.37c-1.837,0-3.339-1.86-3.339-4.13V1792.26c0-2.273,1.5-4.129,3.339-4.129h13.37C1866.529,1788.131,1868.028,1789.987,1868.028,1792.26Z" transform="translate(-1569.705 -1738.786)" fill="#636a76"/>
          <path id="路径_11186" data-name="路径 11186" d="M1850.159,1792.26v30.107c0,2.269-1.5,4.13-3.337,4.13h-13.373c-1.835,0-3.339-1.86-3.339-4.13V1792.26c0-2.273,1.5-4.129,3.339-4.129h13.373C1848.656,1788.131,1850.159,1789.987,1850.159,1792.26Z" transform="translate(-1589.485 -1738.786)" fill="#636a76"/>
          <path id="路径_11187" data-name="路径 11187" d="M1863.061,1821.391v31.818h136.633c1.882,0,3.42-1.9,3.42-4.229v-27.589Z" transform="translate(-1553.013 -1701.973)" fill="#f26a2d"/>
          <path id="路径_11188" data-name="路径 11188" d="M1759.021,1853.209h138.134v-31.818H1774.509c-2.071,0-4.538,2.1-5.48,4.658Z" transform="translate(-1668.168 -1701.973)" fill="#f26a2d"/>
          <rect id="矩形_1180" data-name="矩形 1180" width="35.958" height="28.036" transform="translate(271.041 119.419)" fill="#f26a2d"/>
          <rect id="矩形_1181" data-name="矩形 1181" width="35.596" height="28.036" transform="translate(232.397 119.419)" fill="#f26a2d"/>
          <path id="路径_11189" data-name="路径 11189" d="M1717.017,1863.372h39.508c6.247,0,13.6-6.324,16.332-14.052l19.958-56.434c2.733-7.728-.146-14.053-6.394-14.053h-36.664q-.913,1.554-1.747,3.16c-.291.557-.575,1.121-.849,1.686q-1.46,2.986-2.631,6.091l-25.7,68.426-.533,1.424c-.04.11-.08.211-.118.321-.053.141-.108.288-.158.43Q1717.467,1861.887,1717.017,1863.372Z" transform="translate(-1714.662 -1749.078)" fill="#454f5e"/>
          <path id="路径_11190" data-name="路径 11190" d="M1787.369,1793.01l-9.615,25.8-8.923,23.936c-2.541,6.816-9.657,12.483-15.822,12.6l-20.58.377-12.176.225-2.377.042,13.962-37.175,11.74-31.251q1.166-3.1,2.631-6.091l12.372-.226,2.21-.044,19.99-.365C1786.946,1780.715,1789.908,1786.2,1787.369,1793.01Z" transform="translate(-1713.71 -1746.866)" fill="#636a76"/>
          <path id="路径_11191" data-name="路径 11191" d="M1716.063,1828.941c1.513,9.6,7.949,15.911,18.108,15.911h91.315v-11.683c0-2.326-1.538-4.229-3.42-4.229Z" transform="translate(-1715.718 -1693.615)" fill="#f26a2d"/>
          <path id="路径_11192" data-name="路径 11192" d="M2164.687,1783.877a47.881,47.881,0,0,0-3.643-10.433H1817.377a4.527,4.527,0,0,0-4.07,3.3l-.036.11-33.362,97.442h-62.946c-.222,1.043-.411,2.075-.561,3.087a42.808,42.808,0,0,0-.493,7.351h67.436l.038,0,.027,0a3.914,3.914,0,0,0,3.542-2.886l2.587-7.551,29.839-87.144h0a4.51,4.51,0,0,1,4.064-3.272Z" transform="translate(-1715.899 -1755.042)" fill="#f26a2d"/>
          <path id="路径_11193" data-name="路径 11193" d="M1731.839,1798.857h45.915l-8.923,23.936c-2.541,6.816-9.657,12.483-15.822,12.6l-20.58.377-12.176.225-2.377.042Z" transform="translate(-1713.71 -1726.914)" fill="#8c9cb4"/>
          <path id="路径_11194" data-name="路径 11194" d="M1768,1798.857h98.019v16.94a10.85,10.85,0,0,1-10.57,11.046H1778.57A10.849,10.849,0,0,1,1768,1815.8Z" transform="translate(-1658.231 -1726.914)" fill="#8c9cb4"/>
          <path id="路径_11195" data-name="路径 11195" d="M1830.11,1798.857h20.049V1810.5c0,2.269-1.5,4.13-3.337,4.13h-13.373c-1.835,0-3.339-1.86-3.339-4.13Z" transform="translate(-1589.485 -1726.914)" fill="#8c9cb4"/>
          <path id="路径_11196" data-name="路径 11196" d="M1847.98,1798.857h20.048V1810.5c0,2.269-1.5,4.13-3.339,4.13h-13.37c-1.837,0-3.339-1.86-3.339-4.13Z" transform="translate(-1569.705 -1726.914)" fill="#8c9cb4"/>
          <path id="路径_11197" data-name="路径 11197" d="M1872.965,1798.857h98.019V1815.2a10.85,10.85,0,0,1-10.57,11.044h-76.879a10.849,10.849,0,0,1-10.57-11.044Z" transform="translate(-1542.051 -1726.914)" fill="#8c9cb4"/>
          <path id="路径_11198" data-name="路径 11198" d="M1945.494,1798.857h98.015V1814.6a10.848,10.848,0,0,1-10.566,11.046h-76.881a10.847,10.847,0,0,1-10.568-11.046Z" transform="translate(-1461.772 -1726.914)" fill="#8c9cb4"/>
          <path id="路径_11199" data-name="路径 11199" d="M2007.543,1798.857h20.049V1810.5c0,2.269-1.5,4.13-3.339,4.13h-13.37c-1.835,0-3.339-1.86-3.339-4.13Z" transform="translate(-1393.093 -1726.914)" fill="#8c9cb4"/>
          <path id="路径_11200" data-name="路径 11200" d="M2025.413,1798.857h20.049V1810.5c0,2.269-1.5,4.13-3.337,4.13H2028.75c-1.835,0-3.337-1.86-3.337-4.13Z" transform="translate(-1373.313 -1726.914)" fill="#8c9cb4"/>
          <path id="路径_11201" data-name="路径 11201" d="M2050.458,1798.857h98.017V1815.2a10.849,10.849,0,0,1-10.57,11.044h-76.877a10.849,10.849,0,0,1-10.57-11.044Z" transform="translate(-1345.592 -1726.914)" fill="#8c9cb4"/>
          <path id="路径_11202" data-name="路径 11202" d="M2122.309,1798.857h98.019V1815.2a10.849,10.849,0,0,1-10.571,11.044h-76.878a10.85,10.85,0,0,1-10.57-11.044Z" transform="translate(-1266.064 -1726.914)" fill="#8c9cb4"/>
          <path id="路径_11203" data-name="路径 11203" d="M2184.3,1798.857h20.049V1810.5c0,2.269-1.5,4.13-3.34,4.13h-13.372c-1.837,0-3.337-1.86-3.337-4.13Z" transform="translate(-1197.447 -1726.914)" fill="#8c9cb4"/>
          <path id="路径_11204" data-name="路径 11204" d="M2202.172,1798.857h20.049V1810.5c0,2.269-1.5,4.13-3.34,4.13h-13.374c-1.833,0-3.335-1.86-3.335-4.13Z" transform="translate(-1177.668 -1726.914)" fill="#8c9cb4"/>
          <path id="路径_11205" data-name="路径 11205" d="M2227.274,1798.857h98.019v16.94a10.85,10.85,0,0,1-10.57,11.046h-76.879a10.849,10.849,0,0,1-10.57-11.046Z" transform="translate(-1149.884 -1726.914)" fill="#8c9cb4"/>
          <path id="路径_11206" data-name="路径 11206" d="M2355.379,1836.032l-2.377-.042-12.175-.225-20.579-.377c-6.165-.112-13.282-5.78-15.823-12.6l-8.925-23.936h45.917Z" transform="translate(-1074.368 -1726.914)" fill="#8c9cb4"/>
        </g>
        <rect id="矩形_1182" data-name="矩形 1182" width="1318.713" height="18.059" transform="translate(0 151.237)" fill="#c1d2e0"/>
        <rect id="矩形_1183" data-name="矩形 1183" width="1318.712" height="58.559" transform="translate(0 169.296)" fill="#b8c2cc"/>
        <g id="组_9788" data-name="组 9788" transform="translate(83.255 250.707)">
          <g id="组_9783" data-name="组 9783" transform="translate(372.144 -22.853)">
            <rect id="矩形_1184" data-name="矩形 1184" width="65.061" height="18.733" transform="translate(0 -1.118)" fill="#919ca8"/>
            <rect id="矩形_1185" data-name="矩形 1185" width="18.996" height="54.1" transform="translate(23.032)" fill="#aab3bf"/>
          </g>
          <g id="组_9784" data-name="组 9784" transform="translate(185.797 -22.853)">
            <rect id="矩形_1186" data-name="矩形 1186" width="65.061" height="18.733" transform="translate(0 -1.118)" fill="#919ca8"/>
            <rect id="矩形_1187" data-name="矩形 1187" width="18.996" height="54.1" transform="translate(23.032)" fill="#aab3bf"/>
          </g>
          <g id="组_9785" data-name="组 9785" transform="translate(0 -22.853)">
            <rect id="矩形_1188" data-name="矩形 1188" width="65.061" height="18.733" transform="translate(0 -1.118)" fill="#919ca8"/>
            <rect id="矩形_1189" data-name="矩形 1189" width="18.996" height="54.1" transform="translate(23.032)" fill="#aab3bf"/>
          </g>
          <g id="组_9786" data-name="组 9786" transform="translate(558.492 -22.853)">
            <rect id="矩形_1190" data-name="矩形 1190" width="65.061" height="18.733" transform="translate(0 -1.118)" fill="#919ca8"/>
            <rect id="矩形_1191" data-name="矩形 1191" width="18.996" height="54.1" transform="translate(23.032)" fill="#aab3bf"/>
          </g>
          <g id="组_9787" data-name="组 9787" transform="translate(743.78 -22.853)">
            <rect id="矩形_1192" data-name="矩形 1192" width="65.061" height="18.733" transform="translate(0 -1.118)" fill="#919ca8"/>
            <rect id="矩形_1193" data-name="矩形 1193" width="18.996" height="54.1" transform="translate(23.032)" fill="#aab3bf"/>
          </g>
        </g>
        <g id="组_9790" data-name="组 9790" transform="translate(983.255 250.707)">
          <g id="组_9783-2" data-name="组 9783" transform="translate(372.144 -22.853)">
            <rect id="矩形_1184-2" data-name="矩形 1184" width="65.061" height="18.733" transform="translate(0 -1.118)" fill="#919ca8"/>
            <rect id="矩形_1185-2" data-name="矩形 1185" width="18.996" height="54.1" transform="translate(23.032)" fill="#aab3bf"/>
          </g>
          <g id="组_9784-2" data-name="组 9784" transform="translate(185.797 -22.853)">
            <rect id="矩形_1186-2" data-name="矩形 1186" width="65.061" height="18.733" transform="translate(0 -1.118)" fill="#919ca8"/>
            <rect id="矩形_1187-2" data-name="矩形 1187" width="18.996" height="54.1" transform="translate(23.032)" fill="#aab3bf"/>
          </g>
          <g id="组_9785-2" data-name="组 9785" transform="translate(0 -22.853)">
            <rect id="矩形_1188-2" data-name="矩形 1188" width="65.061" height="18.733" transform="translate(0 -1.118)" fill="#919ca8"/>
            <rect id="矩形_1189-2" data-name="矩形 1189" width="18.996" height="54.1" transform="translate(23.032)" fill="#aab3bf"/>
          </g>
          <g id="组_9786-2" data-name="组 9786" transform="translate(558.492 -22.853)">
            <rect id="矩形_1190-2" data-name="矩形 1190" width="65.061" height="18.733" transform="translate(0 -1.118)" fill="#919ca8"/>
            <rect id="矩形_1191-2" data-name="矩形 1191" width="18.996" height="54.1" transform="translate(23.032)" fill="#aab3bf"/>
          </g>
          <g id="组_9787-2" data-name="组 9787" transform="translate(743.78 -22.853)">
            <rect id="矩形_1192-2" data-name="矩形 1192" width="65.061" height="18.733" transform="translate(0 -1.118)" fill="#919ca8"/>
            <rect id="矩形_1193-2" data-name="矩形 1193" width="18.996" height="54.1" transform="translate(23.032)" fill="#aab3bf"/>
          </g>
        </g>
      </g>
    </g>
  </g>
</svg>
