<svg xmlns="http://www.w3.org/2000/svg" width="1340" height="1058.096" viewBox="0 0 1340 1058.096">
  <g id="目標5" transform="translate(-1974 -1175.365)">
    <rect id="矩形_388" data-name="矩形 388" width="564.525" height="5" transform="translate(2566 1254.839) rotate(90)" fill="#ef402c"/>
    <rect id="矩形_389" data-name="矩形 389" width="1340" height="16" transform="translate(1974 1175.365)" fill="#ef402c"/>
    <rect id="矩形_390" data-name="矩形 390" width="1340" height="2" transform="translate(1974 1824.365)" fill="#ef402c"/>
    <g id="组_6000" data-name="组 6000" transform="translate(1758.259 1642.586)" style="isolation: isolate">
      <path id="路径_6173" data-name="路径 6173" d="M1985.773,339.7a10.515,10.515,0,1,0,10.515,10.514A10.514,10.514,0,0,0,1985.773,339.7Z" transform="translate(-912.739 -143.279)" fill="#f8fbff"/>
      <path id="路径_6190" data-name="路径 6190" d="M1554.223,1455.1H217.259c-.835,0-1.518-.442-1.518-.981v-.335c0-.54.683-.981,1.518-.981H1554.223c.835,0,1.518.442,1.518.981v.335C1555.741,1454.658,1555.058,1455.1,1554.223,1455.1Z" transform="translate(0 -864.225)" fill="#2e3552"/>
    </g>
    <g id="组_6180" data-name="组 6180" transform="translate(981.649 2302.365)">
      <g id="组_5905" data-name="组 5905" transform="translate(0 -640)" opacity="0.38">
        <path id="路径_6087" data-name="路径 6087" d="M1530.428-437.864l7.287-.013c8.362,4.613,16.664,9.337,25.1,13.819q38.65,20.547,77.369,40.959c1.791.949,3.464,2.122,5.314,3.266-5.484,1.012-6.84.473-14.728-3.945-10.665-5.975-21.432-11.772-32.218-17.525C1575.809-413.431,1552.826-425.1,1530.428-437.864Z" transform="translate(19.831 -30.746)" fill="#ef402c"/>
        <path id="路径_6088" data-name="路径 6088" d="M1134.428-437.864l7.287-.013c7.832,4.353,15.6,8.827,23.508,13.034,21.21,11.279,42.495,22.42,63.722,33.668,6.868,3.639,13.65,7.441,21,11.46-7.055,1.777-11.715-2.469-16.7-5-10.763-5.467-21.249-11.479-31.91-17.152q-31.421-16.719-62.9-33.332A47,47,0,0,1,1134.428-437.864Z" transform="translate(63.489 -30.746)" fill="#ef402c"/>
        <path id="路径_6089" data-name="路径 6089" d="M1743.428-437.864l7.287-.013c9.814,5.325,19.59,10.723,29.45,15.96q39.027,20.725,78.11,41.346a12.657,12.657,0,0,1,1.4,1.109c-3.944.384-7.2.306-10.424-1.57-6.362-3.7-12.847-7.185-19.349-10.633-21.211-11.25-42.47-22.409-63.672-33.676C1758.572-429.411,1751.025-433.684,1743.428-437.864Z" transform="translate(-3.652 -30.746)" fill="#ef402c"/>
        <path id="路径_6090" data-name="路径 6090" d="M1774.424-437.865l7.291-.012c6.628,4.692,14.1,7.892,21.181,11.756,16.693,9.107,33.644,17.739,50.437,26.664,12.068,6.413,24.05,12.99,36.9,19.945-3.773.381-6.417.317-9.145-1.134-30.453-16.2-61.019-32.18-91.373-48.558C1784.583-431.975,1778.861-433.83,1774.424-437.865Z" transform="translate(-7.069 -30.746)" fill="#ef402c"/>
        <path id="路径_6091" data-name="路径 6091" d="M1834.428-437.864l8.177-.013c6.685,4.88,14.324,8.075,21.55,11.97,25.8,13.91,51.785,27.483,77.686,41.211,2.838,1.5,5.586,3.183,9.039,5.161-3.335.414-5.858.51-8.421-.862q-40.513-21.68-81.077-43.262C1852.417-428.434,1843.414-433.131,1834.428-437.864Z" transform="translate(-13.684 -30.746)" fill="#ef402c"/>
        <path id="路径_6092" data-name="路径 6092" d="M1652.428-437.864l7.287-.013c7.832,4.353,15.6,8.827,23.508,13.034,21.211,11.279,42.559,22.3,63.685,33.736,6.83,3.7,14.012,6.8,20.7,11.479-6.712,1.691-11.373-2.555-16.354-5.086-10.764-5.467-21.25-11.479-31.911-17.152q-31.421-16.719-62.9-33.332A46.918,46.918,0,0,1,1652.428-437.864Z" transform="translate(6.381 -30.746)" fill="#ef402c"/>
        <path id="路径_6093" data-name="路径 6093" d="M1865.428-437.864l7.287-.013c9.416,5.131,18.787,10.349,28.259,15.378q39.421,20.93,78.9,41.744c.244.129.4.416.924.97-2.887.824-5.416.868-7.941-.489q-30.348-16.313-60.712-32.6c-11.3-6.04-22.689-11.93-34.009-17.941C1873.861-433.087,1869.663-435.509,1865.428-437.864Z" transform="translate(-17.102 -30.746)" fill="#ef402c"/>
        <path id="路径_6094" data-name="路径 6094" d="M1408.428-437.864l7.287-.013c9.156,5,18.267,10.1,27.479,15q38.451,20.451,76.963,40.789c1.14.605,2.167,1.424,3.507,2.316-5.233,1.843-9-1.07-12.863-3.1-11.6-6.112-23.1-12.4-34.65-18.612Q1442.295-419.686,1408.428-437.864Z" transform="translate(33.281 -30.746)" fill="#ef402c"/>
        <path id="路径_6095" data-name="路径 6095" d="M1895.428-437.864l8.177-.013c6.285,4.684,13.543,7.657,20.369,11.361,21.1,11.449,42.424,22.5,63.635,33.756,7.912,4.2,15.751,8.534,24.03,13.026a10.954,10.954,0,0,1-8.567-.883q-41.315-22.053-82.677-44.019Q1907.921-431.268,1895.428-437.864Z" transform="translate(-20.409 -30.746)" fill="#ef402c"/>
        <path id="路径_6096" data-name="路径 6096" d="M1438.428-437.864l8.176-.013c5.74,4.75,12.808,7.161,19.216,10.716,15.975,8.865,32.282,17.132,48.418,25.71,13.371,7.108,26.688,14.319,40.552,21.765a13.4,13.4,0,0,1-9.908-1.408c-16.586-8.989-33.343-17.663-50-26.53Q1466.621-422.675,1438.428-437.864Z" transform="translate(29.974 -30.746)" fill="#ef402c"/>
        <path id="路径_6097" data-name="路径 6097" d="M1012.428-437.864l7.287-.013c8.362,4.613,16.664,9.337,25.1,13.819q38.65,20.547,77.369,40.959c1.792.949,3.467,2.124,5.313,3.266-5.483,1.012-6.84.472-14.728-3.945-10.665-5.975-21.431-11.772-32.218-17.525C1057.809-413.431,1034.826-425.1,1012.428-437.864Z" transform="translate(76.939 -30.746)" fill="#ef402c"/>
        <path id="路径_6098" data-name="路径 6098" d="M2170.428-437.864l7.287-.013c7.832,4.353,15.6,8.827,23.509,13.034,21.21,11.279,42.495,22.42,63.721,33.668,6.868,3.639,13.65,7.441,21,11.459-7.054,1.779-11.715-2.468-16.7-5-10.765-5.467-21.25-11.479-31.911-17.152q-31.421-16.719-62.9-33.332A46.937,46.937,0,0,1,2170.428-437.864Z" transform="translate(-50.728 -30.746)" fill="#ef402c"/>
        <path id="路径_6099" data-name="路径 6099" d="M951.428-437.864l7.287-.013c8.362,4.613,16.663,9.341,25.1,13.818,21.872,11.611,43.881,22.967,65.657,34.755,5.653,3.061,11.743,5.425,17.052,9.458-5.5,1.032-5.864.815-12.754-2.969-11.491-6.311-23.074-12.457-34.614-18.678C996.6-413.654,973.687-425.153,951.428-437.864Z" transform="translate(83.665 -30.746)" fill="#ef402c"/>
        <path id="路径_6100" data-name="路径 6100" d="M981.428-437.864l8.176-.013c5.233,4.436,11.726,6.692,17.623,9.939,16.653,9.166,33.619,17.762,50.407,26.685,13.242,7.038,26.4,14.227,40.05,21.592a13.333,13.333,0,0,1-9.8-1.431c-16.586-8.99-33.343-17.664-49.995-26.531Q1009.621-422.675,981.428-437.864Z" transform="translate(80.357 -30.746)" fill="#ef402c"/>
        <path id="路径_6101" data-name="路径 6101" d="M1987.428-437.864l7.287-.013c8.493,4.683,16.928,9.472,25.49,14.026,21.211,11.28,42.566,22.294,63.671,33.768,6.17,3.355,12.82,5.906,18.656,10.234-5.513,1.035-5.875.819-12.766-2.966-11.491-6.311-23.073-12.457-34.614-18.678C2032.6-413.654,2009.687-425.153,1987.428-437.864Z" transform="translate(-30.552 -30.746)" fill="#ef402c"/>
        <path id="路径_6102" data-name="路径 6102" d="M2139.428-437.863l8.172-.012c4.786,4.271,10.866,6.353,16.37,9.336,25.658,13.909,51.543,27.4,77.336,41.059,4.665,2.471,9.278,5.042,14.357,7.808-4.45.985-7.749-.138-11.347-2.177-10.512-5.958-21.339-11.359-32-17.049Q2175.853-418.347,2139.428-437.863Z" transform="translate(-47.31 -30.746)" fill="#ef402c"/>
        <path id="路径_6103" data-name="路径 6103" d="M1164.428-437.864l7.287-.013c5.785,3.183,11.528,6.444,17.362,9.534,21.216,11.239,42.477,22.4,63.691,33.639,9.2,4.876,18.326,9.889,28.18,15.216-4.218.409-7.444.277-10.7-1.542-10.8-6.029-21.69-11.883-32.592-17.721Q1201.064-418.347,1164.428-437.864Z" transform="translate(60.182 -30.746)" fill="#ef402c"/>
        <path id="路径_6104" data-name="路径 6104" d="M1103.428-437.863l8.172-.012c4.786,4.271,10.867,6.353,16.37,9.336,25.658,13.909,51.543,27.4,77.336,41.059,4.665,2.471,9.276,5.042,14.356,7.808-4.449.985-7.748-.139-11.347-2.178-10.513-5.957-21.338-11.359-32-17.049Q1139.852-418.347,1103.428-437.863Z" transform="translate(66.907 -30.746)" fill="#ef402c"/>
        <path id="路径_6105" data-name="路径 6105" d="M1286.428-437.864l7.287-.013c10.339,5.6,20.643,11.259,31.024,16.776q38.043,20.221,76.138,40.346c.245.129.4.415.925.97-2.888.823-5.417.867-7.942-.49q-30.349-16.313-60.712-32.6c-10.26-5.488-20.593-10.84-30.864-16.308C1296.966-432.015,1291.711-434.967,1286.428-437.864Z" transform="translate(46.731 -30.746)" fill="#ef402c"/>
        <path id="路径_6106" data-name="路径 6106" d="M1256.424-437.865l7.291-.012c6.628,4.693,14.1,7.891,21.181,11.756,16.693,9.107,33.644,17.739,50.437,26.664,12.069,6.413,24.05,12.99,36.9,19.945-3.773.381-6.417.317-9.145-1.134-30.453-16.2-61.02-32.18-91.374-48.558C1266.583-431.975,1260.861-433.83,1256.424-437.865Z" transform="translate(50.039 -30.746)" fill="#ef402c"/>
        <path id="路径_6107" data-name="路径 6107" d="M1560.428-437.863l8.172-.012c.461,1.5,1.923,1.761,3.053,2.36q39.478,20.894,78.977,41.749c8.57,4.541,17.064,9.227,26.047,14.092-4.465.989-7.769-.117-11.362-2.175-9.842-5.641-20-10.737-30.014-16.076Q1597.858-417.883,1560.428-437.863Z" transform="translate(16.523 -30.746)" fill="#ef402c"/>
        <path id="路径_6108" data-name="路径 6108" d="M1591.428-437.864l7.287-.013c7.968,4.411,15.874,8.936,23.915,13.209,21.735,11.553,43.606,22.853,65.247,34.576,6.177,3.345,12.789,5.965,18.695,10.44-6,1.715-10.238-2-14.756-4.23-6.2-3.062-12.126-6.669-18.237-9.913q-39.054-20.731-78.139-41.4A47.09,47.09,0,0,1,1591.428-437.864Z" transform="translate(13.106 -30.746)" fill="#ef402c"/>
        <path id="路径_6109" data-name="路径 6109" d="M2017.428-437.864l8.177-.013c5.232,4.436,11.724,6.692,17.622,9.939,16.652,9.166,33.62,17.762,50.407,26.685,13.242,7.038,26.4,14.227,40.05,21.592a13.333,13.333,0,0,1-9.8-1.431c-16.586-8.99-33.342-17.664-49.994-26.531Q2045.621-422.673,2017.428-437.864Z" transform="translate(-33.859 -30.746)" fill="#ef402c"/>
        <path id="路径_6110" data-name="路径 6110" d="M2048.428-437.864l7.287-.013c8.362,4.613,16.664,9.337,25.1,13.819q38.65,20.547,77.369,40.959c1.791.949,3.464,2.122,5.313,3.266-5.482,1.013-6.838.474-14.727-3.945-10.666-5.975-21.431-11.772-32.218-17.525C2093.809-413.431,2070.826-425.1,2048.428-437.864Z" transform="translate(-37.277 -30.746)" fill="#ef402c"/>
        <path id="路径_6111" data-name="路径 6111" d="M1713.424-437.865l7.291-.012c7.034,4.878,14.871,8.323,22.368,12.352,26.1,14.028,52.348,27.775,78.524,41.657,2.31,1.224,4.507,2.658,6.859,4.054-5.638,1.455-5.281.763-16.258-4.876-11.53-5.924-22.809-12.334-34.259-18.416q-31.242-16.595-62.544-33.076A11.882,11.882,0,0,1,1713.424-437.865Z" transform="translate(-0.344 -30.746)" fill="#ef402c"/>
        <path id="路径_6112" data-name="路径 6112" d="M2261.428-437.864l7.287-.013c9.946,5.391,19.855,10.852,29.845,16.159q38.831,20.624,77.715,41.147a12.667,12.667,0,0,1,1.4,1.109c-3.943.384-7.194.306-10.423-1.57-6.361-3.7-12.847-7.185-19.348-10.633-21.211-11.25-42.47-22.409-63.673-33.676C2276.573-429.41,2269.026-433.684,2261.428-437.864Z" transform="translate(-60.76 -30.746)" fill="#ef402c"/>
        <path id="路径_6113" data-name="路径 6113" d="M2231.424-437.865l7.291-.012c7.033,4.878,14.871,8.323,22.368,12.352,26.1,14.028,52.348,27.775,78.524,41.657,2.31,1.224,4.507,2.658,6.859,4.054-5.639,1.455-5.28.764-16.258-4.876-11.53-5.923-22.809-12.334-34.259-18.416q-31.243-16.595-62.544-33.076A11.869,11.869,0,0,1,2231.424-437.865Z" transform="translate(-57.452 -30.746)" fill="#ef402c"/>
        <path id="路径_6114" data-name="路径 6114" d="M1377.428-437.864l8.177-.013c6.285,4.684,13.543,7.657,20.369,11.361,21.1,11.449,42.424,22.5,63.635,33.756,7.912,4.2,15.752,8.534,24.029,13.026a10.953,10.953,0,0,1-8.567-.883q-41.316-22.053-82.678-44.019Q1389.92-431.268,1377.428-437.864Z" transform="translate(36.699 -30.746)" fill="#ef402c"/>
        <path id="路径_6115" data-name="路径 6115" d="M2200.428-437.864l7.287-.013c5.4,2.964,10.762,5.994,16.2,8.881q39.23,20.816,78.491,41.577c4.646,2.463,9.238,5.025,14.563,7.928-4.241.413-7.466.279-10.722-1.539-10.8-6.029-21.691-11.883-32.592-17.721Q2237.064-418.347,2200.428-437.864Z" transform="translate(-54.034 -30.746)" fill="#ef402c"/>
        <path id="路径_6116" data-name="路径 6116" d="M1469.428-437.864l7.287-.013c8.493,4.683,16.929,9.472,25.49,14.026,21.211,11.281,42.567,22.294,63.672,33.769,6.17,3.354,12.82,5.905,18.656,10.233-5.512,1.035-5.875.819-12.766-2.966-11.491-6.311-23.074-12.457-34.614-18.678C1514.6-413.654,1491.687-425.153,1469.428-437.864Z" transform="translate(26.556 -30.746)" fill="#ef402c"/>
        <path id="路径_6117" data-name="路径 6117" d="M1499.428-437.864l8.176-.013c5.233,4.436,11.725,6.692,17.623,9.939,16.653,9.166,33.619,17.762,50.407,26.685,13.242,7.038,26.4,14.227,40.05,21.592a13.33,13.33,0,0,1-9.8-1.431c-16.585-8.99-33.342-17.664-49.994-26.531Q1527.621-422.675,1499.428-437.864Z" transform="translate(23.249 -30.746)" fill="#ef402c"/>
        <path id="路径_6118" data-name="路径 6118" d="M1073.428-437.864l7.287-.013c7.968,4.411,15.874,8.936,23.915,13.209,21.735,11.553,43.606,22.853,65.248,34.576,6.176,3.345,12.789,5.965,18.694,10.44-6,1.715-10.238-2-14.756-4.229-6.2-3.063-12.126-6.67-18.237-9.914q-39.054-20.731-78.139-41.4A47.088,47.088,0,0,1,1073.428-437.864Z" transform="translate(70.214 -30.746)" fill="#ef402c"/>
        <path id="路径_6119" data-name="路径 6119" d="M2109.428-437.864l7.287-.013c7.832,4.353,15.6,8.833,23.508,13.034q39.44,20.946,78.958,41.744c1.793.949,3.467,2.123,5.314,3.266-5.485,1.01-6.887.541-14.725-3.958-6-3.445-12.079-6.759-18.191-10q-39.052-20.731-78.138-41.4A46.948,46.948,0,0,1,2109.428-437.864Z" transform="translate(-44.002 -30.746)" fill="#ef402c"/>
        <path id="路径_6120" data-name="路径 6120" d="M1347.428-437.864l7.287-.013c9.416,5.131,18.787,10.349,28.258,15.378q39.421,20.93,78.9,41.745c.245.129.4.415.925.97-2.888.823-5.417.867-7.942-.49q-30.349-16.313-60.713-32.6c-11.3-6.04-22.689-11.93-34.008-17.941C1355.86-433.087,1351.662-435.509,1347.428-437.864Z" transform="translate(40.006 -30.746)" fill="#ef402c"/>
        <path id="路径_6121" data-name="路径 6121" d="M1316.428-437.864l8.177-.013c6.685,4.881,14.323,8.075,21.549,11.97,25.8,13.91,51.786,27.483,77.687,41.211,2.838,1.5,5.586,3.183,9.041,5.161-3.338.412-5.86.509-8.423-.863q-40.514-21.68-81.078-43.263C1334.417-428.434,1325.413-433.132,1316.428-437.864Z" transform="translate(43.424 -30.746)" fill="#ef402c"/>
        <path id="路径_6122" data-name="路径 6122" d="M1621.428-437.863l8.172-.012c4.786,4.271,10.866,6.353,16.37,9.336,25.658,13.909,51.543,27.4,77.336,41.059,4.665,2.471,9.277,5.042,14.356,7.808-4.45.985-7.748-.139-11.347-2.178-10.513-5.957-21.338-11.359-32-17.049Q1657.852-418.347,1621.428-437.863Z" transform="translate(9.799 -30.746)" fill="#ef402c"/>
        <path id="路径_6123" data-name="路径 6123" d="M1804.428-437.864l7.287-.013c10.339,5.6,20.643,11.258,31.024,16.776q38.044,20.221,76.138,40.345c.244.13.4.416.924.97-2.887.824-5.416.868-7.941-.489q-30.348-16.313-60.711-32.6c-10.261-5.488-20.593-10.84-30.864-16.308C1814.966-432.015,1809.711-434.967,1804.428-437.864Z" transform="translate(-10.376 -30.746)" fill="#ef402c"/>
        <path id="路径_6124" data-name="路径 6124" d="M1225.428-437.864l7.287-.013c9.814,5.325,19.589,10.723,29.45,15.96q39.027,20.725,78.109,41.346a12.686,12.686,0,0,1,1.4,1.109c-3.943.384-7.19.3-10.424-1.569-6.5-3.749-13.134-7.269-19.763-10.789q-38.443-20.413-76.909-40.78C1231.472-434.251,1228.475-436.1,1225.428-437.864Z" transform="translate(53.457 -30.746)" fill="#ef402c"/>
        <path id="路径_6125" data-name="路径 6125" d="M1195.424-437.865l7.291-.012c7.033,4.879,14.87,8.323,22.368,12.352,26.1,14.028,52.348,27.775,78.524,41.656,2.309,1.225,4.508,2.658,6.859,4.055-5.638,1.456-5.281.763-16.258-4.876-11.53-5.924-22.81-12.334-34.26-18.416q-31.241-16.595-62.543-33.076A11.842,11.842,0,0,1,1195.424-437.865Z" transform="translate(56.765 -30.746)" fill="#ef402c"/>
        <path id="路径_6126" data-name="路径 6126" d="M2078.428-437.863l8.172-.012c5.1,4.321,11.4,6.588,17.173,9.7,26.077,14.071,52.331,27.81,78.51,41.694,4.011,2.127,7.955,4.382,12.353,6.813-4.423.981-7.728-.126-11.32-2.184-9.843-5.64-20-10.737-30.015-16.076Q2115.859-417.883,2078.428-437.863Z" transform="translate(-40.584 -30.746)" fill="#ef402c"/>
        <path id="路径_6127" data-name="路径 6127" d="M1042.428-437.863l8.172-.012c.462,1.5,1.923,1.761,3.054,2.36q39.478,20.894,78.977,41.749c8.57,4.541,17.064,9.227,26.046,14.092-4.464.989-7.769-.117-11.361-2.175-9.843-5.64-20-10.737-30.014-16.076Q1079.859-417.883,1042.428-437.863Z" transform="translate(73.632 -30.746)" fill="#ef402c"/>
        <path id="路径_6128" data-name="路径 6128" d="M1926.428-437.864l7.287-.013c9.156,5,18.267,10.1,27.479,15q38.451,20.452,76.963,40.79c1.142.606,2.17,1.425,3.494,2.308-5.219,1.854-8.991-1.062-12.85-3.1-11.6-6.113-23.1-12.4-34.65-18.612Q1960.295-419.686,1926.428-437.864Z" transform="translate(-23.827 -30.746)" fill="#ef402c"/>
        <path id="路径_6129" data-name="路径 6129" d="M1682.428-437.864l7.287-.013c5.785,3.183,11.529,6.444,17.363,9.534,21.216,11.239,42.477,22.4,63.691,33.639,9.2,4.876,18.326,9.889,28.18,15.215-4.218.411-7.444.278-10.7-1.541-10.8-6.029-21.69-11.883-32.592-17.721Q1719.064-418.347,1682.428-437.864Z" transform="translate(3.074 -30.746)" fill="#ef402c"/>
        <path id="路径_6130" data-name="路径 6130" d="M920.428-437.864l8.176-.013c5.74,4.75,12.808,7.161,19.216,10.716,15.976,8.865,32.282,17.132,48.419,25.71,13.371,7.108,26.688,14.319,40.552,21.765a13.391,13.391,0,0,1-9.908-1.408c-16.586-8.989-33.343-17.663-50-26.53Q948.621-422.675,920.428-437.864Z" transform="translate(87.082 -30.746)" fill="#ef402c"/>
        <path id="路径_6131" data-name="路径 6131" d="M1956.428-437.864l8.177-.013c5.232,4.436,11.724,6.692,17.622,9.939,16.653,9.166,33.616,17.768,50.408,26.683,13.246,7.031,26.42,14.2,40.138,21.577a13.408,13.408,0,0,1-9.891-1.413c-16.586-8.99-33.343-17.664-50-26.531Q1984.621-422.675,1956.428-437.864Z" transform="translate(-27.134 -30.746)" fill="#ef402c"/>
        <path id="路径_6132" data-name="路径 6132" d="M903.916-434.741l103.67,55.212c-5.733,1.87-9.545-.982-13.437-3.041-10.941-5.788-21.76-11.809-32.679-17.639q-27.894-14.9-55.868-29.639C903.657-430.874,903.109-432.158,903.916-434.741Z" transform="translate(88.942 -31.092)" fill="#ef402c"/>
        <path id="路径_6133" data-name="路径 6133" d="M2292.424-437.865l7.291-.012c6.63,4.694,14.1,7.894,21.189,11.761,16.7,9.11,33.643,17.765,50.453,26.671,6.249,3.311,12.37,6.864,18.613,10.185,1.708.908,2.862,2.2,1.867,3.806-1.017,1.647-2.33-.138-3.33-.669-10.67-5.673-21.271-11.479-31.942-17.147q-31.057-16.495-62.157-32.911A11.937,11.937,0,0,1,2292.424-437.865Z" transform="translate(-64.177 -30.746)" fill="#ef402c"/>
        <path id="路径_6134" data-name="路径 6134" d="M980.933-377.286c-8.633,1.239-14.216-3.941-20.392-6.989-10.56-5.21-20.742-11.18-31.131-16.741-7.15-3.827-14.384-7.5-21.573-11.252-.78-.408-1.512-.908-2.256-1.381-1.27-.806-2.85-1.774-1.846-3.427,1.08-1.778,2.409.036,3.363.528q17.494,9.013,34.877,18.241C954.706-391.523,967.369-384.612,980.933-377.286Z" transform="translate(88.957 -32.955)" fill="#ef402c"/>
        <path id="路径_6135" data-name="路径 6135" d="M2322.428-437.864l7.287-.013c9.685,5.278,19.334,10.623,29.065,15.815q16.976,9.059,34.083,17.875c2.142,1.107,3.255,2.35,2.04,5.346Z" transform="translate(-67.485 -30.746)" fill="#ef402c"/>
        <path id="路径_6136" data-name="路径 6136" d="M954.061-375.766c-4.617.825-7.494.376-10.381-1.2-12.535-6.832-25.139-13.535-37.749-20.229-1.586-.842-3.121-1.889-2.223-3.675,1.1-2.184,2.563-.106,3.582.426,14.873,7.772,29.692,15.647,44.523,23.5C952.2-376.737,952.589-376.536,954.061-375.766Z" transform="translate(88.955 -34.718)" fill="#ef402c"/>
        <path id="路径_6137" data-name="路径 6137" d="M2352.428-437.864l8.177-.013c8.755,5.694,18.217,10.1,27.406,15,2.982,1.59,5.878,3.349,8.907,4.839,2.114,1.04,2.109,2.543,1.424,4.708Z" transform="translate(-70.792 -30.746)" fill="#ef402c"/>
        <path id="路径_6138" data-name="路径 6138" d="M926.012-374.252c-8.755,1.021-15.037-4.126-21.779-8.047a2.051,2.051,0,0,1-.495-2.829c.949-1.481,1.68.052,2.471.468Q916.111-379.458,926.012-374.252Z" transform="translate(88.96 -36.492)" fill="#ef402c"/>
        <path id="路径_6139" data-name="路径 6139" d="M2383.428-437.864l7.287-.013c3.083,1.683,6.122,3.453,9.267,5.011,1.733.859,2.865,2.168,1.9,3.8-1,1.7-2.385-.087-3.359-.593C2393.44-432.293,2388.451-435.11,2383.428-437.864Z" transform="translate(-74.21 -30.746)" fill="#ef402c"/>
      </g>
    </g>
    <path id="路径_6924" data-name="路径 6924" d="M259.2,348.048c0,2.815-2.864,5.1-6.4,5.1H171.922c-3.532,0-6.393-2.284-6.393-5.1V318.379c0-2.815,2.861-5.1,6.393-5.1h80.886c3.532,0,6.4,2.284,6.4,5.1Z" transform="translate(1979.752 1412.08)" fill="#ef402c" opacity="0.78"/>
    <path id="路径_6925" data-name="路径 6925" d="M171.922,353.147h80.886c3.532,0,6.4-2.284,6.4-5.1V324.779H165.529v23.269C165.529,350.863,168.39,353.147,171.922,353.147Z" transform="translate(1979.752 1412.08)" fill="#ef402c"/>
    <path id="路径_6926" data-name="路径 6926" d="M270.1,302.436,334.633,291.4,333.6,285.35,269.578,296.3,160.391,274.15l-54.682-35.044-3.306,5.165,55.84,35.78.05-.079,110.95,22.513.017.093.235-.04.561.113Z" transform="translate(1979.752 1412.08)" fill="#8e8e8e"/>
    <g id="组_6185" data-name="组 6185" transform="translate(1979.752 1412.08)">
      <g id="组_6184" data-name="组 6184">
        <path id="路径_6927" data-name="路径 6927" d="M182.591,203.771,48.9,201.59a68.748,68.748,0,0,0,133.7,2.181Z" fill="#8e8e8e"/>
      </g>
      <path id="路径_6928" data-name="路径 6928" d="M148.231,203.207a68.72,68.72,0,0,1-64.347,41.842c-1.517-.023-3.008-.15-4.5-.269a68.644,68.644,0,0,0,103.209-41.009Z" fill="#8e8e8e"/>
      <path id="路径_6929" data-name="路径 6929" d="M189.575,204.189a5.562,5.562,0,0,1-5.776,5.338L47.5,207.3a5.44,5.44,0,1,1,.175-10.868l136.308,2.227A5.561,5.561,0,0,1,189.575,204.189Z" fill="#8e8e8e"/>
    </g>
    <g id="组_6187" data-name="组 6187" transform="translate(1979.752 1412.08)">
      <g id="组_6186" data-name="组 6186">
        <path id="路径_6930" data-name="路径 6930" d="M394.606,239.953l-133.682,2.789a68.749,68.749,0,0,0,133.682-2.789Z" fill="#8e8e8e"/>
      </g>
      <path id="路径_6931" data-name="路径 6931" d="M289.923,282.927a70.622,70.622,0,0,0,9.895.558,68.748,68.748,0,0,0,62.243-42.854l-101.137,2.111A68.838,68.838,0,0,0,289.923,282.927Z" fill="#8e8e8e"/>
      <path id="路径_6932" data-name="路径 6932" d="M401.6,239.807a5.572,5.572,0,0,1-5.576,5.557l-136.294,2.842a5.441,5.441,0,1,1-.223-10.869L395.794,234.5A5.564,5.564,0,0,1,401.6,239.807Z" fill="#8e8e8e"/>
    </g>
    <rect id="矩形_395" data-name="矩形 395" width="145.578" height="18.755" rx="6.393" transform="translate(2119.289 1746.473)" fill="#ed6670"/>
    <g id="组_6188" data-name="组 6188" transform="translate(1979.752 1412.08)">
      <path id="路径_6933" data-name="路径 6933" d="M234.58,333.612H190.149a11.327,11.327,0,0,1-11.3-12.1l2.732-40.076a11.331,11.331,0,0,1,11.3-10.56h38.967a11.334,11.334,0,0,1,11.306,10.56l2.732,40.076A11.33,11.33,0,0,1,234.58,333.612Z" fill="#595757"/>
    </g>
    <path id="路径_6934" data-name="路径 6934" d="M235.23,302.425a22.758,22.758,0,1,1-22.755-22.758A22.757,22.757,0,0,1,235.23,302.425Z" transform="translate(1979.752 1412.08)" fill="#fff"/>
    <path id="路径_6935" data-name="路径 6935" d="M215.037,304.279a3.165,3.165,0,1,1-.71-4.418A3.165,3.165,0,0,1,215.037,304.279Z" transform="translate(1979.752 1412.08)" fill="#ef402c"/>
    <path id="路径_6936" data-name="路径 6936" d="M233.573,299.26l-21.051,1.811,1.936,3.791Z" transform="translate(1985.055 1407.136) rotate(1)" fill="#ef402c"/>
    <path id="路径_6937" data-name="路径 6937" d="M145.931,353.147H278.723a6.391,6.391,0,0,0,6.393-6.393V343.77H139.538v2.984A6.393,6.393,0,0,0,145.931,353.147Z" transform="translate(1979.752 1412.08)" fill="#ef402c"/>
    <path id="路径_6938" data-name="路径 6938" d="M1377.1,335.657a28.452,28.452,0,0,0,11.827,33.411l-4.638,13.957-1.651-6.7a4.475,4.475,0,0,0-5.416-3.273l-1.057.261a4.475,4.475,0,0,0-3.273,5.416l7.229,17.685a5.648,5.648,0,0,0,1.438,3.648c.025.029.051.058.077.085a5.608,5.608,0,0,0,2.283,1.487l1.3.447a5.637,5.637,0,0,0,6.4-2.012l15.818-10.278a4.474,4.474,0,0,0,.5-6.308l-.707-.828a4.474,4.474,0,0,0-6.308-.5l-4.181,3.572,4.143-12.522a28.443,28.443,0,1,0-23.77-37.552Zm9.012,3.11a18.908,18.908,0,1,1,11.706,24.041A18.908,18.908,0,0,1,1386.115,338.766Z" transform="translate(872.975 1745.039) rotate(-20)" fill="#789cb9"/>
    <g id="组_6190" data-name="组 6190" transform="translate(981.164 927.149)">
      <path id="路径_6939" data-name="路径 6939" d="M1143.78,624.981a27.463,27.463,0,1,0-34.233,25.966l-.323,4.576-7.946-.189a5.863,5.863,0,0,0-6,5.721h0a5.863,5.863,0,0,0,5.722,6l7.946.189-.342,7.373a6.1,6.1,0,1,0,12.2.29l.342-7.373,7.7.183a5.863,5.863,0,0,0,6-5.721h0a5.863,5.863,0,0,0-5.722-6l-7.7-.183.322-4.558A27.472,27.472,0,0,0,1143.78,624.981Zm-45.708-1.086a18.258,18.258,0,1,1,17.819,18.686A18.258,18.258,0,0,1,1098.072,623.895Z" transform="translate(0 2)" fill="#ef402c"/>
    </g>
    <text id="_1.08" data-name="1.08" transform="translate(2280 1516)" fill="#ef402c" font-size="93" font-family="MicrosoftJhengHeiBold, Microsoft JhengHei"><tspan x="0" y="0">1.08</tspan></text>
    <g id="组_6217" data-name="组 6217" transform="translate(103.717 -50)">
      <circle id="椭圆_19" data-name="椭圆 19" cx="139.687" cy="139.687" r="139.687" transform="translate(2794.91 1408)" fill="#fdebe9"/>
      <g id="组_6216" data-name="组 6216" transform="translate(2840.788 1500.594)">
        <text id="_55萬_家" data-name="55萬+家" transform="translate(0 75)" fill="#ef402c" font-size="85" font-family="GenYoGothicTW-B, GenYoGothic TW"><tspan x="0" y="0">55</tspan><tspan y="0" fill="#595757" font-size="33">萬+家</tspan></text>
      </g>
    </g>
    <g id="组_6191" data-name="组 6191" transform="translate(2665.771 1406.918)" style="mix-blend-mode: multiply;isolation: isolate">
      <path id="路径_6940" data-name="路径 6940" d="M1272.3,694.773l-118.374-67.055-8.312,5.378,126.077,66.143Z" transform="translate(-1042.95 -335.865)" fill="#d9d9d9"/>
      <path id="路径_6941" data-name="路径 6941" d="M1309.907,677.029l-112.731-74.438-7.223,5.362L1309.2,682.511Z" transform="translate(-1062.079 -325.025)" fill="#d9d9d9"/>
      <path id="路径_6942" data-name="路径 6942" d="M1006.354,243.627c-1.008-10.09,9.706-17.3,19.746-23.486a2.35,2.35,0,0,0,.077.884,1.789,1.789,0,0,0,.88.99c2.635,3.211,7.216,8.677,11.307,12.886a1.591,1.591,0,0,0,.276,1.844,34.126,34.126,0,0,0,3.9,4.086,4.54,4.54,0,0,0,3.475-.263l4.8,5.185c.01.015.018.032.028.047a6.442,6.442,0,0,1,.99,2.515c.1,1.238.466,3.733,1.778,5.052a10.376,10.376,0,0,0,.824.735c-4.869,22.314,6.566,53.1,5.981,77.013a6.781,6.781,0,0,0,1.665,4.415c.048.79.094,1.572.139,2.341.619,10.707,4.036,57.551,5.479,73.761l8.322-5.381.814-21.567c-.79-16.28,3.535-32.508,2.387-45.394a55.2,55.2,0,0,0,8.887-1.622c-1.963,15.338,2.333,17.695,3.373,37.357.007.048.018.092.026.139l1.4,22.163,7.223-5.362c.149-13.921,3.6-52.737,3.716-63.134a6.019,6.019,0,0,0,.908-2.352c-2.082-20.146,5.786-53.629-2.836-82.079a3.793,3.793,0,0,0,.656-2.563,17.011,17.011,0,0,0-2.44-5,11.617,11.617,0,0,0,.37-3.705,6.441,6.441,0,0,1,.66-2.622c.008-.017.014-.034.021-.051l4.1-5.759a4.536,4.536,0,0,0,3.48-.186,34.094,34.094,0,0,0,3.343-4.553,1.6,1.6,0,0,0,.021-1.895c3.784-5.2,8.281-12.629,9.886-16.608a1.387,1.387,0,0,0,.217-1.673c-3.8-9.424-21.054-34.79-24.823-39.076a10.8,10.8,0,0,0-7.338-3.332,6.989,6.989,0,0,0-3.551-1.06c-.119-.059-.229-.107-.333-.15-.342-.192-.675-.364-.98-.507-.007-.118-.014-.238-.022-.357,4.516-1.608,4.443-4.122,4.581-7.171,3.149.421,6.341,1.017,6.854-.309.349-.863-2.552-1.709-4.569-6.179-1.9-4.2-4.372-9.39-6.026-13.669.525-.3.791-.6.686-.875-3.69-9.816-10.918-13.616-18.842-12.52-4.571.633-7.156,1.091-9.953,3.275-7.159,5.59-7.274,10-6.116,21.795.189,1.929,2.412,12.4-1.539,19.641.2-.178,1.708.041,1.708.041a64.84,64.84,0,0,0,1.686-9.775l-1.117,9.977s2.64.966,4.153,1.517c.189-.36,1.646-6.029,1.646-6.029s-.873,6.2-.905,6.567c.241.08.487.156.734.228-.177.687-.363,1.369-.552,1.983-11.218,1.608-26.721,5.046-41.4,15.008-9.212,6.251-29.941,20.4-38.825,19.083-9.212,6.251-19.864,37.731-4.865,48.427,9.142,6.519-8.625,25.6,2.562,39.093C978.058,275.213,1008,260.078,1006.354,243.627Zm91.1-34.295c.218-1.723,5.019-8.055,6.11-15.854,2.11,2.57,4.148,4.978,5.989,7.087a.233.233,0,0,0,.043.027c-2.225,3.854-5.18,9.749-7.225,13.581a5.216,5.216,0,0,0-1.035.26s-2.02,4.229-2.222,4.568a6.069,6.069,0,0,0,.631,1.541l-3.008,5.742a3.421,3.421,0,0,1-1.209.881C1095.145,221.817,1096.791,214.608,1097.457,209.332Zm-60.278,6.6c.219-.27,1.611-2.712,3.51-6.138a8.973,8.973,0,0,0,1.528-2.363c.286-.689.577-1.351.871-2,1.213-2.22,2.5-4.6,3.758-6.941a38.91,38.91,0,0,1,2.676-3.646c5.313,12.94,12.478,31.924,12.388,39.989a11.528,11.528,0,0,1-.561,3.186,23.376,23.376,0,0,0-3.273,4.125,4.946,4.946,0,0,0-1.228-.255,3.408,3.408,0,0,1-2.147-.855l-3.721-5.309a6.05,6.05,0,0,0,.428-1.609c-.091-.117-.507-.743-.99-1.48-.806-1.229-1.8-2.766-1.8-2.766h0a5.583,5.583,0,0,0-1.537-.118c-2.717-3.714-7.282-10.059-10.036-13.666C1037.09,216.038,1037.134,215.99,1037.179,215.936Z" transform="translate(-965.045 -114.4)" fill="#d9d9d9"/>
      <ellipse id="椭圆_20" data-name="椭圆 20" cx="40.859" cy="23.666" rx="40.859" ry="23.666" transform="translate(216.97 350.381) rotate(-7.714)" fill="#d9d9d9"/>
    </g>
    <g id="组_6214" data-name="组 6214" transform="translate(2889.672 1520.43)">
      <g id="组_6193" data-name="组 6193" transform="translate(33.099 35.951)">
        <g id="组_6192" data-name="组 6192">
          <path id="路径_6943" data-name="路径 6943" d="M1405.108,465.8c-2.694-6.04-15.7-6.945-13.369,1.27,3.715,13.125,19.388,40.755,21.865,41.729,2.62,1.03,7.226-4.953,3.883-13.5C1414.637,488.02,1407.234,470.57,1405.108,465.8Z" transform="translate(-1391.462 -461.091)" fill="#6b6b6b"/>
        </g>
      </g>
      <g id="组_6194" data-name="组 6194" transform="translate(11.421 148.746)">
        <path id="路径_6944" data-name="路径 6944" d="M1384.056,745.286c.849.956.777,5.7.865,9.8l.809.467.01,0V744.771Z" transform="translate(-1367.81 -657.865)" fill="#bd3723"/>
        <path id="路径_6945" data-name="路径 6945" d="M1386.976,754.946c.142-4.148.251-8.722.573-10.758l-1.2.427V755.4C1386.659,755.32,1386.968,755.133,1386.976,754.946Z" transform="translate(-1368.422 -657.71)" fill="#ed462c"/>
        <path id="路径_6946" data-name="路径 6946" d="M1386.348,758.1v.89l-.01,0c.311-.077.626-.266.634-.455q.014-.433.028-.873C1386.953,757.85,1386.651,758.027,1386.348,758.1Z" transform="translate(-1368.418 -661.303)" fill="#7a7a7a"/>
        <path id="路径_6947" data-name="路径 6947" d="M1386.048,758.085h0l-.834-.481v.008c.005.3.01.6.017.9l.809.467.01,0Z" transform="translate(-1368.118 -661.287)" fill="#4f4f4f"/>
        <path id="路径_6948" data-name="路径 6948" d="M1380.657,655.79c.645-14.464,2.4-29.514,2.4-29.514l-18.209,1.216s1.559,18.947,2.371,33.016c.584,10.092,4.071,38.251,5.009,50.983.26.825,8.077,2.318,8.077,2.318l-.573-13.22C1378.929,684.015,1384.319,667.5,1380.657,655.79Z" transform="translate(-1362.689 -626.276)" fill="#f0c7ad"/>
        <path id="路径_6949" data-name="路径 6949" d="M1371.6,758.016c-2.623-.541-4.633-1.069-5.3-2.5a1.593,1.593,0,0,1,.069-1.49c2.6-2.85,5.911-8.025,6.215-12.079l8.082,1.638C1378.718,749.43,1376.209,755.961,1371.6,758.016Z" transform="translate(-1363.036 -657.112)" fill="#f0c7ad"/>
        <path id="路径_6950" data-name="路径 6950" d="M1374.21,763.9c-2.147,3.191-11.234,6.163-12.039,3.552s2.853-7.691,2.853-7.691c-.247,1,3.294,2.113,6.362,2.068a5.457,5.457,0,0,0,4.152-2.231A11.694,11.694,0,0,1,1374.21,763.9Z" transform="translate(-1361.944 -661.817)" fill="#7a5b42"/>
        <path id="路径_6951" data-name="路径 6951" d="M1374.305,763.071c-2.147,3.192-11.488,6.143-12.294,3.532s3.245-8.239,3.245-8.239a1.277,1.277,0,0,0,.4,1.712c1.031.832,3.41.936,5.565.9a6.042,6.042,0,0,0,4.421-2.213A11.84,11.84,0,0,1,1374.305,763.071Z" transform="translate(-1361.904 -661.489)" fill="#ff4d2e"/>
        <path id="路径_6952" data-name="路径 6952" d="M1384.348,743.41c-3.567,4.433-4.144,7.862-5.574,10.794l-3.928.71c5.05-1.978,7.2-12.67,7.62-15.6a36.709,36.709,0,0,0,.213-3.812C1384.032,736.67,1385.1,741.174,1384.348,743.41Z" transform="translate(-1365.354 -655.393)" fill="#ff4d2e"/>
      </g>
      <g id="组_6197" data-name="组 6197" transform="translate(37.683 167.379)">
        <path id="路径_6953" data-name="路径 6953" d="M1411.988,748.5c.778,1.228,14.174,3.448,14.9,1.1s-6.189-5.983-6.189-5.983c-1.719.941-8.111,1.817-10.034.794A13.889,13.889,0,0,0,1411.988,748.5Z" transform="translate(-1401.164 -676.193)" fill="#7a5b42"/>
        <g id="组_6195" data-name="组 6195" transform="translate(2.004 59.046)">
          <path id="路径_6954" data-name="路径 6954" d="M1403.6,733.157c-.761.858-.7,5.121-.776,8.8l-.727.419-.009,0V732.7Z" transform="translate(-1400.884 -732.325)" fill="#bd3723"/>
          <path id="路径_6955" data-name="路径 6955" d="M1401.093,741.835c-.127-3.724-.151-7.871-.649-9.644l1.209.37v9.68C1401.378,742.171,1401.1,742,1401.093,741.835Z" transform="translate(-1400.444 -732.191)" fill="#ed462c"/>
        </g>
        <path id="路径_6956" data-name="路径 6956" d="M1402.273,727.148l10.045-.257c-1.344-3.742-2.6-7.514-2.544-11.632l-7.5-.073Z" transform="translate(-1398.928 -668.612)" fill="#f0c7ad"/>
        <path id="路径_6957" data-name="路径 6957" d="M1414.043,740.886l5.364-2.3c-3.405-2.062-6.633-9.751-7.653-13.039L1405.3,729.6C1407.049,734.846,1409.9,739.04,1414.043,740.886Z" transform="translate(-1399.735 -671.373)" fill="#f0c7ad"/>
        <path id="路径_6958" data-name="路径 6958" d="M1412.026,747.892c.777,1.228,14.174,3.449,14.9,1.105s-6.189-5.984-6.189-5.984c-1.719.942-8.111,1.817-10.035.794A13.854,13.854,0,0,0,1412.026,747.892Z" transform="translate(-1401.174 -676.03)" fill="#ff4d2e"/>
        <path id="路径_6959" data-name="路径 6959" d="M1400.248,729.574c3.733,3.528,6.886,7.185,7.83,10.106l3.694-.953c-4.482-1.756-10.672-14.656-10.136-16.351A6.762,6.762,0,0,0,1400.248,729.574Z" transform="translate(-1398.263 -670.529)" fill="#ff4d2e"/>
        <g id="组_6196" data-name="组 6196" transform="translate(2.628 67.866)">
          <path id="路径_6960" data-name="路径 6960" d="M1403.1,745.032c.006-.266.01-.535.015-.805C1403.106,744.5,1403.1,744.766,1403.1,745.032Z" transform="translate(-1401.775 -744.219)" fill="#ccc"/>
          <path id="路径_6961" data-name="路径 6961" d="M1403.117,744.217v0Z" transform="translate(-1401.781 -744.217)" fill="#ababab"/>
          <path id="路径_6962" data-name="路径 6962" d="M1401.88,744.663v.8l.009,0c-.278-.069-.561-.238-.569-.408q-.013-.39-.025-.783C1401.338,744.437,1401.609,744.6,1401.88,744.663Z" transform="translate(-1401.295 -744.232)" fill="#7a7a7a"/>
          <path id="路径_6963" data-name="路径 6963" d="M1402.093,744.648h0l.749-.432v.007c-.005.27-.01.54-.016.805l-.727.419-.009,0Z" transform="translate(-1401.508 -744.217)" fill="#4f4f4f"/>
        </g>
        <path id="路径_6964" data-name="路径 6964" d="M1398.948,662.116c-3.363,17.859,1.1,18.211,2.087,36.976,1.6,9.858,9.248,13.292,9.19,8.351-2.3-11.136,3.069-50,.862-53.483C1406.671,647,1399.757,657.821,1398.948,662.116Z" transform="translate(-1397.712 -651.683)" fill="#f0c7ad"/>
      </g>
      <g id="组_6198" data-name="组 6198" transform="translate(0.282 34.975)">
        <path id="路径_6965" data-name="路径 6965" d="M1401.7,615.315c-2.05-16.184,7.179-44.695-6.791-66l-27.163,2.632c-20.657,14.108-3.351,44.54-4.013,66.6C1364.059,629.4,1400.33,623.333,1401.7,615.315Z" transform="translate(-1349.611 -483.634)" fill="#3d3d3d"/>
        <path id="路径_6966" data-name="路径 6966" d="M1361.636,530.956c-2.928,2.92-4.89,6.8-6.264,11.743-1.416,5.1,22.9,8.594,24.848-1.653,4.307,8.04,17.6-3.2,16.723-6.823-.695-2.866-3.409-6-4.926-8.454-2.549-4.123-.238-13.267.534-19.378.213-1.69,5.576-8.555,5.416-16.557-.071-3.584-3.721-8.538-5.077-10.329-1.567-2.068-.045-8.345-4.9-15.779-2.653-4.068-6.906-2.78-13.55-1.366l-16.282,6.273a14.456,14.456,0,0,0-11.447,14.134s15.522,34.5,15.4,45.461A9.859,9.859,0,0,1,1361.636,530.956Z" transform="translate(-1346.716 -460.087)" fill="#565656"/>
        <path id="路径_6967" data-name="路径 6967" d="M1389.651,473.8c2.132,6.831-.554,12.387-4.488,21.11-5.8-4.272-13.217-13.25-17.742-19.788Z" transform="translate(-1352.235 -463.503)" fill="#e6e6e6"/>
        <path id="路径_6968" data-name="路径 6968" d="M1388.41,461.134c5.6,7.042,3.5,14.054-4.487,21.11-5.8-4.272-11.847-11.852-16.371-18.391Z" transform="translate(-1352.271 -460.126)" fill="#edc5ab"/>
        <path id="路径_6969" data-name="路径 6969" d="M1392.971,459.766c.424-.112,2.835,1.158,3.916,2.14,2,1.822,4.669,7.924,4.669,7.924l-2.574,3.369.459,5.5-7.745,12.7c-.146-.658,3.315-12.123,4.093-15.438a31.915,31.915,0,0,0,.961-7.449C1396.723,462.5,1393.9,460.62,1392.971,459.766Z" transform="translate(-1358.706 -459.76)" fill="#383838"/>
        <path id="路径_6970" data-name="路径 6970" d="M1396.1,469.9c.4-1.936,5.716-.235,6.255-.095-.324-4.422-6.374-8.693-8.061-9.2a7,7,0,0,0-3.756.109C1393.65,461.411,1396.332,465.991,1396.1,469.9Z" transform="translate(-1358.4 -459.927)" fill="#fff"/>
        <path id="路径_6971" data-name="路径 6971" d="M1398.947,471.739c-.93,5.552-4.2,9.929-9.073,13.3a25.7,25.7,0,0,0,6.094-12.321C1396.3,471.909,1397.744,471.441,1398.947,471.739Z" transform="translate(-1358.221 -462.929)" fill="#fff"/>
      </g>
      <g id="组_6199" data-name="组 6199" transform="translate(5.718 0)">
        <path id="路径_6972" data-name="路径 6972" d="M1388.611,461.079c-.053-1.247-1.362-22.476-1.362-22.476l-17.211,4.6s-.53,12.159-.072,13.779C1371.047,462.081,1387.28,466.7,1388.611,461.079Z" transform="translate(-1358.301 -419.145)" fill="#ccaa92"/>
        <path id="路径_6973" data-name="路径 6973" d="M1363.966,462.129c-.363.488-1.286,5.581-2.141,7.149-1.27,2.334,4.189,10.855,4.189,10.855l3.664-1.6,1.99,4.813,12.055,8.612c-.355-1.084-6.539-9.614-10.21-13.166C1369.952,475.341,1364.527,466.673,1363.966,462.129Z" transform="translate(-1356.129 -425.416)" fill="#383838"/>
        <path id="路径_6974" data-name="路径 6974" d="M1364.246,472.839c1.077-1.509,6.7-2.56,8.642-1.864-4.329-4.486-5.582-10.167-3.918-12.269-1.864.594-5.128,5.039-5.2,6.393A64.13,64.13,0,0,0,1364.246,472.839Z" transform="translate(-1356.693 -424.504)" fill="#fff"/>
        <path id="路径_6975" data-name="路径 6975" d="M1370.771,474.729c3.35,5.057,7.267,7.061,14.007,11.113-4.554-4.371-7.7-7.286-10.106-10.651A8.949,8.949,0,0,0,1370.771,474.729Z" transform="translate(-1358.565 -428.758)" fill="#fff"/>
        <path id="路径_6976" data-name="路径 6976" d="M1394.8,444.088c3.179.193,7.42,1.4,7.976-.041.3-.738-2.185-1.462-3.912-5.29-2-4.426-4.748-10.136-6.013-14.095l-5.134,2.037C1389.053,432.661,1391.143,441.9,1394.8,444.088Z" transform="translate(-1363.082 -415.428)" fill="#5c462f"/>
        <path id="路径_6977" data-name="路径 6977" d="M1358.571,435.568a23.783,23.783,0,0,0,12.109,10.482c4.612,1.96,11.378,2.093,13.539,1.369,4.667-1.564,3.927-4.181,4.221-7.354a20.271,20.271,0,0,0-3.035-12.241c-2.485-3.654-6.7-12.283-10.306-13.8a12.938,12.938,0,0,0-13.379,2.04C1355.591,420.853,1353.415,426.247,1358.571,435.568Z" transform="translate(-1354.543 -412.316)" fill="#edc5ab"/>
        <path id="路径_6978" data-name="路径 6978" d="M1354.128,450.509c3.383-6.2,1.48-15.165,1.318-16.816-.991-10.1-.893-13.874,5.237-18.66,2.395-1.87,4.608-2.263,8.521-2.8,6.783-.939,12.972,2.315,16.131,10.72.522,1.389-9.6,3.537-14.023.68-1.584-1.022-6.05,1.391-5.553,6.156.507,4.869,4.653,17.573.109,22.982-.911.81-3.47.422-5.6-.289.027-.315.775-5.622.775-5.622s-1.248,4.854-1.41,5.162l-3.555-1.3.956-8.542a55.554,55.554,0,0,1-1.444,8.369S1354.3,450.357,1354.128,450.509Z" transform="translate(-1354.128 -412.072)" fill="#6b5138"/>
        <path id="路径_6979" data-name="路径 6979" d="M1379.854,428.535l1.748-.471c1.748,1.171,4.178,1.361,6.725,1.383A19.069,19.069,0,0,1,1379.854,428.535Z" transform="translate(-1360.986 -416.335)" fill="#6b5138"/>
        <path id="路径_6980" data-name="路径 6980" d="M1379.149,428.513l1.93-.281c1.722,1.476,4.3,1.989,7.021,2.339A20.557,20.557,0,0,1,1379.149,428.513Z" transform="translate(-1360.798 -416.38)" fill="#6b5138"/>
        <path id="路径_6981" data-name="路径 6981" d="M1366.23,437.076l.9-1.933c-.528,2.442,2.578,7.378,4.363,9.463A20.553,20.553,0,0,1,1366.23,437.076Z" transform="translate(-1357.354 -418.222)" fill="#6b5138"/>
        <path id="路径_6982" data-name="路径 6982" d="M1369.958,455.364l-1.144.428c2.073,1.395,2.569,6.794,2.44,9.631C1372.031,462.18,1370.855,457.293,1369.958,455.364Z" transform="translate(-1358.043 -423.613)" fill="#6b5138"/>
      </g>
      <g id="组_6205" data-name="组 6205" transform="translate(31.092 63.329)">
        <g id="组_6200" data-name="组 6200" transform="translate(2.133)" style="mix-blend-mode: multiply;isolation: isolate">
          <path id="路径_6983" data-name="路径 6983" d="M1391.633,501.928s.181.76.5,2.09c.151.667.291,1.486.475,2.423s.335,2,.509,3.162c.158,1.163.31,2.425.467,3.761.129,1.338.306,2.747.387,4.211.111,1.462.2,2.975.274,4.513.093,1.537.121,3.1.184,4.665,0,1.564.036,3.129.007,4.669-.012,1.54-.04,3.055-.1,4.521-.023,1.467-.145,2.882-.226,4.224-.1,1.342-.219,2.608-.333,3.776-.139,1.167-.251,2.236-.412,3.178s-.276,1.763-.413,2.434l-.459,2.1s.1-.774.282-2.128c.091-.675.152-1.5.249-2.448s.134-2.018.235-3.18c.067-1.166.128-2.43.178-3.768.031-1.338.065-2.749.1-4.209s.043-2.969.035-4.5c.009-1.533-.047-3.091-.068-4.648-.042-1.557-.049-3.116-.121-4.648-.051-1.533-.122-3.04-.213-4.5s-.175-2.867-.257-4.2c-.1-1.335-.2-2.6-.312-3.76-.137-1.16-.212-2.232-.333-3.172s-.207-1.765-.313-2.44C1391.75,502.7,1391.633,501.928,1391.633,501.928Z" transform="translate(-1391.633 -501.928)" fill="#ababab"/>
        </g>
        <g id="组_6201" data-name="组 6201" transform="translate(0 4.36)">
          <path id="路径_6984" data-name="路径 6984" d="M1389.7,508.057a2.424,2.424,0,0,0-.972,1.976c.048.7.561.947,1.145.557a2.424,2.424,0,0,0,.972-1.971C1390.8,507.916,1390.285,507.666,1389.7,508.057Z" transform="translate(-1388.725 -507.872)" fill="#333"/>
          <path id="路径_6985" data-name="路径 6985" d="M1390.278,508.246a3.047,3.047,0,0,0-.222.245,4.091,4.091,0,0,0-.411.578,6.649,6.649,0,0,0-.466.934,1.732,1.732,0,0,1,.034-.337,2.3,2.3,0,0,1,.274-.693,2.121,2.121,0,0,1,.5-.557A1.406,1.406,0,0,1,1390.278,508.246Z" transform="translate(-1388.846 -507.972)" fill="#a8a8a8"/>
        </g>
        <g id="组_6202" data-name="组 6202" transform="translate(0.2 16.504)">
          <path id="路径_6986" data-name="路径 6986" d="M1389.974,524.615a2.426,2.426,0,0,0-.972,1.976c.048.7.561.947,1.145.557a2.424,2.424,0,0,0,.972-1.971C1391.071,524.474,1390.558,524.225,1389.974,524.615Z" transform="translate(-1388.998 -524.431)" fill="#333"/>
          <path id="路径_6987" data-name="路径 6987" d="M1390.552,524.8a2.993,2.993,0,0,0-.223.245,4.185,4.185,0,0,0-.411.578,6.585,6.585,0,0,0-.467.934,1.752,1.752,0,0,1,.035-.336,2.294,2.294,0,0,1,.274-.694,2.106,2.106,0,0,1,.5-.557A1.379,1.379,0,0,1,1390.552,524.8Z" transform="translate(-1389.119 -524.53)" fill="#a8a8a8"/>
        </g>
        <g id="组_6203" data-name="组 6203" transform="translate(0.811 28.943)">
          <path id="路径_6988" data-name="路径 6988" d="M1390.806,541.575a2.421,2.421,0,0,0-.971,1.976c.048.7.56.947,1.145.557a2.422,2.422,0,0,0,.972-1.971C1391.9,541.434,1391.391,541.185,1390.806,541.575Z" transform="translate(-1389.831 -541.391)" fill="#333"/>
          <path id="路径_6989" data-name="路径 6989" d="M1391.384,541.764a3.018,3.018,0,0,0-.222.245,4.114,4.114,0,0,0-.411.578,6.6,6.6,0,0,0-.466.934,1.707,1.707,0,0,1,.035-.337,2.3,2.3,0,0,1,.273-.693,2.108,2.108,0,0,1,.5-.557A1.4,1.4,0,0,1,1391.384,541.764Z" transform="translate(-1389.952 -541.49)" fill="#a8a8a8"/>
        </g>
        <g id="组_6204" data-name="组 6204" transform="translate(0.611 41.204)">
          <path id="路径_6990" data-name="路径 6990" d="M1390.533,558.294a2.422,2.422,0,0,0-.972,1.975c.048.7.56.948,1.145.557a2.418,2.418,0,0,0,.972-1.971C1391.631,558.152,1391.118,557.9,1390.533,558.294Z" transform="translate(-1389.558 -558.109)" fill="#333"/>
          <path id="路径_6991" data-name="路径 6991" d="M1391.111,558.482a3.139,3.139,0,0,0-.222.246,4.037,4.037,0,0,0-.411.578,6.594,6.594,0,0,0-.466.934,1.708,1.708,0,0,1,.035-.337,2.3,2.3,0,0,1,.274-.693,2.11,2.11,0,0,1,.5-.557A1.382,1.382,0,0,1,1391.111,558.482Z" transform="translate(-1389.679 -558.209)" fill="#a8a8a8"/>
        </g>
      </g>
      <path id="路径_6992" data-name="路径 6992" d="M1391.6,538.529c-2.041.59-4.435,1.616-7.577.624l-.352-3.693,7.814-.27Z" transform="translate(-1356.286 -447.802)" fill="#facfb5"/>
      <g id="组_6206" data-name="组 6206" transform="translate(31.36 80.472)">
        <path id="路径_6993" data-name="路径 6993" d="M1389.569,527.407c.317-.119,3.93-1.866,3.93-1.866.523,2.205,6.455,7.7,4.247,9.462a29.23,29.23,0,0,1-4.671,1.256C1390.493,535.92,1388.027,530.769,1389.569,527.407Z" transform="translate(-1389.091 -525.541)" fill="#a3a3a3"/>
      </g>
      <g id="组_6207" data-name="组 6207" transform="translate(33.24 72.592)">
        <path id="路径_6994" data-name="路径 6994" d="M1394.807,532.475c7.312-2.584,18.484-5.65,22.536-11.547.713-1.037-1.49-6.12-7.2-6.4-1.09.408-16.836,10.792-18.11,11.391C1390.9,529.026,1392.484,532.356,1394.807,532.475Z" transform="translate(-1391.655 -514.533)" fill="#616161"/>
      </g>
      <g id="组_6208" data-name="组 6208" transform="translate(31.36 80.472)">
        <path id="路径_6995" data-name="路径 6995" d="M1389.569,527.407c.317-.119,3.93-1.866,3.93-1.866-.714,2.608,1.93,9.175,4.247,9.462a29.23,29.23,0,0,1-4.671,1.256C1390.493,535.92,1388.027,530.769,1389.569,527.407Z" transform="translate(-1389.091 -525.541)" fill="#fff"/>
      </g>
      <g id="组_6210" data-name="组 6210" transform="translate(0 49.382)">
        <path id="路径_6996" data-name="路径 6996" d="M1401.709,517.634l-15.386,6.97,3.916,6.1,14.05-8.833Z" transform="translate(-1356.993 -491.607)" fill="#facfb5"/>
        <path id="路径_6997" data-name="路径 6997" d="M1412.3,510.358c-.427.734-1.547,1.548-1.565,1.865a6.091,6.091,0,0,0,2.625-1.039c1.586-1,2.082-1.4,2.417-1.405,1.806-.492,2.709,3.741,2.714,4.241.017,1.858-2.095,3.878-3.27,4.678-1.317.9-3.474.808-4.532.7a5.529,5.529,0,0,0-2.273.436c-1.975.876-5.011-2.928-3.959-3.592a3.186,3.186,0,0,0,1.622-2.076,6.581,6.581,0,0,1,2.778-3.474,7.207,7.207,0,0,0,2.711-2.152.346.346,0,0,1,.484-.083A1.321,1.321,0,0,1,1412.3,510.358Z" transform="translate(-1361.771 -489.142)" fill="#facfb5"/>
        <g id="组_6209" data-name="组 6209">
          <path id="路径_6998" data-name="路径 6998" d="M1359.768,488.343c-1.632-6.409-14.293-9.5-13.391-1.011,1.442,13.564,12.213,43.449,14.489,44.827,2.408,1.459,7.961-3.658,6.111-12.646C1365.4,511.852,1361.057,493.4,1359.768,488.343Z" transform="translate(-1346.331 -482.147)" fill="#707070"/>
        </g>
        <path id="路径_6999" data-name="路径 6999" d="M1378.932,531.486c-.5.943-1.931,1.593-3.6.3s-2.934-4.035-2.435-4.978,1.159,1.088,2.825,2.38S1379.431,530.543,1378.932,531.486Z" transform="translate(-1353.385 -493.989)" fill="#facfb5"/>
      </g>
      <g id="组_6211" data-name="组 6211" transform="translate(33.857 77.122)">
        <path id="路径_7000" data-name="路径 7000" d="M1396.919,520.828c-.3.156-4.014,1.676-4.014,1.676-1.586,3.6,1.785,11.132,4.2,9.483,0,0,2.024-1.825,2.953-2.734C1401.531,527.1,1400.451,521.929,1396.919,520.828Z" transform="translate(-1392.496 -520.828)" fill="#a3a3a3"/>
      </g>
      <g id="组_6212" data-name="组 6212" transform="translate(13.075 78.552)">
        <path id="路径_7001" data-name="路径 7001" d="M1390.758,530.539c-7.066,5.089-19.5,11.9-24.6,12.594-1.247.171-3.611-5.335-.359-10.042.758-.475,13.732-6.821,20.263-10.027C1388.032,522.1,1391.851,529.753,1390.758,530.539Z" transform="translate(-1364.159 -522.98)" fill="#707070"/>
      </g>
      <g id="组_6213" data-name="组 6213" transform="translate(34.267 77.125)">
        <path id="路径_7002" data-name="路径 7002" d="M1397.068,520.828c-.3.156-4.014,1.676-4.014,1.676,2.417,1.212,5.535,7.567,4.2,9.483a29.218,29.218,0,0,0,4.055-2.635C1402.783,527.2,1400.6,521.929,1397.068,520.828Z" transform="translate(-1393.054 -520.828)" fill="#fff"/>
      </g>
    </g>
    <g id="组_6218" data-name="组 6218" transform="translate(-50 -22.5)">
      <rect id="矩形_399" data-name="矩形 399" width="1334" height="397" transform="translate(2027 1853.5)" fill="#fdebe9"/>
      <g id="矩形_397" data-name="矩形 397" transform="translate(2662.1 1317.5)" fill="none" stroke="#ef402c" stroke-width="2">
        <rect width="560" height="63" stroke="none"/>
        <rect x="1" y="1" width="558" height="61" fill="none"/>
      </g>
      <text id="_2019年女性擔任企業代表人的家數" data-name="2019年女性擔任企業代表人的家數" transform="translate(2681.1 1363.5)" fill="#ef402c" font-size="34" font-family="MicrosoftJhengHeiBold, Microsoft JhengHei"><tspan x="0" y="0">2019年女性擔任企業代表人的家數</tspan></text>
    </g>
    <text id="_" data-name="%" transform="translate(2471 1464)" fill="#707070" font-size="46" font-family="SegoeUI-Bold, Segoe UI" font-weight="700"><tspan x="0" y="50">%</tspan></text>
    <g id="组_6232" data-name="组 6232" transform="translate(112.648 432.674)">
      <circle id="椭圆_19-2" data-name="椭圆 19" cx="139.687" cy="139.687" r="139.687" transform="translate(2670.537 1409.016)" fill="#fdebe9"/>
    </g>
    <g id="组_6235" data-name="组 6235" transform="translate(17.68)">
      <path id="联合_10" data-name="联合 10" d="M14544.444,776.9a9.141,9.141,0,0,1-8.62-9.262V717.171a1.233,1.233,0,1,0-2.466,0v50.842a8.9,8.9,0,0,1-9.166,8.888,9.139,9.139,0,0,1-8.617-9.262v-100.2a1.234,1.234,0,1,0-2.469,0v42.116a1.559,1.559,0,0,1-2.357,1.334A19.65,19.65,0,0,1,14501,693.91V665.7a19.668,19.668,0,0,1,19.667-19.669h27.61a19.667,19.667,0,0,1,19.666,19.669V693.91a19.648,19.648,0,0,1-9.493,16.829,1.562,1.562,0,0,1-2.374-1.327v-41.97a1.233,1.233,0,1,0-2.466,0V768.013a8.894,8.894,0,0,1-8.9,8.892Q14544.579,776.9,14544.444,776.9Zm-13.877-135.6a17.41,17.41,0,1,1,4.021.47A17.426,17.426,0,0,1,14530.567,641.3Z" transform="translate(-12284.68 1406)" fill="#789cb9" stroke="rgba(0,0,0,0)" stroke-miterlimit="10" stroke-width="1"/>
      <path id="联合_7" data-name="联合 7" d="M14544.447,773a9.142,9.142,0,0,1-8.621-9.262V713.269a1.232,1.232,0,1,0-2.465,0v50.84a8.894,8.894,0,0,1-9.168,8.888,9.141,9.141,0,0,1-8.619-9.262v-100.2a1.233,1.233,0,1,0-2.467,0v42.117a1.562,1.562,0,0,1-2.357,1.337A19.657,19.657,0,0,1,14501,690V661.79a19.671,19.671,0,0,1,19.67-19.67h27.607a19.67,19.67,0,0,1,19.672,19.67V690a19.651,19.651,0,0,1-9.5,16.83,1.558,1.558,0,0,1-2.369-1.327V663.535a1.235,1.235,0,0,0-2.471,0V764.109a8.889,8.889,0,0,1-8.889,8.892C14544.631,773,14544.539,773,14544.447,773Zm-27.3-152.567a17.427,17.427,0,1,1,17.426,17.426A17.427,17.427,0,0,1,14517.146,620.431Z" transform="translate(-12034.723 1409.909)" fill="#789cb9" stroke="rgba(0,0,0,0)" stroke-miterlimit="10" stroke-width="1"/>
      <path id="联合_4" data-name="联合 4" d="M14544.447,773a9.142,9.142,0,0,1-8.621-9.262V713.269a1.232,1.232,0,1,0-2.465,0v50.84a8.894,8.894,0,0,1-9.168,8.888,9.141,9.141,0,0,1-8.619-9.262v-100.2a1.233,1.233,0,1,0-2.467,0v42.117a1.562,1.562,0,0,1-2.357,1.337A19.657,19.657,0,0,1,14501,690V661.79a19.671,19.671,0,0,1,19.67-19.67h27.607a19.67,19.67,0,0,1,19.672,19.67V690a19.651,19.651,0,0,1-9.5,16.83,1.558,1.558,0,0,1-2.369-1.327V663.535a1.235,1.235,0,0,0-2.471,0V764.109a8.889,8.889,0,0,1-8.889,8.892C14544.631,773,14544.539,773,14544.447,773Zm-27.3-152.567a17.429,17.429,0,1,1,17.43,17.426A17.428,17.428,0,0,1,14517.143,620.431Z" transform="translate(-11784.762 1409.909)" fill="#789cb9" stroke="rgba(0,0,0,0)" stroke-miterlimit="10" stroke-width="1"/>
      <path id="联合_8" data-name="联合 8" d="M14544.444,776.9a9.141,9.141,0,0,1-8.62-9.262V717.171a1.233,1.233,0,1,0-2.466,0v50.842a8.9,8.9,0,0,1-9.166,8.888,9.139,9.139,0,0,1-8.617-9.262v-100.2a1.234,1.234,0,1,0-2.469,0v42.116a1.559,1.559,0,0,1-2.357,1.334A19.65,19.65,0,0,1,14501,693.91V665.7a19.668,19.668,0,0,1,19.67-19.669h27.607a19.667,19.667,0,0,1,19.666,19.669V693.91a19.648,19.648,0,0,1-9.493,16.829,1.562,1.562,0,0,1-2.374-1.327v-41.97a1.233,1.233,0,1,0-2.466,0V768.013a8.894,8.894,0,0,1-8.9,8.892Q14544.579,776.9,14544.444,776.9Zm-13.877-135.6a17.41,17.41,0,1,1,4.021.47A17.426,17.426,0,0,1,14530.567,641.3Z" transform="translate(-12118.041 1406)" fill="#789cb9" stroke="rgba(0,0,0,0)" stroke-miterlimit="10" stroke-width="1"/>
      <path id="联合_5" data-name="联合 5" d="M14544.444,776.9a9.141,9.141,0,0,1-8.62-9.262V717.171a1.233,1.233,0,1,0-2.466,0v50.842a8.9,8.9,0,0,1-9.166,8.888,9.139,9.139,0,0,1-8.617-9.262v-100.2a1.234,1.234,0,1,0-2.469,0v42.116a1.559,1.559,0,0,1-2.357,1.334A19.65,19.65,0,0,1,14501,693.91V665.7a19.668,19.668,0,0,1,19.67-19.669h27.607a19.667,19.667,0,0,1,19.666,19.669V693.91a19.648,19.648,0,0,1-9.493,16.829,1.562,1.562,0,0,1-2.374-1.327v-41.97a1.233,1.233,0,1,0-2.466,0V768.013a8.894,8.894,0,0,1-8.9,8.892Q14544.579,776.9,14544.444,776.9Zm-13.877-135.6a17.41,17.41,0,1,1,4.021.47A17.426,17.426,0,0,1,14530.567,641.3Z" transform="translate(-11868.082 1406)" fill="#789cb9" stroke="rgba(0,0,0,0)" stroke-miterlimit="10" stroke-width="1"/>
      <path id="联合_9" data-name="联合 9" d="M14544.444,776.9a9.141,9.141,0,0,1-8.62-9.262V717.171a1.233,1.233,0,1,0-2.466,0v50.842a8.9,8.9,0,0,1-9.166,8.888,9.139,9.139,0,0,1-8.617-9.262v-100.2a1.234,1.234,0,1,0-2.469,0v42.116a1.559,1.559,0,0,1-2.357,1.334A19.65,19.65,0,0,1,14501,693.91V665.7a19.668,19.668,0,0,1,19.667-19.669h27.61a19.667,19.667,0,0,1,19.666,19.669V693.91a19.648,19.648,0,0,1-9.493,16.829,1.562,1.562,0,0,1-2.374-1.327v-41.97a1.233,1.233,0,1,0-2.466,0V768.013a8.894,8.894,0,0,1-8.9,8.892Q14544.579,776.9,14544.444,776.9Zm-13.877-135.6a17.41,17.41,0,1,1,4.021.47A17.426,17.426,0,0,1,14530.567,641.3Z" transform="translate(-12201.361 1406)" fill="#789cb9" stroke="rgba(0,0,0,0)" stroke-miterlimit="10" stroke-width="1"/>
      <path id="联合_6" data-name="联合 6" d="M14544.444,776.9a9.141,9.141,0,0,1-8.62-9.262V717.171a1.233,1.233,0,1,0-2.466,0v50.842a8.9,8.9,0,0,1-9.166,8.888,9.139,9.139,0,0,1-8.617-9.262v-100.2a1.234,1.234,0,1,0-2.469,0v42.116a1.559,1.559,0,0,1-2.357,1.334A19.65,19.65,0,0,1,14501,693.91V665.7a19.668,19.668,0,0,1,19.667-19.669h27.61a19.667,19.667,0,0,1,19.666,19.669V693.91a19.648,19.648,0,0,1-9.493,16.829,1.562,1.562,0,0,1-2.374-1.327v-41.97a1.233,1.233,0,1,0-2.466,0V768.013a8.894,8.894,0,0,1-8.9,8.892Q14544.579,776.9,14544.444,776.9Zm-13.877-135.6a17.406,17.406,0,1,1,4.021.47A17.426,17.426,0,0,1,14530.567,641.3Z" transform="translate(-11951.4 1406)" fill="#789cb9" stroke="rgba(0,0,0,0)" stroke-miterlimit="10" stroke-width="1"/>
      <path id="联合_12" data-name="联合 12" d="M14547.317,773a9.14,9.14,0,0,1-8.617-9.263V729.388h-2.467v34.721a8.9,8.9,0,0,1-9.167,8.889,9.14,9.14,0,0,1-8.618-9.263V729.388H14501l9.617-24.616a19.57,19.57,0,0,1-6.742-14.767V661.788a19.669,19.669,0,0,1,19.669-19.669h27.61a19.668,19.668,0,0,1,19.668,19.669V690a19.567,19.567,0,0,1-6.743,14.767l9.617,24.616h-17.211v34.721a8.894,8.894,0,0,1-8.9,8.893C14547.5,773,14547.407,773,14547.317,773Zm9.167-109.464v21.8l2.471,6.319v-28.12a1.235,1.235,0,0,0-2.471,0Zm-40.5,0v27.508l2.467-6.319V663.534a1.233,1.233,0,1,0-2.467,0Zm4.038-43.106a17.428,17.428,0,1,1,17.426,17.43A17.426,17.426,0,0,1,14520.02,620.428Z" transform="translate(-11618.918 1409.909)" fill="#ef402c" stroke="rgba(0,0,0,0)" stroke-miterlimit="10" stroke-width="1"/>
      <path id="联合_13" data-name="联合 13" d="M14547.317,773a9.14,9.14,0,0,1-8.617-9.263V729.388h-2.467v34.721a8.9,8.9,0,0,1-9.167,8.889,9.14,9.14,0,0,1-8.618-9.263V729.388H14501l9.617-24.616a19.57,19.57,0,0,1-6.742-14.767V661.788a19.669,19.669,0,0,1,19.669-19.669h27.61a19.668,19.668,0,0,1,19.668,19.669V690a19.567,19.567,0,0,1-6.743,14.767l9.617,24.616h-17.211v34.721a8.894,8.894,0,0,1-8.9,8.893C14547.5,773,14547.407,773,14547.317,773Zm9.167-109.464v21.8l2.467,6.319v-28.12a1.233,1.233,0,1,0-2.467,0Zm-40.5,0v27.508l2.467-6.319V663.534a1.233,1.233,0,1,0-2.467,0Zm4.038-43.106a17.428,17.428,0,1,1,17.43,17.43A17.427,17.427,0,0,1,14520.02,620.428Z" transform="translate(-11701.441 1409.909)" fill="#ef402c" stroke="rgba(0,0,0,0)" stroke-miterlimit="10" stroke-width="1"/>
      <path id="联合_14" data-name="联合 14" d="M14547.318,780.974a9.144,9.144,0,0,1-8.62-9.263V737.365h-2.467v34.72a8.9,8.9,0,0,1-9.168,8.889,9.143,9.143,0,0,1-8.616-9.263V737.365H14501l9.615-24.616a19.567,19.567,0,0,1-6.743-14.767V669.765a19.672,19.672,0,0,1,19.672-19.668h27.606a19.669,19.669,0,0,1,19.669,19.668v28.216a19.57,19.57,0,0,1-6.743,14.767l9.618,24.616h-17.212v34.72a8.893,8.893,0,0,1-8.894,8.893C14547.5,780.978,14547.408,780.976,14547.318,780.974Zm9.164-109.463v21.8l2.471,6.319v-28.12a1.235,1.235,0,0,0-2.471,0Zm-40.5,0v27.507l2.468-6.319V671.511a1.234,1.234,0,1,0-2.468,0Zm9.141-30.779a17.432,17.432,0,1,1,12.324,5.1A17.432,17.432,0,0,1,14525.12,640.731Z" transform="translate(-11536.391 1401.932)" fill="#ef402c" stroke="rgba(0,0,0,0)" stroke-miterlimit="10" stroke-width="1"/>
    </g>
    <g id="组_6233" data-name="组 6233" transform="translate(2965.207 1888.507)">
      <text id="_30_" data-name="30%" transform="translate(-96.251 74.422)" fill="#ef402c" font-size="85" font-family="GenYoGothicTW-B, GenYoGothic TW"><tspan x="0" y="0">30</tspan><tspan y="0" fill="#595757" font-size="33">%</tspan></text>
    </g>
    <g id="组_6234" data-name="组 6234" transform="translate(392.998 10.064)">
      <rect id="矩形_398" data-name="矩形 398" width="450.923" height="63" transform="translate(1974 1895.365)" fill="#ef402c"/>
      <text id="_2019年女性內閣人數比率" data-name="2019年女性內閣人數比率" transform="translate(2004 1941.365)" fill="#fff" font-size="34" font-family="MicrosoftJhengHeiBold, Microsoft JhengHei"><tspan x="0" y="0">2019年女性內閣人數比率</tspan></text>
    </g>
    <rect id="矩形_407" data-name="矩形 407" width="474" height="63" transform="translate(1974 1342)" fill="#ef402c"/>
    <text id="國內的出生性別比" transform="translate(2075 1386)" fill="#fff" font-size="34" font-family="MicrosoftJhengHeiBold, Microsoft JhengHei"><tspan x="0" y="0">國內的出生性別比</tspan></text>
    <text id="_2019年" data-name="2019年" transform="translate(2135 1317)" fill="#ef402c" font-size="46" font-family="SegoeUI-Bold, Segoe UI" font-weight="700"><tspan x="0" y="0">2019</tspan><tspan y="0" font-family="YuGothicUI-Bold, Yu Gothic UI">年</tspan></text>
    <line id="直线_8" data-name="直线 8" x2="151" transform="translate(1974.5 1296.5)" fill="none" stroke="#ef402c" stroke-width="4"/>
    <line id="直线_9" data-name="直线 9" x2="151" transform="translate(2295.5 1296.5)" fill="none" stroke="#ef402c" stroke-width="4"/>
    <line id="直线_10" data-name="直线 10" x2="151" transform="translate(1974.5 1306.5)" fill="none" stroke="#ef402c" stroke-width="4"/>
    <line id="直线_11" data-name="直线 11" x2="151" transform="translate(2295.5 1306.5)" fill="none" stroke="#ef402c" stroke-width="4"/>
  </g>
</svg>
