<svg xmlns="http://www.w3.org/2000/svg" width="1029.226" height="344.468" viewBox="0 0 1029.226 344.468">
  <g id="sdg18_2" transform="translate(-380 -3596)">
    <g id="组_6453" data-name="组 6453">
      <g id="组_6451" data-name="组 6451">
        <g id="组_6450" data-name="组 6450">
          <path id="路径_7136" data-name="路径 7136" d="M247.384,207.4H52.794l8.813-10.728-8.813-10.733H247.384l8.813,10.733Z" transform="translate(327.206 3583.847)" fill="#6f7b91"/>
          <path id="路径_7137" data-name="路径 7137" d="M364.823,207.4H170.236l8.81-10.728-8.81-10.733H364.823l8.814,10.733Z" transform="translate(416.222 3583.847)" fill="#5a9aef"/>
          <path id="路径_7138" data-name="路径 7138" d="M482.269,207.4H287.675l8.813-10.728-8.813-10.733H482.269l8.812,10.733Z" transform="translate(505.325 3583.847)" fill="#ffbc00"/>
          <path id="路径_7139" data-name="路径 7139" d="M599.708,207.4H405.12l8.812-10.728-8.812-10.733H599.708l8.808,10.733Z" transform="translate(594.25 3583.847)" fill="#ef5361"/>
          <path id="路径_7140" data-name="路径 7140" d="M717.151,207.4H522.56l8.812-10.728-8.812-10.733H717.151l8.812,10.733Z" transform="translate(683.263 3583.847)" fill="#669e1e"/>
          <g id="组_6401" data-name="组 6401" transform="translate(480.642 3780.519)">
            <rect id="矩形_682" data-name="矩形 682" width="2.122" height="72.712" fill="#6f7b91"/>
          </g>
          <g id="组_6402" data-name="组 6402" transform="translate(687.095 3780.519)">
            <rect id="矩形_683" data-name="矩形 683" width="2.122" height="72.712" fill="#5a9aef"/>
          </g>
          <g id="组_6403" data-name="组 6403" transform="translate(893.549 3780.519)">
            <rect id="矩形_684" data-name="矩形 684" width="2.121" height="72.712" fill="#ffbc00"/>
          </g>
          <g id="组_6404" data-name="组 6404" transform="translate(1100.008 3780.519)">
            <rect id="矩形_685" data-name="矩形 685" width="2.122" height="72.712" fill="#eb6b5c"/>
          </g>
          <g id="组_6405" data-name="组 6405" transform="translate(1306.463 3780.519)">
            <rect id="矩形_686" data-name="矩形 686" width="2.122" height="72.712" fill="#669e1e"/>
          </g>
          <g id="组_6424" data-name="组 6424" transform="translate(643.982 3851.929)">
            <g id="组_6406" data-name="组 6406" transform="translate(0)">
              <path id="路径_7161" data-name="路径 7161" d="M247.133,321.013a44.174,44.174,0,1,1,44.179-44.175A44.225,44.225,0,0,1,247.133,321.013Zm0-86.225a42.052,42.052,0,1,0,42.057,42.05A42.1,42.1,0,0,0,247.133,234.788Z" transform="translate(-202.959 -232.666)" fill="#5a9aef"/>
            </g>
          </g>
          <g id="组_6431" data-name="组 6431" transform="translate(850.438 3851.929)">
            <g id="组_6425" data-name="组 6425">
              <path id="路径_7178" data-name="路径 7178" d="M364.574,321.013a44.174,44.174,0,1,1,44.177-44.175A44.224,44.224,0,0,1,364.574,321.013Zm0-86.225a42.052,42.052,0,1,0,42.055,42.05A42.1,42.1,0,0,0,364.574,234.788Z" transform="translate(-320.4 -232.666)" fill="#ffbc00"/>
            </g>
          </g>
          <g id="组_6436" data-name="组 6436" transform="translate(1056.896 3851.929)">
            <g id="组_6432" data-name="组 6432">
              <path id="路径_7181" data-name="路径 7181" d="M482.016,321.015a44.174,44.174,0,1,1,44.175-44.177A44.224,44.224,0,0,1,482.016,321.015Zm0-86.227a42.053,42.053,0,1,0,42.054,42.05A42.1,42.1,0,0,0,482.016,234.788Z" transform="translate(-437.844 -232.666)" fill="#eb6b5c"/>
            </g>
          </g>
          <g id="组_6441" data-name="组 6441" transform="translate(437.524 3851.929)">
            <g id="组_6437" data-name="组 6437">
              <path id="路径_7184" data-name="路径 7184" d="M129.695,321.015a44.174,44.174,0,1,1,44.172-44.177A44.229,44.229,0,0,1,129.695,321.015Zm0-86.227a42.053,42.053,0,1,0,42.05,42.05A42.1,42.1,0,0,0,129.695,234.788Z" transform="translate(-85.516 -232.666)" fill="#6f7b91"/>
            </g>
          </g>
          <g id="组_6449" data-name="组 6449" transform="translate(1263.262 3851.95)">
            <g id="组_6442" data-name="组 6442">
              <path id="路径_7187" data-name="路径 7187" d="M599.5,321.2a44.259,44.259,0,1,1,44.26-44.256A44.31,44.31,0,0,1,599.5,321.2Zm0-86.4a42.137,42.137,0,1,0,42.138,42.14A42.187,42.187,0,0,0,599.5,234.8Z" transform="translate(-555.234 -232.678)" fill="#669e1e"/>
            </g>
          </g>
          <circle id="椭圆_59" data-name="椭圆 59" cx="5.192" cy="5.192" r="5.192" transform="translate(476.511 3775.327)" fill="#f8f1e7"/>
          <path id="路径_7191" data-name="路径 7191" d="M225.134,194.282a5.195,5.195,0,1,1,5.191,5.193A5.191,5.191,0,0,1,225.134,194.282Z" transform="translate(457.831 3586.236)" fill="#f8f1e7"/>
          <path id="路径_7192" data-name="路径 7192" d="M342.574,194.282a5.195,5.195,0,1,1,5.193,5.193A5.192,5.192,0,0,1,342.574,194.282Z" transform="translate(546.844 3586.236)" fill="#f8f1e7"/>
          <path id="路径_7193" data-name="路径 7193" d="M460.019,194.282a5.193,5.193,0,1,1,5.195,5.193A5.193,5.193,0,0,1,460.019,194.282Z" transform="translate(635.86 3586.236)" fill="#f8f1e7"/>
          <path id="路径_7194" data-name="路径 7194" d="M577.458,194.282a5.192,5.192,0,1,1,5.193,5.193A5.193,5.193,0,0,1,577.458,194.282Z" transform="translate(724.872 3586.236)" fill="#f8f1e7"/>
          <text id="_104" data-name="104" transform="translate(428 3756)" fill="#6f7b91" font-size="56" font-family="GenSenMaruGothicTW-Bold-TTF, GenSenMaruGothic TW TTF"><tspan x="0" y="0">104</tspan></text>
          <text id="_105" data-name="105" transform="translate(637 3755)" fill="#5a9aef" font-size="56" font-family="GenSenMaruGothicTW-Bold-TTF, GenSenMaruGothic TW TTF"><tspan x="0" y="0">105</tspan></text>
          <text id="_106" data-name="106" transform="translate(841 3755)" fill="#ffbc00" font-size="56" font-family="GenSenMaruGothicTW-Bold-TTF, GenSenMaruGothic TW TTF"><tspan x="0" y="0">106</tspan></text>
          <text id="_107" data-name="107" transform="translate(1050 3755)" fill="#ef5361" font-size="56" font-family="GenSenMaruGothicTW-Bold-TTF, GenSenMaruGothic TW TTF"><tspan x="0" y="0">107</tspan></text>
          <text id="_108" data-name="108" transform="translate(1256 3750)" fill="#669e1e" font-size="56" font-family="GenSenMaruGothicTW-Bold-TTF, GenSenMaruGothic TW TTF"><tspan x="0" y="0">108</tspan></text>
          <text id="_16_" data-name="16％" transform="translate(456 3908)" fill="#6f7b91" font-size="25" font-family="GenSenMaruGothicTW-Bold-TTF, GenSenMaruGothic TW TTF"><tspan x="0" y="0">16％</tspan></text>
          <text id="_13.5_" data-name="13.5％" transform="translate(650 3908)" fill="#5a9aef" font-size="25" font-family="GenSenMaruGothicTW-Bold-TTF, GenSenMaruGothic TW TTF"><tspan x="0" y="0">13.5％</tspan></text>
          <text id="_9.3_" data-name="9.3％" transform="translate(863 3908)" fill="#ffbc00" font-size="25" font-family="GenSenMaruGothicTW-Bold-TTF, GenSenMaruGothic TW TTF"><tspan x="0" y="0">9.3％</tspan></text>
          <text id="_11.4_" data-name="11.4％" transform="translate(1064 3908)" fill="#ef5361" font-size="25" font-family="GenSenMaruGothicTW-Bold-TTF, GenSenMaruGothic TW TTF"><tspan x="0" y="0">11.4％</tspan></text>
          <text id="_13.4_" data-name="13.4％" transform="translate(1268 3907)" fill="#669e1e" font-size="25" font-family="GenSenMaruGothicTW-Bold-TTF, GenSenMaruGothic TW TTF"><tspan x="0" y="0">13.4％</tspan></text>
        </g>
      </g>
      <rect id="矩形_687" data-name="矩形 687" width="366" height="78.607" transform="translate(712 3596)" fill="#902f93"/>
      <text id="台電核能比例" transform="translate(793 3649)" fill="#fff" font-size="34" font-family="MicrosoftJhengHeiBold, Microsoft JhengHei"><tspan x="0" y="0">台電核能比例</tspan></text>
    </g>
  </g>
</svg>
