<svg id="taiwan_sdg" xmlns="http://www.w3.org/2000/svg" width="232.236" height="213.411" viewBox="0 0 232.236 213.411">
  <path id="路径_145" data-name="路径 145" d="M245.514,187.357c2.61,10.09-4.41,20.635-4.41,20.635s-11.253-5.819-13.863-15.909,4.41-20.637,4.41-20.637,11.253,5.818,13.863,15.911" transform="translate(-137.679 -142.362)" fill="#437a35"/>
  <path id="路径_146" data-name="路径 146" d="M212.11,200.521c7.175,7.562,6.148,20.187,6.148,20.187s-12.662.367-19.838-7.2-6.148-20.187-6.148-20.187,12.662-.366,19.838,7.2" transform="translate(-137.035 -142.771)" fill="#d39100"/>
  <path id="路径_147" data-name="路径 147" d="M189.194,228.2c9.941,3.134,15.164,14.676,15.164,14.676s-10.9,6.46-20.839,3.325-15.165-14.676-15.165-14.676,10.9-6.46,20.839-3.325" transform="translate(-136.588 -143.408)" fill="#f4a100"/>
  <path id="路径_148" data-name="路径 148" d="M182.607,263.407c10.215-2.079,20.378,5.483,20.378,5.483s-6.4,10.933-16.614,13.011-20.377-5.483-20.377-5.483,6.4-10.933,16.613-13.011" transform="translate(-136.544 -144.076)" fill="#dc007b"/>
  <path id="路径_149" data-name="路径 149" d="M199.259,296.064c5.945-5.078,15.361-3.812,15.361-3.812s-.223,9.5-6.167,14.575-15.361,3.813-15.361,3.813.222-9.5,6.167-14.576" transform="translate(-137.051 -144.62)" fill="#a2ca0e" opacity="0.3"/>
  <path id="路径_150" data-name="路径 150" d="M308.959,296.064c-5.945-5.078-15.361-3.812-15.361-3.812s.223,9.5,6.167,14.575,15.361,3.813,15.361,3.813-.223-9.5-6.167-14.576" transform="translate(-138.932 -144.62)" fill="#970b31" opacity="0.4"/>
  <path id="路径_151" data-name="路径 151" d="M262.743,187.357c-2.609,10.09,4.411,20.635,4.411,20.635s11.253-5.819,13.862-15.909-4.409-20.637-4.409-20.637-11.253,5.818-13.864,15.911" transform="translate(-138.344 -142.362)" fill="#0076ba"/>
  <path id="路径_152" data-name="路径 152" d="M296.021,200.521c-7.174,7.562-6.147,20.187-6.147,20.187s12.663.367,19.838-7.2,6.148-20.187,6.148-20.187-12.662-.366-19.838,7.2" transform="translate(-138.861 -142.771)" fill="#29a738"/>
  <path id="路径_153" data-name="路径 153" d="M318.748,228.2c-9.941,3.134-15.164,14.676-15.164,14.676s10.9,6.46,20.838,3.325,15.164-14.676,15.164-14.676-10.9-6.46-20.839-3.325" transform="translate(-139.119 -143.408)" fill="#004c87"/>
  <path id="路径_154" data-name="路径 154" d="M325.315,263.407c-10.214-2.079-20.377,5.483-20.377,5.483s6.4,10.933,16.614,13.011,20.377-5.483,20.377-5.483-6.4-10.933-16.614-13.011" transform="translate(-139.144 -144.076)" fill="#003068"/>
  <path id="路径_155" data-name="路径 155" d="M263.133,216.431c0,9.833-8.9,17.8-8.9,17.8s-8.9-7.972-8.9-17.8,8.9-17.806,8.9-17.806,8.9,7.972,8.9,17.806" transform="translate(-138.029 -142.87)" fill="#e4001e"/>
  <path id="路径_156" data-name="路径 156" d="M261.221,173.091c0,7.626-6.9,13.807-6.9,13.807s-6.9-6.181-6.9-13.807,6.9-13.807,6.9-13.807,6.9,6.182,6.9,13.807" transform="translate(-138.068 -142.134)" fill="#d39100" opacity="0.4"/>
  <path id="路径_157" data-name="路径 157" d="M218.942,180.414c3.7,6.668.654,15.421.654,15.421s-9.034-2.059-12.731-8.728-.656-15.423-.656-15.423,9.036,2.06,12.732,8.73" transform="translate(-137.274 -142.366)" fill="#0076ba" opacity="0.4"/>
  <path id="路径_158" data-name="路径 158" d="M185.439,207.351c6.468,4.04,8.05,13.171,8.05,13.171s-8.9,2.579-15.367-1.462-8.051-13.171-8.051-13.171,8.9-2.579,15.368,1.462" transform="translate(-136.62 -142.991)" fill="#29a738" opacity="0.4"/>
  <path id="路径_159" data-name="路径 159" d="M169.185,247.076c7.616.4,13.427,7.618,13.427,7.618s-6.534,6.57-14.149,6.171-13.427-7.618-13.427-7.618,6.534-6.571,14.149-6.171" transform="translate(-136.339 -143.777)" fill="#004c87" opacity="0.4"/>
  <path id="路径_160" data-name="路径 160" d="M174.279,289.646c6.853-3.343,15.436.153,15.436.153s-2.53,8.915-9.383,12.256S164.9,301.9,164.9,301.9s2.531-8.916,9.384-12.258" transform="translate(-136.523 -144.547)" fill="#00a6d9" opacity="0.4"/>
  <path id="路径_161" data-name="路径 161" d="M289.387,180.414c-3.7,6.668-.654,15.421-.654,15.421s9.034-2.059,12.731-8.728.655-15.423.655-15.423-9.036,2.06-12.732,8.73" transform="translate(-138.819 -142.366)" fill="#437a35" opacity="0.4"/>
  <path id="路径_162" data-name="路径 162" d="M322.742,207.351c-6.467,4.04-8.049,13.171-8.049,13.171s8.9,2.579,15.366-1.462,8.052-13.171,8.052-13.171-8.9-2.579-15.368,1.462" transform="translate(-139.327 -142.991)" fill="#f4a100" opacity="0.4"/>
  <path id="路径_163" data-name="路径 163" d="M338.918,247.076c-7.616.4-13.427,7.618-13.427,7.618s6.534,6.57,14.149,6.171,13.427-7.618,13.427-7.618-6.534-6.571-14.149-6.171" transform="translate(-139.529 -143.777)" fill="#dc007b" opacity="0.4"/>
  <path id="路径_164" data-name="路径 164" d="M333.876,289.646c-6.853-3.343-15.435.153-15.435.153s2.53,8.915,9.382,12.256,15.437-.151,15.437-.151-2.53-8.916-9.383-12.258" transform="translate(-139.397 -144.547)" fill="#ec6a03" opacity="0.4"/>
  <path id="路径_165" data-name="路径 165" d="M233.236,152.464c1.821,6.8-2.855,13.955-2.855,13.955s-7.63-3.86-9.451-10.658,2.855-13.954,2.855-13.954,7.63,3.86,9.451,10.657" transform="translate(-137.564 -141.807)" fill="#a2ca0e" opacity="0.2"/>
  <path id="路径_166" data-name="路径 166" d="M184.427,175.972c4.887,5.061,4.268,13.59,4.268,13.59s-8.545.322-13.432-4.74-4.269-13.59-4.269-13.59,8.544-.322,13.433,4.74" transform="translate(-136.637 -142.358)" fill="#970b31" opacity="0.2"/>
  <path id="路径_167" data-name="路径 167" d="M153.081,220.171c6.728,2.058,10.32,9.817,10.32,9.817s-7.317,4.425-14.045,2.367-10.321-9.816-10.321-9.816,7.315-4.426,14.046-2.368" transform="translate(-136.039 -143.263)" fill="#ec6a03" opacity="0.2"/>
  <path id="路径_168" data-name="路径 168" d="M147.12,273.955c6.882-1.462,13.785,3.583,13.785,3.583s-4.254,7.417-11.137,8.879-13.786-3.581-13.786-3.581,4.254-7.418,11.138-8.881" transform="translate(-135.982 -144.275)" fill="#f5a700" opacity="0.2"/>
  <path id="路径_169" data-name="路径 169" d="M275.142,152.464c-1.821,6.8,2.856,13.955,2.856,13.955s7.629-3.86,9.45-10.658-2.854-13.954-2.854-13.954-7.629,3.86-9.451,10.657" transform="translate(-138.579 -141.807)" fill="#437a35" opacity="0.2"/>
  <path id="路径_170" data-name="路径 170" d="M323.863,175.972c-4.887,5.061-4.268,13.59-4.268,13.59s8.545.322,13.432-4.74,4.268-13.59,4.268-13.59-8.544-.322-13.433,4.74" transform="translate(-139.418 -142.358)" fill="#e4001e" opacity="0.2"/>
  <path id="路径_171" data-name="路径 171" d="M355.083,220.171c-6.728,2.058-10.32,9.817-10.32,9.817s7.317,4.425,14.045,2.367,10.321-9.816,10.321-9.816-7.315-4.426-14.046-2.368" transform="translate(-139.89 -143.263)" fill="#d7a600" opacity="0.2"/>
  <path id="路径_172" data-name="路径 172" d="M361.034,273.955c-6.882-1.462-13.785,3.583-13.785,3.583s4.254,7.417,11.137,8.879,13.786-3.581,13.786-3.581-4.254-7.418-11.138-8.881" transform="translate(-139.936 -144.275)" fill="#00963b" opacity="0.2"/>
  <path id="路径_173" data-name="路径 173" d="M263.133,216.431c0,9.833-8.9,17.8-8.9,17.8s-8.9-7.972-8.9-17.8,8.9-17.806,8.9-17.806,8.9,7.972,8.9,17.806" transform="translate(-138.029 -142.87)" fill="#e4001e"/>
  <path id="路径_174" data-name="路径 174" d="M282.3,225.973c-4.767,8.6-16.419,11.256-16.419,11.256s-3.921-11.288.846-19.89,16.419-11.256,16.419-11.256,3.923,11.288-.846,19.89" transform="translate(-138.385 -143.01)" fill="#d7a600"/>
  <path id="路径_175" data-name="路径 175" d="M294.377,243.678c-8.34,5.213-19.819,1.885-19.819,1.885s2.043-11.773,10.382-16.986,19.818-1.885,19.818-1.885-2.042,11.775-10.381,16.986" transform="translate(-138.576 -143.376)" fill="#00963b"/>
  <path id="路径_176" data-name="路径 176" d="M296.437,265.012c-9.822.515-18.248-7.959-18.248-7.959s7.5-9.308,17.316-9.823,18.248,7.959,18.248,7.959-7.495,9.308-17.316,9.823" transform="translate(-138.644 -143.78)" fill="#c60f28"/>
  <path id="路径_177" data-name="路径 177" d="M287.989,284.65c-8.839-4.31-12.1-15.807-12.1-15.807s11.069-4.509,19.906-.2,12.1,15.808,12.1,15.808-11.068,4.508-19.906.2" transform="translate(-138.601 -144.146)" fill="#e7391a"/>
  <path id="路径_178" data-name="路径 178" d="M271.14,297.64c-5.641-8.055-2.92-19.692-2.92-19.692s11.865,1.423,17.505,9.478,2.92,19.694,2.92,19.694-11.866-1.424-17.505-9.48" transform="translate(-138.445 -144.355)" fill="#00a6d9"/>
  <path id="路径_179" data-name="路径 179" d="M241.821,217.524c4.768,8.6.846,19.889.846,19.889s-11.652-2.656-16.419-11.256-.846-19.889-.846-19.889,11.652,2.655,16.419,11.256" transform="translate(-137.627 -143.014)" fill="#f9bc00"/>
  <path id="路径_180" data-name="路径 180" d="M223.616,228.86C231.957,234.073,234,245.848,234,245.848s-11.478,3.325-19.819-1.886S203.8,226.975,203.8,226.975s11.478-3.327,19.818,1.885" transform="translate(-137.251 -143.381)" fill="#970b31"/>
  <path id="路径_181" data-name="路径 181" d="M213.175,247.5c9.821.515,17.316,9.823,17.316,9.823s-8.427,8.473-18.248,7.958-17.315-9.823-17.315-9.823,8.426-8.473,18.247-7.958" transform="translate(-137.085 -143.785)" fill="#ec6a03"/>
  <path id="路径_182" data-name="路径 182" d="M213.143,268.8c8.838-4.311,19.907.2,19.907.2s-3.262,11.5-12.1,15.808-19.906-.2-19.906-.2,3.262-11.5,12.1-15.809" transform="translate(-137.2 -144.149)" fill="#982a8a"/>
  <path id="路径_183" data-name="路径 183" d="M264.028,244.449s-.67-3.738-4.035-1.826a4.658,4.658,0,0,0-2.257,3.122,5,5,0,0,1-4.22,1.676,2.426,2.426,0,0,0-1.422.766s-2.08-.552-5.137,5.825c0,0-1.735.6-.77,2,0,0,.8.956-3.435,4.33,0,0-.457.016-.432.733,0,0-.925-.237-1.649,3.012a2.214,2.214,0,0,1-.874,1.2,3.075,3.075,0,0,0-.56,1.453s-.9.3-1.457,1.93c0,0-.041.988-.417,1.179,0,0-.768-.149-.544,1.9,0,0,.022.625-1.806,2.84a.47.47,0,0,0,.1.624,2.9,2.9,0,0,0-.867,1.465s-.621-.337-.948,1.287c0,0-2.249,3.214-1.914,4.1a3.24,3.24,0,0,0-1.945,3.294s-2.057,2.224-.874,3.344c0,0,.647,5.261.439,5.807a3,3,0,0,0-.686,2.174s-1.062.217-.835,2.359c0,0-.482,1.449-.155,2.066a1.118,1.118,0,0,0-.319,1.714s2.516,2.057,2.8,3.48c0,0,1.3,4.433,2.176,5.387a2.237,2.237,0,0,1,.211,1.515s-.2.812.964,1.4a1.9,1.9,0,0,1,.513,1.5s.035.985.78.509c0,0,1.049,1.575,2.256,1.175,0,0,.573,1.056,1.323.667,0,0-1.335,1.123.717.782a37.425,37.425,0,0,1,3.532,2.74,1.732,1.732,0,0,0,.914,2.027s1.033,3.276.841,4.358-.554,1.543.3,1.959c0,0,.051,3.582,1.651,1.376,0,0,.351-.818,1.93.648,0,0,.559.607.93.323,0,0,.83-.3-.194-1.156s-.349-1.151-.349-1.151,1.214-.313,1.3-2.2c0,0-.048-3.491-.24-4.56a4.708,4.708,0,0,1,.469-3.957,3.55,3.55,0,0,1,.31-2.069c.5-.826,2.183-5.183,2.183-5.183s.654-.919,1.34-.944a2.65,2.65,0,0,0,1.1-1.383,1.153,1.153,0,0,0,1.044-.753c.2-.723-.379-1.958.6-2.35s2.248-3.393,2.248-3.393a2.132,2.132,0,0,0,.626-1.725A3.03,3.03,0,0,1,260.67,300a12.945,12.945,0,0,1,.33-3.325,7.617,7.617,0,0,0,1.242-3.715s.26-1.265.6-2.351a5.846,5.846,0,0,0,.149-2.332,39.628,39.628,0,0,1,1.036-5.144c.554-1.63-.071-1.966.49-3.42s-.574-1.142,1.027-3.35a2.03,2.03,0,0,0-.591-1.5c-.628-.517.65-1.1.766-2.089s-.139-1.784,1.728-2.925c0,0,.988-.127,1-4.069a6.985,6.985,0,0,1,1.16-1.741c.375-.194.894-.57.18-1.349,0,0,1.71-1.316-.041-3.223a13.94,13.94,0,0,0-1.045-3.724s.825-4.687,3.472-5.409c0,0,.76-.027.574-1.006,0,0,.051-.719-1.389-.4,0,0-.609.023-.575-1.142,0,0,.54-1.992-1.208-1.749a3,3,0,0,1-2.223-.19,5.413,5.413,0,0,0-1.915-.2c-.835.118.552-1.632-1.416-1.2" transform="translate(-137.68 -143.684)" fill="#009088"/>
  <path id="路径_184" data-name="路径 184" d="M317.468,336.7l2.379-2.322a2.343,2.343,0,0,0,1.522.662,2.881,2.881,0,0,0,1.739-.649,3.271,3.271,0,0,0,1.281-1.489,1.038,1.038,0,0,0-.16-.958.854.854,0,0,0-.547-.359,2.624,2.624,0,0,0-1.137.289,17.8,17.8,0,0,1-5,1.643,3.161,3.161,0,0,1-2.806-1.39,3.4,3.4,0,0,1-.538-2.923,5.935,5.935,0,0,1,2.555-3.176,6.9,6.9,0,0,1,3.542-1.533,4.226,4.226,0,0,1,2.8.989l-2.164,2.254a1.911,1.911,0,0,0-1.258-.459,2.769,2.769,0,0,0-1.509.614,3.611,3.611,0,0,0-1.3,1.378.766.766,0,0,0,.082.753.714.714,0,0,0,.609.29,12.378,12.378,0,0,0,3.021-1.046,9.134,9.134,0,0,1,3.812-.96,2.986,2.986,0,0,1,2.245,1.361,3.693,3.693,0,0,1,.539,3.185,6.317,6.317,0,0,1-2.7,3.438,6.98,6.98,0,0,1-3.839,1.513,4.649,4.649,0,0,1-3.167-1.106m-8.946,1.746-1.281-2.558,6.623-3.315,3.023,6.041a9.3,9.3,0,0,1-1.977,3.047,11.417,11.417,0,0,1-3.361,2.568,9.357,9.357,0,0,1-4.666,1.088,7.148,7.148,0,0,1-4.1-1.522,10.286,10.286,0,0,1-2.916-3.6,9.746,9.746,0,0,1-1.111-4.71,7.527,7.527,0,0,1,1.507-4.288,8.834,8.834,0,0,1,3.272-2.581,8.188,8.188,0,0,1,5.029-1.036,6,6,0,0,1,3.692,2.251l-2.781,2.1a3.594,3.594,0,0,0-2.094-1.159,4.084,4.084,0,0,0-2.538.463,4.66,4.66,0,0,0-2.565,2.874,5.986,5.986,0,0,0,.7,4.37,6.619,6.619,0,0,0,3.229,3.447,4.52,4.52,0,0,0,3.834-.231,5.961,5.961,0,0,0,1.746-1.345A7.306,7.306,0,0,0,313,338.6l-.961-1.921Zm-21.669.574,3.57,10.624,2.427-.816a9.356,9.356,0,0,0,1.911-.813,3.14,3.14,0,0,0,1.089-1.11,3.547,3.547,0,0,0,.331-1.832,10.926,10.926,0,0,0-.657-3.051,9.942,9.942,0,0,0-1.289-2.743,3.853,3.853,0,0,0-1.444-1.244,3.272,3.272,0,0,0-1.758-.249,15.7,15.7,0,0,0-2.719.744Zm-4.184-1.612,5.951-2a12.252,12.252,0,0,1,3.172-.725,5.667,5.667,0,0,1,2.928.662,7.336,7.336,0,0,1,2.416,2.081,12.486,12.486,0,0,1,1.8,3.614,11.03,11.03,0,0,1,.651,3.582,7.415,7.415,0,0,1-.774,3.416,6.019,6.019,0,0,1-1.857,2.049,10.34,10.34,0,0,1-2.767,1.309l-6.129,2.059Zm-11.976,14.372,3.218-1.014a4.049,4.049,0,0,0,1.7,2.151,3.71,3.71,0,0,0,2.6.256,3.841,3.841,0,0,0,2.3-1.2A2.077,2.077,0,0,0,281,350.2a1.553,1.553,0,0,0-.556-.93,2.8,2.8,0,0,0-1.358-.459c-.421-.057-1.365-.109-2.836-.162a9.311,9.311,0,0,1-4.133-.852,4.462,4.462,0,0,1-2.014-5.548,4.62,4.62,0,0,1,1.725-2.119,8.513,8.513,0,0,1,3.153-1.266,7.132,7.132,0,0,1,5,.391,5,5,0,0,1,2.438,3.337l-3.355.825a2.916,2.916,0,0,0-1.308-1.65,3.432,3.432,0,0,0-2.235-.119,3.88,3.88,0,0,0-2.153,1.081,1.243,1.243,0,0,0-.316,1.145,1.3,1.3,0,0,0,.712.9,8.945,8.945,0,0,0,3.323.466,16.607,16.607,0,0,1,3.874.43,4.771,4.771,0,0,1,2.2,1.3,5.022,5.022,0,0,1,1.219,2.5,4.958,4.958,0,0,1-.237,2.836,4.861,4.861,0,0,1-1.864,2.321A9.7,9.7,0,0,1,278.766,356a7.414,7.414,0,0,1-5.163-.43,6.411,6.411,0,0,1-2.909-3.8Zm-21.765,6.67-.507-16.922,3.34-.1,7.354,11.131-.34-11.341,3.189-.1.507,16.921-3.447.1-7.241-10.917.334,11.124Zm-7.385-7.371-1.557-6.516-3.076,5.924Zm5.411,7.46-3.69-.471-.972-4.009-6.784-.866-1.894,3.643-3.622-.462,8.71-15.955,3.618.461Zm-33.476-6.755.631-17.386,3.421.942-.643,11.885,6.088-10.385,3.957,1.089-.27,12.192L232.3,339.4l3.341.92-8.457,15.23-3.554-.979.12-13.1-6.626,11.3Zm-8.344-3.292,6.577-15.6,3.182,1.34-6.577,15.6Zm-4.117-9.44.774-6.654-4.923,4.508Zm2.52,8.864-3.3-1.708.463-4.1-6.074-3.142-3.03,2.772-3.243-1.678,13.658-11.994,3.24,1.675Zm-21.262-11.984,8.08-11.517-4.132-2.9,1.643-2.341,11.073,7.769-1.643,2.341-4.114-2.886-8.08,11.517Z" transform="translate(-136.848 -145.127)" fill="#595757"/>
</svg>
