<svg xmlns="http://www.w3.org/2000/svg" width="806.85" height="1114.571" viewBox="0 0 806.85 1114.571">
  <g id="taiwan_map" transform="translate(-17.14 -53.33)">
    <g id="组_6166" data-name="组 6166">
      <path id="path2462" d="M331.29,1020.29l-3.53,6.21.98.9,1.25.35,2.68-.8.54-1.07,3.04-3.21,2.85-1.79.45-.98-.27-1.07-1.07-.54-.45-.89-.89-.72-1.25.09-2.05.98-.72.8-.89.45-.54.9-.13.39Z" fill="#fff"/>
      <g id="g2924">
        <path id="path2464" d="M94.28,602.22v0Z" fill="#fff"/>
        <path id="path2466" d="M112.14,595.79l.71-2.5,1.96-.71-.89,1.43-.53,2.32-1.25-.54Z" fill="#fff"/>
        <path id="path2468" d="M120.89,588.83l2.32-.36-.54,1.79-1.78-1.43Z" fill="#fff"/>
        <path id="path2470" d="M78.39,636.51l-.18,2.5,2.15-.89-1.97-1.61Z" fill="#fff"/>
        <path id="path2472" d="M82.14,642.76l-4.29,2.32-1.61-.71.36,2.32,5.35-.35,4.11-2.5-.36-1.25-2.5-.36-1.06.53Z" fill="#fff"/>
        <path id="path2474" d="M75.17,597.4l-.63,1.16-.18.81.8.89-1.52,1.43.36,1.07,1.07.53.81.72.36.8-.89.45-.72,2.14.45,1.16-1.16.36H72.58l-1.07.72.36.98,1.43.27,1.79,2.32v1.34l-.54,1.07-.98.71-.71.89-.98.71-.98.27-1.79-1.61-1.25.45-.9.72-.63.98-1.52,1.34-.63.89.89.54h1.34l.63-.8h4.02l.71-.63.89-.45,2.59.45,1.16.54h1.34l1.16-.54-.44-1.16-.71-.89-.36-.98-.09-1.25,1.52-1.43-1.16-2.86,3.66-3.3-.35-.89L80,606.6l-.18-1.16.63-2.14-.54-1.16-.63-.8-.27-1.07.36-.98.98-.63h2.68l2.32-.63.98-.63.18-1.34-.72-.63-1.07.98-1.07.27-1.25-.63-2.14-2.41.27-1.16-.36-.98-1.07.09-.81.71-2.23,4.11-.89.99Z" fill="#fff"/>
        <path id="path2476" d="M90,586.95l-.98.98.09,1.16,3.03,2.06.63,1.07.63-.63.89-2.05.89-.63,2.77.09.54,1.16v1.34l.71.8.45.98,2.23,2.32.45,1.25.89.18.81-.98.18-1.34,2.23-1.25,1.34-.18-.09-1.16-1.25-1.16-.53-.8.8-1.43-1.43-.09-1.7-3.13-.71-.18-.81.54-2.14-.63-.27-1.07L98.3,584l-1.25.54-.53,1.07-1.34.27-2.32-.27-1.07-.53-.27-.63L90,586.95Z" fill="#fff"/>
        <path id="path2478" d="M102.23,598.38l-1.43,1.88,1.79,1.7h1.34l.98-.63.09-1.25,1.7-2.05-.8-.54h-1.34l-1.25.27-1.08.62Z" fill="#fff"/>
        <path id="path2480" d="M105.53,602.31l-1.16.54-.36.98.36,1.07,1.07.53h1.34l1.25-.27.36-1.16-.63-.89-1.16-.63-1.07-.17Z" fill="#fff"/>
        <path id="path2482" d="M98.48,611.15l-2.95,2.5-1.16.36H93.03l.63,1.16v1.34l-.27,1.25-1.79,1.52-.18,1.34.98.54,2.41-1.07.98-.71,1.43.09.89.63.8.89-2.68,2.86-1.34.18-2.68-.45,1.52,1.7,2.05.89,1.61-.18,1.16-.71,4.02.09.81,1.07.44,1.16-1.34,2.14-.18.71,1.16.81-.09.98-1.07,1.07-1.16-.09-.8-.71-1.07-.54-1.34.18-1.61,3.39-1.52,1.61.63,1.07,2.59.27,1.43-.18,1.79-.63,1.52-.09,1.61,1.79,1.16-.27.18-1.16,1.07-.98.09-1.25.45-1.25-1.07-.63-.18-.98.89-.98.63-1.16,4.46-3.48,1.16-.18,2.23-2.77.36-1.07.98-.8,6.16-.18,1.88-.89.8.63.27,1.34.63,1.16,1.07.71,1.25-.27.98-.54h1.43l.53-.8-3.13-3.3-.8-2.95.35-1.07v-1.34l-.54-1.16-2.41-2.59-.63-2.05-.72.8-.36,2.5-1.25-.18-.63-1.25-.8-.89.36-.8.71-.54-1.69-1.61-1.16-.45-.81.81-1.69,3.13-.98-.18-.89.27-1.52,1.52-.27,1.07-.71.18-.09-4.02.98-2.15-1.52.18-.81.54-5.18.89-.8.63.09,1.25.72.98v1.34l-.54.89-1.25.36-.8.98v2.77l-.71.8-1.34-.63-.98-.89.18-1.79-1.43-.18-.18-1.25.71-1.16.09-.81-.87-1.08Z" fill="#fff"/>
        <path id="path2484" d="M88.21,623.92l-.54,1.34-.98.45-.36,1.16.09,2.59,1.52.71.45.72.89.8.36-.89-.72-.89,1.16-1.07-.71-.8-.27-2.86-.9-.71" fill="#fff"/>
        <path id="path2486" d="M90.53,632.04v1.43l4.38.09.54-.8-.71-.89-1.07-.8-.53-.8-.27.98-2.34.79Z" fill="#fff"/>
        <path id="path2488" d="M105.65,560.55l-1.9,3.16.38,1.64,1.26.5,1.14-1.77,1.26-1.01,1.64.25,1.26-.63,1.14-1.14-4.17-2.9-1.01.13-1,1.77Z" fill="#fff"/>
        <path id="path2490" d="M18.53,670.02l-1.39,3.16,1.39.88,1.64-.38,1.39-.88v-1.26l-2.27-1.77-.76.25Z" fill="#fff"/>
        <path id="path2492" d="M70.04,675.07l.89,1.89v8.71l-.38,1.64-1.52.63.88,1.26,5.56.13.38-.88-.63-1.39.63-1.26,1.64-.51,1.26,1.39,1.26.88,1.52-.5.88-1.01h1.9l1.14-.76-.5-1.64-.76-1.26-1.64.63-2.02,2.27-4.55-2.65-.5-1.39v-3.79l-1.01.25-1.89-.13-2.54-2.51Z" fill="#fff"/>
        <path id="path2494" d="M80.02,715.48l.25,1.9,1.64.13-1.01-1.39-.88-.64Z" fill="#fff"/>
        <path id="path2496" d="M83.56,718.26l-.51,2.02-1.01,1.39,1.64-.5,1.77-2.27-1.89-.64Z" fill="#fff"/>
        <path id="path2498" d="M123.08,719.77l-.88,1.89.76,1.14v1.39l1.14,1.14.76-.13v-1.9l1.26-1.39.63-1.26-1.01-.88-1.9-.13-.76.13Z" fill="#fff"/>
        <path id="path2500" d="M51.48,732.52l-3.16,1.14-.38,1.52.38,1.77,1.14.88v1.89l1.77,2.4.63.25.13-1.77,1.52-1.01,1.52-.38.38-3.66,1.26-1.14-2.52-2.02-2.67.13Z" fill="#fff"/>
      </g>
      <path id="path2523" d="M804.17,203.08l1.52.88,1.26-.13.25-1.64,1.77-.13,1.77.25.51,1.64,1.64,1.01-.63,1.01-1.64.63-3.66-.13-2.02-1.9-.77-1.49Z" fill="#fff"/>
      <path id="path2525" d="M666.07,913.47v2.68l2.32,1.61.71,2.5v2.68l1.07,1.25,2.5.36,2.5,3.04,2.5.71,1.79-.36-1.78-1.78-.18-2.14,2.85-4.11v-2.68l-.53-2.32-1.61-1.25-2.68.18-2.32-1.07-5.18.9-1.96-.2Z" fill="#fff"/>
      <path id="path2527" d="M695.89,1128.11l1.43,1.96,1.6,1.43h2.68l2.5.54,1.25-.36.72-1.96,1.25-1.61.35-2.32-2.32-1.07-1.6-1.61-1.96-.54-4.29-3.75-.71-1.96.18-2.5,2.5-.18-.18-2.14-1.43-1.43-.35-2.32,1.25-1.43-1.07-1.61-9.82.18-1.96.71h-5.35l-1.61-1.07-1.61.36v1.79l1.96,1.25v7.86l1.07,1.6,2.5.9,5,6.25h5.36l2.14,1.43.52,1.6Z" fill="#fff"/>
      <path id="B_city" d="M413.35,336.68l-1.75.44-.25,2.28-9.09,12.63-1.91,4.66.25,3.81-.13.5-1.25,1.63-.53,1.41-2.75,1.25-1.03,1.75-4.66,3.16.13,1.38.5,1.16.13,2.13-.88,1.03-2.41-.78,2.78,1.28.5,1.25-1,1.41-.91.75-2.25-2.91-.91.5-1.13,1.25-2.16,1.16.13,1.75-.75,1.28-2.78,1.63-.88,1.41,4.16,5.69-.13,1.63-.88,1.28-.38,1.5-1.03-1.91.16-1.63-1.53,1.63-1.5-.13-.38-1.88.88-1.78-.13-1.75-1.25,1.25-2.25,6.44,1.63,1.28.63,1.38.63.5.13-.25,1.75,1.13v1.91l-.63,1.53-3.88,5.66-1.16.91-1.5,3.78.09,2.03,4.44,1.97,2.16,3.41.34,2.31,1.06,2.69.38,2.69,3.19,3.38-1.25,1.63-.16,2.5,1.25,1.59,1.78,1.25h.53l1.44,2.31,1.97.91,1.59,1.25,2.16.53,1.94,1.06,10.19,2.34h2.5l1.63,1.25.34.88v5.38l1.59,2.13,1.78,1.44v2.84l-.88,1.97,1.44,6.97,2.5.19,1.59,1.44,3.56-.38,1.09-.72,5.69,4.84,8.94,3.22,2.16-.56h5.34l2.5.56,1.78,1.59,2.16-.19,4.28-1.44,6.44-6.94,3.75-9.84,3.22-3.22,4.44-1.25,1.25-1.59-.34-6.59,3.75-7.5,1.63-1.09,2.31.72,1.06,1.63,4.66.88,1.59,1.44v5.34l1.06.56.72-1.63,1.44-1.25.91-1.78,1.06-4.28,1.59,1.44.38.53,2.84,1.41,2.5.38,2.5-.53,6.06-5.19,2.34-.34,1.41,1.25,2.34.53,5.16-.19,1.78-1.06,2.69-2.69,1.97-6.25,1.44-1.44,2.5-.53,4.28.53,1.59-1.06h4.13l3.91-1.97,1.25-1.97,1.97-1.25,1.25-1.59,1.78-1.06,1.25-1.97.56-2.16,1.78-.88,10.53-.19,1.44-1.25,1.25-1.97.69-1.97,2.5-.19,1.25-1.59,1.63-1.06,1.97.88,1.25,1.44,4.28,1.25.88-1.78,1.81-1.06h2.66l4.13-1.81,1.59,1.09,2.5.88,1.97-.72,1.25-2.13.53-2.16,2.31-3.75h.91l3.22,2.34,1.06,1.59,4.66,1.06h2.66l1.09-1.59,4.81.53,1.25,1.25,6.44,1.78,1.78-1.44.88-1.78-.16-2.5,3.75-1.59,1.06-1.63,2.69.19,1.41-1.25.56-2.31-.91-4.66,1.25-1.97,2.31-.88,1.63-1.06,1.78-4.13,1.44-1.59h2.66l1.78-1.25,1.44-1.78,2.16-4.31.72-7.31.88-1.97,2.31-1.25,1.25-1.44-1.25-2.13-1.59-1.06-1.06-1.78-2.16-1.09-7.13.91-1.81.91-2.31.34-1.59,1.25-1.25,1.59-2.69.38-1.78-.91-4.13-6.97h-4.81l-1.97-.72-2.66-2.66.88-7.16-.53-2.13-.91-1.81-1.25-1.41-.38-.22-1.72.91-.66,1.38-1.25.75-5.81-.13-1.25.66-6.53-.25-.06.81-1.78.91-1.97,1.59-1.44,1.81-.19,2.5-3.38,5.53v2.66l-2.16.56h-2.69l-1.78-2.5.91-1.44-2.69-1.06-1.97.88-.72,2.16-1.25,1.78-2.31.72-4.81,6.78-1.97.72h-5.34l-1.81,1.25-.69,1.97-.72.16-1.97,2.16-.38,2.5-2.13.53-3.41,2.84-2.13.56-5-.56-4.47,1.63-5.38,6.78-2.66.19-1.97-1.09-3.22-3.03-.38-2.5-1.78-1.25-2.66-3.91-1.63.34H521.9l-1.94-.91-5-.34-6.09-2.16-4.81-.16-2.16.88-1.41,1.44v2.69l.88,1.97.38,5-.91,1.94-1.78,1.44-2.16.72-10.34-.34-1.97.88h-5.34l-5.19-1.59-3.22-3.03-1.06-1.97-1.63-1.25L456.9,376.5l-3.38-2.84-2.5-.72-1.44-1.97L446.02,369l-1.44-1.59-2.13-.72-1.25-1.59-.91-.38-3.03-.34-1.25-1.78-3.22-2.16-7.5-9.66h-.34l-.91-1.78-4.47-1.78-2.31-3.75-.38-1.97Z" fill="#fff"/>
      <path id="C_city" d="M764.65,111.22l.07-1.16-1.07-1.12.5-3.41-1.78.13-2.38,1.5-2.16-2-1.91-.16-.88-.63v-2.13l-1.63-.41-.78,1.41-1.5.38-.38-1.5h-1.28l.5,1.5,1.41,2.03-1.78,2.25-2.78,2.03-1.25.13,2.28-2.16-.78-1.38v-3.16l-1.5-.13-1.38-.75-1.78-.25-2.03-2.03h-3.9l-1.13-.75.26-1.36-.43-.9-1.81,1.15-1.97.71-1.07,1.61-2.32.54-1.25,1.61-4.11,1.79-2.5.18-1.97.71-1.78,1.25-4.82.54v2.68l1.07,1.96,2.32.71,1.43,1.61.18,2.5,3.04,6.79,2.32,1.6,1.61,2.15,2.32.54,1.43-1.25v1.96l1.61,1.79,6.97,1.79,5.35,4.64,5.18.36,4.64-2.32,2.5-.18,1.07-1.79.71-2.14-4.64-4.46V121.4l-.54-2.14,2.32-.54,2.86-3.04,2.5.54,1.79,1.25.89.18,1.78-2.85,1.43-1.43.93-2.15Z" fill="#fff"/>
      <path id="T_city" d="M492.93,1054.81l-3.03,1.01-2.02,1.77-3.28,1.26-2.78-4.8-3.03-.76h-4.04l-1.26-2.78-2.78-1.01-2.27-1.52-4.29.25-.51-2.27.76-3.28,1.77-1.01-2.78-1.01-1.01-2.53-4.8-2.77,1.77-2.27,2.53-1.26-.25-7.57-2.52-1.52-1.26-2.53h-2.78l-3.79-4.04-3.54-1.77,4.8-14.65,6.57-1.01,1.26-2.78-.76-3.28-2.78-2.02-2.52-5.3-4.04-2.53-.25-3.03-1.01-3.03,4.29-3.28V969.7l-4.04-8.08-.51-4.29-1.77-1.01-1.01-3.03.51-3.54,2.78-5.05L448,941.92l1.52-2.27,1.01-2.78-.25-3.54,1.01-2.52,2.02-2.02.76-3.03,1.77-2.02.25-1.01,4.04-5.56.25-3.53,1.77-2.27.25-2.52,3.28.5,3.54-1.77,6.06-1.26,3.03-6.31,11.11-.51,2.02-2.27.25-3.54,1.77-2.02.51-9.85,2.02-2.02-1.01-2.27v-3.79l-1.01-3.28-2.52-1.27-3.28-.25-2.78-2.52-.76-1.52-1.01-8.33-3.79-2.52-2.27.76-.25-1.26-2.52-1.26-1.01-.25H470.5l-1.52,2.27-5.05,2.52-1.77,2.27-2.78,1.52-2.78-1.52-6.31-7.58-8.59-5.3h-3.79l-3.03.76-3.28,4.8-3.03.76-1.01,1.01h-2.78l-2.78-1.26V848.5l-1.77-2.02-3.03-1.26-3.03.76L411.39,848l-3.53.25-6.57,4.55-1.26.5-4.04,3.28-.25,1.26-2.53,3.28-2.27,1.77-3.53.25-6.06-1.52-2.78,1.27h-3.79l-1.52-2.27-4.54-.25-1.77-.76-2.53,1.26-1.52,9.85-1.26,2.53-.5,3.28-1.26,2.77.25,15.15-.76,1.26.25,4.55-1.77,6.82-1.77,2.27-2.02,6.06-.25,18.18,3.54,4.29-2.78,16.42-1.26,2.77-2.46,2.21-.19,1.84-.75,1.13-.13,3.78-.5,1.28.75,1.75.13,9.09,2.91.25,2,1.91-.13,1.78-.88.25,1.78,2.38,5.03,3.69.91,1.25,1.38.63.63.13-.16-.03.16.41,3.03,1.28,1.16,1.25,1.5,1.03,2.91,1,1.13,1,1.53.75,1,.9,1.66.75,1.13,1,9.59,5.19,1.13,1.38,1.66.53,10.84,8.69.91,1.28,2,5.41-.38.78,5.44,3.66,5.81,7.31.5,1.53v4.78l1.78,2.91.75,3.41-.13,1.78-.5,1.5.13,1.53,4.03,3.41.88,1.25,1.28,1.03.75,1.25,1,3.53,3.28,3.4-.88,1.78v1.91l.38,1.75,1.15,1.25,1.63,4.94.13,5.56,1,3.28v1.91l.66,1.25.5,2.16,1.25,1.13.75,1.25.28,1.78,1.38,1.38.25,3.56.75,1.25-.13,1.91-.75,1.25-5.19,1.5.25,1.66,1.78.38.5,1.28-.13.63.38,1.63.63,1.28-.63,1.25-.88,1-2.53,1.53-.25,1.63,1,1.16-3.78,3.53v3.66l1.53.88v1.91l1.25,1.13-.38,1.53,3.91,3.4.38,1.38,1.28,1.28.75,1.25.5,2.53-.88,3.03.13,5.94-1.13,2.66.88,1.13,1.75.25.91,3.28,1,1.65,3.9.38,1.53-2.4,1.13-.88.25-1.66-.75-3.16.63-1.38,1.41-.63,2-2.16,1.28-.63h1.88l.5,1.38,4.19,2.91.5.13,2.28-.13,1.63.38.63,1.28,1.53.38,1.38.88,1.9.63,1.91.13,3.78,3.81.13,1.75,1.88.63.91.78.63,1.25.13,1.75,2.65,2.53h1.88l1.28-.88-.25-1.66-1.03-.88-.38-1.63.13-1.78-.5-1.38-4.9-7.47v-7.31l.5-1.41-.63-1.38.5-3.03,1-.38.13-1.66,3.4-.5,1.66-.63.63-1.25,1.5-.38,1.28-1.03.5-1.5.13-1.78.88-1,1.78-.13.38-3.41,3.65-2.41.38-1.4-2-2.5-.13-9.35-1.15-1.65v-1.91l2.65-4.47,1-1.06v-1.53l-1.5-.63-2.03-2.16-.63-1.63-.25-4.81.25-.69.88-.06.5-.63.72-.5.31-.72-.88-1.38.06-3.66-.85-1.28.25-.63.53-.56.31-.63.19-.75-.19-.78v-1.88l-.31-.97-.41-.56.06-1.13-.63-.81-.31-.84.19-1.63,1.41-1.16.38-.63.19-.69.06-1.84-.25-.81v-.69l.19-.5-.88-1.03.75-3.28,1-1.13.5-1.38-1-1.16-.16-.91" fill="#fff"/>
      <path id="A_city" d="M667.84,106.08l-1.25,2.68-1.25,1.25-.36.72-1.25,1.43v2.68l-1.79,1.07-.36,2.32.71,2.32,1.79,1.25,5.71.71,3.57,3.39,1.43,2.68.18,8.21-2.68,3.75-1.78,1.61-.9,1.97.54,5.18,1.07,2.14,2.14-.18,1.96-1.07,1.25-1.78,1.25-.18,2.86,1.25,1.61,1.25.72,1.96v2.68l1.25,2.14,2.32,1.61,2.5.18,1.07,4.29,3.75,2.5,10,1.07,2.14-.89h2.86l.18-1.79-4.82-2.32-.36-2.5.18-2.14-1.25-4.11v-2.32l1.25-1.96,1.79-1.07,5,.36,1.61-1.07,2.14-.54,6.79.36.54-1.43-1.61-.71-2.32.71-3.93-1.79-4.82-3.57-.89-1.96,1.25-1.61-.36-1.96-1.43-1.43,1.07-1.25,2.32-4.82-.54-4.65-7.68-6.6.53-2.32,1.43-1.61-.54-1.79-2.86-2.5-1.07-1.61-.18-5.18-2.86-2.86V95.55l.72-1.96V90.91l-4.65.36-1.96-3.57-1.43-1.61-2.5,3.93-1.96.89-.89,1.96-3.75,2.14-.89,2.32-1.61,1.07-2.5.18-1.96.89-3.04,3.57-.89,2.32-2.31.72Z" fill="#fff"/>
      <path id="F_city" d="M822.24,147.96l-1.41.13-1.13,1.03-1.16-2.16-1.38-.5-.88-1-1.47-.34-1.81.06-.84.85-1.69,1.06-4.03-.38-4.94-4.03-.38-1.4v-5.69l-.63-.75,1.38-1-.25-.63-4.15-4.19-1.28-3.03,1.53-4.53,1.5-1.03.38-1.5-.63-1.25-1-.91-.63-.88.75-1.25,1.25-.78V112l-1.75-.13-1.66.38-1,1-3.41,1.16h-1.91l-5.94-1.28-1.5.63-1.41-.63L776.4,113l-2.9-.88-1.38.75-1.28,1.25h-1.63l-1.03-1.25.38-1.63.78-1.28.63-.63h-1.91l-1.63.63h-1.81l.02,1.16-.89,2.14-1.43,1.43-1.78,2.85-.89-.18-1.79-1.25-2.5-.54-2.86,3.04-2.32.54.54,2.14v4.82l4.64,4.46-.71,2.14-1.07,1.79-2.5.18L746.44,137l-5.18-.36L735.9,132l-6.96-1.79-1.61-1.79v-1.96l-1.43,1.25-2.32-.54-1.6-2.15-2.32-1.6-3.04-6.79-.18-2.5-1.43-1.61-2.32-.71-1.07-1.96v-2.68l4.82-.54,1.79-1.25,1.96-.71,2.5-.18,4.11-1.79,1.25-1.61,2.32-.54,1.07-1.61,1.96-.71,1.48-1.11-2.91-2.09-1.53-.5-1.63-1.13-.53-1.28.66-1.5,2.91-1.41-.28-.75-1.13-1,1-1.13,1.41-.78,1.25-1.13-.38-1.13-4.53,3.91-6.31.38-4.94-5.06-.25-1.25,1.25-1.28-.63-1.25h-2l-1.41-.63-2.03-2.03.53-3.78-.38-1.78-.65-1.25-1.13-1-3.66-5.19-3.16-1-1.78-2.28-1.38-.75h-1.9L698,58.19l-1.03-1.13-1.25-.75-.44-.09-1.34.22-1,1.13-.5,1.53h-6.06l-1.91-2.03-1.13.75v1.91l-1.13.75-5.06.75-.63-1.63-.63.63-.25,1.78-1.4,1.13-3.41.88-1.38,1.03-1.66.5-3.53,7.44-.63.13-3.69-.5-1.25,1-.13,1.78-1,1.13-.38,1.53-1.28,2.53-.25,1.88-.88,1.28-1.28.75-2.13,2.16-.25,1.88-2.03,3.91-1.91.53-1.13-.13.25,1.13,3.41,3.16,1.9.13,3.53,1.66,1.5,2.63,1.41,1.03,1,1.25,2.16,4.44.25,7.56-.88.75-.25-1.63-.78-1.66-.25-1.63-2-2.66-.13-1.78-.66-1.75-2.25-2.28-5.81-3.78h-1.91l-1.13,1-.63,2.41-3.69,3.53-1.63.5-2.78,1.66-1.5.38-4.19,2.78-5.16,1.63-1.28.88-12,.13-2.41,2.28-.96,1.4,1.81,2.48,1.25.36,1.25,1.61,5,.54,9.29,4.46-.54,3.57,1.97,1.78,5.18,1.25h5.35l1.25.89,1.79,2.14.54,2.32v.71l-.9,1.79.36,2.32,1.25,1.43,2.32,1.61-.89,1.6-1.97,1.25-1.96.71,2.14,1.61.18,2.14-1.61,1.07-2.14.71-1.97,3.57-2.86,1.97-11.25-.36-1.79.89-.53,2.14,1.07,1.96-.54,5-1.43,1.43-.9,1.96,1.25,2.32,2.15.18,1.6,1.25-2.14,1.43-1.25,1.43-.89,1.96.89,4.29,4.46,2.68,3.39,5.18-1.25,1.61.36,2.14.18.18,2.5,1.61-1.6,1.25-4.65.89-.18,2.14,2.5.36,1.61-1.25,1.61,1.61,1.78,1.07,2.86.71,2.68-.18,1.96-1.07,5.36-.36,1.25.72.36.89,1.43,1.43.71,1.96,2.86,2.86,1.61.89,1.6,1.79.18,2.5.89,2.5,2.32.71v2.68l-1.61,1.07-1.07,1.61-3.21,2.68-1.07,1.96.36,2.32.89,1.79v1.07l1.97,5,3.21,3.04-.54,1.96,2.5,1.07.18,1.79,2.5.71,1.43,1.97,1.96,1.43.54,5,1.48.62,4.77.27,2.32-1.43,4.65-.71,5.18-3.4.54-2.5,5.89-3.21,2.68-.18,2.14-.71,1.07-1.61,1.6-1.25,2.32-.36,1.43-4.29V238.3l-.71-2.14-1.43-1.43-.36-2.5,1.96-1.61.36-2.32-.18-2.5.89-1.97,2.14-.53,1.78-1.07,2.5.71,2.32-1.79.53-2.14-1.43-1.25,10.54-1.25,3.57-1.79,1.61,1.79.71-1.96,2.14-.72,1.07-1.78,1.78-1.61.54-1.7,4.82-2.59,2.68-3.21,1.96-1.07,2.32-.36,7.5,1.07,1.79-.89,2.5-.54-.18-1.25.18-2.14,1.43-1.79.18-2.15-.54-2.32,2.5-3.21,3.04-2.5,2.32-.36,5.36.36,5.89-3.93,1.43-4.29-4.11-5.89.89-1.79.54-2.14,1.79-1.43,5.18.36,2.32.89h2.85l1.43-1.6,6.78-4.82,5.36-.36,6.25-2.32,2.5-.18,3.71.69h0l1.12-.5.78-1.54,1.76-.12.75-1.13,2.78-1.28.78-1.32,1.88-.18.69-1.44.06-1.47Zm-100.83-.9-6.79-.36-2.14.54-1.61,1.07-5-.36-1.79,1.07-1.25,1.96v2.32l1.25,4.11-.18,2.14.36,2.5,4.82,2.32-.18,1.79h-2.86l-2.14.89-10-1.07-3.75-2.5-1.07-4.29-2.5-.18-2.32-1.61-1.25-2.14v-2.68l-.72-1.96-1.61-1.25-2.86-1.25-1.25.18-1.25,1.78-1.96,1.07-2.14.18-1.07-2.14-.54-5.18.9-1.97,1.78-1.61,2.68-3.75-.18-8.21-1.43-2.68-3.57-3.39-5.71-.71-1.79-1.25-.71-2.32.36-2.32,1.79-1.07v-2.68l1.25-1.43.36-.72,1.25-1.25,1.25-2.68,2.32-.71.89-2.32,3.04-3.57,1.96-.89,2.5-.18,1.61-1.07.89-2.32,3.75-2.14.89-1.96,1.96-.89,2.5-3.93,1.43,1.61,1.96,3.57,4.65-.36v2.68l-.72,1.96v2.68l2.86,2.86.18,5.18,1.07,1.61,2.86,2.5.54,1.79-1.43,1.61-.53,2.32,7.68,6.6.54,4.65-2.32,4.82-1.07,1.25,1.43,1.43.36,1.96-1.25,1.61.89,1.96,4.82,3.57,3.93,1.79,2.32-.71,1.61.71Z" fill="#fff"/>
      <path id="G_city" d="M667.52,260.44l-.47,1.16-1.64.51-3.54.25-1.26.76-1.77,2.4-.63,5.05-2.27,3.03-.38,1.52-.63,1.26-.38,1.52-3.41,5.3-.25,1.64h-1.77l-1.39.63-1.14.88-.39.71-.86.92.11.64,1.14.76.63,1.39.13,1.77.5,1.39-1.26,1.14-.51.25-.5.76-1.27.76-1.39,1.52-.38,1.64.63,1.26.13,7.32-.76,1.77-1.14,1.39-1.39,1.01-1.64,2.52-1.77,1.39-.5,1.26-1.39-.13-3.41,4.93-1.26.76-1.9-.38-1.39,2.78-1.39.76-1.14,2.9-.89,1.14-1.52,1.26-1.26,2.52.1,1.57-.69,1.02,1.44,1.69.89,1.79.54,2.14-.89,7.15,2.68,2.68,1.96.71h4.82l4.11,6.96,1.78.9,2.68-.36,1.25-1.61,1.6-1.25,2.32-.36,1.79-.89,7.14-.89,2.15,1.07,1.07,1.79,1.61,1.07,1.27,2.11,12.02,7.7h8.08l3.03,1.26,4.04.5,8.08,5.56,8.33,1.01,3.03-.76-3.03-2.53.76-3.03,3.28-.76,2.27-1.52,2.27,1.01,2.02-1.77-.76-1.52-2.02-1.77.25-3.28,2.02-.76,4.29,3.79,4.8,1.52,4.55,3.54,9.09,3.79,7.32.5,8.08,4.04,4.13.5-.22-4.04-.75-1.25.13-3.66,2.53-4.81.38-1.5,1.53-2.53.5-10.88.5-1.63.88-1.16v-2.13l1-3.53,1.78-2.41.5-1.78,2.66-1.63,1-1.16,1.28-2.63.13-1.78,4.53-4.28,4.56-1.91h1.88l.53-.25-1.41-.75-1-1.03-.75-1.25v-1.9l-2.53-1.5-.5-4.94,1.75-1.13.88-1.28,3.28-.63,2.78-1.75,1.65-.38.5-1.65-.13-1.5-.63-1.78-.13-1.78-.75-1.13-.28-3.53.78-1.13-.9-1.41.65-1.5h1.88l-.25-1.41-1-.88-.25-.5,1.5-.66-1.25.28-1.78-.66-.13-1.25L781,284.63l.41-1.63,1.75-.13,1.53.88.25,1.78,1.75-.13,1.53-.78-3.66-3.66-3.03-1-.41-.75-.5-.16-1.63-2.25-.13-1.28-3.66-9.09-.13-3.78-.78-1.13.38-.63v-2.03l-.5-1.66.5-10.22-2.9-3.16-.88-1.5v-1.66l-1.38-1.63-.63-3.41.13-1.78-1.03-1,.5-14.03.66-2.16v-1.88l1.25-2.78-.25-3.66,1-3.03.13-1.78,2.4-5.16.25-1.78,1.28-2.16,1.5-.75,1-2.91.91-1.13,1.38-.5,3.78-4.44,1.28-.63,3.16-3.65.25-3.53.5-1.53,2.78-1.63,1.5-.38,1.53-2.16,1.18-.94,1.22-.58,2.5-3.53.28-1.88,1.75-1.03,1.78-.25,1.25-.5,1.13-1.12,1.66-.25,1.25-.78,1.9-.13,2.7-1.24-3.63-.71-2.5.18-6.25,2.32-5.35.35-6.79,4.82-1.43,1.6h-2.85l-2.32-.89-5.18-.36-1.79,1.43-.54,2.14-.89,1.79,4.1,5.89-1.43,4.29-5.89,3.93-5.36-.36-2.32.36-3.04,2.5-2.5,3.21.54,2.32-.18,2.15-1.43,1.79-.18,2.14.18,1.25-2.5.54-1.79.89-7.5-1.07-2.32.36-1.96,1.07-2.68,3.21-4.82,2.59-.54,1.7-1.79,1.61-1.07,1.78-2.15.72-.71,1.96-1.61-1.79-3.57,1.79-10.54,1.25,1.43,1.25-.54,2.14-2.32,1.79-2.5-.71-1.79,1.07-2.15.53-.89,1.97.18,2.5-.35,2.32-1.97,1.61.36,2.5,1.43,1.43.72,2.15v2.68l-1.43,4.29-2.32.36-1.61,1.25-1.07,1.61-2.14.71-2.68.18-5.89,3.21-.54,2.5-5.18,3.4-4.65.71-2.32,1.43-5.05-.14Z" fill="#fff"/>
      <path id="H_city" d="M667.6,260.42l-.54,1.17-1.64.51-3.54.25-1.26.76-1.77,2.4-.63,5.05-2.27,3.03-.38,1.52-.63,1.26-.38,1.52-3.41,5.3-.25,1.64h-1.77l-1.39.63-1.14.88-1.52,1.94-.76.46-1.77.38-3.66-.5-1.52-.88-1.26-1.9h-.89l-.76-1.01-.5-1.52-1.39-.5V278.9l.76-1.39.38-1.77-1.52-.76-1.64-.25-1.26-.76-.13-3.79,1.01-1.01.13-1.9.51-1.52-.25-1.9-1.64-.76h-1.9l-.63-1.26-.25-1.77-.76-1.26-1.14-.88-2.27-2.9-2.9-1.39-3.03,1.01-1.39-.51v-3.79l1.14-1.14.63-1.26v-3.79l-2.15-.38.13-4.42.51-1.39.88-1.26.38-1.64-1.26-1.26-.63-1.52-1.77-.38-1.26-1.26-1.39-.51-1.77-.13-.51-.76h-.25l-1.64-.88-1.01-1.26-1.52-.88-.38-.63-.13-1.14-.88-2.4-1.52-.63-2.15-.38v-1.9l-1.52-.5-3.91,1.77h-1.64l-5.68-4.54-1.39-.63-1.14-1.14-2.02-.76v-1.39l-1.9-.25-1.77-.63-3.54-2.78-.63-.89-3.03-1.89.38-1.64,1.77-2.78-.51-5.56-1.39-1.01-11.74-1.01-.76-1.52-.25-1.9,1.01-.88-1.39-.76-1.26.88-1.65.63-1.89.13-1.64-1.26-2.02-.63h-1.9l-1.26-1.39-3.03-1.14.13-3.66.63-1.52-1.14-3.03-.13-1.77-1.77-.13-2.15-2.15-3.66-.25-4.3,1.26-2.27-1.52-4.29,2.53-3.1-.83.46-.8,1.25-1.03,3.03-4.03.63-1.38,1.28-1.28,1.25-.75,1.78-1.9v-3.66l-.91-1.25.13-1.78,3.03-3.78,1.03-2.9,1.13-.88,2.41-3.53,4.66-4.06,3.94-1.75,1.63-.25,1.16-1.15,1.5-.5,2.53-1.63,1.25-1.41,1.66-1,1.75-.5,2.78-2.16,1.53-.63h2l12.13-3.16,1.53-1.28,3.53-1.63,3.65-3.66,1.66-1.03,2.13-.13,8.34-3.41h1.91l1-1,3.53-.75,1.53.5,2.5,2,2.35.08.79,1.87,1.25,1.43,1.25.36,1.25,1.61,5,.53,9.29,4.47-.54,3.57,1.96,1.79,5.18,1.25h5.36l1.25.89,1.79,2.14.54,2.32v.71l-.9,1.79.36,2.32,1.25,1.43,2.32,1.61-.89,1.61-1.96,1.25-1.96.71,2.14,1.61.18,2.14-1.6,1.07-2.15.71-1.96,3.57-2.86,1.96-11.25-.36-1.79.89-.54,2.14,1.07,1.96-.54,5-1.43,1.43-.89,1.96,1.25,2.32,2.14.18,1.61,1.25-2.14,1.43-1.25,1.43-.9,1.96.9,4.29,4.46,2.68,3.39,5.18-1.25,1.61.36,2.14,2.68,1.79-1.61,1.25-4.64.89-.18,2.14,2.5.36,1.6-1.25,1.61,1.61,1.79,1.07,2.85.72,2.68-.18,1.97-1.07,5.35-.36,1.25.72.36.89,1.43,1.43.71,1.96,2.86,2.86,1.6.89,1.61,1.79.18,2.5.9,2.5,2.32.71v2.68l-1.6,1.07-1.07,1.61-3.22,2.68-1.07,1.96.36,2.32.89,1.79v1.07l1.96,5,3.21,3.04-.53,1.96,2.5,1.07.18,1.79,2.5.71,1.43,1.97,1.96,1.43.54,5,1.171.7Z" fill="#fff"/>
      <path id="O_city" d="M489.82,240.59l.2,1.05,1.27.63h2.02l1.39-.5,1.14-.88,1.39.51,1.9,2.27.5,1.64v1.52l4.87,1.26.69-.5,2.02-2.4.38-3.66,1.26-2.9,1.64-.38,1.01-1.52,1.52-.63,1.14-.88.5-1.52.89-1.39,5.43-1.26-.51-1.39,1.14-1.77,1.52-.51h1.9l7.07,7.2,1.52-1.01v-3.79l-3.28-11.11-1.9-2.65-3.41-2.9-3.66-.38-.13-.63-.51-1.01-1.39-.89h-1.9l-7.7-1.89-1.9-2.65-.5-1.39-1.61-1.16-1.03.77-1.53.63-5.06,6.97-1.25,1.13.63,3.03-.25,1,.5.53,1.91.13.25,1.63-.75,1.53-.38,3.53-.78,1.13-.13,3.91-1.88,2.53-.5,1.53,1.38,1.13-.75,1-.63,1.78-2.28,2.16-1.78,1-1.6.42Z" fill="#fff"/>
      <path id="J_city" d="M619.76,337.08l-1.69.9-.63,1.39-1.26.76-5.81-.13-1.26.63-5.68-.13-.89-1.01-.13-2.15.25-1.26-.63-.76v-3.79l-.88-1.26-1.52-.88-1.14-1.26-.63-1.52-2.15-2.4-.63-1.52-1.52-.76-.76-1.14-1.64-.88-.5-1.26.25-2.9-1.14-1.52-3.66-.25-1.52.51-2.65,1.77h-4.29l-1.39.76h-1.89l-1.26-1.14-7.57-.38-1.39.5-1.52-.38h-1.9l-2.15,1.9-3.41,1.39-3.41-.76h-5.94V316l-.88-1.9v-2.02l.76-1.52,2.14-2.27.51-1.52-.13-1.9-1.52-2.9-2.65-2.15,2.02-3.28,1.13-4.17,1.14-1.39.13-1.77.88-1.26.38-1.64-1.39-.76-1.14-3.41-1.89-.5-1.39-3.16-.88-.38-2.02.5-1.52.88-2.4-1.89-.88-1.52-1.64-.38-1.26-.88-2.02-3.16-1.77-.25-1.77-.76-.13-1.77-1.14-1.26-1.77-.25-3.28-2.15-.88-1.52-1.39-1.39-1.64-2.9-.25-1.77-2.02-.76.38-1.26.89-1.39.25-1.64,1.01-1.26-1.39-.76.88-1.14-3.54.25-1.26,1.01-1.52.63-.88-1.14h-2.9l-1.52-.76-.99-1.21,2.5-3.08.38-3.66,1.26-2.9,1.64-.38,1.01-1.52,1.52-.63,1.14-.88.5-1.52.89-1.39,5.43-1.26-.51-1.39,1.14-1.77,1.52-.5h1.89l7.07,7.2,1.52-1.01v-3.79l-3.28-11.11-1.89-2.65-3.41-2.9-3.66-.38-.13-.63-.51-1.01-1.39-.88h-1.9l-7.7-1.89-1.89-2.65-.51-1.39-1.58-1.26.56-1.5,2.03-2.53.5-1.78,1-.88.63-3.41,5.56-6.94-.75-1.53-.38-1.91,5.48-7.89,3.1.83,4.29-2.53,2.27,1.52,4.29-1.26,3.66.25,2.15,2.15,1.77.13.13,1.77,1.14,3.03-.63,1.52-.13,3.66,3.03,1.14,1.26,1.39h1.9l2.02.63,1.64,1.26,1.9-.13,1.64-.63,1.27-.88,1.39.76-1.01.88.25,1.9.76,1.52,11.74,1.01,1.39,1.01.51,5.56-1.77,2.78-.38,1.64,3.03,1.9.63.89,3.54,2.78,1.77.63,1.9.25v1.39l2.02.76,8.21,6.31h1.64l3.91-1.77,1.52.5v1.9l2.15.38,1.52.63.88,2.4.13,1.14.38.63,1.51.88,1.01,1.26,1.64.88h.25l.51.76,1.77.13,1.39.51,1.26,1.26,1.77.38.63,1.52,1.26,1.26-.38,1.64-.88,1.26-.5,1.39-.13,4.42,2.15.38v3.79l-.63,1.26-1.14,1.14v3.79l1.39.51,3.03-1.01,2.9,1.39,2.27,2.9,1.14.88.76,1.26.25,1.77.63,1.26h1.9l1.64.76.25,1.9-.51,1.52-.13,1.9-1.01,1.01.13,3.79,1.26.76,1.64.25,1.51.76-.38,1.77-.76,1.39v3.91l1.39.5.5,1.52.76,1.01h.88l1.26,1.9,1.52.88,3.66.51,2.6-.71,1.44.96.63,1.39.13,1.77.5,1.39-1.26,1.14-.51.25-.5.76-1.26.76-1.39,1.52-.38,1.64.63,1.26.13,7.32-.76,1.77-1.14,1.39L640,312.76l-1.64,2.52-1.77,1.39-.5,1.26-1.39-.13-3.41,4.92-1.26.76-1.9-.38-1.39,2.78-1.39.76-1.14,2.9-.88,1.14-1.52,1.26-1.26,2.53-.13,1.77-.66.84" fill="#fff"/>
      <path id="K_city" d="M505.69,249.47l1.52.76h2.9l.88,1.14,1.52-.63,1.26-1.01,3.54-.25-.88,1.14,1.39.76-1.01,1.26-.25,1.64-.88,1.39-.38,1.26,2.02.76.25,1.77,1.64,2.9,1.39,1.39.88,1.52,3.28,2.15,1.77.25,1.14,1.26.13,1.77,1.77.76,1.77.25,2.02,3.16,1.26.88,1.64.38.88,1.52,2.4,1.89,1.52-.88,2.02-.5.88.38,1.39,3.16,1.9.5,1.14,3.41,1.39.76-.38,1.64-.89,1.26-.13,1.77-1.14,1.39-1.14,4.17-2.02,3.28,2.65,2.15,1.52,2.9.13,1.89-.5,1.52-2.15,2.27-.76,1.52v2.02l.88,1.89v2.15h5.93l3.41.76,3.41-1.39,2.15-1.9h1.9l1.51.38,1.39-.51,7.57.38,1.26,1.14h1.9l1.39-.76h4.29l2.65-1.77,1.52-.51,3.66.25,1.14,1.51-.25,2.9.5,1.26,1.64.88.76,1.14,1.52.76.63,1.52,2.15,2.4.63,1.52,1.13,1.26,1.52.88.88,1.26v3.79l.63.76-.25,1.26.1,3.87-1.79.89-1.96,1.61-1.43,1.79-.18,2.5-3.39,5.54v2.68l-2.14.54h-2.68l-1.79-2.5.89-1.43-2.68-1.07-1.97.89-.71,2.15-1.25,1.78-2.32.72-4.82,6.78-1.96.72H567l-1.79,1.25-.71,1.96-.71.18-1.97,2.14-.36,2.5-2.14.54-3.39,2.85-2.14.54-5-.54-4.46,1.61-5.36,6.79-2.68.18-1.96-1.07-3.21-3.04-.35-2.5-1.79-1.25-2.68-3.93-1.61.36H522l-1.97-.9-5-.35-6.07-2.15-4.82-.18-2.14.89-1.43,1.43v2.68l.89,1.96.36,5-.89,1.96-1.79,1.43-2.14.72-10.36-.36-1.96.89h-5.36l-5.18-1.6-3.21-3.04-1.07-1.96-1.6-1.25-11.25-2.15-3.4-2.85-2.5-.71-1.43-1.96-3.57-1.97-1.43-1.6-2.14-.71L441.29,365l-.89-.35-3.04-.36-1.25-1.79-3.21-2.14-7.5-9.65h-.36l-.89-1.79-4.46-1.78-2.32-3.75-.35-1.97-3.77-4.72,1.58-.71,3.78-3.16,3.03-3.94.63-1.38,5.19-6.81,1.25-3.15,1.41-1.91,9.47-28.16,2.25-2.91.13-.75,1.16-1.25,3.16-.78,2.66,2.28,1.13,1.66.38-1.53-.38-2.03,2.65-1.63h1.38l1.03.25-.13-1.66-1.66-.75-1.5-1.13,1-.88.63-3.28,3.03-5.31,1.66-.25,2-2.41,5.56-.25,4.41-2.03h2.41l3.91,1.41,1.03,1,2.25.5,1.28-.75-.75-1-1.91-.25-1.5-.66-.78-1.63-1.75-.25.13-1.78,1-1.13,1.53-.75,5.53-4.69.53-1.63.88-1.16.38-1.5v-1.91l1.25-2.78,1.28-1.13.88-1.28,1.94-.84.46.98,1.27.63h2.02l1.39-.5,1.14-.88,1.39.5,1.89,2.27.51,1.64v1.52l4.04,1.14,1.92,1.54Z" fill="#fff"/>
      <path id="N_city" d="M302.27,534.59l6.31,2.27,3.79.25,5.81,1.77,16.16-.76,2.78-1.01,14.65.25,2.53-1.26,5.05,2.78.76,1.26,4.29.5,8.08,4.04,6.31,1.52,7.32-.25,3.03-.76,30.56,5.05,5.81-1.77,2.02-1.77,1.26-2.52V540.9l-2.02-.5-2.52,1.26h-3.28l-2.52-1.26-7.32-7.83.25-2.27,1.26-2.52-1.77-2.02,1.52-2.52.5-3.28,1.26-2.52,1.26-9.6-.5-2.78.5-2.27-1.01-5.56,1.52-2.27,2.02-1.77,1.26-2.52.25-3.54-1.26-2.78-1.77-2.02-.5-.25.25-3.79h7.57l4-2.26-5.76-4.78-1.07.71-3.57.36-1.6-1.43-2.5-.18-1.43-6.96.89-1.97v-2.86l-1.78-1.43-1.61-2.15v-5.35l-.36-.9-1.61-1.25h-2.5l-7.5-2.14-2.68-.18-1.97-1.07-2.14-.54-1.61-1.25-1.96-.89-1.43-2.32h-.54l-1.79-1.25-1.25-1.61.18-2.5,1.25-1.61-3.22-3.4-.36-2.68-1.07-2.68-.36-2.32-2.14-3.39-4.42-1.97-1.52.37.5,1.5.66.88-1.53.78-3.25,4.16-.03.13L364,428.14l-1.25.78-5.56.13.25,1.5,1.53,1.28-.13,3.66-1.03.88-.63,1.38-.38,1.78-.88,1.25-.13,3.81-.13.38-1.03,1.5v1.91l.63,1.25-.25,1.91-1.38,1.25-3.03,1.16-.75,1.75-2.28,2.41-.25,3.53-.63,1.41-2.66.5-1.41,1.13-1.63.25-2.41,1.78-1.38.5-.38,1.63-4.06,3.03-.75,3.03v2.16l-.88,1.53-.25,1.63-1.28.88-.63,3.28-2.41.16-1.88-.41-1.41,1.16-1,4.91.38,1.16h3.78v.88l-4.78,7.19-.25-.13-.41,2.03-.88,1.13-.38,1.53-1,1-1.28,4.81-2.13,2.38-.53,1.84-1.88,2.53-.63,1.5-.91,1.03-.25,2.19-1.25.66-1.13,1-1.41.75-.88,1.28-1.41.75v1.38l.91,1.28-.66.5h-1.88l-.88,1.25-.28,3.65-.38,1.03" fill="#fff"/>
      <path id="P_city" d="M443.69,608.08v-3.03l-2.27-2.02-3.28-.51-1.01,2.78-2.78.51-3.28-.76-.76,3.03-3.03.5-3.54-.25-2.27-1.52-1.52-2.78-.76-3.03-4.8,3.54-.25-7.32,2.02-5.81.25-.25,1.77-4.04.5-3.28-.25-3.54-1.52-2.52-.25-7.32.76-3.03,2.78.51.51-7.07L415.66,550l-20.71-3.03-3.79-1.52-2.02-.25-10.35,1.01-14.4-5.56-4.29-.5-.76-1.26-5.05-2.78-2.52,1.26-14.65-.25-7.58,2.02-11.36-.25-5.81-1.77-3.79-.25-6.44-2.21-3.91.07-1.25-.66-1.41-.25-.5,1.53-1.75.13-6.06,10.84-.13.66-2.16-.13-1.28.75-2,2.41-.63,1.63-.25,3.78-1.03,1.15-.25,1.63,1.65,2.41-.25,1.78-1.65,2.38-3.16.13-.38,1.53v1.88l-2.16,1.16v2.41l-.13-.13-.5.25-.38,1.63v1.91l.5,1.38,1.91.13,1.38,2.03-2.28,2.78-1.38,2.78-.38,1.5-1.91,3.16-1,3.53-1.28,1.91-2.63,7.44.25,7.47-.38,1.5.13,1.41,1.75.88-.13,1.66-1.5.63-2.16,1.63.5,2.15,1.13.63,1.53.25.13,1.91-1,1.25v3.78l1.25.91,2.03,2.78,1.38,1.12-1.25.75-.9,1.66-1.75.13-.5-1.41-1.03-.88-1.5.88-2.21,2.53,3.85.13,5.81,2.27h3.79l1.52,2.27h3.79l2.78-1.26,6.31,2.27,3.79.51,2.27-1.77,1.77-2.27.25-3.54-.76-3.03,2.02-2.02h3.28v3.28l3.53,1.26,1.01-2.78,4.8-2.78.76-3.53,1.77-2.02,6.31-2.52,2.78,1.52,1.77-6.06,1.52-2.52,4.04.25,2.52-1.26,1.01-3.03,5.81-1.77,1.01-2.78,2.27-1.77,1.77-2.27,2.78,1.26,2.27,1.77,2.78,1.01,5.81-2.27h7.58l5.3-2.78,5.05,1.26,1.52,5.05,4.29,3.53,1.52,2.27,2.52,1.52,3.54.25,2.27,1.77,3.03,1.01,13.89,1.52,2.78-1.52,1.77-2.02,5.55.25-.5,3.79,2.02,3.28,2.02-2.02,3.28-.76,2.02,2.02,3.03-.25,2.78-1.01,3.54.25,2.78,1.52,3.53.5,1.26-2.52v-3.53l-.76-3.03-1.52-2.27,1.54-2.35Z" fill="#fff"/>
      <path id="U_city" d="M673.06,667.11l-3.35-.95-2.27-1.77-3.03-.76h-3.79l-2.78,1.01-4.29,3.54-7.32,13.13-.25.25.51,4.55,2.02,2.27,3.28,1.77v.25l-12.12,18.44-.51,8.84-1.77,2.27-2.27,1.52-1.26,2.52-1.52,6.06-2.27,1.77v3.79l-1.52,2.78-.25,2.78-3.03,5.81-4.29,3.54-1.01,2.78.76,3.54V768.2l-1.01,2.78-9.85,1.52-2.52,1.77-2.02-.25-.25-3.54-1.77-3.28-2.02-1.77-4.54-.25-1.01-.76-1.77-2.27-3.03-1.01-2.53-1.52v-2.78l-3.79-5.31v-4.29l-1.26-2.78-1.77-2.27-5.05-3.28-5.3,2.53-.51,1.26h-1.01l-2.78-1.26-1.26-2.53-3.54-4.04-3.54-.25-5.3-3.28h-4.29l-1.26-2.52-.76-.76-3.79-9.09.25-3.79-3.79-4.8-.76-2.52.76-3.03-.25-3.54-15.4-10.61-3.03-.76,1.01-3.54,1.77-2.52,3.28-1.01-.5-2.27,1.52-2.27,3.28-.51,1.51-2.27v-7.07l-2.27-1.52-.51-1.64,1.26-1.14,3.03-.76,3.03-2.02,3.03-.76.76-3.53-1.01-3.03-2.27-1.77,1.77-2.02.76-3.28,2.02-2.27,2.27-1.52.76-3.03,2.27-1.52,3.54.25,2.78-1.26h3.79l1.26-.51,2.53,1.52,3.03.76,4.8-4.04v-7.58l.76-3.03,2.27-1.52-2.27-6.31,2.52-1.26,3.79,1.01,2.78-1.26,1.52-2.27,3.28-1.52,4.54-.25,3.79-8.33,1.26-10.35,1.26-2.53v-3.79l2.02-5.56v-9.34l-2.52-2.27-.25-3.54.76-2.78-8.08-5.81.25-3.54,3.28-.76,3.03-2.27v-1.52l-.76-3.03.51-3.53,2.27-1.52,1.01-3.28.25-3.79,1.01-3.03,2.02-2.53.25-3.79,2.27-2.27,3.03-.76-.51-5.56-1.77-3.03,4.29-3.79-.25-3.03-1.01-3.28v-3.79l.76-2.02v-7.58l-2.02-2.52-1.01-.25v-3.54l6.06-12.88.25-7.32,2.27-2.27,2.52-1.26,1.52-2.53,2.52-1.26,2.02-3.54.76-2.52.25-3.54-1.52-2.27-3.54-.5-1.01-2.78-1.77-2.02-3.79-1.26-.76-1.01-.25-6.31,2.78-6.57,3.03-.76,2.02-1.77,2.78-1.26,3.79-3.79h3.79l1.51-2.27-1.75-5.6,1.99-1.55.89-1.78-.18-2.5,3.75-1.61,1.07-1.61,2.68.18,1.43-1.25.54-2.32-.89-4.64,1.25-1.96,2.32-.89,1.61-1.07,1.79-4.11,1.43-1.61h2.68l1.79-1.25,1.43-1.79,2.14-4.29.71-7.32.89-1.96,2.32-1.25,1.28-1.46,12.02,7.7h8.08l3.03,1.26,4.04.5,8.08,5.56,8.33,1.01,3.03-.76-3.03-2.52.76-3.03,3.28-.76,2.27-1.52,2.27,1.01,2.02-1.77-.76-1.52-2.02-1.77.25-3.28,2.02-.76,4.29,3.79,4.8,1.52,4.55,3.54,9.09,3.79,7.32.5,8.08,4.04,4.15.49-.13,1.28-.63,1.25-1.5.66-.91,1.5-2.25,2.03-2.65,3.9-.13,5.56-1.16.88-1.13,2.66-1.5.63-.78,1.91-.25.13-3.53.38-3.03,5.44-1.25,1-1.66.25-3.28,2.91-1.5.38-.91,1.13-1.25.78-3.9,5.28-1.03,3.28v5.69l2.41,4.31-.75.75-.5,5.19-.25.5-.38-.25-1.41,2.44-1.38.47-3.22,3.72-1.53.81-4.34,4.69-.63,1.38.13,11.88.63,1.25.5,3.28,7.19,7.47v1.88l-1,3.4-1.41-.38-.38,1.66.66,1.25-1.53.5-1.13,2.53h1.63l-.75,3.03-1.91.13-.75-1.13h-1.5l-1.03.88-.63,1.65-1.13,1.13-1.03,3.03,1.4,3.03.13,5.56-1,3.41-.13,5.28-.53,1.66-.13,5.56-.63,1.25-.38,3.41-1.91,4.31v1.88l-.63,1.41-.25,1.63-1.88,3.94-.28,1.75-3.28,4.81-.63,2.13v10.5l.5,1.38-1.38,6.44-3.53,5.44-1.66,1.13v1.78l-.63,1.38-.13,1.78.88.63.75,2.53-.88,1.13-.25,1.66-.63,1.25-.88,6.94-.91,1.03.13,1.25.78,1.16-1.03,1.13-1.5.63-.5,3.41-1.28,1.53L683.97,613l-.88,1.75-.13,3.94-.88,3.03-1.4,1.25-.38,1.66-1.63,2.38-.16,1.9-1.25,3.28-.13,3.66-.88,1.41-.25,2.13.5.38.63,1.65v3.78l1.66,2.53-.13,3.66-.53,1.53-1,1.13-1.5.63-1.78.13.38.5,1.66,1.03-.78,1.5v1.91l-.88,3.28v1.9l-.63,1.5-.54.68Z" fill="#fff"/>
      <path id="M_city" d="M415.65,549.99l5.05,10.86-.5,7.07-2.78-.5-.76,3.03.25,7.32,1.52,2.53.25,3.54-1.52,6.06-.76,1.26-.25.25-2.02,5.81.25,7.32,4.8-3.54.76,3.03,1.52,2.78,2.27,1.52,3.54.25,3.03-.5.76-3.03,3.28.76,2.78-.51,1.01-2.78,3.28.51,2.27,2.02.1,3.01,6.47-.74,11.62,4.29h3.79l3.28.76,1.26,2.52.25,8.59-.76,3.28-2.78,2.27v3.79l1.52,2.52,2.27,2.02.5,7.32,2.52,5.81,2.02,2.27,11.37,1.26,5.55-2.27,11.11,1.01,2.78,1.01,11.87.76,6.31,2.27h.51l2.52,1.77,1.26,6.31,1.01.51,1.26-1.26,3.03-.76,3.03-2.02,3.03-.76.76-3.53-1.01-3.03-2.27-1.77,1.77-2.02.76-3.28,2.02-2.27,2.27-1.52.76-3.03,2.27-1.52,3.54.25,2.78-1.26h3.79l1.26-.5,2.53,1.52,3.03.76,4.8-4.04v-7.57l.76-3.03,2.27-1.52-2.27-6.31,2.52-1.26,3.79,1.01,2.78-1.26,1.52-2.27,3.28-1.52,4.54-.25,3.79-8.33,1.26-10.35,1.26-2.53v-3.79l2.02-5.56v-9.34l-2.52-2.27-.25-3.54.76-2.78-8.08-5.81.25-3.53,3.28-.76,3.03-2.27v-1.52l-.76-3.03.5-3.54,2.27-1.52,1.01-3.28.25-3.79,1.01-3.03,2.02-2.52.25-3.79,2.27-2.27,3.03-.76-.51-5.56L603,512.87l4.29-3.79-.25-3.03-1.01-3.28v-3.79l.76-2.02v-7.58l-2.02-2.52-1.01-.25v-3.54l6.06-12.88.25-7.32,2.27-2.27,2.53-1.26,1.51-2.52,2.52-1.26,2.02-3.54.76-2.52.25-3.54-1.52-2.27-3.54-.51-1.01-2.78-1.77-2.02-3.79-1.26-.76-1.01-.25-6.31,2.78-6.56,3.03-.76,2.02-1.77,2.78-1.26,3.79-3.79h3.79l1.51-2.27-1.72-5.64-1.43-.79-4.82-1.07-1.25-1.25-4.82-.54-1.07,1.61-5.18-.36-2.14-.71-1.07-1.6-3.22-2.32h-.89l-2.32,3.75-.54,2.14-1.25,2.14-1.96.71-2.5-.89-1.61-1.07-4.11,1.79h-2.68l-1.79,1.07-.89,1.79-4.29-1.25-1.25-1.43-1.96-.89-1.61,1.07-1.25,1.61-2.5.18-.71,1.96-1.25,1.97-1.43,1.25-10.54.18-1.79.89-.54,2.15-1.25,1.96-1.79,1.07-1.25,1.61-1.96,1.25-1.25,1.96-3.93,1.96h-4.11l-1.6,1.07-4.29-.54-2.5.54-1.43,1.43-1.97,6.25-2.68,2.68-1.79,1.07-5.18.18-2.32-.54-1.43-1.25-2.32.36-6.07,5.18-2.5.54-2.5-.36-2.86-1.43-.35-.54-1.61-1.43-1.07,4.29-.89,1.79-1.43,1.25-.71,1.61-1.07-.54V445.9l-1.61-1.43-4.64-.89-1.07-1.61-2.32-.71-1.6,1.07-3.75,7.5.35,6.61-1.25,1.6-4.46,1.25-3.21,3.22-3.75,9.82-6.43,6.96-4.29,1.43-2.14.18-1.79-1.61-2.5-.54h-5.36l-2.14.54-9.01-3.3-3.87,2.31h-7.58l-.25,3.79.51.25,1.77,2.02,1.26,2.78-.25,3.54-1.27,2.52-2.02,1.77-1.52,2.27,1.01,5.56-.5,2.27.5,2.78-1.26,9.6-1.26,2.52-.5,3.28-1.52,2.52,1.77,2.02-1.26,2.52-.25,2.27,7.32,7.83,2.52,1.26h3.28l2.52-1.26,2.02.5v3.28l-1.26,2.52-2.02,1.77-5.81,1.77-3.961-.26Z" fill="#fff"/>
      <path id="V_city" d="M672.96,667.16l-2.24,6.81v1.91l-1.41.88-1.75,6.97-.13,5.78-1.78,3.81.13,5.53-1.13,5.56-1.53,1.03h-1.88l-1.53.38-1.25,1-1.13,3.16-.78,1.25-1.38,1.28-.63,1.38-.13,1.66-1.16,1.13-.38,4.06-1,1.25-2.4,9.72.88,1.13.53,1.41-.78,1.25-1.5,1.15-1.41-.25-.88-1.4-1.13.5,1,1.03.13,1.38-2.97,2.03.31,7.94,1.91,3.78.38,1.78-.25,3.66-1.41,1.41.13,5.4,3.03,3.16-.88,2.91-3.66.13-1.25,1.03-2.15,4.15-1.28.63-3.78.13-.88,1.16-1.38.75v1.91l-.78,1.25v1.91l-2,2.88-1.41,4.94-1,1.38-.88,5.69-1.15,1.66-.25,1.63-1.13.78-1.03,1.13-1,2.9-1,1.63-1.28,5.06-.75.88-.5,1.53V817l-3.28,3.44-.5,1.38-1.78.13-1.13,1-.88,1.53-.66.25-.25,3.16-3.41,7.44-2.16,2.03-2.13,4.41-.63,3.16-1.15,1.03-1.5.38-2.41,2.53-.13,3.03-3.16-.78-1.4.53-3.41.5-5.81,4.78-.75,1.16-.25,1.63.63,1.28,1.78,2,.38,1.28h-1.91l-.75,1.25.63,1.25,1.28.66,1,1.13-.38,1.78,1.13,2.75-.5,1.65-2.13,1.91-1.66.25-1.38,1.38-1.28,7.97-2.15,2-2.75,1.16-1.16,1-.75,1.25-2.53,2.03-.75,1.13-1.13.78-1.53.63-3.78,4.53-2.66,1.53-1.53.38-1,.88-1.38.63-1.91.28-1,1-1.78.13-.88,1.13L547,908.14l-1,1-2.66,1.25-.38,1.53-1,1.25-1.78.13-1.13,1.03-4.06,1.75-1.13,1.03-1.66,2.63-.88,3.16-1.13,1.28-.25,1.63-.91,1.16-.13,1.75-.75,1.53.13,1.75-.19.59-.19,5.22-.75,1.47-.06,1.38-1.97,2.84-3.53,3.16-.88,1.28-1.66.88-.75,1.25-.25,1.66-.88,1.25-.13,1.78-.65,1.63v1.91l-1.25.75v2.53l-2.91,6.81v1.91l-.88.88v3.78l-2.16,4.19.13,2.13-1.25,1.66-.53,3.53-.88,1.13-.25,3.53-1,1.28-.38,1.75-1.91,2.53-.5,1.4-.88,1.13-3.56,10.1-.88,1.28-.5,5.03-2.53,2.53-2.91,9.09v3.53l-.63,1.41.25,5.4,1.28,1.66v7.81l.88,3.15.09,4.65-3.5,1.17-2.02,1.77-3.28,1.26-2.78-4.8-3.03-.76h-4.04l-1.26-2.78-2.77-1.01-2.27-1.52-4.29.25-.51-2.27.76-3.28,1.77-1.01-2.78-1.01-1.01-2.52-4.8-2.78,1.77-2.27,2.53-1.26-.25-7.57-2.52-1.52-1.26-2.52h-2.78l-3.79-4.04-3.54-1.77,4.8-14.64,6.57-1.01,1.26-2.78-.76-3.28-2.78-2.02-2.52-5.3-4.04-2.52-.25-3.03-1.01-3.03,4.29-3.28v-3.79l-4.04-8.08-.51-4.29-1.77-1.01-1.01-3.03.51-3.53,2.78-5.05-1.26-2.78,1.52-2.27,1.01-2.78-.25-3.53,1.01-2.53,2.02-2.02.76-3.03,1.77-2.02.25-1.01,4.04-5.56.25-3.54,1.77-2.27.25-2.52,3.28.5,3.54-1.77,6.06-1.26,3.03-6.31,11.11-.51,2.02-2.27.25-3.54,1.77-2.02.51-9.85,2.02-2.02-1.01-2.27v-3.79l-1.01-3.28-2.52-1.26-3.28-.25-2.78-2.53-.76-1.52-.76-3.03v-3.79l.45-.97.71-6.79-2.85-3.93-5.36-.36-2.86-8.57.36-5-1.43-1.43-1.79-3.93v-5.35l1.07-4.29,10-12.86.71-1.79v-3.93l6.43-4.64-1.43-4.29-2.5-2.5,1.79-4.29,3.57-3.93-1.07-22.5,3.21-2.15,2.14-5,3.57-1.79-1.07-3.93v-3.93l1.43-3.93-.35-1.79-1.07-.71,2.86-3.57,3.57-1.43,6.79-5.72,5-6.43h3.93l7.85-2.14,2.86-2.86,8.37-3.57.91,2.53,3.79,4.8-.25,3.79,3.79,9.09.76.76,1.26,2.53h4.29l5.3,3.28,3.54.25,3.54,4.04,1.26,2.52,2.78,1.26h1.01l.51-1.26,5.3-2.52,5.05,3.28,1.77,2.27,1.26,2.78v4.29l3.79,5.3v2.78l2.53,1.52,3.03,1.01,1.77,2.27,1.01.76,4.54.25,2.02,1.77,1.77,3.28.25,3.54,2.02.25,2.52-1.77,9.85-1.52,1.01-2.78V757.01l-.76-3.54,1.01-2.78,4.29-3.54,3.03-5.81.25-2.78,1.52-2.78v-3.79l2.27-1.77,1.52-6.06,1.27-2.52,2.27-1.52,1.77-2.27.51-8.84,12.12-18.44v-.25l-3.28-1.77-2.02-2.27-.51-4.55.25-.25,7.32-13.13,4.29-3.54,2.78-1.01h3.79l3.03.76,2.27,1.77,3.22,1.03h0v.02h.17Z" fill="#fff"/>
      <path id="D_city" d="M355.29,672.49l-.25.5-2.28,1.5-3.28.25-2-2-3.28.5-5.31,2.53H331.3l-6.03,3.53-.28.25-1.5,2.53-6.31-.28.25,3.03-7.06.53-.53,3.28-1.25,2.5-1.78,1.53-2.5-1.53-2.03,2.03,1,2.78-.5,1.78-9.59,4.78-.75,3.03-3.28,4.81-3.03,1.25-4.56-1.25-1.25-2.03v2.78l-2.53-.25-2.28-2.03-1-3.03-3.78-.75-2.75-1.81-.78-.97-7.19-1.28-3.91,6.81.63,1.28,1,.13-.63,1.88-1.28.91-.25,1.75,2.78,1.66,1.16.25,1.63-.5-2.16,3.16-3.41,1.25-.88,1.28.25,1.75.75,1.53-2.5,2.38-.41,1.66-.75,1.38-2.41-.63-.63,1.28-.75,3.41.13,3.78-4.94,9.22-.5,3.53-1.5,2.53,1.13-1.41,1.53-.63,1.5-.13.63,7.97,1.16.88,1.5.63-.88,5.31-3.28,1.38h-.25l-3.53,1.16-3.16,2.91-3.28,1.5-.25,3.53.25.5.25,3.69.75.88h1.91l-.13,5.94.75,2.41,2.13,2.5.28.78,1.88-.66,1.28-.88,1.03-1.06.34,1.56-.25,1.78,4.66,2.78.91.25,1.75,1.63,3.16,1.66,3.94,4.16,1.5.75,5.31,4.94.13.5,3.41,3.28,2.41,3.66,1.63-.38,2.28-2.13,1.38-.78-1,2.16-.88,1.13v1.28l3.28.88-1.66,1.41-1.88-.13-1.03-1.41-.88-.5.75,1.91,1.16,1.5.5,1.66-.5,9.59-.53,1.38,1,2.03,1.28-.75,2.03-2.03,1.53-.56.06-.03,8.5,3.13,2.53-1.28,1.75,1.03,3.78,4.03h3.53l.53-.75,2.78,1.25,2,.25,1.53-2.03,17.94,4.06,3.78-.25,6.31-5.81,1.75-2.53,3.03-1,3.53-.25,2.53,1.5h3.03l1.53-6.31,1.5-.75,1.03-1.28.5-3.28,3.78-8.84,3.03-.75,1-3.03.25-3.53,5.56-.25.25-3.53,9.09-6.56,3.53-5.56,10.38-7.06,2.25-2.53,3.78-2.28.53-3.03.25-.25,1.25-.75.5-3.53,1.28-2.53.25-3.53,5.56-6.81,1.75-.25,8.09-10.88.25-3.78,4.03-5.06.75-3.03-2.25-1.75-.28-.5-1,.75-2.53-1.25-6.31,1.25-3.03-1-3.53-2.53-3.78,5.56-3.03.75-3.28-.25-4.28-3.03-6.06-1.78-1.03-2.5,3.28-4.81-.75-2.53-2-3.28-.53-2.53,1.28-2.5-1.03-2.78-.25-3.53,1.53-2.78,2.28-1.78.25-3.03-1.03-2.78-3.53-.25-3.78-1.25-1-2.28,2.5-1.75-.25-3.28-7.81-.53v-3.28l2.53-1.75,1.5-2.28-2.03-1.78-2.25,1.28-3.03-.75-2.53-2.03-3.28-1-1.78-2.28-3.81-1.109Z" fill="#fff"/>
      <path id="E_city" d="M331.04,967.57l6.84,5.56,1.75.75,2.78,2.53,5.44,1.63.25-.63-.88-14.53.88-2.9.88-1.13,1.85.44,2.46-2.21,2.02-5.81.25-3.54,1.77-6.06v-3.79l-3.53-4.29.25-18.18,2.02-6.06,1.77-2.27,1.77-6.82-.25-4.55.76-1.26-.25-15.15,1.26-2.77.51-3.28,1.26-2.53,1.52-9.85,2.52-1.26,1.77.76,4.54.25,1.52,2.27h3.79l2.78-1.26,6.06,1.52,3.54-.25,2.27-1.77,2.52-3.28.25-1.26,4.04-3.28,1.26-.51,6.57-4.55,3.53-.25,2.78-2.02,3.03-.76,3.03,1.26,1.77,2.02v3.79l2.78,1.26h2.78l1.01-1.01,3.03-.76,3.28-4.8,3.03-.76h3.79l8.59,5.3,6.31,7.58,2.78,1.52,2.78-1.52,1.77-2.27,5.05-2.52,1.52-2.27h3.28l1.01.25,2.52,1.26.25,1.26,2.27-.76,4.5,3.03.71-6.75-2.85-3.93-5.36-.36-2.86-8.57.36-5-1.43-1.43-1.79-3.93v-5.36l1.07-4.29,10-12.85.71-1.79v-3.93l6.43-4.65-1.43-4.29-2.5-2.5,1.79-4.28,3.57-3.93-1.07-22.5,3.21-2.14,2.14-5,3.57-1.79-1.07-3.93v-3.93l1.43-3.93-.36-1.79-1.07-.71,2.86-3.57,3.57-1.43,6.78-5.71,5-6.43h3.93l7.85-2.15,2.86-2.85,8.49-3.56.79-3.04-.25-3.54L524,690.65l-3.03-.76,1.01-3.53,1.77-2.52,3.28-1.01-.5-2.27,1.52-2.27,3.28-.51,1.52-2.27v-7.07l-2.27-1.52-.6-1.75-.92-.27-1.26-6.31-2.53-1.77h-.5l-9.85-2.78-1.01.25-2.52,1.26-6.57,1.01-2.27,1.52-6.31,1.26-4.29,3.54-1.52,2.52-2.78,1.26-2.27,1.77-3.28.51-2.27,2.52-1.77,4.29-1.77,1.52-1.01,2.78-1.77,2.02-.25,3.53-2.78,1.01h-3.79l-2.02,2.02-1.51,2.53-4.04,4.04-7.07.5-2.27,5.81-5.05,2.52-1.01,2.78-6.56.5-1.26,6.57-8.08-.25-2.27-2.02-7.83-.25-1.26,11.62,1.26,2.78,2.02,2.52v3.79l-1.1,1.08h0l.34.44,2.27,1.77-.76,3.03-4.04,5.05-.25,3.79-8.08,10.86-1.77.25-5.56,6.82-.25,3.53-1.26,2.52-.5,3.54-1.26.76-.25.25-.5,3.03-16.42,11.87-3.54,5.55-9.09,6.57-.25,3.53-5.56.26-.25,3.53-1.01,3.03-3.03.76-3.79,8.84-.5,3.28-1.01,1.26-1.52.76-1.52,6.31h-3.03l-2.52-1.52-3.54.25-3.03,1.01-8.08,8.33-3.79.25-10.1-3.28-7.83-.76-1.52,2.02-2.02-.25-2.78-1.27-.51.76H297l-3.79-4.04-1.77-1.01-2.52,1.27-8.45-3.19-1.65.66-3.23,3.01,1.2,1.41.75,4.19,3.03,6.31v1.88h.66l.25-1.63.63-1.28,1.91-.13,2.13,5.06-.25,1.63-1.88.25-1.41-.88-.75-1.25-.38.88.13,1.78.75,2.25.13,1.78,1.78,3.41v1.38l8.94,21.09.15,1.78,1.5,3.41,1.38,1.75,3.11,6.6,1.71,3.78,4.53,5.56-2.13,2.5-3.9-3.91,2.5,6.06-4.03,3.91-.25,4.19-.5,1.63.5,1.78,2.78,2.53.88,1.38v1.91l.88,1-.13,1.9-1.13.75.75,1.13,1.53.75,1.25,3.44,2.66,2.63.63,1.4,1.28,1.75,1.13.78,1,1.13.66,1.38,1,1.03,2.78,4.53-2.65.5-.5.65v.63l1.63.38,3.28-.13.63.13,3.31,3.53,1.38.75,2.28,2.53.63,1.41,3.9,3.28,1.42.739" fill="#fff"/>
      <path id="path3219" d="M57.79,1079.93l1.11-.7,1.3.05,1.99,1.21,2.23.51.88.88,1.11,2.27-2.18-.14-2.97-.88-2.83-.93-1.39-.93,1.16-.09,2.09,1.25,2.83-.42-.6-.97-2.78-.46-.7-.37-1.35.23.1-.51Z" fill="#fff"/>
      <path id="path3221" d="M59.44,1141.72l3-.96,1.82-.16.03.64-2.79,1.56-2.33-.19.27-.89Z" fill="#fff"/>
      <g id="g4342" transform="translate(927.477 114.379)">
        <path id="path4338" d="M-712.58,181.84l-.54,2.5,1.43,1.43,1.61.71V183.8l-1.25-1.43-1.25-.53Z" fill="#fff"/>
        <path id="path4340" d="M-705.61,186.12l-1.25,2.14,1.79,1.07,1.79-1.25-1.25-1.43-1.08-.53Z" fill="#fff"/>
      </g>
      <g id="g4313" transform="translate(28.007 18.54)">
        <path id="path2683" d="M54.33,98.44l-2.78,2.78,3.98-.79-1.2-1.99Z" fill="#fff"/>
      </g>
    </g>
    <path id="I_city" d="M340.8,644.48l.51,3.28,3.03,3.03-2.02,4.55,10.1,1.52,1.01,2.78,2.02,2.78,2.52,1.26,2.52-1.52,1.26-2.53,4.54-3.54,2.02,1.77,4.55,1.52.76-2.52,3.54-4.29-2.02-2.02-.76-3.03-3.03-.76-1.26-2.52-2.27-1.52-2.78,1.01-2.02-1.77-1.77-2.52-2.52-1.26-3.03.76-7.07,5.05-3.03-.76-4.8,1.25Z" fill="#fff"/>
    <path id="Q_city" d="M506.67,653.99l-2.78-1.01-11.11-1.01-5.56,2.27-11.36-1.26-2.02-2.27-2.52-5.81-.51-7.32-2.27-2.02-1.51-2.52v-3.79l2.78-2.27.76-3.28-.25-8.59-1.26-2.52-3.28-.76h-3.79l-11.62-4.29-6.44.63-1.64,2.4,1.52,2.27.76,3.03v3.53l-1.26,2.53-3.54-.5-2.78-1.52-3.54-.25-2.78,1.01-3.03.25-2.02-2.02-3.28.76-2.02,2.02-2.02-3.28.5-3.79-5.56-.25-1.77,2.02-2.78,1.52-13.89-1.52-3.03-1.01-2.27-1.77-3.54-.25-2.52-1.52-1.52-2.27-4.29-3.54-1.52-5.05-5.05-1.26-5.3,2.78h-7.58l-5.81,2.27-2.78-1.01-2.27-1.77-2.78-1.26-1.77,2.27-2.27,1.77-1.01,2.78-5.81,1.77-1.01,3.03-2.52,1.26-4.04-.25-1.52,2.52-1.77,6.06-2.78-1.52-6.31,2.52-1.77,2.02-.76,3.53-4.8,2.78-1.01,2.77-3.54-1.26v-3.28h-3.28l-2.02,2.02.76,3.03-.25,3.54-1.77,2.27-2.27,1.77-3.79-.51-6.31-2.27-2.78,1.26h-3.79l-1.52-2.27h-3.79l-5.81-2.27-3.85-.13-1.57.87-.38,9.09.88,1.53,1.75.63,5.69-.38,1.41.63v1.91l-.78,1.38-.5,1.78L267,654.5v2.03l-.75,1.5.38,2.03,1.63.88h1.66l-2.16,4.19-.13,1.75,1.53.38v1.65l-1.03,3.16.13,1.88.78,1.53,1.25,1,1.41-1.25.63.88.25,3.53-1,1.65-1.28,5.03-3.66,1.53-1.41-.13-3,6.94-.16,5.06.41,1.5h3.78l1.63.63.2,1.65,2.71,1.78,3.79.76,1.01,3.03,2.27,2.02,2.52.25v-2.76l1.26,2.02,4.55,1.26,3.03-1.26,3.28-4.8.76-3.03,9.6-4.8.5-1.77-1.01-2.78,2.02-2.02,2.52,1.52,1.77-1.52,1.26-2.53.5-3.28,7.07-.5-.25-3.03,6.31.25,1.52-2.52.25-.25,6.06-3.54h7.58l5.3-2.53,3.28-.51,2.02,2.02,3.28-.25,2.27-1.52.25-.5,3.79,1.01,1.77,2.27,3.28,1.01,2.53,2.02,3.03.76,2.27-1.26,2.02,1.77-1.52,2.27-2.52,1.77v3.28l7.83.51.25,3.28-2.52,1.77,1.01,2.27,3.79,1.26,3.54.25,1.01,2.78-.25,3.03-2.27,1.77-1.52,2.78.25,3.54,1.01,2.78-1.26,2.52.51,2.52,2.02,3.28.76,2.52-3.28,4.8,1.01,2.52,6.06,1.77,4.29,3.03,3.28.25,3.03-.76,3.79-5.56,3.54,2.52,3.03,1.01,6.31-1.26,2.52,1.26,2.02-1.77v-3.79l-2.02-2.53-1.26-2.78,1.26-11.62,7.83.25,2.27,2.02,8.08.25,1.26-6.57,6.56-.51,1.01-2.77,5.05-2.53,2.27-5.81,7.07-.51,4.04-4.04,1.51-2.53,2.02-2.02h3.79l2.78-1.01.25-3.54,1.77-2.02,1.01-2.78,1.77-1.52,1.77-4.29,2.27-2.52,3.28-.51,2.27-1.77,2.78-1.26,1.52-2.52,4.29-3.54,6.31-1.26,2.27-1.52,6.56-1.01,2.53-1.26,1.21-.28Zm-132.68,3.3-.76,2.52-4.54-1.52-2.02-1.77-4.55,3.54-1.26,2.52-2.53,1.52-2.52-1.26-2.02-2.78-1.01-2.78-10.1-1.52,2.02-4.55-3.03-3.03-.5-3.28,4.8-1.26,3.03.76,7.07-5.05,3.03-.76,2.52,1.26,1.77,2.53,2.02,1.77,2.78-1.01,2.27,1.52,1.26,2.52,3.03.76.76,3.03,2.02,2.02Z" fill="#fff"/>
    <g id="g4330" transform="translate(15.39 49.491)">
      <path id="path2643" d="M65.73,288.6l-.83.55-.64.73-2.48-.37-.92.46-.46,1.01v2.76l-.46.92-.09,1.29-.83.65H57.64l-.92.46.27,1.38.64.92-.46,1.01-.83.83-1.01.37h-.37l.64,1.1,2.57.18.46,1.19,1.29-.09,2.02-2.67,1.1-.27,1.19.27.55.83,1.01-.46.55-.92-.09-1.29.55-.92,2.67-.09,1.19-.37.65-.73,1.47-4.23-.18-1.19-3.03-1.84-.73-.83-.92-.46-1.29-.27-.9.09Z" fill="#fff"/>
      <path id="path2645" d="M38.06,307.07l.46,1.1.65.92-.37.73,1.38.09.92.46.83-.55-.19-.65-1.38-.09-.64-2.11-1.66.1Z" fill="#fff"/>
      <path id="path2647" d="M36.68,310.84l-.64.83,2.3.55.73-.55-2.39-.83Z" fill="#fff"/>
      <path id="path2651" d="M124.74,270.67l-.37-1.29-.65-.92v-1.38l-.64-.83.55-.64h-1.19l.09-.73-.92-.09-.73.18-.37-.64-1.56,1.75-.46-.92.92-.55-.83-.55-.92.55-.55.83,1.01.83.73,1.01-.37,1.1-1.19.18-1.65,1.19-1.2.18-1.19-.09-.46.27-.28.92.46.73.09,1.29,1.29-1.38,1.01.46h1.38l-.09.74h-1.38l.92.83.46.92-.83.55v1.38l-.92-.27-1.19-1.65-.73-.64-.18.92.55.92v.27l-.92,1.01-.92.55-.55.83-.92.46h-1.38l1.29,1.19-.37.46.55,2.39-.27.73h-.55l-1.75,1.38-.55.92-8.09-1.1-10.85-7.81-1.19-.27-.37-.28-.65.74-1.29.18-2.11,2.11-1.19.19-2.02,3.77,2.21,1.29,1.19.28-.18-.92-.73-.83.92-.46,2.76.09.46-1.1.92-.55.74.83-.09,1.75-.73.73-2.39.46-.46,1.19v1.84l.37.27.73,1.19.74,2.39v2.76l.18.73,1.56.18.64.73L88,297.69l-1.01.37-.65-1.75-.46.92-2.21.28-.09,2.3-.83.65-4.04.09-.55-.46.09-1.29-.83,1.65-1.1-.19-.28.92,1.01.73.92.37,1.65,2.21,1.47,1.19.55,1.01,2.67.18,1.01.46.55,1.1,1.29.46,1.47.18,2.02,1.29.46-.83,1.56-.27.37-1.01.74-.64.55-2.39,3.03-4.32.74-.64.64-.92.83-.64.18-.46,1.19-.19.83-.55,1.19-.28.73-.64.92-.46,1.29-.09,2.02-.83,7.9-.55,1.47.55,1.65,1.38.92.46h1.38l2.3.92,2.39,2.39-.09,1.1-.64.83-.83.55-.55.18,1.1.46h1.38l1.01-.37.83-.65,1.19-.27.64-.92,2.3-.55.37-1.01-.46-.83.28-1.01.83-.37,1.38.27.64-.73.37-.83-1.38-1.65-.19-1.01,1.84-1.1,1.01-.09.55.55,1.01-.83-.37-.83.09-.92.46-.73-.92-.46H136.4l-.27-.73-.74-.73-.73-3.4v-2.21l1.47-.92.37-1.1-.65-.73-2.02.73-.92-.27-.46-.92-.55-2.3.18-1.19-.64-.55-.92-.46-.18-3.4-5.6-.28Z" fill="#fff"/>
      <path id="path2655" d="M127.04,265.71l-1.1.37.46.46h1.38l-.74-.83Z" fill="#fff"/>
      <path id="path2657" d="M133.48,300.82l-.55.55,1.29-.09-.74-.46Z" fill="#fff"/>
    </g>
    <path id="path2671" d="M28.89,191.06h5.96l-1.99,3.18-4.37-.4.4-2.78Z" fill="#fff"/>
    <path id="path2673" d="M44,193.05l-3.98,9.54,1.59-.4,7.55-5.17-3.98-1.59L44,193.05Z" fill="#fff"/>
    <path id="path2675" d="M24.12,123.88l-.4,4.37.79,4.77-.79,2.78,6.36.79,4.77-1.19,6.36-5.17-2.78-3.58-3.18,2.78-4.37.8-2.39-3.18-4.37-3.17Z" fill="#fff"/>
    <path id="path2677" d="M43.6,126.27l1.19,2.39-1.19-2.39Z" fill="#fff"/>
    <path id="path2679" d="M42.01,108.38l.4,9.54.8-4.37,3.18-1.99,4.77-.4,3.58-2.39,2.78,3.18.79-1.99L54.73,104l-12.72,4.38Z" fill="#fff"/>
    <path id="path2681" d="M48.37,87.71l-2.39,4.77,1.7.72,1.88-1.51-1.19-3.98Z" fill="#fff"/>
    <path id="path2685" d="M219.29,57.7l-.1,1.49-.79.9-.4,1.19,1.19.79,4.07-1.29,1.49-2.19,1.19.3,1.29-.4-.6-1.1-1.39-.5-1.99-1.79-1.09-.2-.7,1.69-.99,1.19-1.18-.08Z" fill="#fff"/>
    <path id="path2687" d="M216.11,53.33l-2.38,2.09.2.69,4.17.3-.2-1.19-1.79-1.89Z" fill="#fff"/>
  </g>
</svg>
