<svg xmlns="http://www.w3.org/2000/svg" width="245.587" height="53.942" viewBox="0 0 245.587 53.942">
  <g id="white_logo" transform="translate(196.787 41.529)">
    <path id="联合_7" data-name="联合 7" d="M-566.98-981.058l-.194-.447h21.159c.854-1.258,7.209-10.615,7.2-10.6a.985.985,0,0,1,.687-.488.808.808,0,0,1,.7.346l8.671,10.555,10.224-.127,0,.32.3.123a26.414,26.414,0,0,1-24.441,16.285A26.464,26.464,0,0,1-566.98-981.058ZM-528.657-981.569Zm10.984-1.686h-6.4l-.1-.115-14.036-16.829s-.022-.026-.024-.029l-.016-.029a.293.293,0,0,0-.108-.118c-.013,0-.12.04-.294.329-.573.954-10.34,16-10.756,16.646l-.1.145h-18.283l-.075-.214-.405-1.155-.148-.425h17.49c1.111-1.676,11.635-17.549,11.646-17.564a1.149,1.149,0,0,1,.824-.441,1.3,1.3,0,0,1,1.016.517c.76.854,13.226,16.322,13.937,17.2l.338.338h6.321l-.149.427-.386,1.1-.074.214ZM-517.289-984.354ZM-523.064-984.9Zm-.419-.415Zm-31.88-.729h-13.444l-.044-.267-.288-1.73-.061-.373h12.8l10.634-15.622a20.518,20.518,0,0,0-2.207-2.273c-.286-.238-.539-.345-.711-.3-.213.058-.32.345-.32.346l-.013.039-.022.035-10.384,15.767-.094.145h-9.6l-.01-.31c-.011-.318-.017-.644-.017-.971a26.5,26.5,0,0,1,26.473-26.472A26.5,26.5,0,0,1-516.2-991.557a26.59,26.59,0,0,1-.4,4.573l-.044.255-.259.01-2.59.1-.139.006-.1-.1-.017-.017-.013-.019c-.168-.227-16.828-22.69-17.863-23.819a.874.874,0,0,0-.656-.359c-.271.036-.491.358-.552.478l-.008.018-.012.017-16.248,24.23-.1.141ZM-545.612-1003.854Z" transform="translate(373 977)" fill="#fff" stroke="rgba(0,0,0,0)" stroke-miterlimit="10" stroke-width="1"/>
    <text id="行政院環境保護署" transform="translate(-135.2 -4.029)" fill="#fff" font-size="23" font-family="MicrosoftJhengHeiBold, Microsoft JhengHei"><tspan x="0" y="0">行政院環境保護署</tspan></text>
  </g>
</svg>
