<svg xmlns="http://www.w3.org/2000/svg" xmlns:xlink="http://www.w3.org/1999/xlink" width="1200" height="366" viewBox="0 0 1200 366"><defs><clipPath id="a"><path d="M591.562,332.343c-.02,3.747,3.016,4.087,6.765,4.107a6.786,6.786,0,1,0,.071-13.572C594.65,322.858,591.581,328.6,591.562,332.343Z" transform="translate(-591.562 -322.878)" fill="#fca89e"/></clipPath><clipPath id="b"><path d="M483.511,333.093c-1.069,3.614-4.092,3.061-7.706,1.993A6.825,6.825,0,0,1,479.672,322C483.288,323.065,484.578,329.479,483.511,333.093Z" transform="translate(-470.912 -321.714)" fill="#fca89e"/></clipPath><clipPath id="c"><path d="M540.908,292.685a11.361,11.361,0,1,1-11.361-11.361A11.361,11.361,0,0,1,540.908,292.685Z" transform="translate(-518.185 -281.324)" fill="#ff645f"/></clipPath><clipPath id="d"><path d="M956.477,356.758H937.8l5.848-23.467h18.681Z" transform="translate(-937.796 -333.291)" fill="none"/></clipPath></defs><g transform="translate(-402 -423)"><g transform="translate(402 423)"><circle cx="183" cy="183" r="183" fill="#46d45d" opacity="0.77"/><text transform="translate(86 101)" fill="#fff" font-size="39" font-family="MicrosoftJhengHeiBold, Microsoft JhengHei"><tspan x="0" y="0">政策與法規</tspan></text><g transform="translate(83 121.278)"><path d="M1165.157,1630.965c0,8.536-83.481,7.709-122.893,7.709s-70.653-1.195-71.361-3.582c-2.49-8.394,24.589-14.46,64-14.46S1165.157,1624.675,1165.157,1630.965Z" transform="translate(-923.881 -1472.486)" fill="#32323f" opacity="0.18"/><path d="M940.9,621.515c-.3,4.013,9.82,9.519-1.306,13.835-8.581,3.329-84.256-4.851-106.048,2.924-.606.216-5.051-.383-5.087-.391,0,0-3.457-1.217-4.955-2.988-8.864-10.482-11.691-110.761-17.94-126.722-3.841-9.813-15.861-14.045-19.8-14.245-10.657-.54,10.024-12.4,24.8-12.434s90.223-8.348,101.5,19.79c6.387,15.945,8.293,87.809,15.091,108.021.975,2.9,2.06,4.738,3.285,5.183,6.811,2.477,3.465,7.5,8.766,5.352C941.483,618.913,940.985,620.305,940.9,621.515Z" transform="translate(-760.376 -480.32)" fill="#fff"/><path d="M1246.06,1500.91c18.32,6.825,5.713,25.806-2.364,25.708-9.2-.112-86.086,4.091-109.658-1.23,1.111.251,6.825-.063,13.845-6.157,7.26-6.3,2.8-16.282-3.619-18.493C1141.407,1499.754,1244.884,1500.922,1246.06,1500.91Z" transform="translate(-1065.959 -1367.825)" fill="#5e5e6b"/><rect width="9.063" height="6.678" transform="translate(120.59 32.973)" fill="#fff"/><rect width="10.177" height="9.075" transform="translate(86.085 32.167)" fill="#fff"/><rect width="10.733" height="5.571" transform="translate(105.405 45.376)" fill="#fff"/><rect width="11.608" height="7.67" transform="translate(80.679 54.281)" fill="#fff"/><rect width="4.709" height="6.428" transform="translate(102.224 66.842)" fill="#fff"/><rect width="5.2" height="6.428" transform="translate(127.745 66.842)" fill="#fff"/><rect width="20.456" height="9.859" transform="translate(130.345 76.224)" fill="#fff"/><rect width="8.745" height="8.745" transform="translate(80.679 90.375)" fill="#fff"/><g transform="translate(62.824 59.724)"><path d="M1304.588,974.431l9.947-.082a.673.673,0,0,1,.7.47l.2,1.384c.038.262-.213.477-.562.48l-9.947.082a.673.673,0,0,1-.7-.47l-.2-1.384C1303.988,974.649,1304.239,974.434,1304.588,974.431Z" transform="translate(-1276.684 -969.89)" fill="#3b3b4c" opacity="0.75"/><path d="M1175.307,975.727l6.079-.05a.478.478,0,0,1,.437.423l.217,1.482a.344.344,0,0,1-.312.429l-6.079.05a.478.478,0,0,1-.437-.423l-.217-1.482A.344.344,0,0,1,1175.307,975.727Z" transform="translate(-1164.415 -971.046)" fill="#3b3b4c" opacity="0.75"/><path d="M1244.927,975.613l.217,1.481c.034.235-.192.429-.5.431l-5.281.044a.6.6,0,0,1-.63-.422l-.217-1.481c-.034-.236.192-.429.5-.431l5.281-.044A.6.6,0,0,1,1244.927,975.613Z" transform="translate(-1219.682 -970.623)" fill="#3b3b4c" opacity="0.75"/><path d="M1264.877,1074.143l9.947-.082a.673.673,0,0,1,.7.47l.2,1.384c.038.262-.213.477-.562.48l-9.947.082a.673.673,0,0,1-.7-.47l-.2-1.384C1264.277,1074.361,1264.528,1074.146,1264.877,1074.143Z" transform="translate(-1242.132 -1056.648)" fill="#3b3b4c" opacity="0.75"/><path d="M1205.216,1075.325l.217,1.481c.034.236-.192.429-.5.431l-5.281.044a.6.6,0,0,1-.63-.422l-.217-1.481c-.035-.236.191-.429.5-.432l5.281-.044A.6.6,0,0,1,1205.216,1075.325Z" transform="translate(-1185.13 -1057.38)" fill="#3b3b4c" opacity="0.75"/><path d="M1212.976,1168.548l8.3-.068a.6.6,0,0,1,.6.47l.2,1.384a.428.428,0,0,1-.457.479l-8.3.068a.6.6,0,0,1-.6-.47l-.2-1.384A.428.428,0,0,1,1212.976,1168.548Z" transform="translate(-1197.064 -1138.8)" fill="#3b3b4c" opacity="0.75"/><path d="M1312.623,1167.762l7.674-.063a.534.534,0,0,1,.535.422l.217,1.482a.384.384,0,0,1-.41.43l-7.674.063a.534.534,0,0,1-.535-.422l-.217-1.482A.384.384,0,0,1,1312.623,1167.762Z" transform="translate(-1283.807 -1138.121)" fill="#3b3b4c" opacity="0.75"/><path d="M1397.6,1168.261l.217,1.481a.385.385,0,0,1-.411.431l-4.406.036a.535.535,0,0,1-.536-.423l-.217-1.481a.384.384,0,0,1,.411-.43l4.406-.036A.535.535,0,0,1,1397.6,1168.261Z" transform="translate(-1353.443 -1138.242)" fill="#3b3b4c" opacity="0.75"/><path d="M1227.33,1262.584l8.3-.069a.6.6,0,0,1,.6.471l.2,1.384a.428.428,0,0,1-.457.479l-8.3.069a.6.6,0,0,1-.6-.471l-.2-1.384A.428.428,0,0,1,1227.33,1262.584Z" transform="translate(-1209.554 -1220.619)" fill="#3b3b4c" opacity="0.75"/><path d="M1306.618,1261.966l7.674-.063a.535.535,0,0,1,.535.422l.217,1.482a.384.384,0,0,1-.41.43l-7.674.063a.534.534,0,0,1-.535-.422l-.217-1.482A.384.384,0,0,1,1306.618,1261.966Z" transform="translate(-1278.582 -1220.086)" fill="#3b3b4c" opacity="0.75"/><path d="M1392.37,1261.866l.217,1.481a.384.384,0,0,1-.411.431l-4.406.036a.535.535,0,0,1-.536-.423l-.217-1.481a.384.384,0,0,1,.411-.431l4.407-.036A.535.535,0,0,1,1392.37,1261.866Z" transform="translate(-1348.893 -1219.686)" fill="#3b3b4c" opacity="0.75"/><path d="M1365.011,1364.386l8.3-.069a.6.6,0,0,1,.6.471l.2,1.384a.428.428,0,0,1-.457.479l-8.3.069a.6.6,0,0,1-.6-.471l-.2-1.384A.428.428,0,0,1,1365.011,1364.386Z" transform="translate(-1329.348 -1309.196)" fill="#3b3b4c" opacity="0.75"/><path d="M1240.253,1365.455l7.674-.063a.535.535,0,0,1,.535.422l.217,1.482a.384.384,0,0,1-.41.43l-7.674.063a.535.535,0,0,1-.535-.422l-.217-1.482A.384.384,0,0,1,1240.253,1365.455Z" transform="translate(-1220.839 -1310.13)" fill="#3b3b4c" opacity="0.75"/><path d="M1318.782,1365.415l.217,1.481a.384.384,0,0,1-.411.431l-4.406.036a.535.535,0,0,1-.536-.423l-.217-1.481a.385.385,0,0,1,.411-.431l4.406-.036A.536.536,0,0,1,1318.782,1365.415Z" transform="translate(-1284.865 -1309.782)" fill="#3b3b4c" opacity="0.75"/><path d="M1412.9,974.99l7.674-.063a.535.535,0,0,1,.535.422l.217,1.482a.384.384,0,0,1-.41.43l-7.675.063a.535.535,0,0,1-.535-.422l-.217-1.482A.384.384,0,0,1,1412.9,974.99Z" transform="translate(-1371.058 -970.393)" fill="#3b3b4c" opacity="0.75"/><path d="M1491.43,974.95l.217,1.481a.384.384,0,0,1-.41.431l-4.406.036a.535.535,0,0,1-.536-.423l-.217-1.481a.384.384,0,0,1,.411-.431l4.406-.036A.535.535,0,0,1,1491.43,974.95Z" transform="translate(-1435.083 -970.045)" fill="#3b3b4c" opacity="0.75"/><path d="M1371.408,1074.174l5.072-.042c.172,0,.34.188.375.424l.217,1.482c.034.235-.078.427-.25.429l-5.072.042c-.172,0-.34-.188-.375-.424l-.217-1.482C1371.123,1074.367,1371.235,1074.175,1371.408,1074.174Z" transform="translate(-1335.092 -1056.71)" fill="#3b3b4c" opacity="0.75"/><path d="M1429.509,1074.149l.217,1.481a.385.385,0,0,1-.411.431l-4.406.036a.536.536,0,0,1-.536-.423l-.217-1.481a.384.384,0,0,1,.411-.431l4.406-.036A.535.535,0,0,1,1429.509,1074.149Z" transform="translate(-1381.207 -1056.356)" fill="#3b3b4c" opacity="0.75"/><path d="M1447.468,1166.61l8.3-.069a.6.6,0,0,1,.6.47l.2,1.384a.428.428,0,0,1-.457.479l-8.3.069a.6.6,0,0,1-.6-.471l-.2-1.384A.428.428,0,0,1,1447.468,1166.61Z" transform="translate(-1401.092 -1137.114)" fill="#3b3b4c" opacity="0.75"/><path d="M1547.115,1165.824l7.675-.063a.535.535,0,0,1,.535.422l.217,1.482a.384.384,0,0,1-.41.43l-7.674.063a.535.535,0,0,1-.535-.422l-.217-1.482A.384.384,0,0,1,1547.115,1165.824Z" transform="translate(-1487.835 -1136.434)" fill="#3b3b4c" opacity="0.75"/><path d="M1451.423,1260.732l8.3-.069a.6.6,0,0,1,.6.471l.2,1.384a.428.428,0,0,1-.457.479l-8.3.068a.6.6,0,0,1-.6-.47l-.2-1.384A.428.428,0,0,1,1451.423,1260.732Z" transform="translate(-1404.533 -1219.008)" fill="#3b3b4c" opacity="0.75"/><path d="M1530.711,1260.114l7.674-.063a.534.534,0,0,1,.535.422l.217,1.482a.384.384,0,0,1-.41.43l-7.675.063a.535.535,0,0,1-.535-.422l-.217-1.482A.384.384,0,0,1,1530.711,1260.114Z" transform="translate(-1473.562 -1218.475)" fill="#3b3b4c" opacity="0.75"/><path d="M1462.506,1363.618l7.675-.063a.535.535,0,0,1,.535.422l.217,1.482a.384.384,0,0,1-.41.43l-7.675.063a.534.534,0,0,1-.535-.422l-.217-1.482A.384.384,0,0,1,1462.506,1363.618Z" transform="translate(-1414.218 -1308.532)" fill="#3b3b4c" opacity="0.75"/><path d="M1541.035,1363.578l.217,1.481a.385.385,0,0,1-.411.431l-4.406.036a.535.535,0,0,1-.536-.423l-.217-1.481a.384.384,0,0,1,.411-.431l4.407-.036A.535.535,0,0,1,1541.035,1363.578Z" transform="translate(-1478.244 -1308.184)" fill="#3b3b4c" opacity="0.75"/><path d="M1617.617,972.041l9.947-.082a.673.673,0,0,1,.7.47l.2,1.384c.038.262-.213.477-.562.48l-9.947.082a.673.673,0,0,1-.7-.47l-.2-1.384C1617.017,972.259,1617.268,972.044,1617.617,972.041Z" transform="translate(-1549.045 -967.81)" fill="#3b3b4c" opacity="0.54"/><path d="M1557.955,973.223l.217,1.481c.035.236-.191.429-.5.431l-5.281.044a.6.6,0,0,1-.63-.422l-.217-1.481c-.035-.236.192-.429.5-.431l5.281-.044A.6.6,0,0,1,1557.955,973.223Z" transform="translate(-1492.042 -968.543)" fill="#3b3b4c" opacity="0.54"/><path d="M1487.1,1074.143l9.947-.082a.673.673,0,0,1,.7.47l.2,1.384c.038.262-.213.477-.562.48l-9.947.082a.673.673,0,0,1-.7-.47l-.2-1.384C1486.5,1074.361,1486.755,1074.146,1487.1,1074.143Z" transform="translate(-1435.488 -1056.648)" fill="#3b3b4c" opacity="0.54"/><path d="M1625.652,1165.372l7.674-.063a.535.535,0,0,1,.535.422l.217,1.482a.384.384,0,0,1-.41.43l-7.675.063a.535.535,0,0,1-.535-.422l-.217-1.482A.384.384,0,0,1,1625.652,1165.372Z" transform="translate(-1556.168 -1136.041)" fill="#3b3b4c" opacity="0.54"/><path d="M1710.628,1165.872l.217,1.481a.384.384,0,0,1-.411.431l-4.406.036a.535.535,0,0,1-.536-.423l-.217-1.481a.384.384,0,0,1,.411-.431l4.406-.036A.535.535,0,0,1,1710.628,1165.872Z" transform="translate(-1625.804 -1136.163)" fill="#3b3b4c" opacity="0.54"/><path d="M1619.647,1259.576l7.674-.063a.535.535,0,0,1,.535.422l.217,1.482a.384.384,0,0,1-.41.43l-7.674.063a.535.535,0,0,1-.535-.422l-.217-1.482A.384.384,0,0,1,1619.647,1259.576Z" transform="translate(-1550.943 -1218.006)" fill="#3b3b4c" opacity="0.54"/><path d="M1705.4,1259.476l.217,1.481a.385.385,0,0,1-.411.431l-4.406.036a.536.536,0,0,1-.536-.423l-.217-1.481a.384.384,0,0,1,.411-.43l4.406-.037A.536.536,0,0,1,1705.4,1259.476Z" transform="translate(-1621.253 -1217.606)" fill="#3b3b4c" opacity="0.54"/><path d="M1678.039,1362l8.3-.068a.6.6,0,0,1,.6.47l.2,1.384a.428.428,0,0,1-.457.479l-8.3.068a.6.6,0,0,1-.6-.47l-.2-1.384A.428.428,0,0,1,1678.039,1362Z" transform="translate(-1601.708 -1307.117)" fill="#3b3b4c" opacity="0.54"/><path d="M1631.81,1363.025l.217,1.481a.384.384,0,0,1-.411.431l-4.406.036a.536.536,0,0,1-.536-.423l-.217-1.48a.385.385,0,0,1,.411-.431l4.406-.036A.535.535,0,0,1,1631.81,1363.025Z" transform="translate(-1557.226 -1307.703)" fill="#3b3b4c" opacity="0.54"/><path d="M1593.634,1074.174l5.072-.042c.173,0,.34.188.375.424l.217,1.482c.034.235-.078.427-.25.429l-5.072.042c-.172,0-.34-.188-.375-.424l-.217-1.482C1593.35,1074.367,1593.462,1074.175,1593.634,1074.174Z" transform="translate(-1528.448 -1056.71)" fill="#3b3b4c" opacity="0.54"/><path d="M1651.735,1074.149l.217,1.481a.384.384,0,0,1-.411.431l-4.406.036a.535.535,0,0,1-.536-.423l-.217-1.481a.384.384,0,0,1,.411-.431l4.406-.036A.535.535,0,0,1,1651.735,1074.149Z" transform="translate(-1574.562 -1056.356)" fill="#3b3b4c" opacity="0.54"/><path d="M1754.893,1258.343l8.3-.069a.6.6,0,0,1,.6.471l.2,1.384a.428.428,0,0,1-.457.479l-8.3.069a.6.6,0,0,1-.6-.471l-.2-1.384A.428.428,0,0,1,1754.893,1258.343Z" transform="translate(-1668.577 -1216.928)" fill="#3b3b4c" opacity="0.54"/><path d="M1763.587,1361.228l7.674-.063a.535.535,0,0,1,.535.422l.217,1.482a.384.384,0,0,1-.41.43l-7.674.063a.535.535,0,0,1-.535-.422l-.217-1.482A.384.384,0,0,1,1763.587,1361.228Z" transform="translate(-1676.183 -1306.452)" fill="#3b3b4c" opacity="0.54"/><path d="M1706.924,1072.754l.217,1.481a.384.384,0,0,1-.411.43l-4.406.036a.535.535,0,0,1-.536-.423l-.217-1.481a.385.385,0,0,1,.411-.431l4.406-.036A.535.535,0,0,1,1706.924,1072.754Z" transform="translate(-1622.581 -1055.143)" fill="#3b3b4c" opacity="0.54"/><g transform="translate(0 0)"><path d="M1093.705,956.937c-.308,2.154,0,6.924,1.231,6.924s7.231.462,7.078-.462-.462-6.462-1.385-6.616S1093.705,956.937,1093.705,956.937Z" transform="translate(-1093.594 -954.569)" fill="#b5e1e8"/><g transform="translate(1.387)"><path d="M1105.709,945.353a3.876,3.876,0,0,0,.61.956,1.227,1.227,0,0,0,.113.1s0,0-.04-.006a.37.37,0,0,0-.175.019.332.332,0,0,0-.129.083l-.006.008.012-.013.024-.026.053-.059.224-.256c.605-.7,1.215-1.4,1.832-2.1s1.241-1.388,1.886-2.067c.323-.339.651-.675.994-1,.173-.164.347-.327.538-.486.094-.08.193-.158.3-.237a1.808,1.808,0,0,1,.184-.118l.052-.029a.443.443,0,0,1,.061-.03c.051-.021.1-.04.157-.056a.252.252,0,0,1,.32.295l-.116.521c0,.005,0,.007,0,.007s-.009.006-.016.01l-.022.015a1.1,1.1,0,0,0-.1.077c-.075.06-.154.13-.232.2-.157.147-.312.31-.465.474-.306.331-.605.677-.9,1.027-.59.7-1.165,1.422-1.734,2.147s-1.13,1.458-1.7,2.2l-.218.28-.058.074-.033.04-.016.02-.037.039a1.03,1.03,0,0,1-.416.271,1.045,1.045,0,0,1-.518.04,1.344,1.344,0,0,1-.365-.125,2.074,2.074,0,0,1-.439-.313,4.216,4.216,0,0,1-.554-.638,6.039,6.039,0,0,1-.422-.674v0a.755.755,0,0,1,1.33-.714Z" transform="translate(-1104.268 -940.029)" fill="#3b3b4c"/></g></g><g transform="translate(2.416 12.896)"><path d="M1112.3,1056.2c-.308,2.154,0,6.924,1.231,6.924s7.231.462,7.078-.462-.462-6.462-1.385-6.616S1112.3,1056.2,1112.3,1056.2Z" transform="translate(-1112.19 -1053.833)" fill="#b5e1e8"/><g transform="translate(1.387)"><path d="M1124.306,1044.617a3.868,3.868,0,0,0,.61.955,1.239,1.239,0,0,0,.113.1s0,0-.04-.006a.368.368,0,0,0-.175.019.331.331,0,0,0-.129.083l-.006.008.012-.013.024-.026.053-.059.225-.256c.605-.7,1.215-1.4,1.832-2.1s1.241-1.388,1.886-2.067c.323-.339.65-.675.994-1,.173-.164.347-.327.538-.486.094-.08.193-.158.3-.237a1.9,1.9,0,0,1,.184-.118l.053-.029a.443.443,0,0,1,.061-.03c.052-.021.1-.04.157-.056a.252.252,0,0,1,.314.168.248.248,0,0,1,.005.127l-.116.521c0,.005,0,.007,0,.007s-.01.006-.016.01l-.022.015a1.1,1.1,0,0,0-.1.077c-.074.06-.154.13-.232.2-.157.147-.312.31-.465.474-.306.331-.605.677-.9,1.027-.59.7-1.165,1.422-1.734,2.147s-1.13,1.458-1.7,2.2l-.218.28-.059.074-.033.04-.017.02-.037.039a1.031,1.031,0,0,1-.416.271,1.048,1.048,0,0,1-.518.04,1.35,1.35,0,0,1-.365-.125,2.076,2.076,0,0,1-.439-.314,4.238,4.238,0,0,1-.554-.638,6.056,6.056,0,0,1-.421-.674v0a.755.755,0,0,1,1.33-.714C1124.292,1044.589,1124.3,1044.6,1124.306,1044.617Z" transform="translate(-1122.865 -1039.293)" fill="#3b3b4c"/></g></g><g transform="translate(4.565 24.826)"><path d="M1128.84,1148.027c-.308,2.154,0,6.924,1.231,6.924s7.232.462,7.078-.462-.461-6.462-1.385-6.616S1128.84,1148.027,1128.84,1148.027Z" transform="translate(-1128.729 -1145.659)" fill="#b5e1e8"/><g transform="translate(1.387)"><path d="M1140.844,1136.443a3.868,3.868,0,0,0,.61.955,1.229,1.229,0,0,0,.113.1s0,0-.04-.006a.37.37,0,0,0-.175.019.331.331,0,0,0-.129.083l-.006.008.012-.013.024-.026.053-.059.224-.256c.605-.7,1.215-1.4,1.832-2.1s1.241-1.388,1.886-2.067c.323-.339.651-.676.994-1,.173-.164.347-.327.538-.486.094-.08.193-.158.3-.237a1.848,1.848,0,0,1,.184-.118l.053-.029a.434.434,0,0,1,.061-.03c.051-.021.1-.04.157-.056a.252.252,0,0,1,.32.295l-.116.521c0,.005,0,.007,0,.007s-.009.006-.016.01l-.022.015a1.154,1.154,0,0,0-.1.077c-.074.06-.154.13-.232.2-.157.147-.312.31-.465.474-.306.331-.606.677-.9,1.027-.59.7-1.165,1.422-1.734,2.147s-1.13,1.458-1.7,2.2l-.218.28-.058.074-.033.04-.016.02-.037.039a1.032,1.032,0,0,1-.416.271,1.048,1.048,0,0,1-.518.04,1.352,1.352,0,0,1-.365-.125,2.079,2.079,0,0,1-.439-.314,4.211,4.211,0,0,1-.554-.638,6.01,6.01,0,0,1-.422-.674v0a.755.755,0,0,1,1.33-.715C1140.83,1136.414,1140.838,1136.43,1140.844,1136.443Z" transform="translate(-1139.403 -1131.119)" fill="#3b3b4c"/></g></g><g transform="translate(6.588 37.532)"><path d="M1144.416,1245.828c-.308,2.154,0,6.924,1.231,6.924s7.231.461,7.077-.462-.462-6.462-1.385-6.616S1144.416,1245.828,1144.416,1245.828Z" transform="translate(-1144.305 -1243.46)" fill="#b5e1e8"/><g transform="translate(1.387)"><path d="M1156.42,1234.244a3.864,3.864,0,0,0,.61.956,1.16,1.16,0,0,0,.114.1s0,0-.04-.005a.369.369,0,0,0-.175.019.33.33,0,0,0-.129.083l-.006.008.012-.013.023-.025.053-.059.224-.255c.605-.7,1.215-1.4,1.832-2.1s1.241-1.388,1.886-2.067c.323-.339.651-.676.994-1,.173-.164.347-.327.538-.486.094-.08.193-.158.3-.236a1.84,1.84,0,0,1,.184-.118l.052-.029a.424.424,0,0,1,.061-.03c.052-.021.1-.04.157-.056a.252.252,0,0,1,.32.295l-.116.521c0,.005,0,.007,0,.007s-.009.006-.016.01l-.022.015a1.128,1.128,0,0,0-.1.077c-.074.06-.154.13-.232.2-.157.147-.312.31-.465.474-.306.331-.605.677-.9,1.027-.59.7-1.165,1.422-1.735,2.147s-1.13,1.458-1.7,2.2l-.218.28-.059.073-.033.04-.017.02-.037.039a1.031,1.031,0,0,1-.416.271,1.048,1.048,0,0,1-.518.04,1.338,1.338,0,0,1-.364-.125,2.081,2.081,0,0,1-.439-.314,4.224,4.224,0,0,1-.554-.638,6.01,6.01,0,0,1-.421-.674v0a.755.755,0,1,1,1.33-.714Z" transform="translate(-1154.979 -1228.92)" fill="#3b3b4c"/></g></g><g transform="translate(8.555 50.934)"><path d="M1159.558,1348.99c-.308,2.154,0,6.924,1.231,6.924s7.231.461,7.077-.462-.461-6.462-1.385-6.616S1159.558,1348.99,1159.558,1348.99Z" transform="translate(-1159.447 -1346.622)" fill="#b5e1e8"/><g transform="translate(1.387)"><path d="M1171.562,1337.406a3.863,3.863,0,0,0,.61.955,1.168,1.168,0,0,0,.114.1s0,0-.04-.005a.367.367,0,0,0-.176.019.333.333,0,0,0-.129.083l-.006.009.012-.013.023-.026.053-.059.224-.256c.605-.7,1.215-1.4,1.832-2.1s1.241-1.388,1.886-2.067c.323-.339.651-.676.994-1,.173-.164.347-.327.538-.486.094-.08.193-.158.3-.237a1.843,1.843,0,0,1,.184-.118l.053-.029a.426.426,0,0,1,.061-.03c.052-.021.1-.04.157-.056a.252.252,0,0,1,.32.295l-.116.521c0,.005,0,.007,0,.008s-.009.006-.016.01l-.022.015a1.086,1.086,0,0,0-.1.077c-.074.06-.154.13-.232.2-.156.147-.312.31-.465.474-.306.331-.605.677-.9,1.027-.59.7-1.165,1.422-1.734,2.147s-1.13,1.458-1.7,2.2l-.218.28-.059.073-.033.04-.017.02-.037.039a1.028,1.028,0,0,1-.416.271,1.044,1.044,0,0,1-.518.04,1.335,1.335,0,0,1-.364-.125,2.074,2.074,0,0,1-.439-.313,4.232,4.232,0,0,1-.554-.638,6.045,6.045,0,0,1-.421-.674v0a.755.755,0,1,1,1.33-.715Z" transform="translate(-1170.121 -1332.082)" fill="#3b3b4c"/></g></g></g><g transform="translate(0 57.433)"><path d="M715.038,1814.529c0,.811-13.125,1.725-30.18,1.725s-30.879-.658-30.879-1.469,13.825-1.469,30.879-1.469S715.038,1813.718,715.038,1814.529Z" transform="translate(-648.268 -1697.57)" fill="#32323f" opacity="0.15"/><g transform="translate(0 0)"><path d="M0,0H6.562a0,0,0,0,1,0,0V9.052a3.281,3.281,0,0,1-3.281,3.281h0A3.281,3.281,0,0,1,0,9.052V0A0,0,0,0,1,0,0Z" transform="translate(9.496 105.076) rotate(-5.767)" fill="#fff"/><path d="M619.975,1052.53l.646-.065,1.6-.162,2.811-.284.132-.014,1.337-.135-9.954-98.553-.072-.169-2.721-6.416a1.219,1.219,0,0,0-2.316.234l-1.419,7.011.03.3Z" transform="translate(-610.021 -942.924)" fill="#f4ad00"/><path d="M616.55,939.539l-3.374-8.844a.842.842,0,0,0-1.618.163l-1.537,9.34.012.116c1.109.225,1.148.851,1.672.747.669-.132.791-1.646,1.527-1.72s.477.736,1.209.662.686-.527,1.136-.573S615.533,939.651,616.55,939.539Z" transform="translate(-610.021 -929.144)" fill="#efaea6"/><path d="M621.966,925.861l-1.2-3.158a.484.484,0,0,0-.93.094l-.548,3.329a.1.1,0,0,0,.064.1c.78.266.9-.42,1.415-.417a6.387,6.387,0,0,1,1.1.172A.094.094,0,0,0,621.966,925.861Z" transform="translate(-618.079 -922.391)" fill="#1f1e39"/><path d="M662.248,1100.378l.132-.014,1.337-.135-9.954-98.553-.972-.108c.1,10.855,4.71,50.73,5.991,63.3C659.8,1074.831,660.914,1089.333,662.248,1100.378Z" transform="translate(-647.234 -991.282)" fill="#1f1f3b" opacity="0.09"/></g><path d="M626.106,1186.237c-2.177-1.244-2.539-3.7-3.477-3.733s.073,1.43-.331,1.278-1.277-1.033-2.168-1.621c-.609-.4-1.866,2.939.317,4.252.711.428,3.737,1.8,4.6,2.152S626.106,1186.237,626.106,1186.237Z" transform="translate(-618.019 -1148.384)" fill="#efaea6"/><path d="M677.181,1202.084c-3.4,3.511-8.42,5.367-9.445,5.388-1.859.038-7.521-4.194-9.393-5.738-.821-.676-3.02,3.8-2.125,4.554s9.772,6.99,12.277,6.99c5.692,0,12.675-7.886,12.979-9.4S677.181,1202.084,677.181,1202.084Z" transform="translate(-650.033 -1165.382)" fill="#0069a8"/><g transform="translate(21.954 22.924)"><path d="M1053.694,1126.517a22.031,22.031,0,0,1,.8-3.043,6.757,6.757,0,0,0,.535-2.851c-.13-1.246.449-4.685.733-4.783.984-.34.142,2.95.477,3.5.428.7,2.173-.182,2.111,1.42-.027.715-.824,1.02-1.18,2.72a37.087,37.087,0,0,1-.564,3.8C1056.36,1127.648,1053.694,1126.517,1053.694,1126.517Z" transform="translate(-1018.007 -1113.612)" fill="#efaea6"/><path d="M977.022,1757.973c.064-1.507-.276-5.3-.276-5.3l-4.207.08.565,5.693,2.883,1.666Z" transform="translate(-947.396 -1667.729)" fill="#efaea6"/><path d="M977.394,1788.37c.439-.106.262.3.434.923.4,1.438,5.937,1.4,6.775,1.519a1.237,1.237,0,0,1-.986,2.195c-1.856.018-7.8.1-9.833.106a.927.927,0,0,1-.908-.656c-.387-1.389-.321-3.554.245-3.608C973.975,1788.579,975.564,1788.812,977.394,1788.37Z" transform="translate(-947.477 -1698.775)" fill="#1f1f39"/><g transform="translate(0 82.14)"><path d="M793.4,1737.458c.607-1.395,1.663-5.068,1.663-5.068l-3.979-1.3-1.533,5.53,2.1,2.5Z" transform="translate(-788.182 -1731.095)" fill="#efaea6"/><path d="M784.733,1769.774c.451.044.139.362.073,1.009-.15,1.48,5.068,3.249,5.811,3.634.384.2.3,2.419-1.721,1.74-1.75-.587-7.362-2.448-9.272-3.1a.885.885,0,0,1-.615-.912c.14-1.431.988-3.442,1.539-3.308C781.446,1768.856,782.855,1769.593,784.733,1769.774Z" transform="translate(-779.004 -1763.925)" fill="#1f1f39"/></g><path d="M805.758,1363.607c2.445,6.309,6.48,24.581,6.991,27.88s3.722,23.118,3.722,23.716-5.6,1.993-6.3,1.022-1.947-17.341-4.016-22-8.089-18.974-8.089-18.974c.8,7.189,2.6,18.654,1.52,21.005-2.015,5.252-6.413,18.094-6.413,18.094-1.684.885-6.234-1.173-5.761-1.316,1.344-3.72,4.62-14.4,5.055-17.984s-4.514-32.447-4.514-32.447l14.333-.888Z" transform="translate(-786.288 -1327.563)" fill="#4b4b5b"/><path d="M856.988,1437.557c.151,2.066.558,4.237.807,6.628l-2.7-10.859A20.142,20.142,0,0,0,856.988,1437.557Z" transform="translate(-845.211 -1389.871)" fill="#1f1f39" opacity="0.62"/><g transform="translate(6.048)"><path d="M840.123,1115.061a17.779,17.779,0,0,0,1.885,2.836c-.361.4-.5-.187-.029.994.688,1.715,1.047,3.114-1.444,2.363l.673,1.714.18,2.621-3.476.595c.135-2.369-3.454-8.551-2.55-10.276S839.777,1114.419,840.123,1115.061Z" transform="translate(-833.96 -1112.537)" fill="#efaea6"/><path d="M830.336,1105.807c-1.067-.33-.861-1.953.278-1.365.778-.331.7-.393.4-1.079s.368-.629.767-1.328.978-1.238.158-1.836a1.013,1.013,0,0,0-.2-.919c-.357-.319-1.427-.767-1.912-.064s-.179,1.186-1.313.682-2.135-.144-2.08,1.151c.064,1.5-.8.529-.871,2-.132,2.634,1.358,2.026,1.687,3.386s1.283,2.555,2.264,2.146S830.6,1106.488,830.336,1105.807Z" transform="translate(-825.556 -1098.844)" fill="#6d3522"/><path d="M866.179,1164.032c-.79-.458-1.066-.276-1.175-.07-.984,1.849.576,1.622,1.39,2.366s.3-.938.3-.938Z" transform="translate(-859.605 -1155.314)" fill="#1f1f39" opacity="0.16"/></g><path d="M794.76,1171.714c.9-.348,5.609-.951,7.8.266s3.725,1.5,5.954,3.683c1.907,1.869,5.077,5.328,7.8,5.989,2.4.583,5.693-11.968,5.693-11.968.743-.047,4.045,1.587,4.29,2.11-.321,1.31-3.828,17.448-9.842,15.527-4.115-1.314-10.993-7.453-11.371-5.8-.033,4.131-1.179,6.443.72,15-4.884,4.263-17.984,2.915-18.329.3s1.366-17.822,2.051-19.678C790.414,1174.731,793.861,1172.062,794.76,1171.714Z" transform="translate(-786.331 -1160.48)" fill="#0069a8"/><path d="M906.434,1258.55c-.028,3.619-1.107,6.7.366,13.3-.188,0-.565-1-.828-1.423-1.08-1.724-2.35-9.834-2-10.516.342-.667.756-.986,2.648-1.7C906.515,1258.264,906.456,1258.454,906.434,1258.55Z" transform="translate(-887.685 -1237.506)" fill="#1f1f39" opacity="0.28"/></g></g><g transform="translate(59.133 35.43)" opacity="0.9"><path d="M1240.582,753.142l13.462-.111a.911.911,0,0,1,.949.636l.274,1.873c.052.355-.288.646-.76.65l-13.463.111a.911.911,0,0,1-.949-.636l-.274-1.873C1239.77,753.437,1240.11,753.146,1240.582,753.142Z" transform="translate(-1217.128 -753.031)" fill="#3b3b4c" opacity="0.75"/><path d="M1065.608,754.9l8.228-.068a.647.647,0,0,1,.591.573l.294,2.005a.465.465,0,0,1-.422.581l-8.228.068a.647.647,0,0,1-.591-.573l-.294-2.005A.466.466,0,0,1,1065.608,754.9Z" transform="translate(-1065.179 -754.595)" fill="#3b3b4c" opacity="0.75"/><path d="M1159.835,754.741l.293,2c.047.319-.259.58-.683.584l-7.148.059a.818.818,0,0,1-.852-.571l-.294-2c-.047-.319.259-.58.683-.584l7.148-.059A.818.818,0,0,1,1159.835,754.741Z" transform="translate(-1139.978 -754.022)" fill="#3b3b4c" opacity="0.75"/><path d="M1168.833,819.685l13.463-.111a.911.911,0,0,1,.949.636l.274,1.873c.052.355-.288.646-.76.65l-13.463.111a.911.911,0,0,1-.948-.636l-.274-1.874C1168.021,819.98,1168.361,819.689,1168.833,819.685Z" transform="translate(-1154.701 -810.929)" fill="#3b3b4c" opacity="0.75"/><path d="M1088.086,821.284l.293,2c.047.319-.259.58-.683.584l-7.148.059a.818.818,0,0,1-.852-.571l-.293-2c-.047-.319.259-.58.683-.584l7.148-.059A.818.818,0,0,1,1088.086,821.284Z" transform="translate(-1077.55 -811.92)" fill="#3b3b4c" opacity="0.75"/><path d="M1090.673,877.824l11.232-.093a.807.807,0,0,1,.807.637l.274,1.873a.579.579,0,0,1-.619.649l-11.232.093a.806.806,0,0,1-.807-.637l-.274-1.873A.579.579,0,0,1,1090.673,877.824Z" transform="translate(-1086.817 -861.53)" fill="#3b3b4c" opacity="0.75"/><path d="M1225.541,876.76l10.387-.086a.724.724,0,0,1,.724.572l.293,2.005a.52.52,0,0,1-.555.582l-10.387.086a.724.724,0,0,1-.724-.572l-.294-2.005A.52.52,0,0,1,1225.541,876.76Z" transform="translate(-1204.219 -860.61)" fill="#3b3b4c" opacity="0.75"/><path d="M1340.551,877.435l.293,2a.52.52,0,0,1-.556.583l-5.964.049a.725.725,0,0,1-.725-.572l-.293-2a.52.52,0,0,1,.556-.583l5.964-.049A.724.724,0,0,1,1340.551,877.435Z" transform="translate(-1298.467 -860.775)" fill="#3b3b4c" opacity="0.75"/><path d="M1387.179,753.9l10.387-.086a.724.724,0,0,1,.724.572l.293,2.005a.52.52,0,0,1-.555.582l-10.387.086a.724.724,0,0,1-.724-.572l-.294-2.005A.52.52,0,0,1,1387.179,753.9Z" transform="translate(-1344.857 -753.711)" fill="#3b3b4c" opacity="0.75"/><path d="M1493.462,753.843l.293,2a.52.52,0,0,1-.556.583l-5.964.049a.724.724,0,0,1-.725-.572l-.293-2a.52.52,0,0,1,.556-.583l5.964-.049A.725.725,0,0,1,1493.462,753.843Z" transform="translate(-1431.513 -753.24)" fill="#3b3b4c" opacity="0.75"/><path d="M1313.016,819.727l6.865-.057c.234,0,.461.255.507.573l.294,2.006c.047.318-.1.578-.338.58l-6.865.057c-.234,0-.461-.255-.507-.573l-.294-2.005C1312.631,819.988,1312.782,819.729,1313.016,819.727Z" transform="translate(-1280.516 -811.012)" fill="#3b3b4c" opacity="0.75"/><path d="M1391.653,819.693l.293,2a.52.52,0,0,1-.556.583l-5.964.049a.725.725,0,0,1-.725-.572l-.293-2a.521.521,0,0,1,.556-.583l5.964-.049A.725.725,0,0,1,1391.653,819.693Z" transform="translate(-1342.93 -810.535)" fill="#3b3b4c" opacity="0.75"/><path d="M1408.045,875.2l11.232-.093a.807.807,0,0,1,.807.637l.274,1.873a.579.579,0,0,1-.619.649l-11.232.093a.807.807,0,0,1-.807-.637l-.274-1.873A.579.579,0,0,1,1408.045,875.2Z" transform="translate(-1362.957 -859.248)" fill="#3b3b4c" opacity="0.75"/><path d="M1542.913,874.137l10.387-.086a.724.724,0,0,1,.724.571l.294,2.005a.52.52,0,0,1-.555.582l-10.387.086a.724.724,0,0,1-.724-.572l-.294-2.005A.52.52,0,0,1,1542.913,874.137Z" transform="translate(-1480.359 -858.328)" fill="#3b3b4c" opacity="0.75"/></g><g transform="translate(55.196 16.765)"><path d="M1038.443,617.456c-.12.247,1.248,3.568.26,3.211-3.091,1.214-3-7.635-3.822-8.932.085-1.88,4.309-1.382,5.548-.268,3.566,3.143-.579,4.794,1.959,6.859,2.323,1.785-.3,3.638-1.656,1.316l-1.592-2.187Zm.35-2.158c1.917-.184.339-3.214-1.383-2.431l.541,2.432Z" transform="translate(-1034.88 -610.332)" fill="#0069a8"/><path d="M1103.372,617.524c1.4,3.992-4.4,5.507-6.508,1.607-.317-.643-2.538-7.877-1.535-7.881,4.073-.813,1.389,7.437,4.846,7.884,2.343-.041-.6-6.527-.483-7.8C1103.023,609.835,1102.644,615.95,1103.372,617.524Z" transform="translate(-1087.252 -610.873)" fill="#0069a8"/><path d="M1164.619,621.63c-2.414.116-2.682-8.693-3.423-9.89.966-.313,2.447-.223,2.57,1.2l1.424,6.4c1.709.084,3.986-.683,3.489,2.014C1168.564,621.9,1165.047,621.52,1164.619,621.63Z" transform="translate(-1144.786 -611.303)" fill="#0069a8"/><path d="M1215.007,613.794c-.923-2.48,4.038-1.224,5.231-1.517,1.818,2.81-1.081,2.185-2.836,2.227l.335,1.508c1.656.1,3.89-.7,3.42,1.942-.149.5-2.505.175-2.929.264l.378,1.7c1.651.161,4.393-.85,3.839,1.965-.083.544-3.947.162-4.355.274C1215.739,622.225,1215.705,614.992,1215.007,613.794Z" transform="translate(-1191.507 -611.842)" fill="#0069a8"/><path d="M1273.929,615.71c-7.213-2.44-1.278-9.69,2.307-4.545.741,2.5-3.129-.655-3.221,1.384.7,1.1,2.966,1.125,3.771,2.193,4.022,3.87-2.543,7.662-4.939,3.276-.335-2.227,1.366-.381,2.68-.442C1276.4,617.519,1275.361,615.94,1273.929,615.71Z" transform="translate(-1239.908 -609.361)" fill="#0069a8"/></g></g></g><g transform="translate(1236 423)"><circle cx="183" cy="183" r="183" fill="#87ddf9" opacity="0.77"/><path d="M1148.192,1625.188c0,3.764-76.2,3.4-112.169,3.4s-64.487-.527-65.134-1.579c-2.273-3.7,22.443-6.375,58.416-6.375S1148.192,1622.415,1148.192,1625.188Z" transform="translate(-870.579 -1336.915)" fill="#32323f" opacity="0.18"/><text transform="translate(105 101)" fill="#fff" font-size="39" font-family="MicrosoftJhengHeiBold, Microsoft JhengHei"><tspan x="0" y="0">統計成果</tspan></text><g transform="translate(94.554 123)"><g transform="translate(52.122 84.8)"><path d="M499.41,339.654c.413-2,2.1-4.146,4.4-3.072s-1.535,5.527-1.535,5.527Z" transform="translate(-499.41 -336.296)" fill="#fca89e"/></g><g transform="translate(0.346 14.644)"><path d="M457.808,325.03l-2.293-2.885,24.861-19.762,25.275,12.329,35.1-23.4,39.09,23.821,39.509-38.312,2.566,2.645-41.557,40.3-39.52-24.082-34.908,23.272L480.85,306.715Z" transform="translate(-455.515 -276.819)" fill="#ff9f9f"/></g><g transform="translate(126.036 82.5)"><path d="M591.469,334.542c-4.541,1.916-12.891,10.653-12.891,10.653l-16.5-3.061.537,4.289,19.745,7.779s9.829-8.4,11.081-12.69S594.1,333.431,591.469,334.542Z" transform="translate(-562.073 -334.346)" fill="#5b8bf4"/></g><g transform="translate(145.245 82.793)"><path d="M598.453,367.594l-20.095-.033,6.076-27.881c.469-2.219,4.144-5.658,6.315-5l14.529,4.25a3.874,3.874,0,0,1,2.484,5.133Z" transform="translate(-578.358 -334.594)" fill="#2b79e6"/></g><g transform="translate(162.699 79.834)"><path d="M596.708,339.235l-2.532-.763a1.589,1.589,0,0,1-.94-2.034l.939-3.121a1.591,1.591,0,0,1,1.909-1.175l2.531.762a1.59,1.59,0,0,1,.941,2.034l-.94,3.121A1.591,1.591,0,0,1,596.708,339.235Z" transform="translate(-593.155 -332.086)" fill="#f79b94"/></g><g transform="translate(160.82 68.973)"><path d="M591.562,332.343c-.02,3.747,3.016,4.087,6.765,4.107a6.786,6.786,0,1,0,.071-13.572C594.65,322.858,591.581,328.6,591.562,332.343Z" transform="translate(-591.562 -322.878)" fill="#fca89e"/><g clip-path="url(#a)"><g transform="translate(-6.589 -1.215)"><path d="M601.936,327.329s-.691,2.294-.375,2.39a2.328,2.328,0,0,1,2.183,1.348c.537,1.369-.747,2.192-1.846,2.118s-1.2,2.833,1.4,3.1,5.207-5.249,4.607-7.846-3.895-6.265-5.366-6.536-16.561.593-16.561.593Z" transform="translate(-585.976 -321.848)" fill="#7f4d4e"/></g></g></g><g transform="translate(160.484 77.162)"><path d="M595.519,329.961a3.291,3.291,0,1,0,2.2,4.1A3.291,3.291,0,0,0,595.519,329.961Zm-1.559,5.177a2.116,2.116,0,1,1,2.636-1.415A2.115,2.115,0,0,1,593.959,335.138Z" transform="translate(-591.277 -329.82)" fill="#7f4d4e"/></g><g transform="translate(158.879 79.068)"><path d="M591.856,331.436l6.246,1.881s-1.049,9.126-6.033,7.329C587.354,338.946,591.856,331.436,591.856,331.436Z" transform="translate(-589.917 -331.436)" fill="#7f4d4e"/></g><g transform="translate(145.243 115.76)"><path d="M598.453,362.576l-20.095-.033,0,45.429h3.983s3.015-22.411,4.151-34.8h2.76l-.182,17.628,16.186,14.17,2.164-3.637-10.75-13.928s2.026-18.006,1.969-21.112A34.986,34.986,0,0,0,598.453,362.576Z" transform="translate(-578.356 -362.543)" fill="#ff645f"/></g><g transform="translate(140.499 161.131)"><path d="M579.023,401.008h4.049v3.106H574.86c-.543,0-.729-1.217-.254-1.479Z" transform="translate(-574.334 -401.008)" fill="#29266b"/></g><g transform="translate(170.971 154.553)"><path d="M601.26,398.8l2.242-3.372,2.586,1.719-4.545,6.839c-.3.452-1.418-.067-1.374-.607Z" transform="translate(-600.168 -395.431)" fill="#29266b"/></g><g transform="translate(14.775 116.208)"><path d="M467.785,362.923h20.972l-.559,44.805h-4.006s-3.031-22.54-4.174-35h-2.777l-.835,35H472.4s-4.726-35.141-4.6-41.915A26.171,26.171,0,0,1,467.785,362.923Z" transform="translate(-467.748 -362.923)" fill="#2b79e6"/></g><g transform="translate(12.176 84.129)"><path d="M468.18,367.806h20.972l2.619-27.856c.235-2.273-1.962-4.223-4.755-4.223h-16.7c-2.794,0-4.99,1.95-4.756,4.223Z" transform="translate(-465.545 -335.727)" fill="#ff8d8d"/></g><g transform="translate(21.706 78.982)"><path d="M477.317,339.462c-3.716,0-3.693-2.527-3.693-3.133v-4.111c0-.932,1.388-.853,2.215-.853H478.5c.827,0,2.215.755,2.215,1.686v3.278A3.163,3.163,0,0,1,477.317,339.462Z" transform="translate(-473.624 -331.364)" fill="#f79b94"/></g><g transform="translate(18.508 67.6)"><path d="M483.511,333.093c-1.069,3.614-4.092,3.061-7.706,1.993A6.825,6.825,0,0,1,479.672,322C483.288,323.065,484.578,329.479,483.511,333.093Z" transform="translate(-470.912 -321.714)" fill="#fca89e"/><g clip-path="url(#b)"><g transform="translate(-1.593 -1.755)"><path d="M476.236,325.635s0,2.411-.333,2.411a2.341,2.341,0,0,0-2.494.664c-.914,1.164.084,2.327,1.164,2.576s.331,3.075-2.245,2.577-3.49-6.567-2.161-8.893,5.569-4.9,7.064-4.737,11.36,5.477,11.36,5.477Z" transform="translate(-469.562 -320.226)" fill="#29266b"/></g></g></g><g transform="translate(34.066 85.16)"><path d="M488.542,338.9l5.348,10.29,8.269-9.586c0-.36,3.835,1.078,3.355,1.918-.777,1.36-6.111,12.223-10.306,16.656-2.34,2.475-9.212-6.567-9.586-7.191-.6-.994-1.406-7.159-1.518-10.6a1.512,1.512,0,0,1,1.358-1.553L486.7,336.6C487.386,336.533,488.3,338.249,488.542,338.9Z" transform="translate(-484.102 -336.601)" fill="#ff8d8d"/></g><g transform="translate(0 85.043)"><path d="M469.143,336.5s-9.7,10.342-13.118,13.6c-1.887,1.8,0,3.146,1.078,4.494,2.991,3.738,12.673,10.426,12.673,10.426l-.539-5.663-5.842-6.83s8.217-6.346,8.49-6.8c.749-1.247.125-6.733.125-6.733Z" transform="translate(-455.222 -336.502)" fill="#ff8d8d"/></g><g transform="translate(31.208 160.956)"><path d="M485.752,400.859h-4.073v3.123h8.259c.546,0,.734-1.224.256-1.489Z" transform="translate(-481.679 -400.859)" fill="#29266b"/></g><g transform="translate(19.241 160.956)"><path d="M475.606,400.859h-4.072v3.123h8.259c.545,0,.733-1.224.255-1.489Z" transform="translate(-471.534 -400.859)" fill="#29266b"/></g><g transform="translate(14.016 107.396)"><path d="M469.26,361.35a1.863,1.863,0,0,0,1.555-2.143l-.341-3.294c-.037-.631-1.032-.44-1.663-.4l-1.707.449.539,5.663S468.852,361.384,469.26,361.35Z" transform="translate(-467.104 -355.453)" fill="#fca89e"/></g><g transform="translate(44.793)"><path d="M537.719,264.4a44.524,44.524,0,1,0,44.524,44.524A44.524,44.524,0,0,0,537.719,264.4Zm0,77.8a33.274,33.274,0,1,1,33.275-33.274A33.274,33.274,0,0,1,537.719,342.2Z" transform="translate(-493.196 -264.404)" fill="#29266b"/></g><g transform="translate(111.11 66.091)"><path d="M600.794,361.015a6.451,6.451,0,0,1,0,9.121h0a6.449,6.449,0,0,1-9.12,0l-40.367-38.693a6.449,6.449,0,0,1,0-9.12h0a6.449,6.449,0,0,1,9.12,0Z" transform="translate(-549.419 -320.435)" fill="#29266b"/></g><g transform="translate(132.313 101.524)"><path d="M574.357,350.474l.536,5.518s-6.791-1.725-7.327-3.219a1.87,1.87,0,0,1,.357-2.185Z" transform="translate(-567.394 -350.474)" fill="#fca89e"/></g><g transform="translate(121.756 87.01)"><path d="M565.087,342.163l-1.374,3.858s-5.415-4.447-5.266-6.027a1.868,1.868,0,0,1,1.251-1.825l4.552,2.038A1.568,1.568,0,0,1,565.087,342.163Z" transform="translate(-558.444 -338.169)" fill="#fca89e"/></g><g transform="translate(142.591 12.504)"><path d="M600.335,298.774l-3.676-.254,1.321-19.139-21.285,3.431-.587-3.638L601.975,275Z" transform="translate(-576.108 -275.005)" fill="#ff9f9f"/></g><g transform="translate(74.268 19.958)"><path d="M540.908,292.685a11.361,11.361,0,1,1-11.361-11.361A11.361,11.361,0,0,1,540.908,292.685Z" transform="translate(-518.185 -281.324)" fill="#ff645f"/><g clip-path="url(#c)"><g transform="translate(3.378 -1.535)"><path d="M521.049,282.07l7.984,10.85v-12.9Z" transform="translate(-521.049 -280.023)" fill="#29266b"/></g><g transform="translate(11.362 -1.535)"><path d="M542.557,291.691l-14.739,1.228v-12.9l7.779,1.023Z" transform="translate(-527.817 -280.023)" fill="#ff9f9f"/></g></g></g><g transform="translate(21.453 37.768)"><path d="M482.313,300.876a4.452,4.452,0,1,1-4.453-4.453A4.453,4.453,0,0,1,482.313,300.876Z" transform="translate(-473.409 -296.423)" fill="#29266b"/></g><g transform="translate(55.831 148.419)"><rect width="10.77" height="15.003" fill="#2b79e6"/></g><g transform="translate(69.114 132.855)"><rect width="10.77" height="30.567" fill="#ff645f"/></g><g transform="translate(82.398 111.927)"><rect width="10.77" height="51.495" fill="#29266b"/></g><g transform="translate(95.681 123.17)"><rect width="10.77" height="40.251" fill="#ff9f9f"/></g><g transform="translate(108.965 135.752)"><rect width="10.77" height="27.669" fill="#2b79e6"/></g><g transform="translate(138.65 87.7)"><path d="M605.634,338.754l-13.762,14.119-19.105-.282.409,5.527,23.521,2.8s9.651-10.9,10.9-15.191S608.493,338.754,605.634,338.754Z" transform="translate(-572.767 -338.754)" fill="#5b8bf4"/></g></g></g><g transform="translate(819.519 423)"><circle cx="183" cy="183" r="183" fill="#fbb040" opacity="0.79"/><path d="M1148.192,1625.188c0,3.764-76.2,3.4-112.169,3.4s-64.487-.527-65.134-1.579c-2.273-3.7,22.443-6.375,58.416-6.375S1148.192,1622.415,1148.192,1625.188Z" transform="translate(-878.098 -1333.508)" fill="#32323f" opacity="0.18"/><text transform="translate(105 101)" fill="#fff" font-size="39" font-family="MicrosoftJhengHeiBold, Microsoft JhengHei"><tspan x="0" y="0">各項查詢</tspan></text><g transform="translate(87.241 118)"><g transform="translate(0 30.74)"><path d="M1381.962,900.756l7.347,87.361s.77,5.3-3.169,5.3c-6.477.016-32.236,0-32.236,0s4.875-1.1,4.816-3.583c-.07-2.924-8.588-89.91-8.588-89.91Z" transform="translate(-1275.723 -853.217)" fill="#d86713"/><path d="M1336.349,980.386c1.274,0,25.878.081,32.185,0,2.749-.034,3.231-2.444,3.253-4a7.812,7.812,0,0,0-.083-1.3l-.191-2.271-.487-5.787-.43-5.113-.553-6.57-.465-5.546-5.221-62.076-31.831-.826s3.588,36.4,6.125,62.9c.283,2.952.553,5.783.8,8.426q.122,1.265.234,2.472c.235,2.507.45,4.809.638,6.842.1,1.071.19,2.067.272,2.979.324,3.574.514,5.856.516,6.289a3.663,3.663,0,0,1-.062.707C1340.528,980.295,1336.827,980.386,1336.349,980.386Z" transform="translate(-1260.258 -841.766)" fill="#ee9849"/><path d="M768.938,515.784H921.756l-17.9,71.887-2.45,9.845L893.073,631H738.215Z" transform="translate(-738.215 -515.784)" fill="#f1a34f"/><path d="M2040.406,515.783l2.48.827L2015.021,633.5l-3.3-2.5Z" transform="translate(-1856.865 -515.783)" fill="#ee9849"/><path d="M896.374,1465.787H742.469l-4.25-2.5H893.077Z" transform="translate(-738.218 -1348.07)" fill="#d86713"/><rect width="33.323" height="1.584" transform="translate(70.786 138.655)" fill="#f1a34f"/><path d="M1390,1483.845l.172,1.211,31.338,6.331-.43-5.113-.2-2.429Z" transform="translate(-1310.744 -1366.129)" fill="#d86713"/><path d="M1363.963,1584.44c1.274,0,25.878.081,32.185,0,2.749-.034,3.231-2.444,3.254-4l-31.191-5.868c.324,3.574.514,5.856.516,6.289a3.672,3.672,0,0,1-.062.707C1368.142,1584.349,1364.441,1584.44,1363.963,1584.44Z" transform="translate(-1287.872 -1445.82)" fill="#d86713" opacity="0.4"/><path d="M1468.844,1277.047l66.014,22.635,5.637-22.648Z" transform="translate(-1379.999 -1184.466)" fill="#d86713" opacity="0.4"/><path d="M811.761,515.783H964.579l-23.032,92.568-154.581.029Z" transform="translate(-781.038 -515.783)" fill="#f1a34f"/></g><path d="M1340.647,1343.835a5.237,5.237,0,0,1,4.911-4.112,3.291,3.291,0,0,1,3.313,4.112,5.237,5.237,0,0,1-4.911,4.112A3.291,3.291,0,0,1,1340.647,1343.835Z" transform="translate(-1267.323 -1208.792)" fill="#d86713"/><path d="M846.237,640.2H989.321l16.2-64.551,1.242-4.95,1.06-4.222,2.485-9.9H869.29l-2.729,9.9L865.4,570.7l-1.364,4.95Z" transform="translate(-833.101 -520.873)" fill="#e9f3fe"/><path d="M1016.109,556.573h141.022l-2.485,9.9H1013.38Z" transform="translate(-979.92 -520.873)" fill="#a8d29f"/><g transform="translate(160.323 38.937)"><path d="M2128.483,583.191a.935.935,0,0,1,.929,1.238,1.691,1.691,0,0,1-1.546,1.238.935.935,0,0,1-.929-1.238A1.69,1.69,0,0,1,2128.483,583.191Z" transform="translate(-2118.358 -583.191)" fill="#e9f3fe"/><path d="M2094.665,583.191a.935.935,0,0,1,.929,1.238,1.691,1.691,0,0,1-1.546,1.238.935.935,0,0,1-.929-1.238A1.69,1.69,0,0,1,2094.665,583.191Z" transform="translate(-2088.652 -583.191)" fill="#e9f3fe"/><path d="M2056.7,584.429a1.691,1.691,0,0,1,1.546-1.238.935.935,0,0,1,.929,1.238,1.691,1.691,0,0,1-1.546,1.238A.935.935,0,0,1,2056.7,584.429Z" transform="translate(-2056.665 -583.191)" fill="#e9f3fe"/></g><g transform="translate(3.981)"><path d="M1008.719,456.95h-66.8l22.836-92.385h66.8Z" transform="translate(-921.131 -352.213)" fill="#afcdfb"/><path d="M926.665,409.547h-66.8L882.7,317.162h66.8Z" transform="translate(-849.055 -310.575)" fill="#c0d8f9"/><path d="M837.754,355.372h-66.8l22.835-92.385h66.8Z" transform="translate(-770.956 -262.988)" fill="#d4e3f4"/><path d="M1031.98,364.565l-21.135,86.068-55.533.552,57.21,1.258Z" transform="translate(-932.895 -352.213)" fill="#699dee"/><path d="M948.365,317.162l-20.078,85.245-55.533.553,56.475,1.4Z" transform="translate(-860.375 -310.575)" fill="#699dee"/><path d="M956.477,356.758H937.8l5.848-23.467h18.681Z" transform="translate(-917.508 -324.742)" fill="#e9f3fe"/><path d="M1200.369,336.533H1166.9l.823-3.242h33.471Z" transform="translate(-1118.752 -324.742)" fill="#afcdfb"/><path d="M1187.954,391.272h-33.471l.823-3.242h33.471Z" transform="translate(-1107.846 -372.825)" fill="#afcdfb"/><path d="M1174.975,446.011H1141.5l.823-3.242H1175.8Z" transform="translate(-1096.445 -420.908)" fill="#afcdfb"/><path d="M1159.738,500.75h-33.471l.823-3.242h33.471Z" transform="translate(-1083.061 -468.99)" fill="#afcdfb"/><path d="M958.915,557.746H897.644l.823-3.242h61.271Z" transform="translate(-882.239 -519.056)" fill="#afcdfb"/><path d="M945.464,614.743H884.193l.823-3.242h61.271Z" transform="translate(-870.423 -569.121)" fill="#afcdfb"/><path d="M926.842,678.928H865.57l.824-3.242h61.271Z" transform="translate(-854.065 -625.502)" fill="#afcdfb"/><path d="M909.912,734.348H848.641l.823-3.242h61.271Z" transform="translate(-839.194 -674.183)" fill="#afcdfb"/><g transform="translate(20.288 8.549)"><g clip-path="url(#d)"><g transform="translate(1.132 1.996)"><path d="M1100.6,542.76s1.1-.5,1.523-.347,1.588.653,1.562,1.155-1.888,1.058-3.131.45S1100.6,542.76,1100.6,542.76Z" transform="translate(-1081.414 -518.954)" fill="#e49963"/><path d="M1052.409,448.81a.741.741,0,0,1-.078.174c-.369.594-6.441.624-7.135.125-.31-.223-.4-3.3-.414-6.624-.012-4.115.105-8.623.105-8.623s2.376,1.1,2.492,2.46-.883,9.513-.189,10.011,3.895.563,4.963.877A2.83,2.83,0,0,1,1052.409,448.81Z" transform="translate(-1032.903 -423.628)" fill="#a8d2a0"/><path d="M1016.256,350.58a2.3,2.3,0,0,0-1.531-.5.741.741,0,0,1,.351-.114,2.455,2.455,0,0,0-.9.114s-2.122-1.458-3.561,1.389c0,0,.21-.2.493-.425-.831,1.638-.552,4.314,1.3,5.024C1013.62,356.527,1020.514,355.014,1016.256,350.58Z" transform="translate(-1002.893 -349.703)" fill="#163560"/><path d="M1021.872,409.978a3.477,3.477,0,0,1-2.165.112,2.766,2.766,0,0,1-1.233-1.533c.373-.025.543-.511.813-2.66l.16.054,2.694.906s-.176.862-.284,1.681C1021.766,409.226,1021.723,409.884,1021.872,409.978Z" transform="translate(-1009.795 -399.064)" fill="#e49963"/><path d="M1029.176,407.244s-.176.862-.284,1.681a3.307,3.307,0,0,1-2.41-2.587Z" transform="translate(-1016.829 -399.451)" fill="#d68d5d"/><path d="M1019.409,363.848a8.2,8.2,0,0,1-.7-2.507c-.037-.8.737-3.647,3.6-2.852a3.989,3.989,0,0,1,1.561.833c.577.509,1.37,1.55.022,3.947l-.376.82Z" transform="translate(-1010.003 -357.299)" fill="#163560"/><path d="M1027.555,374.431s-3.668-.414-3.375-2.694.017-3.87,2.371-3.7,2.7,1.1,2.784,1.881S1028.516,374.48,1027.555,374.431Z" transform="translate(-1014.792 -365.795)" fill="#e49963"/><path d="M1054.028,461.178c-.031-.268.543-.392.647-.143a5.016,5.016,0,0,1,.218,1.467,9.214,9.214,0,0,1-.382,2.946Z" transform="translate(-1041.024 -447.379)" fill="#82b479"/><path d="M1021.6,365.572c-.476-.758-.922-.664-1.189-.49-.638-1.284-3.359.1-3.359.1a4.391,4.391,0,0,1-1.758,2.388,3.053,3.053,0,0,0,2.2.3c1.251-.154,2.352-1.763,2.765-2.442a2.925,2.925,0,0,1,.675,1.184c.107.6.034,1.81.388,1.815C1021.322,368.43,1022.312,366.71,1021.6,365.572Z" transform="translate(-1006.999 -362.732)" fill="#163560"/><path d="M1046.837,407.841s.031.3.757.347c0,0,.61.041.633-.28A1.963,1.963,0,0,0,1046.837,407.841Z" transform="translate(-1034.709 -400.693)" fill="#fff"/><path d="M1053.787,505.975a.747.747,0,0,1-.078.174c-.369.594-6.441.624-7.135.125-.31-.223-.41-4.04.444-7.333.2,1.973-.168,5.917.864,6.238C1049.054,505.545,1052.25,505.552,1053.787,505.975Z" transform="translate(-1034.281 -480.794)" fill="#82b479"/><path d="M960.793,436.51c-2.411,6.959-1.312,8.218-2.173,8.821,0,0-.723.209-.728.212-.894.592-.8-.254-3.471.513a41.187,41.187,0,0,1-4.3,1.091,8.458,8.458,0,0,1-1.451.134c-.824-.01-1.411-.23-1.537-.8-.367-1.667,2.935-5.539,2.621-8.514,0-.025,0-.051-.007-.077a3.19,3.19,0,0,1,.078-.865,18.458,18.458,0,0,1,2.97-5.663,19.182,19.182,0,0,1,2.988-3.607c2.832,2.218,3.305.741,3.305.741S961.615,434.136,960.793,436.51Z" transform="translate(-947.102 -418.258)" fill="#a8d2a0"/><path d="M958.148,482h0c-.894.592-1.061-.185-3.728.582a41.2,41.2,0,0,1-4.3,1.091,8.6,8.6,0,0,0-1.451.134c-.824-.01-1.411-.23-1.537-.8-.367-1.667,2.935-5.539,2.621-8.514,0-.025,0-.051-.007-.077a2.692,2.692,0,0,1,.078-.865c.3-1.2,1.376-2.415,2.645-4.216.588.809,5.816.637,3.683,7.6C955.5,479.059,958.049,480.264,958.148,482Z" transform="translate(-947.102 -454.783)" fill="#82b479"/><path d="M1031.247,576.045a3.823,3.823,0,0,1,1.653.156c.489.277,1.453.947,1.32,1.221s-1.377.269-1.856-.085-.909-.04-1.513-.332S1031.247,576.045,1031.247,576.045Z" transform="translate(-1020.496 -548.498)" fill="#e49963"/><path d="M972.146,427.376s-4.17-.484-5.176,1.428-1.692,9-.877,11.264,6.641,5.937,7.314,6.141,1.242-.8,1.228-.92-5.818-6.21-5.718-6.751S972.146,427.376,972.146,427.376Z" transform="translate(-963.467 -417.883)" fill="#a8d2a0"/></g></g></g></g><g transform="translate(73.394 20.365)"><path d="M2136.558,1576.68l-1.49,6.273-2.231-.013-.082-6.26Z" transform="translate(-2036.573 -1437.301)" fill="#e49963"/><path d="M1967.156,1572.914l-4.238,6.005-1.652-2.121,2.551-4.71Z" transform="translate(-1885.938 -1433.268)" fill="#e49963"/><path d="M2082.839,893.74a4.32,4.32,0,0,1,2.338-.447,1.092,1.092,0,0,0-.493-.234,3.626,3.626,0,0,1,1.294.338c5.568-2.146,6.443,6.053,6.326,7.958s1.871,2.527,4.768,4.027c5.528,2.864,6.014,6.7,6.014,6.7-.043.025-.088.054-.136.087-.274-.465-.839-1.337-1.315-1.469a19.7,19.7,0,0,1,.766,1.865c-1.631,1.24-4.681,3.989-6.807,5.938a3.127,3.127,0,0,0-.145-1.207l-.263,1.582c-1.137,1.046-1.922,1.782-1.922,1.782.141-1.539-6.962-9.662-10.667-12.1a10.709,10.709,0,0,1-1.247-3.859,10.128,10.128,0,0,0,.758,3.491C2078.971,905.307,2080.8,894.9,2082.839,893.74Z" transform="translate(-1990.602 -836.792)" fill="#163560"/><path d="M2100.118,982.052a5.132,5.132,0,0,0,3.148.575,4.083,4.083,0,0,0,2.1-2.011c-.542-.107-.7-.852-.686-4.05l-.245.048-4.117.815s.094,1.3.1,2.516C2100.415,980.971,2100.353,981.943,2100.118,982.052Z" transform="translate(-2007.904 -910.161)" fill="#e49963"/><path d="M2101.744,977.778s.093,1.3.1,2.516c2.3-.065,3.521-2.167,4.021-3.331Z" transform="translate(-2009.333 -910.509)" fill="#d68d5d"/><path d="M2087.556,912.169a12.109,12.109,0,0,0,1.5-3.539c.207-1.165-.386-5.481-4.724-4.859a5.891,5.891,0,0,0-2.444.924c-.942.636-2.3,2.009-.781,5.776l.395,1.272Z" transform="translate(-1990.603 -846.164)" fill="#163560"/><path d="M1966.8,1256.174l2.182.067,2.362.072a46.63,46.63,0,0,0,8.517-15.813q.107-.339.226-.687c1.675-4.884,5.148-11.015,6.978-16.564.291-.884.553-1.716.787-2.5.075-.252.148-.5.218-.744a58.843,58.843,0,0,0,2.1-11.049l-13.214.106A246.306,246.306,0,0,1,1966.8,1256.174Z" transform="translate(-1890.795 -1114.289)" fill="#2b478b"/><path d="M2051.693,1023.679c.033,6.288-.922,8.986-.922,8.986a17.755,17.755,0,0,0,12.382.759c.079-.025,5.057-1.024,5.057-1.024-.113-.254-1.486-4.6-1.6-4.838a18.682,18.682,0,0,1-1.783-5.464,19.926,19.926,0,0,1-.164-5.268,42.259,42.259,0,0,1,1.631-8.273,42.935,42.935,0,0,1-5.455-1.864,4.261,4.261,0,0,1-2.943,1.091c-1.339-.029-1.774-.6-1.7-1.229-1.427.794-2.566,1.545-2.566,1.545-1.213,2.107-3.673,4.153-3.852,7.386C2049.734,1016.28,2051.692,1023.5,2051.693,1023.679Z" transform="translate(-1963.686 -936.503)" fill="#e7f1fd"/><path d="M1921.559,1014.338c1.94-2.266,6.966-7.18,12.152-7.783l-4.475,8.718a3.857,3.857,0,0,1-1.577,2.365,25.968,25.968,0,0,1-7.373,3.076,38.744,38.744,0,0,1-6.616-4.019c-1.2-.879-3.307-4.23-3.307-4.23l.568-1.9s3.578,2,4.856,2.578c.729.329,2.405,1.114,3.587,1.669A1.844,1.844,0,0,0,1921.559,1014.338Z" transform="translate(-1841.224 -936.503)" fill="#699dee"/><path d="M2082.3,926.73s5.451.09,5.455-3.305.71-5.671-2.77-5.871-4.158,1.094-4.435,2.227S2080.884,926.619,2082.3,926.73Z" transform="translate(-1990.661 -858.305)" fill="#e49963"/><path d="M2097.076,912.034s1.492,3.984,3.783,4.573,3.284-.025,3.284-.025a6.486,6.486,0,0,1-2.121-3.832S2098.2,910.138,2097.076,912.034Z" transform="translate(-2005.232 -852.869)" fill="#163560"/><path d="M2080.181,914.986a4.814,4.814,0,0,0-1.386,1.754c-.272.865-.394,2.644-.913,2.584,0,0-1.125-2.708.139-4.239C2079.361,913.461,2080.181,914.986,2080.181,914.986Z" transform="translate(-1987.967 -855.498)" fill="#163560"/><path d="M1880.768,1022.062a3.4,3.4,0,0,0-3.813-2.378c-.349.109-1.37.516-.718,1.609.481.806.689.39,1.446,1.473a2.412,2.412,0,0,0,2.516,1.2Z" transform="translate(-1811.06 -948.002)" fill="#e49963"/><path d="M2131.544,1625.383a6.046,6.046,0,0,0,.284,2.572s.365,1.664-1.273,1.695-2.041-.124-1.855-1.144.538-2.784.538-2.784Z" transform="translate(-2032.974 -1480.082)" fill="#e49963"/><path d="M2127.719,1648.631s.035.022.1.054h3.207a.793.793,0,0,0,.091-.054,8.055,8.055,0,0,0-.117-2.406c-1.856,1.7-3.017-.042-3.017-.042A8.688,8.688,0,0,0,2127.719,1648.631Z" transform="translate(-2032.148 -1498.352)" fill="#d86713"/><path d="M1928.786,1615.886a41.014,41.014,0,0,0,3.949-5.059l2.246,1.151-5.021,4.715-1.175-.154Z" transform="translate(-1857.406 -1467.295)" fill="#e49963"/><path d="M1913.383,1625.94h4.134a5.876,5.876,0,0,0,1.232-1.911,2.027,2.027,0,0,1,1.368-.914v2.792h.857l.812-2.968a2.733,2.733,0,0,0-.334-2.651c-.437,0-1.615.3-3.847,2.813a2.925,2.925,0,0,1-2.348,1.1.2.2,0,0,1-.033.017A3,3,0,0,0,1913.383,1625.94Z" transform="translate(-1843.876 -1475.607)" fill="#d86713"/><path d="M2042.931,1006.555s-3.154,7.791-3.246,9.368-.371,25.784-.371,25.784.186,1.113-1.948.649a7.165,7.165,0,0,1-2.69-.928s2.041-14.932,1.484-20.126,4.266-13.665,4.266-13.665Z" transform="translate(-1950.421 -936.503)" fill="#699dee"/><path d="M1984.744,1325.39l2.362.072a46.625,46.625,0,0,0,8.517-15.813q.107-.34.226-.687c1.675-4.884,5.147-11.015,6.978-16.564.291-.884.552-1.716.787-2.5.075-.252.148-.5.218-.744l-1.946-1.476s-5.842,9.46-7.651,18.363C1992.664,1313.77,1986.372,1323.076,1984.744,1325.39Z" transform="translate(-1906.56 -1183.438)" fill="#233862"/><path d="M2114.668,1288.73c-.033,4.329.186,14.283.75,18.4h2.093c1.156,0,1.734-.017,1.734-.017,1.414-7.165,2.421-13.093,3.153-18.2.6-4.192,1.135-7.786,1.546-10.88.414-3.114.7-5.721.8-7.923.015-.347.028-.684.034-1.012s.009-.649.006-.96l-11.417-1.113C2113.514,1274.613,2114.687,1286.214,2114.668,1288.73Z" transform="translate(-2019.545 -1165.302)" fill="#2b478b"/><path d="M2147.418,1329.418c1.156,0,1.733-.017,1.733-.017,1.414-7.165,2.421-13.093,3.154-18.2.6-4.192,1.135-7.786,1.546-10.88.414-3.114.7-5.721.8-7.923l-4.19,2.464s2.674.943,1.654,8.085S2148.838,1328.407,2147.418,1329.418Z" transform="translate(-2049.453 -1187.586)" fill="#233862"/><path d="M2114.8,1042.39s.8,2.906,3.586,2.535a33.551,33.551,0,0,0,6.739-2.04s-1.189-3.757-2.667-8.693c-1.79-5.976-4.006-13.679-5.05-18.538a29.97,29.97,0,0,1-.568-3.313l-2.309-4.479s-3.442,7.725-3.627,9.673S2114.8,1042.39,2114.8,1042.39Z" transform="translate(-2017.375 -937.65)" fill="#699dee"/><path d="M2143.981,1077.9c.124,3.153.866,9.275,7.482,12.551.018.008.035.018.053.025-1.79-5.976-4.006-13.679-5.05-18.538C2145.251,1073.754,2143.913,1076.164,2143.981,1077.9Z" transform="translate(-2046.432 -993.935)" fill="#4a75cb"/><g transform="translate(0 0)"><rect width="2.951" height="11.734" transform="translate(58.258 60.345) rotate(-45)" fill="#2b478b"/><rect width="8.363" height="64.756" rx="4.182" transform="translate(63.162 69.075) rotate(-45)" fill="#c65447"/><path d="M1351.946,440.631a34.7,34.7,0,1,0,49.077,0A34.7,34.7,0,0,0,1351.946,440.631ZM1398.319,487a30.879,30.879,0,1,1,0-43.67A30.879,30.879,0,0,1,1398.319,487Z" transform="translate(-1341.782 -430.467)" fill="#c65447"/></g><path d="M2088.144,1017.243l-3.047-9.382a46.957,46.957,0,0,1,5.78,2.118,13.448,13.448,0,0,1,1.954,5.147s.79,8.621-.973,11.775c0,0-5.565,1.113-14.469-1.948v-2.04s9.739.51,11.733.742Z" transform="translate(-1987.94 -937.65)" fill="#e49963"/><path d="M2138.419,1007.861s5.648.4,7.008,3.428,1.793,13.108.062,16.076a15.763,15.763,0,0,1-6.6-.109l-.156-.03s-1.345-3.293-.139-3.942c0,0,3.555.185,3.184-.99S2138.419,1007.861,2138.419,1007.861Z" transform="translate(-2041.262 -937.65)" fill="#699dee"/><path d="M2050.416,1108.159a4.865,4.865,0,0,1-.941-1.9,2.066,2.066,0,0,0-2.018-1.848c-1.339-.176-1.915-.195-1.911.182a9.995,9.995,0,0,0,3.016,4.587C2050.483,1110.754,2050.416,1108.159,2050.416,1108.159Z" transform="translate(-1959.968 -1022.354)" fill="#e49963"/></g><g transform="translate(77.237 23.982)"><path d="M1440.875,486.34,1399.519,527.7a30.864,30.864,0,0,0,2.308,3.918l42.965-42.965A30.861,30.861,0,0,0,1440.875,486.34Z" transform="translate(-1396.342 -483.163)" fill="#fff" opacity="0.4"/><path d="M1415.086,462.161a30.9,30.9,0,0,0-39.747,39.747Z" transform="translate(-1373.389 -460.211)" fill="#fff" opacity="0.4"/><path d="M1514.847,643.037a30.888,30.888,0,0,0,41.368-41.368Z" transform="translate(-1497.646 -584.468)" fill="#fff" opacity="0.4"/></g></g></g></g></svg>