<svg xmlns="http://www.w3.org/2000/svg" width="1617.28" height="146.427" viewBox="0 0 1617.28 146.427"><defs><style>.a,.c{fill:#e5ebed;}.b{fill:#f0fce8;}.c{opacity:0.36;}</style></defs><g transform="translate(-170.534 -27.25)"><g transform="translate(1265 27.25)"><path class="a" d="M2584.867,293.924c-5.736-8.729-3.919-17.731,0-19.852,3.431-1.857,10.139.657,14.889,6.948.4-11.022,7.175-18.1,12.9-17.867,4.443.177,7.624,4.72,8.437,5.956,2.32-5.174,8.379-16.753,21.341-24.319,11.946-6.973,35.358-13.809,48.637-.5,11.083,11.112,7.951,29.085,7.444,31.763,17.03-6.516,30.464-5.541,33.252,0s-5.36,15.063-6.948,16.874c31.081,2.969,49.708,5.54,49.63,7.444-.259,6.273-203.428,6.336-203.813-1.955C2570.583,297.215,2574.8,295.739,2584.867,293.924Z" transform="translate(-2570.639 -236.699)"/><path class="b" d="M2691.572,361.156c-1.355-.651-.683-10.291,5.956-14.889,5.031-3.484,10.948-2.315,12.407-1.985.312-1.11,2.408-8.135,9.43-11.415a18.225,18.225,0,0,1,19.355,2.978c-1.506-.305-10.621-2-18.363,3.971a21.789,21.789,0,0,0-6.948,9.429,21.214,21.214,0,0,0-9.926,1.489C2695.455,354.13,2692.853,361.771,2691.572,361.156Z" transform="translate(-2646.077 -295.991)"/><path class="b" d="M2642.437,244.8c-12.961,7.566-19.02,19.144-21.34,24.319-.813-1.236-3.994-5.779-8.437-5.956-5.729-.228-12.5,6.845-12.9,17.867-4.75-6.292-11.458-8.805-14.889-6.948-3.918,2.121-5.736,11.123,0,19.852-10.063,1.816-14.284,3.292-14.228,4.5.054,1.174,4.177,2.18,11.208,3.024,2.14-2.122,4.645-4.321,8.48-4.543a12.586,12.586,0,0,1,6.452,1.489c-5.478-6.5-8.534-12.547-6.948-14.393,1.656-1.927,8.653.407,16.874,5.956a11.306,11.306,0,0,1,1.985-12.9c3.943-3.849,10.737-4.052,15.385,0a59.039,59.039,0,0,1,17.371-22.334c16.4-12.735,35.844-13.067,48.617-11.368C2676.635,231.34,2654.086,238,2642.437,244.8Z" transform="translate(-2570.639 -236.709)"/><path class="b" d="M2762.72,296.985c-.914-.033-3.72-8.6.5-13.4,3.492-3.973,11.1-4.558,17.371,0-4.818-.358-10.9.027-14.393,3.97C2762.737,291.461,2763.458,297.012,2762.72,296.985Z" transform="translate(-2689.928 -264.079)"/><path class="b" d="M2722.826,332.89c-.915-.033-3.72-8.6.5-13.4,3.492-3.973,11.1-4.558,17.371,0-4.819-.358-10.9.027-14.393,3.97C2722.843,327.366,2723.564,332.917,2722.826,332.89Z" transform="translate(-2664.923 -286.584)"/></g><g transform="translate(883.131 45.016)"><path class="a" d="M1416.124,190.636c-1.178-4.322,13.731-13.718,28.315-15.927a47.744,47.744,0,0,1,30.675,5.9c-5.012-20.506,5.477-36.756,14.929-38.132,8.763-1.275,21.775,9.486,25.184,27.514a67.355,67.355,0,0,1,18.877-25.955c20.2-16.78,55.973-24.95,70.788-8.259,1.764,1.987,9.4,11.28,5.9,31.855,9.318-10.21,23.209-12.734,33.034-7.079,7.832,4.508,13.912,14.693,11.208,21.236-3.536,8.559-21.316,9-37.8,9.407a140.687,140.687,0,0,1-16.471-.558,225.421,225.421,0,0,1-73.148,5.309c-7.491-.7-14.573-1.749-21.215-3.03-5.325-.176-13.318-.4-23.028-.509C1434.6,191.857,1417.324,195.04,1416.124,190.636Z" transform="translate(-1416.058 -126.625)"/><path class="b" d="M1610.544,147.333a26.544,26.544,0,0,0-5.652-11.558c-14.816-16.691-50.59-8.521-70.788,8.259a67.352,67.352,0,0,0-18.877,25.955c-3.41-18.028-16.421-28.789-25.184-27.514-9.452,1.376-19.941,17.626-14.929,38.132a47.744,47.744,0,0,0-30.675-5.9c-14.584,2.21-29.493,11.606-28.315,15.927.393,1.442,2.524,2.068,6.906,2.28a97.732,97.732,0,0,1,9.611-6.41c7.88-4.618,14.427-8.455,23.006-8.848,11.141-.512,19.915,5.047,24.186,8.258-3.1-13.093,1.058-24.883,7.669-27.725,7.795-3.351,22.924,4.048,28.315,21.826,2.783-7,10.624-23.783,28.905-34.8,4.438-2.675,29.724-17.919,53.681-6.489A44.521,44.521,0,0,1,1610.544,147.333Z" transform="translate(-1416.058 -126.625)"/><path class="b" d="M1878.958,199.4c-9.825-5.655-23.716-3.131-33.034,7.079a63.891,63.891,0,0,0,.805-6.972c-5.639,7.527-8.927,14.609-7.885,15.82,1.448,1.68,10.62-8.667,26.545-10.028a46.116,46.116,0,0,1,23.439,4.584A26.3,26.3,0,0,0,1878.958,199.4Z" transform="translate(-1651.192 -165.474)"/><path class="b" d="M1684.152,235.121c-2.109-1.144-.8-14.793,8.069-19.731,7.348-4.09,18.5-1.431,25.956,7.669a24.823,24.823,0,0,0-14.747-1.77C1691.457,223.875,1686.323,236.3,1684.152,235.121Z" transform="translate(-1564.737 -174.975)"/></g><path class="c" d="M2192.992,196.026c182.928-1.2,314.069,4.046,314.14,1.229.045-1.8-53.741-2.387-141.7-15.77-8.821-1.342-16.154-2.535-21.262-3.383a75.085,75.085,0,0,0-19.939-6.047,76.008,76.008,0,0,0-32.3,2.007,56.862,56.862,0,0,0-18.17-6.06,57.7,57.7,0,0,0-28.294,2.863,38.211,38.211,0,0,0-17.341-9.606c-23.33-5.527-42.363,15.259-43.24,16.246-43.867,5.258-92.181,11.841-91.911,15.719C2093.253,197.139,2142.933,196.355,2192.992,196.026Z" transform="translate(-782.958 -102.664)"/><g transform="translate(691.979 117.915)"><path class="a" d="M1095.548,405.52c-1.819-5.341,5.121-14.761,11.227-14.51,4.15.17,7.139,5.475,8.366,7.972,3.282-8.907,13.63-33.395,35.94-40.367,2.531-.791,19.008-5.94,24.073,1.343,3.381,4.862-.125,12.67-1.124,14.748,2.538-7.062,9.8-9.713,14.172-7.443,3.089,1.606,4.9,5.763,4.425,10.212,8.056-2.232,16.306.134,20.855,5.933a18.447,18.447,0,0,1,3.593,12.526c39.1,4.786,47.318,6.992,47.237,8.12-.178,2.456-39.836,1.7-44.214,1.612-30.58-.586-53.822-3.043-53.976-1.77-.15,1.241,21.913,3.943,21.759,6.066-.143,1.973-19.372,1.951-36.507,1.9C1100,411.694,1096.42,408.079,1095.548,405.52Z" transform="translate(-1095.253 -356.111)"/><path class="b" d="M1140.691,371.747c5.981-3.6,14.958-9.013,23.448-5.309,7.04,3.072,9.8,10.69,10.618,13.273a20.428,20.428,0,0,1,9.733-7.079,19.547,19.547,0,0,1,7.469-.962,8.193,8.193,0,0,0-3.677-4.406c-4-2.079-10.416-.021-13.421,5.759,1.308-3.178,3.13-9.1.373-13.064-5.065-7.283-21.542-2.135-24.073-1.343-22.311,6.972-32.658,31.46-35.94,40.367-1.227-2.5-4.216-7.8-8.366-7.972-5.679-.233-12.838,9.178-11.227,14.51a4.662,4.662,0,0,0,1.522,2.249c.531-2.6,1.267-5.416,3.721-6.821,3.938-2.254,9.855.515,14.6,3.539C1118.371,396.283,1125.264,381.043,1140.691,371.747Z" transform="translate(-1095.334 -356.111)"/><path class="b" d="M1179.423,436.823a8.8,8.8,0,0,1,14.453-10.028c.432-6.483,4.828-11.66,10.323-12.683,5.634-1.048,10.024,2.718,10.618,3.244a20.139,20.139,0,0,1,26.251.295c-3.5-1-11.939-2.843-20.352,1.18A24.931,24.931,0,0,0,1216,421.78a12.7,12.7,0,0,0-9.734-2.655c-4.964.881-9.009,5.111-10.028,10.618a9.381,9.381,0,0,0-16.812,7.079Z" transform="translate(-1141.293 -387.562)"/></g><g transform="translate(170.534 48.673)"><path class="a" d="M259.9,201.315c-1.231-5.287,7.706-14.7,16.439-15.4,6.654-.531,12.178,4.079,14.832,6.682,2.89-8.006,9.6-22.444,24.417-31.6,6.333-3.914,15.561-9.616,24.25-5.769,8.552,3.786,10.924,14.316,11.338,16.31,2.735-4.721,17.2-28.635,43.607-32.409,6.013-.859,25.675-3.669,35.057,9.305,7.578,10.48,3.416,24.3,2.67,26.647,4.155-3.256,16.776-12.261,31.291-9.407,3.93.773,11.275,2.218,13.273,7.964,1.538,4.426-.589,9.984-5.143,14.241,21.64,4.342,47.757,10.259,47.352,13.942-.472,4.279-36.364,2.132-93.885,2.338C315.515,204.557,262.629,213.054,259.9,201.315Z" transform="translate(-259.782 -138.273)"/><path class="b" d="M394.778,139.146c-26.4,3.774-40.872,27.688-43.607,32.409-.414-1.994-2.787-12.524-11.338-16.31-8.689-3.847-17.917,1.855-24.25,5.769-14.815,9.155-21.527,23.593-24.417,31.6-2.654-2.6-8.178-7.213-14.832-6.682-8.733.7-17.67,10.111-16.439,15.4a3.969,3.969,0,0,0,.333.861,21.543,21.543,0,0,1,9.786-8.183c7.706-3,16.064-.28,22.121,2.655,1.07-14.708,11.265-26.9,24.776-30.085,11.259-2.652,23.308,1.311,31.412,10.176a81.2,81.2,0,0,1,76.981-32.869C415.165,136.259,399.943,138.408,394.778,139.146Z" transform="translate(-259.782 -138.287)"/><path class="b" d="M390.28,237.963c-.928-.772,1.026-6.67,5.309-8.848,4.549-2.313,11.249-.188,16.812,5.309a16.493,16.493,0,0,1,13.272-10.618c8.6-1.1,14.2,5.285,14.6,5.751,1.78-2.473,8.355-10.967,19.909-13.272,12.656-2.525,26.2,3.39,34.509,15.042-.59-.628-13.955-14.37-31.855-10.176-12.682,2.972-19.068,12.939-20.351,15.042-.621-.57-8.218-7.308-18.14-4.867a20.044,20.044,0,0,0-11.945,8.848c-3.512-3.664-8.245-7.3-13.273-6.636C394.183,234.191,391.177,238.709,390.28,237.963Z" transform="translate(-332.265 -181.358)"/></g><g transform="translate(1584 90.551)"><path class="a" d="M2584.867,293.924c-5.736-8.729-3.919-17.731,0-19.852,3.431-1.857,10.139.657,14.889,6.948.4-11.022,7.175-18.1,12.9-17.867,4.443.177,7.624,4.72,8.437,5.956,2.32-5.174,8.379-16.753,21.341-24.319,11.946-6.973,35.358-13.809,48.637-.5,11.083,11.112,7.951,29.085,7.444,31.763,17.03-6.516,30.464-5.541,33.252,0s-5.36,15.063-6.948,16.874c31.081,2.969,49.708,5.54,49.63,7.444-.259,6.273-203.428,6.336-203.813-1.955C2570.583,297.215,2574.8,295.739,2584.867,293.924Z" transform="translate(-2570.639 -236.699)"/><path class="b" d="M2691.572,361.156c-1.355-.651-.683-10.291,5.956-14.889,5.031-3.484,10.948-2.315,12.407-1.985.312-1.11,2.408-8.135,9.43-11.415a18.225,18.225,0,0,1,19.355,2.978c-1.506-.305-10.621-2-18.363,3.971a21.789,21.789,0,0,0-6.948,9.429,21.214,21.214,0,0,0-9.926,1.489C2695.455,354.13,2692.853,361.771,2691.572,361.156Z" transform="translate(-2646.077 -295.991)"/><path class="b" d="M2642.437,244.8c-12.961,7.566-19.02,19.144-21.34,24.319-.813-1.236-3.994-5.779-8.437-5.956-5.729-.228-12.5,6.845-12.9,17.867-4.75-6.292-11.458-8.805-14.889-6.948-3.918,2.121-5.736,11.123,0,19.852-10.063,1.816-14.284,3.292-14.228,4.5.054,1.174,4.177,2.18,11.208,3.024,2.14-2.122,4.645-4.321,8.48-4.543a12.586,12.586,0,0,1,6.452,1.489c-5.478-6.5-8.534-12.547-6.948-14.393,1.656-1.927,8.653.407,16.874,5.956a11.306,11.306,0,0,1,1.985-12.9c3.943-3.849,10.737-4.052,15.385,0a59.039,59.039,0,0,1,17.371-22.334c16.4-12.735,35.844-13.067,48.617-11.368C2676.635,231.34,2654.086,238,2642.437,244.8Z" transform="translate(-2570.639 -236.709)"/><path class="b" d="M2762.72,296.985c-.914-.033-3.72-8.6.5-13.4,3.492-3.973,11.1-4.558,17.371,0-4.818-.358-10.9.027-14.393,3.97C2762.737,291.461,2763.458,297.012,2762.72,296.985Z" transform="translate(-2689.928 -264.079)"/><path class="b" d="M2722.826,332.89c-.915-.033-3.72-8.6.5-13.4,3.492-3.973,11.1-4.558,17.371,0-4.819-.358-10.9.027-14.393,3.97C2722.843,327.366,2723.564,332.917,2722.826,332.89Z" transform="translate(-2664.923 -286.584)"/></g></g></svg>