<svg xmlns="http://www.w3.org/2000/svg" width="55" height="114.117" viewBox="0 0 55 114.117">
  <defs>
    <style>
      .cls-1 {
        fill: #68b82b;
      }

      .cls-2 {
        fill: #fff;
      }

      .cls-3 {
        fill: #4676ed;
      }
    </style>
  </defs>
  <g id="icon" transform="translate(-1858 -506)">
    <g id="组_2339" data-name="组 2339" transform="translate(1858 565.117)">
      <circle id="椭圆_62" data-name="椭圆 62" class="cls-1" cx="27.5" cy="27.5" r="27.5" transform="translate(0 0)"/>
      <g id="组_2338" data-name="组 2338" transform="translate(8.67 10.869)">
        <g id="FULL_COLOR_ICON" data-name="FULL COLOR ICON">
          <g id="TYPE_A" data-name="TYPE A">
            <g id="组_2337" data-name="组 2337">
              <path id="路径_4740" data-name="路径 4740" class="cls-2" d="M1039.593,642.938c0-8.386-8.407-15.208-18.741-15.208s-18.741,6.822-18.741,15.208c0,7.518,6.667,13.814,15.673,15,.61.132,1.441.4,1.651.924a3.854,3.854,0,0,1,.061,1.695s-.22,1.322-.268,1.6c-.081.474-.376,1.853,1.624,1.01s10.793-6.355,14.724-10.881h0c2.716-2.978,4.017-6,4.017-9.357" transform="translate(-1002.111 -627.73)"/>
              <g id="组_2336" data-name="组 2336" transform="translate(6.148 11.156)">
                <path id="路径_4741" data-name="路径 4741" class="cls-1" d="M1036.321,655.113h-1.314a.365.365,0,0,0-.365.365v8.166a.365.365,0,0,0,.365.364h1.314a.364.364,0,0,0,.365-.364v-8.166a.365.365,0,0,0-.365-.365" transform="translate(-1027.536 -655.113)"/>
                <path id="路径_4742" data-name="路径 4742" class="cls-1" d="M1050.2,655.113h-1.314a.365.365,0,0,0-.365.365v4.851l-3.742-5.053a.4.4,0,0,0-.028-.037l0,0-.022-.022-.007-.006-.02-.016-.009-.007-.019-.013-.011-.006-.02-.011-.011-.006-.021-.009-.012,0-.022-.007-.013,0-.021,0-.015,0-.02,0h-1.346a.365.365,0,0,0-.365.365v8.166a.365.365,0,0,0,.365.364h1.315a.364.364,0,0,0,.365-.364v-4.85l3.747,5.06a.356.356,0,0,0,.093.09l0,0,.022.014.01.006.018.008.018.008.011,0,.025.008h.006a.347.347,0,0,0,.093.013h1.314a.365.365,0,0,0,.365-.364v-8.166a.365.365,0,0,0-.365-.365" transform="translate(-1032.369 -655.113)"/>
                <path id="路径_4743" data-name="路径 4743" class="cls-1" d="M1022.818,661.963h-3.572v-6.485a.365.365,0,0,0-.365-.365h-1.315a.365.365,0,0,0-.365.365v8.165h0a.362.362,0,0,0,.1.252l.005.006.005,0a.361.361,0,0,0,.252.1h5.252a.365.365,0,0,0,.364-.365v-1.315a.365.365,0,0,0-.364-.365" transform="translate(-1017.201 -655.113)"/>
                <path id="路径_4744" data-name="路径 4744" class="cls-1" d="M1070.623,657.158a.365.365,0,0,0,.364-.365v-1.314a.365.365,0,0,0-.364-.365h-5.252a.364.364,0,0,0-.253.1l0,0-.006.007a.363.363,0,0,0-.1.251h0v8.164h0a.364.364,0,0,0,.1.252l.005.005.005,0a.361.361,0,0,0,.252.1h5.252a.365.365,0,0,0,.364-.365v-1.314a.365.365,0,0,0-.364-.365h-3.572v-1.38h3.572a.364.364,0,0,0,.364-.365V658.9a.365.365,0,0,0-.364-.365h-3.572v-1.38Z" transform="translate(-1045.53 -655.113)"/>
              </g>
            </g>
          </g>
        </g>
      </g>
    </g>
    <g id="组_2340" data-name="组 2340" transform="translate(1858 506)">
      <path id="路径_4745" data-name="路径 4745" class="cls-3" d="M139.17,235.446a27.5,27.5,0,1,0-31.8,27.166V243.4h-6.983v-7.949h6.983v-6.059c0-6.892,4.105-10.7,10.387-10.7a42.3,42.3,0,0,1,6.156.537v6.768h-3.468c-3.416,0-4.481,2.12-4.481,4.294v5.159h7.627l-1.219,7.949h-6.408v19.217A27.507,27.507,0,0,0,139.17,235.446Z" transform="translate(-84.17 -207.946)"/>
      <path id="路径_4746" data-name="路径 4746" class="cls-2" d="M145.968,259.02l1.219-7.949H139.56v-5.159c0-2.175,1.065-4.294,4.481-4.294h3.468V234.85a42.3,42.3,0,0,0-6.156-.537c-6.282,0-10.387,3.807-10.387,10.7v6.059h-6.983v7.949h6.983v19.217a27.8,27.8,0,0,0,8.594,0V259.02Z" transform="translate(-107.763 -223.571)"/>
    </g>
  </g>
</svg>
